  0
SECTION
  2
BLOCKS
  0
ENDSEC
  0
SECTION
  2
ENTITIES
  0
LINE
  8
0
 10
57.8977
 20
-50.7518
 11
58.5149
 21
-50.6364
  0
LINE
  8
0
 10
58.5149
 20
-50.6364
 11
59.1128
 21
-50.4445
  0
LINE
  8
0
 10
59.1128
 20
-50.4445
 11
59.6819
 21
-50.1792
  0
LINE
  8
0
 10
59.6819
 20
-50.1792
 11
60.2133
 21
-49.8447
  0
LINE
  8
0
 10
60.2133
 20
-49.8447
 11
60.6985
 21
-49.4462
  0
LINE
  8
0
 10
60.6985
 20
-49.4462
 11
61.13
 21
-48.99
  0
LINE
  8
0
 10
61.13
 20
-48.99
 11
61.5009
 21
-48.4834
  0
LINE
  8
0
 10
61.5009
 20
-48.4834
 11
61.8054
 21
-47.9342
  0
LINE
  8
0
 10
61.8054
 20
-47.9342
 11
61.966
 21
-47.557
  0
LINE
  8
0
 10
61.966
 20
-47.557
 11
69.8252
 21
-26.7666
  0
LINE
  8
0
 10
69.8252
 20
-26.7666
 11
79.4238
 21
-12.6995
  0
LINE
  8
0
 10
79.4238
 20
-12.6995
 11
96.1508
 21
1.75931
  0
LINE
  8
0
 10
96.1508
 20
1.75931
 11
96.5991
 21
2.19894
  0
LINE
  8
0
 10
96.5991
 20
2.19894
 11
96.9887
 21
2.6913
  0
LINE
  8
0
 10
96.9887
 20
2.6913
 11
97.3136
 21
3.22862
  0
LINE
  8
0
 10
97.3136
 20
3.22862
 11
97.5686
 21
3.80241
  0
LINE
  8
0
 10
97.5686
 20
3.80241
 11
97.7497
 21
4.40366
  0
LINE
  8
0
 10
97.7497
 20
4.40366
 11
97.854
 21
5.02284
  0
LINE
  8
0
 10
97.854
 20
5.02284
 11
97.8798
 21
5.65021
  0
LINE
  8
0
 10
97.8798
 20
5.65021
 11
97.8268
 21
6.27588
  0
LINE
  8
0
 10
97.8268
 20
6.27588
 11
97.6959
 21
6.88997
  0
LINE
  8
0
 10
97.6959
 20
6.88997
 11
97.489
 21
7.4828
  0
LINE
  8
0
 10
97.489
 20
7.4828
 11
97.2094
 21
8.04503
  0
LINE
  8
0
 10
97.2094
 20
8.04503
 11
96.8615
 21
8.56778
  0
LINE
  8
0
 10
96.8615
 20
8.56778
 11
96.5392
 21
8.95045
  0
LINE
  8
0
 10
96.5392
 20
8.95045
 11
89.6382
 21
16.3571
  0
LINE
  8
0
 10
89.6382
 20
16.3571
 11
125.486
 21
25.9624
  0
LINE
  8
0
 10
125.486
 20
25.9624
 11
135.327
 21
20.2808
  0
LINE
  8
0
 10
135.327
 20
20.2808
 11
135.89
 21
20.0016
  0
LINE
  8
0
 10
135.89
 20
20.0016
 11
136.483
 21
19.7951
  0
LINE
  8
0
 10
136.483
 20
19.7951
 11
137.097
 21
19.6646
  0
LINE
  8
0
 10
137.097
 20
19.6646
 11
137.722
 21
19.6121
  0
LINE
  8
0
 10
137.722
 20
19.6121
 11
138.35
 21
19.6384
  0
LINE
  8
0
 10
138.35
 20
19.6384
 11
138.969
 21
19.7431
  0
LINE
  8
0
 10
138.969
 20
19.7431
 11
139.395
 21
19.8631
  0
LINE
  8
0
 10
139.395
 20
19.8631
 11
171.02
 21
30.3041
  0
LINE
  8
0
 10
171.02
 20
30.3041
 11
171.602
 21
30.538
  0
LINE
  8
0
 10
171.602
 20
30.538
 11
172.151
 21
30.843
  0
LINE
  8
0
 10
172.151
 20
30.843
 11
172.657
 21
31.2145
  0
LINE
  8
0
 10
172.657
 20
31.2145
 11
173.113
 21
31.6465
  0
LINE
  8
0
 10
173.113
 20
31.6465
 11
173.511
 21
32.1322
  0
LINE
  8
0
 10
173.511
 20
32.1322
 11
173.799
 21
32.5808
  0
LINE
  8
0
 10
173.799
 20
32.5808
 11
186.992
 21
55.7858
  0
LINE
  8
0
 10
186.992
 20
55.7858
 11
187.267
 21
56.35
  0
LINE
  8
0
 10
187.267
 20
56.35
 11
187.47
 21
56.9444
  0
LINE
  8
0
 10
187.47
 20
56.9444
 11
187.596
 21
57.5594
  0
LINE
  8
0
 10
187.596
 20
57.5594
 11
187.644
 21
58.1854
  0
LINE
  8
0
 10
187.644
 20
58.1854
 11
187.614
 21
58.8126
  0
LINE
  8
0
 10
187.614
 20
58.8126
 11
187.544
 21
59.2587
  0
LINE
  8
0
 10
187.544
 20
59.2587
 11
174.197
 21
124.529
  0
LINE
  8
0
 10
174.197
 20
124.529
 11
174.032
 21
125.135
  0
LINE
  8
0
 10
174.032
 20
125.135
 11
173.794
 21
125.715
  0
LINE
  8
0
 10
173.794
 20
125.715
 11
173.484
 21
126.262
  0
LINE
  8
0
 10
173.484
 20
126.262
 11
173.039
 21
126.844
  0
LINE
  8
0
 10
173.039
 20
126.844
 11
158.945
 21
142.737
  0
LINE
  8
0
 10
158.945
 20
142.737
 11
158.5
 21
143.18
  0
LINE
  8
0
 10
158.5
 20
143.18
 11
158.002
 21
143.564
  0
LINE
  8
0
 10
158.002
 20
143.564
 11
157.461
 21
143.882
  0
LINE
  8
0
 10
157.461
 20
143.882
 11
156.884
 21
144.129
  0
LINE
  8
0
 10
156.884
 20
144.129
 11
156.281
 21
144.303
  0
LINE
  8
0
 10
156.281
 20
144.303
 11
155.66
 21
144.399
  0
LINE
  8
0
 10
155.66
 20
144.399
 11
155.032
 21
144.417
  0
LINE
  8
0
 10
155.032
 20
144.417
 11
154.407
 21
144.356
  0
LINE
  8
0
 10
154.407
 20
144.356
 11
153.91
 21
144.25
  0
LINE
  8
0
 10
153.91
 20
144.25
 11
124.342
 21
136.327
  0
LINE
  8
0
 10
124.342
 20
136.327
 11
111.478
 21
145.707
  0
LINE
  8
0
 10
111.478
 20
145.707
 11
110.948
 21
146.044
  0
LINE
  8
0
 10
110.948
 20
146.044
 11
110.38
 21
146.313
  0
LINE
  8
0
 10
110.38
 20
146.313
 11
109.784
 21
146.508
  0
LINE
  8
0
 10
109.784
 20
146.508
 11
109.167
 21
146.627
  0
LINE
  8
0
 10
109.167
 20
146.627
 11
108.54
 21
146.667
  0
LINE
  8
0
 10
108.54
 20
146.667
 11
107.914
 21
146.629
  0
LINE
  8
0
 10
107.914
 20
146.629
 11
107.238
 21
146.497
  0
LINE
  8
0
 10
107.238
 20
146.497
 11
50.2479
 21
131.227
  0
LINE
  8
0
 10
50.2479
 20
131.227
 11
49.6528
 21
131.026
  0
LINE
  8
0
 10
49.6528
 20
131.026
 11
49.0875
 21
130.753
  0
LINE
  8
0
 10
49.0875
 20
130.753
 11
48.5609
 21
130.411
  0
LINE
  8
0
 10
48.5609
 20
130.411
 11
48.0813
 21
130.006
  0
LINE
  8
0
 10
48.0813
 20
130.006
 11
47.6563
 21
129.544
  0
LINE
  8
0
 10
47.6563
 20
129.544
 11
47.2118
 21
128.897
  0
LINE
  8
0
 10
47.2118
 20
128.897
 11
41.5303
 21
119.056
  0
LINE
  8
0
 10
41.5303
 20
119.056
 11
14.8227
 21
111.899
  0
LINE
  8
0
 10
14.8227
 20
111.899
 11
-15.7488
 21
112.148
  0
LINE
  8
0
 10
-15.7488
 20
112.148
 11
-42.4963
 21
119.315
  0
LINE
  8
0
 10
-42.4963
 20
119.315
 11
-48.1778
 21
129.156
  0
LINE
  8
0
 10
-48.1778
 20
129.156
 11
-48.5253
 21
129.679
  0
LINE
  8
0
 10
-48.5253
 20
129.679
 11
-48.9355
 21
130.154
  0
LINE
  8
0
 10
-48.9355
 20
130.154
 11
-49.4021
 21
130.574
  0
LINE
  8
0
 10
-49.4021
 20
130.574
 11
-49.9177
 21
130.933
  0
LINE
  8
0
 10
-49.9177
 20
130.933
 11
-50.4742
 21
131.224
  0
LINE
  8
0
 10
-50.4742
 20
131.224
 11
-51.2139
 21
131.486
  0
LINE
  8
0
 10
-51.2139
 20
131.486
 11
-108.204
 21
146.756
  0
LINE
  8
0
 10
-108.204
 20
146.756
 11
-108.819
 21
146.88
  0
LINE
  8
0
 10
-108.819
 20
146.88
 11
-109.446
 21
146.926
  0
LINE
  8
0
 10
-109.446
 20
146.926
 11
-110.073
 21
146.893
  0
LINE
  8
0
 10
-110.073
 20
146.893
 11
-110.691
 21
146.782
  0
LINE
  8
0
 10
-110.691
 20
146.782
 11
-111.29
 21
146.594
  0
LINE
  8
0
 10
-111.29
 20
146.594
 11
-111.861
 21
146.332
  0
LINE
  8
0
 10
-111.861
 20
146.332
 11
-112.444
 21
145.966
  0
LINE
  8
0
 10
-112.444
 20
145.966
 11
-125.308
 21
136.586
  0
LINE
  8
0
 10
-125.308
 20
136.586
 11
-155.359
 21
144.639
  0
LINE
  8
0
 10
-155.359
 20
144.639
 11
-155.974
 21
144.763
  0
LINE
  8
0
 10
-155.974
 20
144.763
 11
-156.601
 21
144.809
  0
LINE
  8
0
 10
-156.601
 20
144.809
 11
-157.228
 21
144.776
  0
LINE
  8
0
 10
-157.228
 20
144.776
 11
-157.846
 21
144.665
  0
LINE
  8
0
 10
-157.846
 20
144.665
 11
-158.445
 21
144.477
  0
LINE
  8
0
 10
-158.445
 20
144.477
 11
-159.016
 21
144.216
  0
LINE
  8
0
 10
-159.016
 20
144.216
 11
-159.549
 21
143.885
  0
LINE
  8
0
 10
-159.549
 20
143.885
 11
-160.037
 21
143.49
  0
LINE
  8
0
 10
-160.037
 20
143.49
 11
-160.394
 21
143.126
  0
LINE
  8
0
 10
-160.394
 20
143.126
 11
-174.488
 21
127.232
  0
LINE
  8
0
 10
-174.488
 20
127.232
 11
-174.874
 21
126.737
  0
LINE
  8
0
 10
-174.874
 20
126.737
 11
-175.195
 21
126.198
  0
LINE
  8
0
 10
-175.195
 20
126.198
 11
-175.447
 21
125.622
  0
LINE
  8
0
 10
-175.447
 20
125.622
 11
-175.646
 21
124.917
  0
LINE
  8
0
 10
-175.646
 20
124.917
 11
-188.993
 21
59.6467
  0
LINE
  8
0
 10
-188.993
 20
59.6467
 11
-189.08
 21
59.0248
  0
LINE
  8
0
 10
-189.08
 20
59.0248
 11
-189.088
 21
58.397
  0
LINE
  8
0
 10
-189.088
 20
58.397
 11
-189.017
 21
57.7731
  0
LINE
  8
0
 10
-189.017
 20
57.7731
 11
-188.869
 21
57.1629
  0
LINE
  8
0
 10
-188.869
 20
57.1629
 11
-188.646
 21
56.576
  0
LINE
  8
0
 10
-188.646
 20
56.576
 11
-188.408
 21
56.1167
  0
LINE
  8
0
 10
-188.408
 20
56.1167
 11
-174.732
 21
32.7827
  0
LINE
  8
0
 10
-174.732
 20
32.7827
 11
-174.381
 21
32.262
  0
LINE
  8
0
 10
-174.381
 20
32.262
 11
-173.967
 21
31.7894
  0
LINE
  8
0
 10
-173.967
 20
31.7894
 11
-173.498
 21
31.3723
  0
LINE
  8
0
 10
-173.498
 20
31.3723
 11
-172.98
 21
31.0173
  0
LINE
  8
0
 10
-172.98
 20
31.0173
 11
-172.422
 21
30.7301
  0
LINE
  8
0
 10
-172.422
 20
30.7301
 11
-171.986
 21
30.5631
  0
LINE
  8
0
 10
-171.986
 20
30.5631
 11
-140.361
 21
20.1221
  0
LINE
  8
0
 10
-140.361
 20
20.1221
 11
-139.753
 21
19.963
  0
LINE
  8
0
 10
-139.753
 20
19.963
 11
-139.131
 21
19.8814
  0
LINE
  8
0
 10
-139.131
 20
19.8814
 11
-138.503
 21
19.8784
  0
LINE
  8
0
 10
-138.503
 20
19.8784
 11
-137.879
 21
19.9542
  0
LINE
  8
0
 10
-137.879
 20
19.9542
 11
-137.27
 21
20.1075
  0
LINE
  8
0
 10
-137.27
 20
20.1075
 11
-136.686
 21
20.3359
  0
LINE
  8
0
 10
-136.686
 20
20.3359
 11
-136.293
 21
20.5397
  0
LINE
  8
0
 10
-136.293
 20
20.5397
 11
-126.451
 21
26.2214
  0
LINE
  8
0
 10
-126.451
 20
26.2214
 11
-90.5429
 21
16.5997
  0
LINE
  8
0
 10
-90.5429
 20
16.5997
 11
-97.5232
 21
9.00563
  0
LINE
  8
0
 10
-97.5232
 20
9.00563
 11
-97.9182
 21
8.51758
  0
LINE
  8
0
 10
-97.9182
 20
8.51758
 11
-98.249
 21
7.98386
  0
LINE
  8
0
 10
-98.249
 20
7.98386
 11
-98.5103
 21
7.41289
  0
LINE
  8
0
 10
-98.5103
 20
7.41289
 11
-98.6979
 21
6.81367
  0
LINE
  8
0
 10
-98.6979
 20
6.81367
 11
-98.809
 21
6.19566
  0
LINE
  8
0
 10
-98.809
 20
6.19566
 11
-98.8417
 21
5.56862
  0
LINE
  8
0
 10
-98.8417
 20
5.56862
 11
-98.7956
 21
4.94241
  0
LINE
  8
0
 10
-98.7956
 20
4.94241
 11
-98.6714
 21
4.32692
  0
LINE
  8
0
 10
-98.6714
 20
4.32692
 11
-98.471
 21
3.73186
  0
LINE
  8
0
 10
-98.471
 20
3.73186
 11
-98.1976
 21
3.1666
  0
LINE
  8
0
 10
-98.1976
 20
3.1666
 11
-97.8555
 21
2.64006
  0
LINE
  8
0
 10
-97.8555
 20
2.64006
 11
-97.4501
 21
2.16054
  0
LINE
  8
0
 10
-97.4501
 20
2.16054
 11
-97.077
 21
1.80952
  0
LINE
  8
0
 10
-97.077
 20
1.80952
 11
-80.2332
 21
-12.4828
  0
LINE
  8
0
 10
-80.2332
 20
-12.4828
 11
-70.535
 21
-26.4559
  0
LINE
  8
0
 10
-70.535
 20
-26.4559
 11
-62.5397
 21
-47.1732
  0
LINE
  8
0
 10
-62.5397
 20
-47.1732
 11
-62.2773
 21
-47.7437
  0
LINE
  8
0
 10
-62.2773
 20
-47.7437
 11
-61.9454
 21
-48.2767
  0
LINE
  8
0
 10
-61.9454
 20
-48.2767
 11
-61.5494
 21
-48.764
  0
LINE
  8
0
 10
-61.5494
 20
-48.764
 11
-61.0954
 21
-49.1978
  0
LINE
  8
0
 10
-61.0954
 20
-49.1978
 11
-60.5907
 21
-49.5712
  0
LINE
  8
0
 10
-60.5907
 20
-49.5712
 11
-60.0431
 21
-49.8785
  0
LINE
  8
0
 10
-60.0431
 20
-49.8785
 11
-59.4613
 21
-50.1147
  0
LINE
  8
0
 10
-59.4613
 20
-50.1147
 11
-58.8545
 21
-50.2761
  0
LINE
  8
0
 10
-58.8545
 20
-50.2761
 11
-58.2322
 21
-50.3602
  0
LINE
  8
0
 10
-58.2322
 20
-50.3602
 11
-57.8931
 21
-50.373
  0
LINE
  8
0
 10
-57.8931
 20
-50.373
 11
57.2709
 21
-50.789
  0
LINE
  8
0
 10
57.2709
 20
-50.789
 11
57.8977
 21
-50.7518
  0
LINE
  8
0
 10
-109.561
 20
140.928
 11
-109.685
 21
140.944
  0
LINE
  8
0
 10
-109.685
 20
140.944
 11
-109.807
 21
140.975
  0
LINE
  8
0
 10
-109.807
 20
140.975
 11
-109.924
 21
141.021
  0
LINE
  8
0
 10
-109.924
 20
141.021
 11
-110.034
 21
141.082
  0
LINE
  8
0
 10
-110.034
 20
141.082
 11
-110.135
 21
141.155
  0
LINE
  8
0
 10
-110.135
 20
141.155
 11
-110.227
 21
141.241
  0
LINE
  8
0
 10
-110.227
 20
141.241
 11
-110.307
 21
141.338
  0
LINE
  8
0
 10
-110.307
 20
141.338
 11
-110.374
 21
141.444
  0
LINE
  8
0
 10
-110.374
 20
141.444
 11
-110.428
 21
141.558
  0
LINE
  8
0
 10
-110.428
 20
141.558
 11
-110.467
 21
141.677
  0
LINE
  8
0
 10
-110.467
 20
141.677
 11
-110.49
 21
141.801
  0
LINE
  8
0
 10
-110.49
 20
141.801
 11
-110.498
 21
141.926
  0
LINE
  8
0
 10
-110.498
 20
141.926
 11
-110.49
 21
142.051
  0
LINE
  8
0
 10
-110.49
 20
142.051
 11
-110.467
 21
142.175
  0
LINE
  8
0
 10
-110.467
 20
142.175
 11
-110.428
 21
142.294
  0
LINE
  8
0
 10
-110.428
 20
142.294
 11
-110.374
 21
142.408
  0
LINE
  8
0
 10
-110.374
 20
142.408
 11
-110.307
 21
142.514
  0
LINE
  8
0
 10
-110.307
 20
142.514
 11
-110.227
 21
142.611
  0
LINE
  8
0
 10
-110.227
 20
142.611
 11
-110.135
 21
142.697
  0
LINE
  8
0
 10
-110.135
 20
142.697
 11
-110.034
 21
142.77
  0
LINE
  8
0
 10
-110.034
 20
142.77
 11
-109.924
 21
142.831
  0
LINE
  8
0
 10
-109.924
 20
142.831
 11
-109.807
 21
142.877
  0
LINE
  8
0
 10
-109.807
 20
142.877
 11
-109.685
 21
142.908
  0
LINE
  8
0
 10
-109.685
 20
142.908
 11
-109.561
 21
142.924
  0
LINE
  8
0
 10
-109.561
 20
142.924
 11
-109.435
 21
142.924
  0
LINE
  8
0
 10
-109.435
 20
142.924
 11
-109.311
 21
142.908
  0
LINE
  8
0
 10
-109.311
 20
142.908
 11
-109.189
 21
142.877
  0
LINE
  8
0
 10
-109.189
 20
142.877
 11
-109.072
 21
142.831
  0
LINE
  8
0
 10
-109.072
 20
142.831
 11
-108.962
 21
142.77
  0
LINE
  8
0
 10
-108.962
 20
142.77
 11
-108.861
 21
142.697
  0
LINE
  8
0
 10
-108.861
 20
142.697
 11
-108.769
 21
142.611
  0
LINE
  8
0
 10
-108.769
 20
142.611
 11
-108.689
 21
142.514
  0
LINE
  8
0
 10
-108.689
 20
142.514
 11
-108.622
 21
142.408
  0
LINE
  8
0
 10
-108.622
 20
142.408
 11
-108.568
 21
142.294
  0
LINE
  8
0
 10
-108.568
 20
142.294
 11
-108.529
 21
142.175
  0
LINE
  8
0
 10
-108.529
 20
142.175
 11
-108.506
 21
142.051
  0
LINE
  8
0
 10
-108.506
 20
142.051
 11
-108.498
 21
141.926
  0
LINE
  8
0
 10
-108.498
 20
141.926
 11
-108.506
 21
141.801
  0
LINE
  8
0
 10
-108.506
 20
141.801
 11
-108.529
 21
141.677
  0
LINE
  8
0
 10
-108.529
 20
141.677
 11
-108.568
 21
141.558
  0
LINE
  8
0
 10
-108.568
 20
141.558
 11
-108.622
 21
141.444
  0
LINE
  8
0
 10
-108.622
 20
141.444
 11
-108.689
 21
141.338
  0
LINE
  8
0
 10
-108.689
 20
141.338
 11
-108.769
 21
141.241
  0
LINE
  8
0
 10
-108.769
 20
141.241
 11
-108.861
 21
141.155
  0
LINE
  8
0
 10
-108.861
 20
141.155
 11
-108.962
 21
141.082
  0
LINE
  8
0
 10
-108.962
 20
141.082
 11
-109.072
 21
141.021
  0
LINE
  8
0
 10
-109.072
 20
141.021
 11
-109.189
 21
140.975
  0
LINE
  8
0
 10
-109.189
 20
140.975
 11
-109.311
 21
140.944
  0
LINE
  8
0
 10
-109.311
 20
140.944
 11
-109.435
 21
140.928
  0
LINE
  8
0
 10
-109.435
 20
140.928
 11
-109.561
 21
140.928
  0
LINE
  8
0
 10
108.469
 20
140.669
 11
108.345
 21
140.685
  0
LINE
  8
0
 10
108.345
 20
140.685
 11
108.223
 21
140.716
  0
LINE
  8
0
 10
108.223
 20
140.716
 11
108.106
 21
140.762
  0
LINE
  8
0
 10
108.106
 20
140.762
 11
107.996
 21
140.823
  0
LINE
  8
0
 10
107.996
 20
140.823
 11
107.895
 21
140.896
  0
LINE
  8
0
 10
107.895
 20
140.896
 11
107.803
 21
140.982
  0
LINE
  8
0
 10
107.803
 20
140.982
 11
107.723
 21
141.079
  0
LINE
  8
0
 10
107.723
 20
141.079
 11
107.656
 21
141.185
  0
LINE
  8
0
 10
107.656
 20
141.185
 11
107.602
 21
141.299
  0
LINE
  8
0
 10
107.602
 20
141.299
 11
107.563
 21
141.418
  0
LINE
  8
0
 10
107.563
 20
141.418
 11
107.54
 21
141.542
  0
LINE
  8
0
 10
107.54
 20
141.542
 11
107.532
 21
141.667
  0
LINE
  8
0
 10
107.532
 20
141.667
 11
107.54
 21
141.792
  0
LINE
  8
0
 10
107.54
 20
141.792
 11
107.563
 21
141.916
  0
LINE
  8
0
 10
107.563
 20
141.916
 11
107.602
 21
142.035
  0
LINE
  8
0
 10
107.602
 20
142.035
 11
107.656
 21
142.149
  0
LINE
  8
0
 10
107.656
 20
142.149
 11
107.723
 21
142.255
  0
LINE
  8
0
 10
107.723
 20
142.255
 11
107.803
 21
142.352
  0
LINE
  8
0
 10
107.803
 20
142.352
 11
107.895
 21
142.438
  0
LINE
  8
0
 10
107.895
 20
142.438
 11
107.996
 21
142.511
  0
LINE
  8
0
 10
107.996
 20
142.511
 11
108.106
 21
142.572
  0
LINE
  8
0
 10
108.106
 20
142.572
 11
108.223
 21
142.618
  0
LINE
  8
0
 10
108.223
 20
142.618
 11
108.345
 21
142.649
  0
LINE
  8
0
 10
108.345
 20
142.649
 11
108.469
 21
142.665
  0
LINE
  8
0
 10
108.469
 20
142.665
 11
108.595
 21
142.665
  0
LINE
  8
0
 10
108.595
 20
142.665
 11
108.719
 21
142.649
  0
LINE
  8
0
 10
108.719
 20
142.649
 11
108.841
 21
142.618
  0
LINE
  8
0
 10
108.841
 20
142.618
 11
108.958
 21
142.572
  0
LINE
  8
0
 10
108.958
 20
142.572
 11
109.068
 21
142.511
  0
LINE
  8
0
 10
109.068
 20
142.511
 11
109.169
 21
142.438
  0
LINE
  8
0
 10
109.169
 20
142.438
 11
109.261
 21
142.352
  0
LINE
  8
0
 10
109.261
 20
142.352
 11
109.341
 21
142.255
  0
LINE
  8
0
 10
109.341
 20
142.255
 11
109.408
 21
142.149
  0
LINE
  8
0
 10
109.408
 20
142.149
 11
109.462
 21
142.035
  0
LINE
  8
0
 10
109.462
 20
142.035
 11
109.501
 21
141.916
  0
LINE
  8
0
 10
109.501
 20
141.916
 11
109.524
 21
141.792
  0
LINE
  8
0
 10
109.524
 20
141.792
 11
109.532
 21
141.667
  0
LINE
  8
0
 10
109.532
 20
141.667
 11
109.524
 21
141.542
  0
LINE
  8
0
 10
109.524
 20
141.542
 11
109.501
 21
141.418
  0
LINE
  8
0
 10
109.501
 20
141.418
 11
109.462
 21
141.299
  0
LINE
  8
0
 10
109.462
 20
141.299
 11
109.408
 21
141.185
  0
LINE
  8
0
 10
109.408
 20
141.185
 11
109.341
 21
141.079
  0
LINE
  8
0
 10
109.341
 20
141.079
 11
109.261
 21
140.982
  0
LINE
  8
0
 10
109.261
 20
140.982
 11
109.169
 21
140.896
  0
LINE
  8
0
 10
109.169
 20
140.896
 11
109.068
 21
140.823
  0
LINE
  8
0
 10
109.068
 20
140.823
 11
108.958
 21
140.762
  0
LINE
  8
0
 10
108.958
 20
140.762
 11
108.841
 21
140.716
  0
LINE
  8
0
 10
108.841
 20
140.716
 11
108.719
 21
140.685
  0
LINE
  8
0
 10
108.719
 20
140.685
 11
108.595
 21
140.669
  0
LINE
  8
0
 10
108.595
 20
140.669
 11
108.469
 21
140.669
  0
LINE
  8
0
 10
-53.999
 20
-44.387
 11
-54.0007
 21
-44.3782
  0
LINE
  8
0
 10
-54.0007
 20
-44.3782
 11
-54.1559
 21
-43.9005
  0
LINE
  8
0
 10
-54.1559
 20
-43.9005
 11
-54.3698
 21
-43.446
  0
LINE
  8
0
 10
-54.3698
 20
-43.446
 11
-54.6389
 21
-43.0219
  0
LINE
  8
0
 10
-54.6389
 20
-43.0219
 11
-54.9591
 21
-42.6348
  0
LINE
  8
0
 10
-54.9591
 20
-42.6348
 11
-55.3253
 21
-42.2909
  0
LINE
  8
0
 10
-55.3253
 20
-42.2909
 11
-55.7317
 21
-41.9957
  0
LINE
  8
0
 10
-55.7317
 20
-41.9957
 11
-56.1719
 21
-41.7537
  0
LINE
  8
0
 10
-56.1719
 20
-41.7537
 11
-56.6389
 21
-41.5688
  0
LINE
  8
0
 10
-56.6389
 20
-41.5688
 11
-57.1255
 21
-41.4438
  0
LINE
  8
0
 10
-57.1255
 20
-41.4438
 11
-57.6238
 21
-41.3809
  0
LINE
  8
0
 10
-57.6238
 20
-41.3809
 11
-58.1262
 21
-41.3809
  0
LINE
  8
0
 10
-58.1262
 20
-41.3809
 11
-58.3336
 21
-41.4071
  0
LINE
  8
0
 10
-58.3336
 20
-41.4071
 11
-65.1531
 21
-23.7369
  0
LINE
  8
0
 10
-65.1531
 20
-23.7369
 11
-65.1995
 21
-23.6343
  0
LINE
  8
0
 10
-65.1995
 20
-23.6343
 11
-65.2645
 21
-23.5268
  0
LINE
  8
0
 10
-65.2645
 20
-23.5268
 11
-75.6775
 21
-8.5238
  0
LINE
  8
0
 10
-75.6775
 20
-8.5238
 11
-75.7615
 21
-8.41861
  0
LINE
  8
0
 10
-75.7615
 20
-8.41861
 11
-75.852
 21
-8.3315
  0
LINE
  8
0
 10
-75.852
 20
-8.3315
 11
-90.2479
 21
3.88382
  0
LINE
  8
0
 10
-90.2479
 20
3.88382
 11
-90.1229
 21
4.14951
  0
LINE
  8
0
 10
-90.1229
 20
4.14951
 11
-89.9677
 21
4.62724
  0
LINE
  8
0
 10
-89.9677
 20
4.62724
 11
-89.8736
 21
5.12067
  0
LINE
  8
0
 10
-89.8736
 20
5.12067
 11
-89.842
 21
5.62199
  0
LINE
  8
0
 10
-89.842
 20
5.62199
 11
-89.8736
 21
6.12332
  0
LINE
  8
0
 10
-89.8736
 20
6.12332
 11
-89.9677
 21
6.61674
  0
LINE
  8
0
 10
-89.9677
 20
6.61674
 11
-90.1229
 21
7.09448
  0
LINE
  8
0
 10
-90.1229
 20
7.09448
 11
-90.3368
 21
7.549
  0
LINE
  8
0
 10
-90.3368
 20
7.549
 11
-90.4902
 21
7.7908
  0
LINE
  8
0
 10
-90.4902
 20
7.7908
 11
-80.5397
 21
18.6163
  0
LINE
  8
0
 10
-80.5397
 20
18.6163
 11
-80.4373
 21
18.7484
  0
LINE
  8
0
 10
-80.4373
 20
18.7484
 11
-80.3757
 21
18.8578
  0
LINE
  8
0
 10
-80.3757
 20
18.8578
 11
-80.3282
 21
18.974
  0
LINE
  8
0
 10
-80.3282
 20
18.974
 11
-80.2957
 21
19.0953
  0
LINE
  8
0
 10
-80.2957
 20
19.0953
 11
-80.2787
 21
19.2198
  0
LINE
  8
0
 10
-80.2787
 20
19.2198
 11
-80.2774
 21
19.3453
  0
LINE
  8
0
 10
-80.2774
 20
19.3453
 11
-80.2918
 21
19.4701
  0
LINE
  8
0
 10
-80.2918
 20
19.4701
 11
-80.3217
 21
19.592
  0
LINE
  8
0
 10
-80.3217
 20
19.592
 11
-80.3667
 21
19.7093
  0
LINE
  8
0
 10
-80.3667
 20
19.7093
 11
-80.4261
 21
19.8199
  0
LINE
  8
0
 10
-80.4261
 20
19.8199
 11
-80.4988
 21
19.9223
  0
LINE
  8
0
 10
-80.4988
 20
19.9223
 11
-80.5838
 21
20.0148
  0
LINE
  8
0
 10
-80.5838
 20
20.0148
 11
-80.6798
 21
20.0958
  0
LINE
  8
0
 10
-80.6798
 20
20.0958
 11
-80.7851
 21
20.1642
  0
LINE
  8
0
 10
-80.7851
 20
20.1642
 11
-80.8981
 21
20.2189
  0
LINE
  8
0
 10
-80.8981
 20
20.2189
 11
-81.0172
 21
20.2589
  0
LINE
  8
0
 10
-81.0172
 20
20.2589
 11
-123.159
 21
31.5511
  0
LINE
  8
0
 10
-123.159
 20
31.5511
 11
-123.157
 21
31.587
  0
LINE
  8
0
 10
-123.157
 20
31.587
 11
-123.189
 21
32.0883
  0
LINE
  8
0
 10
-123.189
 20
32.0883
 11
-123.283
 21
32.5817
  0
LINE
  8
0
 10
-123.283
 20
32.5817
 11
-123.438
 21
33.0595
  0
LINE
  8
0
 10
-123.438
 20
33.0595
 11
-123.652
 21
33.514
  0
LINE
  8
0
 10
-123.652
 20
33.514
 11
-123.921
 21
33.9381
  0
LINE
  8
0
 10
-123.921
 20
33.9381
 11
-124.241
 21
34.3252
  0
LINE
  8
0
 10
-124.241
 20
34.3252
 11
-124.607
 21
34.669
  0
LINE
  8
0
 10
-124.607
 20
34.669
 11
-125.014
 21
34.9643
  0
LINE
  8
0
 10
-125.014
 20
34.9643
 11
-125.454
 21
35.2063
  0
LINE
  8
0
 10
-125.454
 20
35.2063
 11
-125.921
 21
35.3912
  0
LINE
  8
0
 10
-125.921
 20
35.3912
 11
-126.407
 21
35.5161
  0
LINE
  8
0
 10
-126.407
 20
35.5161
 11
-126.906
 21
35.5791
  0
LINE
  8
0
 10
-126.906
 20
35.5791
 11
-127.408
 21
35.5791
  0
LINE
  8
0
 10
-127.408
 20
35.5791
 11
-127.907
 21
35.5161
  0
LINE
  8
0
 10
-127.907
 20
35.5161
 11
-128.393
 21
35.3912
  0
LINE
  8
0
 10
-128.393
 20
35.3912
 11
-128.86
 21
35.2063
  0
LINE
  8
0
 10
-128.86
 20
35.2063
 11
-129.3
 21
34.9643
  0
LINE
  8
0
 10
-129.3
 20
34.9643
 11
-129.707
 21
34.669
  0
LINE
  8
0
 10
-129.707
 20
34.669
 11
-130.073
 21
34.3252
  0
LINE
  8
0
 10
-130.073
 20
34.3252
 11
-130.393
 21
33.9381
  0
LINE
  8
0
 10
-130.393
 20
33.9381
 11
-130.662
 21
33.514
  0
LINE
  8
0
 10
-130.662
 20
33.514
 11
-130.876
 21
33.0595
  0
LINE
  8
0
 10
-130.876
 20
33.0595
 11
-131.031
 21
32.5817
  0
LINE
  8
0
 10
-131.031
 20
32.5817
 11
-131.125
 21
32.0883
  0
LINE
  8
0
 10
-131.125
 20
32.0883
 11
-131.157
 21
31.587
  0
LINE
  8
0
 10
-131.157
 20
31.587
 11
-131.125
 21
31.0857
  0
LINE
  8
0
 10
-131.125
 20
31.0857
 11
-131.031
 21
30.5922
  0
LINE
  8
0
 10
-131.031
 20
30.5922
 11
-131.007
 21
30.5189
  0
LINE
  8
0
 10
-131.007
 20
30.5189
 11
-138.905
 21
25.96
  0
LINE
  8
0
 10
-138.905
 20
25.96
 11
-169.746
 21
36.1423
  0
LINE
  8
0
 10
-169.746
 20
36.1423
 11
-181.276
 21
55.8148
  0
LINE
  8
0
 10
-181.276
 20
55.8148
 11
-181.178
 21
55.9068
  0
LINE
  8
0
 10
-181.178
 20
55.9068
 11
-180.858
 21
56.2939
  0
LINE
  8
0
 10
-180.858
 20
56.2939
 11
-180.589
 21
56.718
  0
LINE
  8
0
 10
-180.589
 20
56.718
 11
-180.375
 21
57.1725
  0
LINE
  8
0
 10
-180.375
 20
57.1725
 11
-180.22
 21
57.6502
  0
LINE
  8
0
 10
-180.22
 20
57.6502
 11
-180.126
 21
58.1437
  0
LINE
  8
0
 10
-180.126
 20
58.1437
 11
-180.094
 21
58.645
  0
LINE
  8
0
 10
-180.094
 20
58.645
 11
-180.126
 21
59.1463
  0
LINE
  8
0
 10
-180.126
 20
59.1463
 11
-180.22
 21
59.6397
  0
LINE
  8
0
 10
-180.22
 20
59.6397
 11
-180.375
 21
60.1175
  0
LINE
  8
0
 10
-180.375
 20
60.1175
 11
-180.589
 21
60.572
  0
LINE
  8
0
 10
-180.589
 20
60.572
 11
-180.858
 21
60.9961
  0
LINE
  8
0
 10
-180.858
 20
60.9961
 11
-181.178
 21
61.3832
  0
LINE
  8
0
 10
-181.178
 20
61.3832
 11
-181.544
 21
61.727
  0
LINE
  8
0
 10
-181.544
 20
61.727
 11
-181.951
 21
62.0223
  0
LINE
  8
0
 10
-181.951
 20
62.0223
 11
-182.339
 21
62.2358
  0
LINE
  8
0
 10
-182.339
 20
62.2358
 11
-170.543
 21
119.923
  0
LINE
  8
0
 10
-170.543
 20
119.923
 11
-170.496
 21
119.923
  0
LINE
  8
0
 10
-170.496
 20
119.923
 11
-169.997
 21
119.986
  0
LINE
  8
0
 10
-169.997
 20
119.986
 11
-169.511
 21
120.111
  0
LINE
  8
0
 10
-169.511
 20
120.111
 11
-169.044
 21
120.296
  0
LINE
  8
0
 10
-169.044
 20
120.296
 11
-168.604
 21
120.538
  0
LINE
  8
0
 10
-168.604
 20
120.538
 11
-168.197
 21
120.833
  0
LINE
  8
0
 10
-168.197
 20
120.833
 11
-167.831
 21
121.177
  0
LINE
  8
0
 10
-167.831
 20
121.177
 11
-167.511
 21
121.564
  0
LINE
  8
0
 10
-167.511
 20
121.564
 11
-167.242
 21
121.988
  0
LINE
  8
0
 10
-167.242
 20
121.988
 11
-167.028
 21
122.443
  0
LINE
  8
0
 10
-167.028
 20
122.443
 11
-166.873
 21
122.92
  0
LINE
  8
0
 10
-166.873
 20
122.92
 11
-166.779
 21
123.414
  0
LINE
  8
0
 10
-166.779
 20
123.414
 11
-166.747
 21
123.915
  0
LINE
  8
0
 10
-166.747
 20
123.915
 11
-166.779
 21
124.416
  0
LINE
  8
0
 10
-166.779
 20
124.416
 11
-166.873
 21
124.91
  0
LINE
  8
0
 10
-166.873
 20
124.91
 11
-167.028
 21
125.387
  0
LINE
  8
0
 10
-167.028
 20
125.387
 11
-167.242
 21
125.842
  0
LINE
  8
0
 10
-167.242
 20
125.842
 11
-167.434
 21
126.144
  0
LINE
  8
0
 10
-167.434
 20
126.144
 11
-156.315
 21
138.683
  0
LINE
  8
0
 10
-156.315
 20
138.683
 11
-124.553
 21
130.172
  0
LINE
  8
0
 10
-124.553
 20
130.172
 11
-124.418
 21
130.146
  0
LINE
  8
0
 10
-124.418
 20
130.146
 11
-124.292
 21
130.138
  0
LINE
  8
0
 10
-124.292
 20
130.138
 11
-124.167
 21
130.146
  0
LINE
  8
0
 10
-124.167
 20
130.146
 11
-124.044
 21
130.17
  0
LINE
  8
0
 10
-124.044
 20
130.17
 11
-123.924
 21
130.209
  0
LINE
  8
0
 10
-123.924
 20
130.209
 11
-123.811
 21
130.262
  0
LINE
  8
0
 10
-123.811
 20
130.262
 11
-123.705
 21
130.33
  0
LINE
  8
0
 10
-123.705
 20
130.33
 11
-112.038
 21
138.837
  0
LINE
  8
0
 10
-112.038
 20
138.837
 11
-111.641
 21
138.549
  0
LINE
  8
0
 10
-111.641
 20
138.549
 11
-111.201
 21
138.307
  0
LINE
  8
0
 10
-111.201
 20
138.307
 11
-110.734
 21
138.122
  0
LINE
  8
0
 10
-110.734
 20
138.122
 11
-110.247
 21
137.997
  0
LINE
  8
0
 10
-110.247
 20
137.997
 11
-109.749
 21
137.934
  0
LINE
  8
0
 10
-109.749
 20
137.934
 11
-109.247
 21
137.934
  0
LINE
  8
0
 10
-109.247
 20
137.934
 11
-108.748
 21
137.997
  0
LINE
  8
0
 10
-108.748
 20
137.997
 11
-108.262
 21
138.122
  0
LINE
  8
0
 10
-108.262
 20
138.122
 11
-107.795
 21
138.307
  0
LINE
  8
0
 10
-107.795
 20
138.307
 11
-107.355
 21
138.549
  0
LINE
  8
0
 10
-107.355
 20
138.549
 11
-106.948
 21
138.844
  0
LINE
  8
0
 10
-106.948
 20
138.844
 11
-106.582
 21
139.188
  0
LINE
  8
0
 10
-106.582
 20
139.188
 11
-106.262
 21
139.575
  0
LINE
  8
0
 10
-106.262
 20
139.575
 11
-106.019
 21
139.958
  0
LINE
  8
0
 10
-106.019
 20
139.958
 11
-56.5057
 21
126.692
  0
LINE
  8
0
 10
-56.5057
 20
126.692
 11
-56.508
 21
126.656
  0
LINE
  8
0
 10
-56.508
 20
126.656
 11
-56.4764
 21
126.155
  0
LINE
  8
0
 10
-56.4764
 20
126.155
 11
-56.3823
 21
125.661
  0
LINE
  8
0
 10
-56.3823
 20
125.661
 11
-56.2271
 21
125.184
  0
LINE
  8
0
 10
-56.2271
 20
125.184
 11
-56.0132
 21
124.729
  0
LINE
  8
0
 10
-56.0132
 20
124.729
 11
-55.744
 21
124.305
  0
LINE
  8
0
 10
-55.744
 20
124.305
 11
-55.4239
 21
123.918
  0
LINE
  8
0
 10
-55.4239
 20
123.918
 11
-55.0577
 21
123.574
  0
LINE
  8
0
 10
-55.0577
 20
123.574
 11
-54.6513
 21
123.279
  0
LINE
  8
0
 10
-54.6513
 20
123.279
 11
-54.2111
 21
123.037
  0
LINE
  8
0
 10
-54.2111
 20
123.037
 11
-53.744
 21
122.852
  0
LINE
  8
0
 10
-53.744
 20
122.852
 11
-53.2575
 21
122.727
  0
LINE
  8
0
 10
-53.2575
 20
122.727
 11
-52.7592
 21
122.664
  0
LINE
  8
0
 10
-52.7592
 20
122.664
 11
-52.2568
 21
122.664
  0
LINE
  8
0
 10
-52.2568
 20
122.664
 11
-51.7585
 21
122.727
  0
LINE
  8
0
 10
-51.7585
 20
122.727
 11
-51.4413
 21
122.808
  0
LINE
  8
0
 10
-51.4413
 20
122.808
 11
-46.657
 21
114.521
  0
LINE
  8
0
 10
-46.657
 20
114.521
 11
-46.5681
 21
114.392
  0
LINE
  8
0
 10
-46.5681
 20
114.392
 11
-46.4831
 21
114.299
  0
LINE
  8
0
 10
-46.4831
 20
114.299
 11
-46.3872
 21
114.218
  0
LINE
  8
0
 10
-46.3872
 20
114.218
 11
-46.2819
 21
114.15
  0
LINE
  8
0
 10
-46.2819
 20
114.15
 11
-46.1688
 21
114.095
  0
LINE
  8
0
 10
-46.1688
 20
114.095
 11
-46.0498
 21
114.055
  0
LINE
  8
0
 10
-46.0498
 20
114.055
 11
-20.4247
 21
107.189
  0
LINE
  8
0
 10
-20.4247
 20
107.189
 11
-20.427
 21
107.153
  0
LINE
  8
0
 10
-20.427
 20
107.153
 11
-20.3954
 21
106.652
  0
LINE
  8
0
 10
-20.3954
 20
106.652
 11
-20.3013
 21
106.158
  0
LINE
  8
0
 10
-20.3013
 20
106.158
 11
-20.1461
 21
105.681
  0
LINE
  8
0
 10
-20.1461
 20
105.681
 11
-19.9322
 21
105.226
  0
LINE
  8
0
 10
-19.9322
 20
105.226
 11
-19.663
 21
104.802
  0
LINE
  8
0
 10
-19.663
 20
104.802
 11
-19.3428
 21
104.415
  0
LINE
  8
0
 10
-19.3428
 20
104.415
 11
-18.9767
 21
104.071
  0
LINE
  8
0
 10
-18.9767
 20
104.071
 11
-18.5703
 21
103.776
  0
LINE
  8
0
 10
-18.5703
 20
103.776
 11
-18.1301
 21
103.534
  0
LINE
  8
0
 10
-18.1301
 20
103.534
 11
-17.663
 21
103.349
  0
LINE
  8
0
 10
-17.663
 20
103.349
 11
-17.1765
 21
103.224
  0
LINE
  8
0
 10
-17.1765
 20
103.224
 11
-16.6781
 21
103.161
  0
LINE
  8
0
 10
-16.6781
 20
103.161
 11
-16.1758
 21
103.161
  0
LINE
  8
0
 10
-16.1758
 20
103.161
 11
-15.6775
 21
103.224
  0
LINE
  8
0
 10
-15.6775
 20
103.224
 11
-15.1909
 21
103.349
  0
LINE
  8
0
 10
-15.1909
 20
103.349
 11
-14.7239
 21
103.534
  0
LINE
  8
0
 10
-14.7239
 20
103.534
 11
-14.2837
 21
103.776
  0
LINE
  8
0
 10
-14.2837
 20
103.776
 11
-13.8773
 21
104.071
  0
LINE
  8
0
 10
-13.8773
 20
104.071
 11
-13.5111
 21
104.415
  0
LINE
  8
0
 10
-13.5111
 20
104.415
 11
-13.1909
 21
104.802
  0
LINE
  8
0
 10
-13.1909
 20
104.802
 11
-12.9218
 21
105.226
  0
LINE
  8
0
 10
-12.9218
 20
105.226
 11
-12.7079
 21
105.681
  0
LINE
  8
0
 10
-12.7079
 20
105.681
 11
-12.5646
 21
106.122
  0
LINE
  8
0
 10
-12.5646
 20
106.122
 11
11.5817
 21
105.925
  0
LINE
  8
0
 10
11.5817
 20
105.925
 11
11.5867
 21
105.899
  0
LINE
  8
0
 10
11.5867
 20
105.899
 11
11.7419
 21
105.422
  0
LINE
  8
0
 10
11.7419
 20
105.422
 11
11.9558
 21
104.967
  0
LINE
  8
0
 10
11.9558
 20
104.967
 11
12.2249
 21
104.543
  0
LINE
  8
0
 10
12.2249
 20
104.543
 11
12.5451
 21
104.156
  0
LINE
  8
0
 10
12.5451
 20
104.156
 11
12.9113
 21
103.812
  0
LINE
  8
0
 10
12.9113
 20
103.812
 11
13.3177
 21
103.517
  0
LINE
  8
0
 10
13.3177
 20
103.517
 11
13.7579
 21
103.275
  0
LINE
  8
0
 10
13.7579
 20
103.275
 11
14.2249
 21
103.09
  0
LINE
  8
0
 10
14.2249
 20
103.09
 11
14.7115
 21
102.965
  0
LINE
  8
0
 10
14.7115
 20
102.965
 11
15.2098
 21
102.902
  0
LINE
  8
0
 10
15.2098
 20
102.902
 11
15.7122
 21
102.902
  0
LINE
  8
0
 10
15.7122
 20
102.902
 11
16.2105
 21
102.965
  0
LINE
  8
0
 10
16.2105
 20
102.965
 11
16.6971
 21
103.09
  0
LINE
  8
0
 10
16.6971
 20
103.09
 11
17.1641
 21
103.275
  0
LINE
  8
0
 10
17.1641
 20
103.275
 11
17.6043
 21
103.517
  0
LINE
  8
0
 10
17.6043
 20
103.517
 11
18.0107
 21
103.812
  0
LINE
  8
0
 10
18.0107
 20
103.812
 11
18.3769
 21
104.156
  0
LINE
  8
0
 10
18.3769
 20
104.156
 11
18.6971
 21
104.543
  0
LINE
  8
0
 10
18.6971
 20
104.543
 11
18.9662
 21
104.967
  0
LINE
  8
0
 10
18.9662
 20
104.967
 11
19.1801
 21
105.422
  0
LINE
  8
0
 10
19.1801
 20
105.422
 11
19.3353
 21
105.899
  0
LINE
  8
0
 10
19.3353
 20
105.899
 11
19.4294
 21
106.393
  0
LINE
  8
0
 10
19.4294
 20
106.393
 11
19.461
 21
106.894
  0
LINE
  8
0
 10
19.461
 20
106.894
 11
19.4587
 21
106.93
  0
LINE
  8
0
 10
19.4587
 20
106.93
 11
45.0838
 21
113.796
  0
LINE
  8
0
 10
45.0838
 20
113.796
 11
45.2318
 21
113.848
  0
LINE
  8
0
 10
45.2318
 20
113.848
 11
45.343
 21
113.907
  0
LINE
  8
0
 10
45.343
 20
113.907
 11
45.4462
 21
113.978
  0
LINE
  8
0
 10
45.4462
 20
113.978
 11
45.5395
 21
114.062
  0
LINE
  8
0
 10
45.5395
 20
114.062
 11
45.6216
 21
114.157
  0
LINE
  8
0
 10
45.6216
 20
114.157
 11
45.691
 21
114.262
  0
LINE
  8
0
 10
45.691
 20
114.262
 11
50.4754
 21
122.549
  0
LINE
  8
0
 10
50.4754
 20
122.549
 11
50.7925
 21
122.468
  0
LINE
  8
0
 10
50.7925
 20
122.468
 11
51.2908
 21
122.405
  0
LINE
  8
0
 10
51.2908
 20
122.405
 11
51.7932
 21
122.405
  0
LINE
  8
0
 10
51.7932
 20
122.405
 11
52.2915
 21
122.468
  0
LINE
  8
0
 10
52.2915
 20
122.468
 11
52.778
 21
122.593
  0
LINE
  8
0
 10
52.778
 20
122.593
 11
53.2451
 21
122.778
  0
LINE
  8
0
 10
53.2451
 20
122.778
 11
53.6853
 21
123.02
  0
LINE
  8
0
 10
53.6853
 20
123.02
 11
54.0917
 21
123.315
  0
LINE
  8
0
 10
54.0917
 20
123.315
 11
54.4579
 21
123.659
  0
LINE
  8
0
 10
54.4579
 20
123.659
 11
54.778
 21
124.046
  0
LINE
  8
0
 10
54.778
 20
124.046
 11
55.0472
 21
124.47
  0
LINE
  8
0
 10
55.0472
 20
124.47
 11
55.2611
 21
124.924
  0
LINE
  8
0
 10
55.2611
 20
124.924
 11
55.4163
 21
125.402
  0
LINE
  8
0
 10
55.4163
 20
125.402
 11
55.5104
 21
125.896
  0
LINE
  8
0
 10
55.5104
 20
125.896
 11
55.542
 21
126.397
  0
LINE
  8
0
 10
55.542
 20
126.397
 11
55.5397
 21
126.433
  0
LINE
  8
0
 10
55.5397
 20
126.433
 11
105.053
 21
139.699
  0
LINE
  8
0
 10
105.053
 20
139.699
 11
105.296
 21
139.316
  0
LINE
  8
0
 10
105.296
 20
139.316
 11
105.616
 21
138.929
  0
LINE
  8
0
 10
105.616
 20
138.929
 11
105.982
 21
138.585
  0
LINE
  8
0
 10
105.982
 20
138.585
 11
106.389
 21
138.29
  0
LINE
  8
0
 10
106.389
 20
138.29
 11
106.829
 21
138.048
  0
LINE
  8
0
 10
106.829
 20
138.048
 11
107.296
 21
137.863
  0
LINE
  8
0
 10
107.296
 20
137.863
 11
107.782
 21
137.738
  0
LINE
  8
0
 10
107.782
 20
137.738
 11
108.281
 21
137.675
  0
LINE
  8
0
 10
108.281
 20
137.675
 11
108.783
 21
137.675
  0
LINE
  8
0
 10
108.783
 20
137.675
 11
109.282
 21
137.738
  0
LINE
  8
0
 10
109.282
 20
137.738
 11
109.768
 21
137.863
  0
LINE
  8
0
 10
109.768
 20
137.863
 11
110.235
 21
138.048
  0
LINE
  8
0
 10
110.235
 20
138.048
 11
110.675
 21
138.29
  0
LINE
  8
0
 10
110.675
 20
138.29
 11
111.072
 21
138.578
  0
LINE
  8
0
 10
111.072
 20
138.578
 11
122.739
 21
130.071
  0
LINE
  8
0
 10
122.739
 20
130.071
 11
122.855
 21
129.998
  0
LINE
  8
0
 10
122.855
 20
129.998
 11
122.97
 21
129.945
  0
LINE
  8
0
 10
122.97
 20
129.945
 11
123.089
 21
129.908
  0
LINE
  8
0
 10
123.089
 20
129.908
 11
123.213
 21
129.886
  0
LINE
  8
0
 10
123.213
 20
129.886
 11
123.338
 21
129.879
  0
LINE
  8
0
 10
123.338
 20
129.879
 11
123.464
 21
129.888
  0
LINE
  8
0
 10
123.464
 20
129.888
 11
123.587
 21
129.913
  0
LINE
  8
0
 10
123.587
 20
129.913
 11
154.866
 21
138.294
  0
LINE
  8
0
 10
154.866
 20
138.294
 11
165.985
 21
125.756
  0
LINE
  8
0
 10
165.985
 20
125.756
 11
165.793
 21
125.454
  0
LINE
  8
0
 10
165.793
 20
125.454
 11
165.579
 21
124.999
  0
LINE
  8
0
 10
165.579
 20
124.999
 11
165.424
 21
124.522
  0
LINE
  8
0
 10
165.424
 20
124.522
 11
165.33
 21
124.028
  0
LINE
  8
0
 10
165.33
 20
124.028
 11
165.298
 21
123.527
  0
LINE
  8
0
 10
165.298
 20
123.527
 11
165.33
 21
123.026
  0
LINE
  8
0
 10
165.33
 20
123.026
 11
165.424
 21
122.532
  0
LINE
  8
0
 10
165.424
 20
122.532
 11
165.579
 21
122.055
  0
LINE
  8
0
 10
165.579
 20
122.055
 11
165.793
 21
121.6
  0
LINE
  8
0
 10
165.793
 20
121.6
 11
166.062
 21
121.176
  0
LINE
  8
0
 10
166.062
 20
121.176
 11
166.382
 21
120.789
  0
LINE
  8
0
 10
166.382
 20
120.789
 11
166.748
 21
120.445
  0
LINE
  8
0
 10
166.748
 20
120.445
 11
167.155
 21
120.15
  0
LINE
  8
0
 10
167.155
 20
120.15
 11
167.595
 21
119.908
  0
LINE
  8
0
 10
167.595
 20
119.908
 11
168.062
 21
119.723
  0
LINE
  8
0
 10
168.062
 20
119.723
 11
168.548
 21
119.598
  0
LINE
  8
0
 10
168.548
 20
119.598
 11
169.047
 21
119.535
  0
LINE
  8
0
 10
169.047
 20
119.535
 11
169.094
 21
119.535
  0
LINE
  8
0
 10
169.094
 20
119.535
 11
180.89
 21
61.8478
  0
LINE
  8
0
 10
180.89
 20
61.8478
 11
180.502
 21
61.6343
  0
LINE
  8
0
 10
180.502
 20
61.6343
 11
180.095
 21
61.339
  0
LINE
  8
0
 10
180.095
 20
61.339
 11
179.729
 21
60.9952
  0
LINE
  8
0
 10
179.729
 20
60.9952
 11
179.409
 21
60.6081
  0
LINE
  8
0
 10
179.409
 20
60.6081
 11
179.14
 21
60.184
  0
LINE
  8
0
 10
179.14
 20
60.184
 11
178.926
 21
59.7295
  0
LINE
  8
0
 10
178.926
 20
59.7295
 11
178.771
 21
59.2517
  0
LINE
  8
0
 10
178.771
 20
59.2517
 11
178.677
 21
58.7583
  0
LINE
  8
0
 10
178.677
 20
58.7583
 11
178.645
 21
58.257
  0
LINE
  8
0
 10
178.645
 20
58.257
 11
178.677
 21
57.7557
  0
LINE
  8
0
 10
178.677
 20
57.7557
 11
178.771
 21
57.2622
  0
LINE
  8
0
 10
178.771
 20
57.2622
 11
178.926
 21
56.7845
  0
LINE
  8
0
 10
178.926
 20
56.7845
 11
179.14
 21
56.33
  0
LINE
  8
0
 10
179.14
 20
56.33
 11
179.409
 21
55.9059
  0
LINE
  8
0
 10
179.409
 20
55.9059
 11
179.729
 21
55.5188
  0
LINE
  8
0
 10
179.729
 20
55.5188
 11
179.865
 21
55.391
  0
LINE
  8
0
 10
179.865
 20
55.391
 11
168.773
 21
35.8809
  0
LINE
  8
0
 10
168.773
 20
35.8809
 11
137.939
 21
25.701
  0
LINE
  8
0
 10
137.939
 20
25.701
 11
130.042
 21
30.2598
  0
LINE
  8
0
 10
130.042
 20
30.2598
 11
130.066
 21
30.3332
  0
LINE
  8
0
 10
130.066
 20
30.3332
 11
130.16
 21
30.8267
  0
LINE
  8
0
 10
130.16
 20
30.8267
 11
130.192
 21
31.328
  0
LINE
  8
0
 10
130.192
 20
31.328
 11
130.16
 21
31.8293
  0
LINE
  8
0
 10
130.16
 20
31.8293
 11
130.066
 21
32.3227
  0
LINE
  8
0
 10
130.066
 20
32.3227
 11
129.911
 21
32.8005
  0
LINE
  8
0
 10
129.911
 20
32.8005
 11
129.697
 21
33.255
  0
LINE
  8
0
 10
129.697
 20
33.255
 11
129.428
 21
33.6791
  0
LINE
  8
0
 10
129.428
 20
33.6791
 11
129.108
 21
34.0662
  0
LINE
  8
0
 10
129.108
 20
34.0662
 11
128.742
 21
34.41
  0
LINE
  8
0
 10
128.742
 20
34.41
 11
128.335
 21
34.7053
  0
LINE
  8
0
 10
128.335
 20
34.7053
 11
127.895
 21
34.9473
  0
LINE
  8
0
 10
127.895
 20
34.9473
 11
127.428
 21
35.1322
  0
LINE
  8
0
 10
127.428
 20
35.1322
 11
126.941
 21
35.2571
  0
LINE
  8
0
 10
126.941
 20
35.2571
 11
126.443
 21
35.3201
  0
LINE
  8
0
 10
126.443
 20
35.3201
 11
125.941
 21
35.3201
  0
LINE
  8
0
 10
125.941
 20
35.3201
 11
125.442
 21
35.2571
  0
LINE
  8
0
 10
125.442
 20
35.2571
 11
124.956
 21
35.1322
  0
LINE
  8
0
 10
124.956
 20
35.1322
 11
124.489
 21
34.9473
  0
LINE
  8
0
 10
124.489
 20
34.9473
 11
124.049
 21
34.7053
  0
LINE
  8
0
 10
124.049
 20
34.7053
 11
123.642
 21
34.41
  0
LINE
  8
0
 10
123.642
 20
34.41
 11
123.276
 21
34.0662
  0
LINE
  8
0
 10
123.276
 20
34.0662
 11
122.956
 21
33.6791
  0
LINE
  8
0
 10
122.956
 20
33.6791
 11
122.687
 21
33.255
  0
LINE
  8
0
 10
122.687
 20
33.255
 11
122.473
 21
32.8005
  0
LINE
  8
0
 10
122.473
 20
32.8005
 11
122.318
 21
32.3227
  0
LINE
  8
0
 10
122.318
 20
32.3227
 11
122.224
 21
31.8293
  0
LINE
  8
0
 10
122.224
 20
31.8293
 11
122.192
 21
31.328
  0
LINE
  8
0
 10
122.192
 20
31.328
 11
122.194
 21
31.2921
  0
LINE
  8
0
 10
122.194
 20
31.2921
 11
80.0512
 21
19.9999
  0
LINE
  8
0
 10
80.0512
 20
19.9999
 11
79.8878
 21
19.9405
  0
LINE
  8
0
 10
79.8878
 20
19.9405
 11
79.7775
 21
19.8804
  0
LINE
  8
0
 10
79.7775
 20
19.8804
 11
79.6756
 21
19.807
  0
LINE
  8
0
 10
79.6756
 20
19.807
 11
79.5837
 21
19.7214
  0
LINE
  8
0
 10
79.5837
 20
19.7214
 11
79.5033
 21
19.6249
  0
LINE
  8
0
 10
79.5033
 20
19.6249
 11
79.4356
 21
19.5192
  0
LINE
  8
0
 10
79.4356
 20
19.5192
 11
79.3817
 21
19.4057
  0
LINE
  8
0
 10
79.3817
 20
19.4057
 11
79.3424
 21
19.2865
  0
LINE
  8
0
 10
79.3424
 20
19.2865
 11
79.3184
 21
19.1632
  0
LINE
  8
0
 10
79.3184
 20
19.1632
 11
79.31
 21
19.0379
  0
LINE
  8
0
 10
79.31
 20
19.0379
 11
79.3174
 21
18.9125
  0
LINE
  8
0
 10
79.3174
 20
18.9125
 11
79.3405
 21
18.7891
  0
LINE
  8
0
 10
79.3405
 20
18.7891
 11
79.3788
 21
18.6695
  0
LINE
  8
0
 10
79.3788
 20
18.6695
 11
79.4318
 21
18.5557
  0
LINE
  8
0
 10
79.4318
 20
18.5557
 11
79.4987
 21
18.4494
  0
LINE
  8
0
 10
79.4987
 20
18.4494
 11
79.5784
 21
18.3523
  0
LINE
  8
0
 10
79.5784
 20
18.3523
 11
89.5147
 21
7.68794
  0
LINE
  8
0
 10
89.5147
 20
7.68794
 11
89.3758
 21
7.46899
  0
LINE
  8
0
 10
89.3758
 20
7.46899
 11
89.1619
 21
7.01448
  0
LINE
  8
0
 10
89.1619
 20
7.01448
 11
89.0067
 21
6.53674
  0
LINE
  8
0
 10
89.0067
 20
6.53674
 11
88.9126
 21
6.04332
  0
LINE
  8
0
 10
88.9126
 20
6.04332
 11
88.881
 21
5.54199
  0
LINE
  8
0
 10
88.881
 20
5.54199
 11
88.9126
 21
5.04066
  0
LINE
  8
0
 10
88.9126
 20
5.04066
 11
89.0067
 21
4.54724
  0
LINE
  8
0
 10
89.0067
 20
4.54724
 11
89.1619
 21
4.0695
  0
LINE
  8
0
 10
89.1619
 20
4.0695
 11
89.3026
 21
3.77058
  0
LINE
  8
0
 10
89.3026
 20
3.77058
 11
75.007
 21
-8.58646
  0
LINE
  8
0
 10
75.007
 20
-8.58646
 11
74.9121
 21
-8.68027
  0
LINE
  8
0
 10
74.9121
 20
-8.68027
 11
74.835
 21
-8.77936
  0
LINE
  8
0
 10
74.835
 20
-8.77936
 11
64.533
 21
-23.8774
  0
LINE
  8
0
 10
64.533
 20
-23.8774
 11
64.4753
 21
-23.9729
  0
LINE
  8
0
 10
64.4753
 20
-23.9729
 11
64.4236
 21
-24.0874
  0
LINE
  8
0
 10
64.4236
 20
-24.0874
 11
57.7204
 21
-41.8197
  0
LINE
  8
0
 10
57.7204
 20
-41.8197
 11
57.5401
 21
-41.7969
  0
LINE
  8
0
 10
57.5401
 20
-41.7969
 11
57.0378
 21
-41.7969
  0
LINE
  8
0
 10
57.0378
 20
-41.7969
 11
56.5395
 21
-41.8598
  0
LINE
  8
0
 10
56.5395
 20
-41.8598
 11
56.0529
 21
-41.9848
  0
LINE
  8
0
 10
56.0529
 20
-41.9848
 11
55.5859
 21
-42.1697
  0
LINE
  8
0
 10
55.5859
 20
-42.1697
 11
55.1457
 21
-42.4117
  0
LINE
  8
0
 10
55.1457
 20
-42.4117
 11
54.7393
 21
-42.7069
  0
LINE
  8
0
 10
54.7393
 20
-42.7069
 11
54.3731
 21
-43.0508
  0
LINE
  8
0
 10
54.3731
 20
-43.0508
 11
54.0529
 21
-43.4379
  0
LINE
  8
0
 10
54.0529
 20
-43.4379
 11
53.7838
 21
-43.862
  0
LINE
  8
0
 10
53.7838
 20
-43.862
 11
53.5699
 21
-44.3165
  0
LINE
  8
0
 10
53.5699
 20
-44.3165
 11
53.4209
 21
-44.775
  0
LINE
  8
0
 10
53.4209
 20
-44.775
 11
-53.999
 21
-44.387
  0
LINE
  8
0
 10
-52.5708
 20
125.658
 11
-52.6954
 21
125.674
  0
LINE
  8
0
 10
-52.6954
 20
125.674
 11
-52.817
 21
125.705
  0
LINE
  8
0
 10
-52.817
 20
125.705
 11
-52.9338
 21
125.751
  0
LINE
  8
0
 10
-52.9338
 20
125.751
 11
-53.0438
 21
125.812
  0
LINE
  8
0
 10
-53.0438
 20
125.812
 11
-53.1454
 21
125.885
  0
LINE
  8
0
 10
-53.1454
 20
125.885
 11
-53.237
 21
125.971
  0
LINE
  8
0
 10
-53.237
 20
125.971
 11
-53.317
 21
126.068
  0
LINE
  8
0
 10
-53.317
 20
126.068
 11
-53.3843
 21
126.174
  0
LINE
  8
0
 10
-53.3843
 20
126.174
 11
-53.4378
 21
126.288
  0
LINE
  8
0
 10
-53.4378
 20
126.288
 11
-53.4766
 21
126.407
  0
LINE
  8
0
 10
-53.4766
 20
126.407
 11
-53.5001
 21
126.531
  0
LINE
  8
0
 10
-53.5001
 20
126.531
 11
-53.508
 21
126.656
  0
LINE
  8
0
 10
-53.508
 20
126.656
 11
-53.5001
 21
126.781
  0
LINE
  8
0
 10
-53.5001
 20
126.781
 11
-53.4766
 21
126.905
  0
LINE
  8
0
 10
-53.4766
 20
126.905
 11
-53.4378
 21
127.024
  0
LINE
  8
0
 10
-53.4378
 20
127.024
 11
-53.3843
 21
127.138
  0
LINE
  8
0
 10
-53.3843
 20
127.138
 11
-53.317
 21
127.244
  0
LINE
  8
0
 10
-53.317
 20
127.244
 11
-53.237
 21
127.341
  0
LINE
  8
0
 10
-53.237
 20
127.341
 11
-53.1454
 21
127.426
  0
LINE
  8
0
 10
-53.1454
 20
127.426
 11
-53.0438
 21
127.5
  0
LINE
  8
0
 10
-53.0438
 20
127.5
 11
-52.9338
 21
127.561
  0
LINE
  8
0
 10
-52.9338
 20
127.561
 11
-52.817
 21
127.607
  0
LINE
  8
0
 10
-52.817
 20
127.607
 11
-52.6954
 21
127.638
  0
LINE
  8
0
 10
-52.6954
 20
127.638
 11
-52.5708
 21
127.654
  0
LINE
  8
0
 10
-52.5708
 20
127.654
 11
-52.4452
 21
127.654
  0
LINE
  8
0
 10
-52.4452
 20
127.654
 11
-52.3206
 21
127.638
  0
LINE
  8
0
 10
-52.3206
 20
127.638
 11
-52.199
 21
127.607
  0
LINE
  8
0
 10
-52.199
 20
127.607
 11
-52.0822
 21
127.561
  0
LINE
  8
0
 10
-52.0822
 20
127.561
 11
-51.9722
 21
127.5
  0
LINE
  8
0
 10
-51.9722
 20
127.5
 11
-51.8706
 21
127.426
  0
LINE
  8
0
 10
-51.8706
 20
127.426
 11
-51.779
 21
127.341
  0
LINE
  8
0
 10
-51.779
 20
127.341
 11
-51.699
 21
127.244
  0
LINE
  8
0
 10
-51.699
 20
127.244
 11
-51.6317
 21
127.138
  0
LINE
  8
0
 10
-51.6317
 20
127.138
 11
-51.5782
 21
127.024
  0
LINE
  8
0
 10
-51.5782
 20
127.024
 11
-51.5394
 21
126.905
  0
LINE
  8
0
 10
-51.5394
 20
126.905
 11
-51.5159
 21
126.781
  0
LINE
  8
0
 10
-51.5159
 20
126.781
 11
-51.508
 21
126.656
  0
LINE
  8
0
 10
-51.508
 20
126.656
 11
-51.5159
 21
126.531
  0
LINE
  8
0
 10
-51.5159
 20
126.531
 11
-51.5394
 21
126.407
  0
LINE
  8
0
 10
-51.5394
 20
126.407
 11
-51.5782
 21
126.288
  0
LINE
  8
0
 10
-51.5782
 20
126.288
 11
-51.6317
 21
126.174
  0
LINE
  8
0
 10
-51.6317
 20
126.174
 11
-51.699
 21
126.068
  0
LINE
  8
0
 10
-51.699
 20
126.068
 11
-51.779
 21
125.971
  0
LINE
  8
0
 10
-51.779
 20
125.971
 11
-51.8706
 21
125.885
  0
LINE
  8
0
 10
-51.8706
 20
125.885
 11
-51.9722
 21
125.812
  0
LINE
  8
0
 10
-51.9722
 20
125.812
 11
-52.0822
 21
125.751
  0
LINE
  8
0
 10
-52.0822
 20
125.751
 11
-52.199
 21
125.705
  0
LINE
  8
0
 10
-52.199
 20
125.705
 11
-52.3206
 21
125.674
  0
LINE
  8
0
 10
-52.3206
 20
125.674
 11
-52.4452
 21
125.658
  0
LINE
  8
0
 10
-52.4452
 20
125.658
 11
-52.5708
 21
125.658
  0
LINE
  8
0
 10
51.4792
 20
125.399
 11
51.3546
 21
125.415
  0
LINE
  8
0
 10
51.3546
 20
125.415
 11
51.233
 21
125.446
  0
LINE
  8
0
 10
51.233
 20
125.446
 11
51.1162
 21
125.492
  0
LINE
  8
0
 10
51.1162
 20
125.492
 11
51.0062
 21
125.553
  0
LINE
  8
0
 10
51.0062
 20
125.553
 11
50.9046
 21
125.626
  0
LINE
  8
0
 10
50.9046
 20
125.626
 11
50.813
 21
125.712
  0
LINE
  8
0
 10
50.813
 20
125.712
 11
50.733
 21
125.809
  0
LINE
  8
0
 10
50.733
 20
125.809
 11
50.6657
 21
125.915
  0
LINE
  8
0
 10
50.6657
 20
125.915
 11
50.6122
 21
126.029
  0
LINE
  8
0
 10
50.6122
 20
126.029
 11
50.5734
 21
126.148
  0
LINE
  8
0
 10
50.5734
 20
126.148
 11
50.5499
 21
126.272
  0
LINE
  8
0
 10
50.5499
 20
126.272
 11
50.542
 21
126.397
  0
LINE
  8
0
 10
50.542
 20
126.397
 11
50.5499
 21
126.522
  0
LINE
  8
0
 10
50.5499
 20
126.522
 11
50.5734
 21
126.646
  0
LINE
  8
0
 10
50.5734
 20
126.646
 11
50.6122
 21
126.765
  0
LINE
  8
0
 10
50.6122
 20
126.765
 11
50.6657
 21
126.879
  0
LINE
  8
0
 10
50.6657
 20
126.879
 11
50.733
 21
126.985
  0
LINE
  8
0
 10
50.733
 20
126.985
 11
50.813
 21
127.082
  0
LINE
  8
0
 10
50.813
 20
127.082
 11
50.9046
 21
127.167
  0
LINE
  8
0
 10
50.9046
 20
127.167
 11
51.0062
 21
127.241
  0
LINE
  8
0
 10
51.0062
 20
127.241
 11
51.1162
 21
127.302
  0
LINE
  8
0
 10
51.1162
 20
127.302
 11
51.233
 21
127.348
  0
LINE
  8
0
 10
51.233
 20
127.348
 11
51.3546
 21
127.379
  0
LINE
  8
0
 10
51.3546
 20
127.379
 11
51.4792
 21
127.395
  0
LINE
  8
0
 10
51.4792
 20
127.395
 11
51.6048
 21
127.395
  0
LINE
  8
0
 10
51.6048
 20
127.395
 11
51.7294
 21
127.379
  0
LINE
  8
0
 10
51.7294
 20
127.379
 11
51.851
 21
127.348
  0
LINE
  8
0
 10
51.851
 20
127.348
 11
51.9678
 21
127.302
  0
LINE
  8
0
 10
51.9678
 20
127.302
 11
52.0778
 21
127.241
  0
LINE
  8
0
 10
52.0778
 20
127.241
 11
52.1794
 21
127.167
  0
LINE
  8
0
 10
52.1794
 20
127.167
 11
52.271
 21
127.082
  0
LINE
  8
0
 10
52.271
 20
127.082
 11
52.351
 21
126.985
  0
LINE
  8
0
 10
52.351
 20
126.985
 11
52.4183
 21
126.879
  0
LINE
  8
0
 10
52.4183
 20
126.879
 11
52.4718
 21
126.765
  0
LINE
  8
0
 10
52.4718
 20
126.765
 11
52.5106
 21
126.646
  0
LINE
  8
0
 10
52.5106
 20
126.646
 11
52.5341
 21
126.522
  0
LINE
  8
0
 10
52.5341
 20
126.522
 11
52.542
 21
126.397
  0
LINE
  8
0
 10
52.542
 20
126.397
 11
52.5341
 21
126.272
  0
LINE
  8
0
 10
52.5341
 20
126.272
 11
52.5106
 21
126.148
  0
LINE
  8
0
 10
52.5106
 20
126.148
 11
52.4718
 21
126.029
  0
LINE
  8
0
 10
52.4718
 20
126.029
 11
52.4183
 21
125.915
  0
LINE
  8
0
 10
52.4183
 20
125.915
 11
52.351
 21
125.809
  0
LINE
  8
0
 10
52.351
 20
125.809
 11
52.271
 21
125.712
  0
LINE
  8
0
 10
52.271
 20
125.712
 11
52.1794
 21
125.626
  0
LINE
  8
0
 10
52.1794
 20
125.626
 11
52.0778
 21
125.553
  0
LINE
  8
0
 10
52.0778
 20
125.553
 11
51.9678
 21
125.492
  0
LINE
  8
0
 10
51.9678
 20
125.492
 11
51.851
 21
125.446
  0
LINE
  8
0
 10
51.851
 20
125.446
 11
51.7294
 21
125.415
  0
LINE
  8
0
 10
51.7294
 20
125.415
 11
51.6048
 21
125.399
  0
LINE
  8
0
 10
51.6048
 20
125.399
 11
51.4792
 21
125.399
  0
LINE
  8
0
 10
-170.81
 20
122.917
 11
-170.934
 21
122.933
  0
LINE
  8
0
 10
-170.934
 20
122.933
 11
-171.056
 21
122.964
  0
LINE
  8
0
 10
-171.056
 20
122.964
 11
-171.173
 21
123.01
  0
LINE
  8
0
 10
-171.173
 20
123.01
 11
-171.283
 21
123.071
  0
LINE
  8
0
 10
-171.283
 20
123.071
 11
-171.384
 21
123.144
  0
LINE
  8
0
 10
-171.384
 20
123.144
 11
-171.476
 21
123.23
  0
LINE
  8
0
 10
-171.476
 20
123.23
 11
-171.556
 21
123.327
  0
LINE
  8
0
 10
-171.556
 20
123.327
 11
-171.623
 21
123.433
  0
LINE
  8
0
 10
-171.623
 20
123.433
 11
-171.677
 21
123.547
  0
LINE
  8
0
 10
-171.677
 20
123.547
 11
-171.716
 21
123.666
  0
LINE
  8
0
 10
-171.716
 20
123.666
 11
-171.739
 21
123.79
  0
LINE
  8
0
 10
-171.739
 20
123.79
 11
-171.747
 21
123.915
  0
LINE
  8
0
 10
-171.747
 20
123.915
 11
-171.739
 21
124.04
  0
LINE
  8
0
 10
-171.739
 20
124.04
 11
-171.716
 21
124.164
  0
LINE
  8
0
 10
-171.716
 20
124.164
 11
-171.677
 21
124.283
  0
LINE
  8
0
 10
-171.677
 20
124.283
 11
-171.623
 21
124.397
  0
LINE
  8
0
 10
-171.623
 20
124.397
 11
-171.556
 21
124.503
  0
LINE
  8
0
 10
-171.556
 20
124.503
 11
-171.476
 21
124.6
  0
LINE
  8
0
 10
-171.476
 20
124.6
 11
-171.384
 21
124.686
  0
LINE
  8
0
 10
-171.384
 20
124.686
 11
-171.283
 21
124.759
  0
LINE
  8
0
 10
-171.283
 20
124.759
 11
-171.173
 21
124.82
  0
LINE
  8
0
 10
-171.173
 20
124.82
 11
-171.056
 21
124.866
  0
LINE
  8
0
 10
-171.056
 20
124.866
 11
-170.934
 21
124.897
  0
LINE
  8
0
 10
-170.934
 20
124.897
 11
-170.81
 21
124.913
  0
LINE
  8
0
 10
-170.81
 20
124.913
 11
-170.684
 21
124.913
  0
LINE
  8
0
 10
-170.684
 20
124.913
 11
-170.56
 21
124.897
  0
LINE
  8
0
 10
-170.56
 20
124.897
 11
-170.438
 21
124.866
  0
LINE
  8
0
 10
-170.438
 20
124.866
 11
-170.321
 21
124.82
  0
LINE
  8
0
 10
-170.321
 20
124.82
 11
-170.211
 21
124.759
  0
LINE
  8
0
 10
-170.211
 20
124.759
 11
-170.11
 21
124.686
  0
LINE
  8
0
 10
-170.11
 20
124.686
 11
-170.018
 21
124.6
  0
LINE
  8
0
 10
-170.018
 20
124.6
 11
-169.938
 21
124.503
  0
LINE
  8
0
 10
-169.938
 20
124.503
 11
-169.871
 21
124.397
  0
LINE
  8
0
 10
-169.871
 20
124.397
 11
-169.817
 21
124.283
  0
LINE
  8
0
 10
-169.817
 20
124.283
 11
-169.778
 21
124.164
  0
LINE
  8
0
 10
-169.778
 20
124.164
 11
-169.755
 21
124.04
  0
LINE
  8
0
 10
-169.755
 20
124.04
 11
-169.747
 21
123.915
  0
LINE
  8
0
 10
-169.747
 20
123.915
 11
-169.755
 21
123.79
  0
LINE
  8
0
 10
-169.755
 20
123.79
 11
-169.778
 21
123.666
  0
LINE
  8
0
 10
-169.778
 20
123.666
 11
-169.817
 21
123.547
  0
LINE
  8
0
 10
-169.817
 20
123.547
 11
-169.871
 21
123.433
  0
LINE
  8
0
 10
-169.871
 20
123.433
 11
-169.938
 21
123.327
  0
LINE
  8
0
 10
-169.938
 20
123.327
 11
-170.018
 21
123.23
  0
LINE
  8
0
 10
-170.018
 20
123.23
 11
-170.11
 21
123.144
  0
LINE
  8
0
 10
-170.11
 20
123.144
 11
-170.211
 21
123.071
  0
LINE
  8
0
 10
-170.211
 20
123.071
 11
-170.321
 21
123.01
  0
LINE
  8
0
 10
-170.321
 20
123.01
 11
-170.438
 21
122.964
  0
LINE
  8
0
 10
-170.438
 20
122.964
 11
-170.56
 21
122.933
  0
LINE
  8
0
 10
-170.56
 20
122.933
 11
-170.684
 21
122.917
  0
LINE
  8
0
 10
-170.684
 20
122.917
 11
-170.81
 21
122.917
  0
LINE
  8
0
 10
169.235
 20
122.529
 11
169.111
 21
122.545
  0
LINE
  8
0
 10
169.111
 20
122.545
 11
168.989
 21
122.576
  0
LINE
  8
0
 10
168.989
 20
122.576
 11
168.872
 21
122.622
  0
LINE
  8
0
 10
168.872
 20
122.622
 11
168.762
 21
122.683
  0
LINE
  8
0
 10
168.762
 20
122.683
 11
168.661
 21
122.756
  0
LINE
  8
0
 10
168.661
 20
122.756
 11
168.569
 21
122.842
  0
LINE
  8
0
 10
168.569
 20
122.842
 11
168.489
 21
122.939
  0
LINE
  8
0
 10
168.489
 20
122.939
 11
168.422
 21
123.045
  0
LINE
  8
0
 10
168.422
 20
123.045
 11
168.368
 21
123.159
  0
LINE
  8
0
 10
168.368
 20
123.159
 11
168.329
 21
123.278
  0
LINE
  8
0
 10
168.329
 20
123.278
 11
168.306
 21
123.402
  0
LINE
  8
0
 10
168.306
 20
123.402
 11
168.298
 21
123.527
  0
LINE
  8
0
 10
168.298
 20
123.527
 11
168.306
 21
123.652
  0
LINE
  8
0
 10
168.306
 20
123.652
 11
168.329
 21
123.776
  0
LINE
  8
0
 10
168.329
 20
123.776
 11
168.368
 21
123.895
  0
LINE
  8
0
 10
168.368
 20
123.895
 11
168.422
 21
124.009
  0
LINE
  8
0
 10
168.422
 20
124.009
 11
168.489
 21
124.115
  0
LINE
  8
0
 10
168.489
 20
124.115
 11
168.569
 21
124.212
  0
LINE
  8
0
 10
168.569
 20
124.212
 11
168.661
 21
124.298
  0
LINE
  8
0
 10
168.661
 20
124.298
 11
168.762
 21
124.371
  0
LINE
  8
0
 10
168.762
 20
124.371
 11
168.872
 21
124.432
  0
LINE
  8
0
 10
168.872
 20
124.432
 11
168.989
 21
124.478
  0
LINE
  8
0
 10
168.989
 20
124.478
 11
169.111
 21
124.509
  0
LINE
  8
0
 10
169.111
 20
124.509
 11
169.235
 21
124.525
  0
LINE
  8
0
 10
169.235
 20
124.525
 11
169.361
 21
124.525
  0
LINE
  8
0
 10
169.361
 20
124.525
 11
169.485
 21
124.509
  0
LINE
  8
0
 10
169.485
 20
124.509
 11
169.607
 21
124.478
  0
LINE
  8
0
 10
169.607
 20
124.478
 11
169.724
 21
124.432
  0
LINE
  8
0
 10
169.724
 20
124.432
 11
169.834
 21
124.371
  0
LINE
  8
0
 10
169.834
 20
124.371
 11
169.935
 21
124.298
  0
LINE
  8
0
 10
169.935
 20
124.298
 11
170.027
 21
124.212
  0
LINE
  8
0
 10
170.027
 20
124.212
 11
170.107
 21
124.115
  0
LINE
  8
0
 10
170.107
 20
124.115
 11
170.174
 21
124.009
  0
LINE
  8
0
 10
170.174
 20
124.009
 11
170.228
 21
123.895
  0
LINE
  8
0
 10
170.228
 20
123.895
 11
170.267
 21
123.776
  0
LINE
  8
0
 10
170.267
 20
123.776
 11
170.29
 21
123.652
  0
LINE
  8
0
 10
170.29
 20
123.652
 11
170.298
 21
123.527
  0
LINE
  8
0
 10
170.298
 20
123.527
 11
170.29
 21
123.402
  0
LINE
  8
0
 10
170.29
 20
123.402
 11
170.267
 21
123.278
  0
LINE
  8
0
 10
170.267
 20
123.278
 11
170.228
 21
123.159
  0
LINE
  8
0
 10
170.228
 20
123.159
 11
170.174
 21
123.045
  0
LINE
  8
0
 10
170.174
 20
123.045
 11
170.107
 21
122.939
  0
LINE
  8
0
 10
170.107
 20
122.939
 11
170.027
 21
122.842
  0
LINE
  8
0
 10
170.027
 20
122.842
 11
169.935
 21
122.756
  0
LINE
  8
0
 10
169.935
 20
122.756
 11
169.834
 21
122.683
  0
LINE
  8
0
 10
169.834
 20
122.683
 11
169.724
 21
122.622
  0
LINE
  8
0
 10
169.724
 20
122.622
 11
169.607
 21
122.576
  0
LINE
  8
0
 10
169.607
 20
122.576
 11
169.485
 21
122.545
  0
LINE
  8
0
 10
169.485
 20
122.545
 11
169.361
 21
122.529
  0
LINE
  8
0
 10
169.361
 20
122.529
 11
169.235
 21
122.529
  0
LINE
  8
0
 10
-16.4898
 20
106.155
 11
-16.6144
 21
106.171
  0
LINE
  8
0
 10
-16.6144
 20
106.171
 11
-16.736
 21
106.202
  0
LINE
  8
0
 10
-16.736
 20
106.202
 11
-16.8528
 21
106.248
  0
LINE
  8
0
 10
-16.8528
 20
106.248
 11
-16.9628
 21
106.309
  0
LINE
  8
0
 10
-16.9628
 20
106.309
 11
-17.0644
 21
106.382
  0
LINE
  8
0
 10
-17.0644
 20
106.382
 11
-17.1559
 21
106.468
  0
LINE
  8
0
 10
-17.1559
 20
106.468
 11
-17.236
 21
106.565
  0
LINE
  8
0
 10
-17.236
 20
106.565
 11
-17.3033
 21
106.671
  0
LINE
  8
0
 10
-17.3033
 20
106.671
 11
-17.3568
 21
106.785
  0
LINE
  8
0
 10
-17.3568
 20
106.785
 11
-17.3956
 21
106.904
  0
LINE
  8
0
 10
-17.3956
 20
106.904
 11
-17.4191
 21
107.028
  0
LINE
  8
0
 10
-17.4191
 20
107.028
 11
-17.427
 21
107.153
  0
LINE
  8
0
 10
-17.427
 20
107.153
 11
-17.4191
 21
107.278
  0
LINE
  8
0
 10
-17.4191
 20
107.278
 11
-17.3956
 21
107.402
  0
LINE
  8
0
 10
-17.3956
 20
107.402
 11
-17.3568
 21
107.521
  0
LINE
  8
0
 10
-17.3568
 20
107.521
 11
-17.3033
 21
107.635
  0
LINE
  8
0
 10
-17.3033
 20
107.635
 11
-17.236
 21
107.741
  0
LINE
  8
0
 10
-17.236
 20
107.741
 11
-17.1559
 21
107.838
  0
LINE
  8
0
 10
-17.1559
 20
107.838
 11
-17.0644
 21
107.924
  0
LINE
  8
0
 10
-17.0644
 20
107.924
 11
-16.9628
 21
107.997
  0
LINE
  8
0
 10
-16.9628
 20
107.997
 11
-16.8528
 21
108.058
  0
LINE
  8
0
 10
-16.8528
 20
108.058
 11
-16.736
 21
108.104
  0
LINE
  8
0
 10
-16.736
 20
108.104
 11
-16.6144
 21
108.135
  0
LINE
  8
0
 10
-16.6144
 20
108.135
 11
-16.4898
 21
108.151
  0
LINE
  8
0
 10
-16.4898
 20
108.151
 11
-16.3642
 21
108.151
  0
LINE
  8
0
 10
-16.3642
 20
108.151
 11
-16.2396
 21
108.135
  0
LINE
  8
0
 10
-16.2396
 20
108.135
 11
-16.118
 21
108.104
  0
LINE
  8
0
 10
-16.118
 20
108.104
 11
-16.0012
 21
108.058
  0
LINE
  8
0
 10
-16.0012
 20
108.058
 11
-15.8912
 21
107.997
  0
LINE
  8
0
 10
-15.8912
 20
107.997
 11
-15.7896
 21
107.924
  0
LINE
  8
0
 10
-15.7896
 20
107.924
 11
-15.698
 21
107.838
  0
LINE
  8
0
 10
-15.698
 20
107.838
 11
-15.618
 21
107.741
  0
LINE
  8
0
 10
-15.618
 20
107.741
 11
-15.5507
 21
107.635
  0
LINE
  8
0
 10
-15.5507
 20
107.635
 11
-15.4972
 21
107.521
  0
LINE
  8
0
 10
-15.4972
 20
107.521
 11
-15.4584
 21
107.402
  0
LINE
  8
0
 10
-15.4584
 20
107.402
 11
-15.4349
 21
107.278
  0
LINE
  8
0
 10
-15.4349
 20
107.278
 11
-15.427
 21
107.153
  0
LINE
  8
0
 10
-15.427
 20
107.153
 11
-15.4349
 21
107.028
  0
LINE
  8
0
 10
-15.4349
 20
107.028
 11
-15.4584
 21
106.904
  0
LINE
  8
0
 10
-15.4584
 20
106.904
 11
-15.4972
 21
106.785
  0
LINE
  8
0
 10
-15.4972
 20
106.785
 11
-15.5507
 21
106.671
  0
LINE
  8
0
 10
-15.5507
 20
106.671
 11
-15.618
 21
106.565
  0
LINE
  8
0
 10
-15.618
 20
106.565
 11
-15.698
 21
106.468
  0
LINE
  8
0
 10
-15.698
 20
106.468
 11
-15.7896
 21
106.382
  0
LINE
  8
0
 10
-15.7896
 20
106.382
 11
-15.8912
 21
106.309
  0
LINE
  8
0
 10
-15.8912
 20
106.309
 11
-16.0012
 21
106.248
  0
LINE
  8
0
 10
-16.0012
 20
106.248
 11
-16.118
 21
106.202
  0
LINE
  8
0
 10
-16.118
 20
106.202
 11
-16.2396
 21
106.171
  0
LINE
  8
0
 10
-16.2396
 20
106.171
 11
-16.3642
 21
106.155
  0
LINE
  8
0
 10
-16.3642
 20
106.155
 11
-16.4898
 21
106.155
  0
LINE
  8
0
 10
15.3982
 20
105.896
 11
15.2736
 21
105.912
  0
LINE
  8
0
 10
15.2736
 20
105.912
 11
15.152
 21
105.943
  0
LINE
  8
0
 10
15.152
 20
105.943
 11
15.0352
 21
105.989
  0
LINE
  8
0
 10
15.0352
 20
105.989
 11
14.9252
 21
106.05
  0
LINE
  8
0
 10
14.9252
 20
106.05
 11
14.8236
 21
106.123
  0
LINE
  8
0
 10
14.8236
 20
106.123
 11
14.732
 21
106.209
  0
LINE
  8
0
 10
14.732
 20
106.209
 11
14.652
 21
106.306
  0
LINE
  8
0
 10
14.652
 20
106.306
 11
14.5847
 21
106.412
  0
LINE
  8
0
 10
14.5847
 20
106.412
 11
14.5312
 21
106.526
  0
LINE
  8
0
 10
14.5312
 20
106.526
 11
14.4924
 21
106.645
  0
LINE
  8
0
 10
14.4924
 20
106.645
 11
14.4689
 21
106.769
  0
LINE
  8
0
 10
14.4689
 20
106.769
 11
14.461
 21
106.894
  0
LINE
  8
0
 10
14.461
 20
106.894
 11
14.4689
 21
107.019
  0
LINE
  8
0
 10
14.4689
 20
107.019
 11
14.4924
 21
107.143
  0
LINE
  8
0
 10
14.4924
 20
107.143
 11
14.5312
 21
107.262
  0
LINE
  8
0
 10
14.5312
 20
107.262
 11
14.5847
 21
107.376
  0
LINE
  8
0
 10
14.5847
 20
107.376
 11
14.652
 21
107.482
  0
LINE
  8
0
 10
14.652
 20
107.482
 11
14.732
 21
107.579
  0
LINE
  8
0
 10
14.732
 20
107.579
 11
14.8236
 21
107.665
  0
LINE
  8
0
 10
14.8236
 20
107.665
 11
14.9252
 21
107.738
  0
LINE
  8
0
 10
14.9252
 20
107.738
 11
15.0352
 21
107.799
  0
LINE
  8
0
 10
15.0352
 20
107.799
 11
15.152
 21
107.845
  0
LINE
  8
0
 10
15.152
 20
107.845
 11
15.2736
 21
107.876
  0
LINE
  8
0
 10
15.2736
 20
107.876
 11
15.3982
 21
107.892
  0
LINE
  8
0
 10
15.3982
 20
107.892
 11
15.5238
 21
107.892
  0
LINE
  8
0
 10
15.5238
 20
107.892
 11
15.6484
 21
107.876
  0
LINE
  8
0
 10
15.6484
 20
107.876
 11
15.77
 21
107.845
  0
LINE
  8
0
 10
15.77
 20
107.845
 11
15.8868
 21
107.799
  0
LINE
  8
0
 10
15.8868
 20
107.799
 11
15.9968
 21
107.738
  0
LINE
  8
0
 10
15.9968
 20
107.738
 11
16.0984
 21
107.665
  0
LINE
  8
0
 10
16.0984
 20
107.665
 11
16.19
 21
107.579
  0
LINE
  8
0
 10
16.19
 20
107.579
 11
16.27
 21
107.482
  0
LINE
  8
0
 10
16.27
 20
107.482
 11
16.3373
 21
107.376
  0
LINE
  8
0
 10
16.3373
 20
107.376
 11
16.3908
 21
107.262
  0
LINE
  8
0
 10
16.3908
 20
107.262
 11
16.4296
 21
107.143
  0
LINE
  8
0
 10
16.4296
 20
107.143
 11
16.4531
 21
107.019
  0
LINE
  8
0
 10
16.4531
 20
107.019
 11
16.461
 21
106.894
  0
LINE
  8
0
 10
16.461
 20
106.894
 11
16.4531
 21
106.769
  0
LINE
  8
0
 10
16.4531
 20
106.769
 11
16.4296
 21
106.645
  0
LINE
  8
0
 10
16.4296
 20
106.645
 11
16.3908
 21
106.526
  0
LINE
  8
0
 10
16.3908
 20
106.526
 11
16.3373
 21
106.412
  0
LINE
  8
0
 10
16.3373
 20
106.412
 11
16.27
 21
106.306
  0
LINE
  8
0
 10
16.27
 20
106.306
 11
16.19
 21
106.209
  0
LINE
  8
0
 10
16.19
 20
106.209
 11
16.0984
 21
106.123
  0
LINE
  8
0
 10
16.0984
 20
106.123
 11
15.9968
 21
106.05
  0
LINE
  8
0
 10
15.9968
 20
106.05
 11
15.8868
 21
105.989
  0
LINE
  8
0
 10
15.8868
 20
105.989
 11
15.77
 21
105.943
  0
LINE
  8
0
 10
15.77
 20
105.943
 11
15.6484
 21
105.912
  0
LINE
  8
0
 10
15.6484
 20
105.912
 11
15.5238
 21
105.896
  0
LINE
  8
0
 10
15.5238
 20
105.896
 11
15.3982
 21
105.896
  0
LINE
  8
0
 10
-184.157
 20
57.647
 11
-184.281
 21
57.6627
  0
LINE
  8
0
 10
-184.281
 20
57.6627
 11
-184.403
 21
57.6939
  0
LINE
  8
0
 10
-184.403
 20
57.6939
 11
-184.52
 21
57.7402
  0
LINE
  8
0
 10
-184.52
 20
57.7402
 11
-184.63
 21
57.8007
  0
LINE
  8
0
 10
-184.63
 20
57.8007
 11
-184.731
 21
57.8745
  0
LINE
  8
0
 10
-184.731
 20
57.8745
 11
-184.823
 21
57.9604
  0
LINE
  8
0
 10
-184.823
 20
57.9604
 11
-184.903
 21
58.0572
  0
LINE
  8
0
 10
-184.903
 20
58.0572
 11
-184.97
 21
58.1632
  0
LINE
  8
0
 10
-184.97
 20
58.1632
 11
-185.024
 21
58.2769
  0
LINE
  8
0
 10
-185.024
 20
58.2769
 11
-185.063
 21
58.3963
  0
LINE
  8
0
 10
-185.063
 20
58.3963
 11
-185.086
 21
58.5197
  0
LINE
  8
0
 10
-185.086
 20
58.5197
 11
-185.094
 21
58.645
  0
LINE
  8
0
 10
-185.094
 20
58.645
 11
-185.086
 21
58.7703
  0
LINE
  8
0
 10
-185.086
 20
58.7703
 11
-185.063
 21
58.8937
  0
LINE
  8
0
 10
-185.063
 20
58.8937
 11
-185.024
 21
59.0131
  0
LINE
  8
0
 10
-185.024
 20
59.0131
 11
-184.97
 21
59.1267
  0
LINE
  8
0
 10
-184.97
 20
59.1267
 11
-184.903
 21
59.2328
  0
LINE
  8
0
 10
-184.903
 20
59.2328
 11
-184.823
 21
59.3295
  0
LINE
  8
0
 10
-184.823
 20
59.3295
 11
-184.731
 21
59.4155
  0
LINE
  8
0
 10
-184.731
 20
59.4155
 11
-184.63
 21
59.4893
  0
LINE
  8
0
 10
-184.63
 20
59.4893
 11
-184.52
 21
59.5498
  0
LINE
  8
0
 10
-184.52
 20
59.5498
 11
-184.403
 21
59.596
  0
LINE
  8
0
 10
-184.403
 20
59.596
 11
-184.281
 21
59.6273
  0
LINE
  8
0
 10
-184.281
 20
59.6273
 11
-184.157
 21
59.643
  0
LINE
  8
0
 10
-184.157
 20
59.643
 11
-184.031
 21
59.643
  0
LINE
  8
0
 10
-184.031
 20
59.643
 11
-183.907
 21
59.6273
  0
LINE
  8
0
 10
-183.907
 20
59.6273
 11
-183.785
 21
59.596
  0
LINE
  8
0
 10
-183.785
 20
59.596
 11
-183.668
 21
59.5498
  0
LINE
  8
0
 10
-183.668
 20
59.5498
 11
-183.558
 21
59.4893
  0
LINE
  8
0
 10
-183.558
 20
59.4893
 11
-183.457
 21
59.4155
  0
LINE
  8
0
 10
-183.457
 20
59.4155
 11
-183.365
 21
59.3295
  0
LINE
  8
0
 10
-183.365
 20
59.3295
 11
-183.285
 21
59.2328
  0
LINE
  8
0
 10
-183.285
 20
59.2328
 11
-183.218
 21
59.1267
  0
LINE
  8
0
 10
-183.218
 20
59.1267
 11
-183.164
 21
59.0131
  0
LINE
  8
0
 10
-183.164
 20
59.0131
 11
-183.125
 21
58.8937
  0
LINE
  8
0
 10
-183.125
 20
58.8937
 11
-183.102
 21
58.7703
  0
LINE
  8
0
 10
-183.102
 20
58.7703
 11
-183.094
 21
58.645
  0
LINE
  8
0
 10
-183.094
 20
58.645
 11
-183.102
 21
58.5197
  0
LINE
  8
0
 10
-183.102
 20
58.5197
 11
-183.125
 21
58.3963
  0
LINE
  8
0
 10
-183.125
 20
58.3963
 11
-183.164
 21
58.2769
  0
LINE
  8
0
 10
-183.164
 20
58.2769
 11
-183.218
 21
58.1632
  0
LINE
  8
0
 10
-183.218
 20
58.1632
 11
-183.285
 21
58.0572
  0
LINE
  8
0
 10
-183.285
 20
58.0572
 11
-183.365
 21
57.9604
  0
LINE
  8
0
 10
-183.365
 20
57.9604
 11
-183.457
 21
57.8745
  0
LINE
  8
0
 10
-183.457
 20
57.8745
 11
-183.558
 21
57.8007
  0
LINE
  8
0
 10
-183.558
 20
57.8007
 11
-183.668
 21
57.7402
  0
LINE
  8
0
 10
-183.668
 20
57.7402
 11
-183.785
 21
57.6939
  0
LINE
  8
0
 10
-183.785
 20
57.6939
 11
-183.907
 21
57.6627
  0
LINE
  8
0
 10
-183.907
 20
57.6627
 11
-184.031
 21
57.647
  0
LINE
  8
0
 10
-184.031
 20
57.647
 11
-184.157
 21
57.647
  0
LINE
  8
0
 10
182.582
 20
57.259
 11
182.458
 21
57.2747
  0
LINE
  8
0
 10
182.458
 20
57.2747
 11
182.336
 21
57.3059
  0
LINE
  8
0
 10
182.336
 20
57.3059
 11
182.219
 21
57.3522
  0
LINE
  8
0
 10
182.219
 20
57.3522
 11
182.109
 21
57.4127
  0
LINE
  8
0
 10
182.109
 20
57.4127
 11
182.008
 21
57.4865
  0
LINE
  8
0
 10
182.008
 20
57.4865
 11
181.916
 21
57.5724
  0
LINE
  8
0
 10
181.916
 20
57.5724
 11
181.836
 21
57.6692
  0
LINE
  8
0
 10
181.836
 20
57.6692
 11
181.769
 21
57.7752
  0
LINE
  8
0
 10
181.769
 20
57.7752
 11
181.715
 21
57.8889
  0
LINE
  8
0
 10
181.715
 20
57.8889
 11
181.676
 21
58.0083
  0
LINE
  8
0
 10
181.676
 20
58.0083
 11
181.653
 21
58.1317
  0
LINE
  8
0
 10
181.653
 20
58.1317
 11
181.645
 21
58.257
  0
LINE
  8
0
 10
181.645
 20
58.257
 11
181.653
 21
58.3823
  0
LINE
  8
0
 10
181.653
 20
58.3823
 11
181.676
 21
58.5057
  0
LINE
  8
0
 10
181.676
 20
58.5057
 11
181.715
 21
58.6251
  0
LINE
  8
0
 10
181.715
 20
58.6251
 11
181.769
 21
58.7387
  0
LINE
  8
0
 10
181.769
 20
58.7387
 11
181.836
 21
58.8448
  0
LINE
  8
0
 10
181.836
 20
58.8448
 11
181.916
 21
58.9415
  0
LINE
  8
0
 10
181.916
 20
58.9415
 11
182.008
 21
59.0275
  0
LINE
  8
0
 10
182.008
 20
59.0275
 11
182.109
 21
59.1013
  0
LINE
  8
0
 10
182.109
 20
59.1013
 11
182.219
 21
59.1618
  0
LINE
  8
0
 10
182.219
 20
59.1618
 11
182.336
 21
59.208
  0
LINE
  8
0
 10
182.336
 20
59.208
 11
182.458
 21
59.2393
  0
LINE
  8
0
 10
182.458
 20
59.2393
 11
182.582
 21
59.255
  0
LINE
  8
0
 10
182.582
 20
59.255
 11
182.708
 21
59.255
  0
LINE
  8
0
 10
182.708
 20
59.255
 11
182.832
 21
59.2393
  0
LINE
  8
0
 10
182.832
 20
59.2393
 11
182.954
 21
59.208
  0
LINE
  8
0
 10
182.954
 20
59.208
 11
183.071
 21
59.1618
  0
LINE
  8
0
 10
183.071
 20
59.1618
 11
183.181
 21
59.1013
  0
LINE
  8
0
 10
183.181
 20
59.1013
 11
183.282
 21
59.0275
  0
LINE
  8
0
 10
183.282
 20
59.0275
 11
183.374
 21
58.9415
  0
LINE
  8
0
 10
183.374
 20
58.9415
 11
183.454
 21
58.8448
  0
LINE
  8
0
 10
183.454
 20
58.8448
 11
183.521
 21
58.7387
  0
LINE
  8
0
 10
183.521
 20
58.7387
 11
183.575
 21
58.6251
  0
LINE
  8
0
 10
183.575
 20
58.6251
 11
183.614
 21
58.5057
  0
LINE
  8
0
 10
183.614
 20
58.5057
 11
183.637
 21
58.3823
  0
LINE
  8
0
 10
183.637
 20
58.3823
 11
183.645
 21
58.257
  0
LINE
  8
0
 10
183.645
 20
58.257
 11
183.637
 21
58.1317
  0
LINE
  8
0
 10
183.637
 20
58.1317
 11
183.614
 21
58.0083
  0
LINE
  8
0
 10
183.614
 20
58.0083
 11
183.575
 21
57.8889
  0
LINE
  8
0
 10
183.575
 20
57.8889
 11
183.521
 21
57.7752
  0
LINE
  8
0
 10
183.521
 20
57.7752
 11
183.454
 21
57.6692
  0
LINE
  8
0
 10
183.454
 20
57.6692
 11
183.374
 21
57.5724
  0
LINE
  8
0
 10
183.374
 20
57.5724
 11
183.282
 21
57.4865
  0
LINE
  8
0
 10
183.282
 20
57.4865
 11
183.181
 21
57.4127
  0
LINE
  8
0
 10
183.181
 20
57.4127
 11
183.071
 21
57.3522
  0
LINE
  8
0
 10
183.071
 20
57.3522
 11
182.954
 21
57.3059
  0
LINE
  8
0
 10
182.954
 20
57.3059
 11
182.832
 21
57.2747
  0
LINE
  8
0
 10
182.832
 20
57.2747
 11
182.708
 21
57.259
  0
LINE
  8
0
 10
182.708
 20
57.259
 11
182.582
 21
57.259
  0
LINE
  8
0
 10
-127.22
 20
30.589
 11
-127.344
 21
30.6047
  0
LINE
  8
0
 10
-127.344
 20
30.6047
 11
-127.466
 21
30.6359
  0
LINE
  8
0
 10
-127.466
 20
30.6359
 11
-127.583
 21
30.6822
  0
LINE
  8
0
 10
-127.583
 20
30.6822
 11
-127.693
 21
30.7427
  0
LINE
  8
0
 10
-127.693
 20
30.7427
 11
-127.794
 21
30.8165
  0
LINE
  8
0
 10
-127.794
 20
30.8165
 11
-127.886
 21
30.9025
  0
LINE
  8
0
 10
-127.886
 20
30.9025
 11
-127.966
 21
30.9992
  0
LINE
  8
0
 10
-127.966
 20
30.9992
 11
-128.033
 21
31.1052
  0
LINE
  8
0
 10
-128.033
 20
31.1052
 11
-128.087
 21
31.2189
  0
LINE
  8
0
 10
-128.087
 20
31.2189
 11
-128.126
 21
31.3383
  0
LINE
  8
0
 10
-128.126
 20
31.3383
 11
-128.149
 21
31.4617
  0
LINE
  8
0
 10
-128.149
 20
31.4617
 11
-128.157
 21
31.587
  0
LINE
  8
0
 10
-128.157
 20
31.587
 11
-128.149
 21
31.7123
  0
LINE
  8
0
 10
-128.149
 20
31.7123
 11
-128.126
 21
31.8357
  0
LINE
  8
0
 10
-128.126
 20
31.8357
 11
-128.087
 21
31.9551
  0
LINE
  8
0
 10
-128.087
 20
31.9551
 11
-128.033
 21
32.0687
  0
LINE
  8
0
 10
-128.033
 20
32.0687
 11
-127.966
 21
32.1748
  0
LINE
  8
0
 10
-127.966
 20
32.1748
 11
-127.886
 21
32.2715
  0
LINE
  8
0
 10
-127.886
 20
32.2715
 11
-127.794
 21
32.3575
  0
LINE
  8
0
 10
-127.794
 20
32.3575
 11
-127.693
 21
32.4313
  0
LINE
  8
0
 10
-127.693
 20
32.4313
 11
-127.583
 21
32.4918
  0
LINE
  8
0
 10
-127.583
 20
32.4918
 11
-127.466
 21
32.538
  0
LINE
  8
0
 10
-127.466
 20
32.538
 11
-127.344
 21
32.5693
  0
LINE
  8
0
 10
-127.344
 20
32.5693
 11
-127.22
 21
32.585
  0
LINE
  8
0
 10
-127.22
 20
32.585
 11
-127.094
 21
32.585
  0
LINE
  8
0
 10
-127.094
 20
32.585
 11
-126.97
 21
32.5693
  0
LINE
  8
0
 10
-126.97
 20
32.5693
 11
-126.848
 21
32.538
  0
LINE
  8
0
 10
-126.848
 20
32.538
 11
-126.731
 21
32.4918
  0
LINE
  8
0
 10
-126.731
 20
32.4918
 11
-126.621
 21
32.4313
  0
LINE
  8
0
 10
-126.621
 20
32.4313
 11
-126.52
 21
32.3575
  0
LINE
  8
0
 10
-126.52
 20
32.3575
 11
-126.428
 21
32.2715
  0
LINE
  8
0
 10
-126.428
 20
32.2715
 11
-126.348
 21
32.1748
  0
LINE
  8
0
 10
-126.348
 20
32.1748
 11
-126.281
 21
32.0687
  0
LINE
  8
0
 10
-126.281
 20
32.0687
 11
-126.227
 21
31.9551
  0
LINE
  8
0
 10
-126.227
 20
31.9551
 11
-126.188
 21
31.8357
  0
LINE
  8
0
 10
-126.188
 20
31.8357
 11
-126.165
 21
31.7123
  0
LINE
  8
0
 10
-126.165
 20
31.7123
 11
-126.157
 21
31.587
  0
LINE
  8
0
 10
-126.157
 20
31.587
 11
-126.165
 21
31.4617
  0
LINE
  8
0
 10
-126.165
 20
31.4617
 11
-126.188
 21
31.3383
  0
LINE
  8
0
 10
-126.188
 20
31.3383
 11
-126.227
 21
31.2189
  0
LINE
  8
0
 10
-126.227
 20
31.2189
 11
-126.281
 21
31.1052
  0
LINE
  8
0
 10
-126.281
 20
31.1052
 11
-126.348
 21
30.9992
  0
LINE
  8
0
 10
-126.348
 20
30.9992
 11
-126.428
 21
30.9025
  0
LINE
  8
0
 10
-126.428
 20
30.9025
 11
-126.52
 21
30.8165
  0
LINE
  8
0
 10
-126.52
 20
30.8165
 11
-126.621
 21
30.7427
  0
LINE
  8
0
 10
-126.621
 20
30.7427
 11
-126.731
 21
30.6822
  0
LINE
  8
0
 10
-126.731
 20
30.6822
 11
-126.848
 21
30.6359
  0
LINE
  8
0
 10
-126.848
 20
30.6359
 11
-126.97
 21
30.6047
  0
LINE
  8
0
 10
-126.97
 20
30.6047
 11
-127.094
 21
30.589
  0
LINE
  8
0
 10
-127.094
 20
30.589
 11
-127.22
 21
30.589
  0
LINE
  8
0
 10
126.129
 20
30.33
 11
126.005
 21
30.3457
  0
LINE
  8
0
 10
126.005
 20
30.3457
 11
125.883
 21
30.3769
  0
LINE
  8
0
 10
125.883
 20
30.3769
 11
125.766
 21
30.4232
  0
LINE
  8
0
 10
125.766
 20
30.4232
 11
125.656
 21
30.4837
  0
LINE
  8
0
 10
125.656
 20
30.4837
 11
125.555
 21
30.5575
  0
LINE
  8
0
 10
125.555
 20
30.5575
 11
125.463
 21
30.6434
  0
LINE
  8
0
 10
125.463
 20
30.6434
 11
125.383
 21
30.7402
  0
LINE
  8
0
 10
125.383
 20
30.7402
 11
125.316
 21
30.8462
  0
LINE
  8
0
 10
125.316
 20
30.8462
 11
125.262
 21
30.9599
  0
LINE
  8
0
 10
125.262
 20
30.9599
 11
125.223
 21
31.0793
  0
LINE
  8
0
 10
125.223
 20
31.0793
 11
125.2
 21
31.2027
  0
LINE
  8
0
 10
125.2
 20
31.2027
 11
125.192
 21
31.328
  0
LINE
  8
0
 10
125.192
 20
31.328
 11
125.2
 21
31.4533
  0
LINE
  8
0
 10
125.2
 20
31.4533
 11
125.223
 21
31.5767
  0
LINE
  8
0
 10
125.223
 20
31.5767
 11
125.262
 21
31.6961
  0
LINE
  8
0
 10
125.262
 20
31.6961
 11
125.316
 21
31.8097
  0
LINE
  8
0
 10
125.316
 20
31.8097
 11
125.383
 21
31.9158
  0
LINE
  8
0
 10
125.383
 20
31.9158
 11
125.463
 21
32.0125
  0
LINE
  8
0
 10
125.463
 20
32.0125
 11
125.555
 21
32.0985
  0
LINE
  8
0
 10
125.555
 20
32.0985
 11
125.656
 21
32.1723
  0
LINE
  8
0
 10
125.656
 20
32.1723
 11
125.766
 21
32.2328
  0
LINE
  8
0
 10
125.766
 20
32.2328
 11
125.883
 21
32.279
  0
LINE
  8
0
 10
125.883
 20
32.279
 11
126.005
 21
32.3103
  0
LINE
  8
0
 10
126.005
 20
32.3103
 11
126.129
 21
32.326
  0
LINE
  8
0
 10
126.129
 20
32.326
 11
126.255
 21
32.326
  0
LINE
  8
0
 10
126.255
 20
32.326
 11
126.379
 21
32.3103
  0
LINE
  8
0
 10
126.379
 20
32.3103
 11
126.501
 21
32.279
  0
LINE
  8
0
 10
126.501
 20
32.279
 11
126.618
 21
32.2328
  0
LINE
  8
0
 10
126.618
 20
32.2328
 11
126.728
 21
32.1723
  0
LINE
  8
0
 10
126.728
 20
32.1723
 11
126.829
 21
32.0985
  0
LINE
  8
0
 10
126.829
 20
32.0985
 11
126.921
 21
32.0125
  0
LINE
  8
0
 10
126.921
 20
32.0125
 11
127.001
 21
31.9158
  0
LINE
  8
0
 10
127.001
 20
31.9158
 11
127.068
 21
31.8097
  0
LINE
  8
0
 10
127.068
 20
31.8097
 11
127.122
 21
31.6961
  0
LINE
  8
0
 10
127.122
 20
31.6961
 11
127.161
 21
31.5767
  0
LINE
  8
0
 10
127.161
 20
31.5767
 11
127.184
 21
31.4533
  0
LINE
  8
0
 10
127.184
 20
31.4533
 11
127.192
 21
31.328
  0
LINE
  8
0
 10
127.192
 20
31.328
 11
127.184
 21
31.2027
  0
LINE
  8
0
 10
127.184
 20
31.2027
 11
127.161
 21
31.0793
  0
LINE
  8
0
 10
127.161
 20
31.0793
 11
127.122
 21
30.9599
  0
LINE
  8
0
 10
127.122
 20
30.9599
 11
127.068
 21
30.8462
  0
LINE
  8
0
 10
127.068
 20
30.8462
 11
127.001
 21
30.7402
  0
LINE
  8
0
 10
127.001
 20
30.7402
 11
126.921
 21
30.6434
  0
LINE
  8
0
 10
126.921
 20
30.6434
 11
126.829
 21
30.5575
  0
LINE
  8
0
 10
126.829
 20
30.5575
 11
126.728
 21
30.4837
  0
LINE
  8
0
 10
126.728
 20
30.4837
 11
126.618
 21
30.4232
  0
LINE
  8
0
 10
126.618
 20
30.4232
 11
126.501
 21
30.3769
  0
LINE
  8
0
 10
126.501
 20
30.3769
 11
126.379
 21
30.3457
  0
LINE
  8
0
 10
126.379
 20
30.3457
 11
126.255
 21
30.33
  0
LINE
  8
0
 10
126.255
 20
30.33
 11
126.129
 21
30.33
  0
LINE
  8
0
 10
-93.9048
 20
4.62398
 11
-94.0294
 21
4.63971
  0
LINE
  8
0
 10
-94.0294
 20
4.63971
 11
-94.151
 21
4.67094
  0
LINE
  8
0
 10
-94.151
 20
4.67094
 11
-94.2678
 21
4.71718
  0
LINE
  8
0
 10
-94.2678
 20
4.71718
 11
-94.3778
 21
4.77768
  0
LINE
  8
0
 10
-94.3778
 20
4.77768
 11
-94.4794
 21
4.85149
  0
LINE
  8
0
 10
-94.4794
 20
4.85149
 11
-94.571
 21
4.93745
  0
LINE
  8
0
 10
-94.571
 20
4.93745
 11
-94.651
 21
5.03421
  0
LINE
  8
0
 10
-94.651
 20
5.03421
 11
-94.7183
 21
5.14024
  0
LINE
  8
0
 10
-94.7183
 20
5.14024
 11
-94.7718
 21
5.25388
  0
LINE
  8
0
 10
-94.7718
 20
5.25388
 11
-94.8106
 21
5.37331
  0
LINE
  8
0
 10
-94.8106
 20
5.37331
 11
-94.8341
 21
5.49667
  0
LINE
  8
0
 10
-94.8341
 20
5.49667
 11
-94.842
 21
5.62199
  0
LINE
  8
0
 10
-94.842
 20
5.62199
 11
-94.8341
 21
5.74731
  0
LINE
  8
0
 10
-94.8341
 20
5.74731
 11
-94.8106
 21
5.87068
  0
LINE
  8
0
 10
-94.8106
 20
5.87068
 11
-94.7718
 21
5.99011
  0
LINE
  8
0
 10
-94.7718
 20
5.99011
 11
-94.7183
 21
6.10374
  0
LINE
  8
0
 10
-94.7183
 20
6.10374
 11
-94.651
 21
6.20978
  0
LINE
  8
0
 10
-94.651
 20
6.20978
 11
-94.571
 21
6.30653
  0
LINE
  8
0
 10
-94.571
 20
6.30653
 11
-94.4794
 21
6.3925
  0
LINE
  8
0
 10
-94.4794
 20
6.3925
 11
-94.3778
 21
6.46631
  0
LINE
  8
0
 10
-94.3778
 20
6.46631
 11
-94.2678
 21
6.52681
  0
LINE
  8
0
 10
-94.2678
 20
6.52681
 11
-94.151
 21
6.57304
  0
LINE
  8
0
 10
-94.151
 20
6.57304
 11
-94.0294
 21
6.60428
  0
LINE
  8
0
 10
-94.0294
 20
6.60428
 11
-93.9048
 21
6.62001
  0
LINE
  8
0
 10
-93.9048
 20
6.62001
 11
-93.7792
 21
6.62001
  0
LINE
  8
0
 10
-93.7792
 20
6.62001
 11
-93.6546
 21
6.60428
  0
LINE
  8
0
 10
-93.6546
 20
6.60428
 11
-93.533
 21
6.57304
  0
LINE
  8
0
 10
-93.533
 20
6.57304
 11
-93.4162
 21
6.52681
  0
LINE
  8
0
 10
-93.4162
 20
6.52681
 11
-93.3062
 21
6.46631
  0
LINE
  8
0
 10
-93.3062
 20
6.46631
 11
-93.2046
 21
6.3925
  0
LINE
  8
0
 10
-93.2046
 20
6.3925
 11
-93.113
 21
6.30653
  0
LINE
  8
0
 10
-93.113
 20
6.30653
 11
-93.033
 21
6.20978
  0
LINE
  8
0
 10
-93.033
 20
6.20978
 11
-92.9657
 21
6.10374
  0
LINE
  8
0
 10
-92.9657
 20
6.10374
 11
-92.9122
 21
5.99011
  0
LINE
  8
0
 10
-92.9122
 20
5.99011
 11
-92.8734
 21
5.87068
  0
LINE
  8
0
 10
-92.8734
 20
5.87068
 11
-92.8499
 21
5.74731
  0
LINE
  8
0
 10
-92.8499
 20
5.74731
 11
-92.842
 21
5.62199
  0
LINE
  8
0
 10
-92.842
 20
5.62199
 11
-92.8499
 21
5.49667
  0
LINE
  8
0
 10
-92.8499
 20
5.49667
 11
-92.8734
 21
5.37331
  0
LINE
  8
0
 10
-92.8734
 20
5.37331
 11
-92.9122
 21
5.25388
  0
LINE
  8
0
 10
-92.9122
 20
5.25388
 11
-92.9657
 21
5.14024
  0
LINE
  8
0
 10
-92.9657
 20
5.14024
 11
-93.033
 21
5.03421
  0
LINE
  8
0
 10
-93.033
 20
5.03421
 11
-93.113
 21
4.93745
  0
LINE
  8
0
 10
-93.113
 20
4.93745
 11
-93.2046
 21
4.85149
  0
LINE
  8
0
 10
-93.2046
 20
4.85149
 11
-93.3062
 21
4.77768
  0
LINE
  8
0
 10
-93.3062
 20
4.77768
 11
-93.4162
 21
4.71718
  0
LINE
  8
0
 10
-93.4162
 20
4.71718
 11
-93.533
 21
4.67094
  0
LINE
  8
0
 10
-93.533
 20
4.67094
 11
-93.6546
 21
4.63971
  0
LINE
  8
0
 10
-93.6546
 20
4.63971
 11
-93.7792
 21
4.62398
  0
LINE
  8
0
 10
-93.7792
 20
4.62398
 11
-93.9048
 21
4.62398
  0
LINE
  8
0
 10
92.8182
 20
4.54398
 11
92.6936
 21
4.55971
  0
LINE
  8
0
 10
92.6936
 20
4.55971
 11
92.572
 21
4.59094
  0
LINE
  8
0
 10
92.572
 20
4.59094
 11
92.4552
 21
4.63718
  0
LINE
  8
0
 10
92.4552
 20
4.63718
 11
92.3452
 21
4.69768
  0
LINE
  8
0
 10
92.3452
 20
4.69768
 11
92.2436
 21
4.77148
  0
LINE
  8
0
 10
92.2436
 20
4.77148
 11
92.152
 21
4.85745
  0
LINE
  8
0
 10
92.152
 20
4.85745
 11
92.072
 21
4.95421
  0
LINE
  8
0
 10
92.072
 20
4.95421
 11
92.0047
 21
5.06024
  0
LINE
  8
0
 10
92.0047
 20
5.06024
 11
91.9512
 21
5.17387
  0
LINE
  8
0
 10
91.9512
 20
5.17387
 11
91.9124
 21
5.2933
  0
LINE
  8
0
 10
91.9124
 20
5.2933
 11
91.8889
 21
5.41667
  0
LINE
  8
0
 10
91.8889
 20
5.41667
 11
91.881
 21
5.54199
  0
LINE
  8
0
 10
91.881
 20
5.54199
 11
91.8889
 21
5.66731
  0
LINE
  8
0
 10
91.8889
 20
5.66731
 11
91.9124
 21
5.79068
  0
LINE
  8
0
 10
91.9124
 20
5.79068
 11
91.9512
 21
5.91011
  0
LINE
  8
0
 10
91.9512
 20
5.91011
 11
92.0047
 21
6.02374
  0
LINE
  8
0
 10
92.0047
 20
6.02374
 11
92.072
 21
6.12978
  0
LINE
  8
0
 10
92.072
 20
6.12978
 11
92.152
 21
6.22653
  0
LINE
  8
0
 10
92.152
 20
6.22653
 11
92.2436
 21
6.3125
  0
LINE
  8
0
 10
92.2436
 20
6.3125
 11
92.3452
 21
6.38631
  0
LINE
  8
0
 10
92.3452
 20
6.38631
 11
92.4552
 21
6.44681
  0
LINE
  8
0
 10
92.4552
 20
6.44681
 11
92.572
 21
6.49304
  0
LINE
  8
0
 10
92.572
 20
6.49304
 11
92.6936
 21
6.52428
  0
LINE
  8
0
 10
92.6936
 20
6.52428
 11
92.8182
 21
6.54001
  0
LINE
  8
0
 10
92.8182
 20
6.54001
 11
92.9438
 21
6.54001
  0
LINE
  8
0
 10
92.9438
 20
6.54001
 11
93.0684
 21
6.52428
  0
LINE
  8
0
 10
93.0684
 20
6.52428
 11
93.19
 21
6.49304
  0
LINE
  8
0
 10
93.19
 20
6.49304
 11
93.3068
 21
6.44681
  0
LINE
  8
0
 10
93.3068
 20
6.44681
 11
93.4168
 21
6.38631
  0
LINE
  8
0
 10
93.4168
 20
6.38631
 11
93.5184
 21
6.3125
  0
LINE
  8
0
 10
93.5184
 20
6.3125
 11
93.61
 21
6.22653
  0
LINE
  8
0
 10
93.61
 20
6.22653
 11
93.69
 21
6.12978
  0
LINE
  8
0
 10
93.69
 20
6.12978
 11
93.7573
 21
6.02374
  0
LINE
  8
0
 10
93.7573
 20
6.02374
 11
93.8108
 21
5.91011
  0
LINE
  8
0
 10
93.8108
 20
5.91011
 11
93.8496
 21
5.79068
  0
LINE
  8
0
 10
93.8496
 20
5.79068
 11
93.8731
 21
5.66731
  0
LINE
  8
0
 10
93.8731
 20
5.66731
 11
93.881
 21
5.54199
  0
LINE
  8
0
 10
93.881
 20
5.54199
 11
93.8731
 21
5.41667
  0
LINE
  8
0
 10
93.8731
 20
5.41667
 11
93.8496
 21
5.2933
  0
LINE
  8
0
 10
93.8496
 20
5.2933
 11
93.8108
 21
5.17387
  0
LINE
  8
0
 10
93.8108
 20
5.17387
 11
93.7573
 21
5.06024
  0
LINE
  8
0
 10
93.7573
 20
5.06024
 11
93.69
 21
4.95421
  0
LINE
  8
0
 10
93.69
 20
4.95421
 11
93.61
 21
4.85745
  0
LINE
  8
0
 10
93.61
 20
4.85745
 11
93.5184
 21
4.77148
  0
LINE
  8
0
 10
93.5184
 20
4.77148
 11
93.4168
 21
4.69768
  0
LINE
  8
0
 10
93.4168
 20
4.69768
 11
93.3068
 21
4.63718
  0
LINE
  8
0
 10
93.3068
 20
4.63718
 11
93.19
 21
4.59094
  0
LINE
  8
0
 10
93.19
 20
4.59094
 11
93.0684
 21
4.55971
  0
LINE
  8
0
 10
93.0684
 20
4.55971
 11
92.9438
 21
4.54398
  0
LINE
  8
0
 10
92.9438
 20
4.54398
 11
92.8182
 21
4.54398
  0
LINE
  8
0
 10
-57.9378
 20
-46.371
 11
-58.0624
 21
-46.3553
  0
LINE
  8
0
 10
-58.0624
 20
-46.3553
 11
-58.184
 21
-46.324
  0
LINE
  8
0
 10
-58.184
 20
-46.324
 11
-58.3008
 21
-46.2778
  0
LINE
  8
0
 10
-58.3008
 20
-46.2778
 11
-58.4108
 21
-46.2173
  0
LINE
  8
0
 10
-58.4108
 20
-46.2173
 11
-58.5124
 21
-46.1435
  0
LINE
  8
0
 10
-58.5124
 20
-46.1435
 11
-58.604
 21
-46.0575
  0
LINE
  8
0
 10
-58.604
 20
-46.0575
 11
-58.684
 21
-45.9608
  0
LINE
  8
0
 10
-58.684
 20
-45.9608
 11
-58.7513
 21
-45.8547
  0
LINE
  8
0
 10
-58.7513
 20
-45.8547
 11
-58.8048
 21
-45.7411
  0
LINE
  8
0
 10
-58.8048
 20
-45.7411
 11
-58.8436
 21
-45.6217
  0
LINE
  8
0
 10
-58.8436
 20
-45.6217
 11
-58.8671
 21
-45.4983
  0
LINE
  8
0
 10
-58.8671
 20
-45.4983
 11
-58.875
 21
-45.373
  0
LINE
  8
0
 10
-58.875
 20
-45.373
 11
-58.8671
 21
-45.2477
  0
LINE
  8
0
 10
-58.8671
 20
-45.2477
 11
-58.8436
 21
-45.1243
  0
LINE
  8
0
 10
-58.8436
 20
-45.1243
 11
-58.8048
 21
-45.0049
  0
LINE
  8
0
 10
-58.8048
 20
-45.0049
 11
-58.7513
 21
-44.8912
  0
LINE
  8
0
 10
-58.7513
 20
-44.8912
 11
-58.684
 21
-44.7852
  0
LINE
  8
0
 10
-58.684
 20
-44.7852
 11
-58.604
 21
-44.6884
  0
LINE
  8
0
 10
-58.604
 20
-44.6884
 11
-58.5124
 21
-44.6025
  0
LINE
  8
0
 10
-58.5124
 20
-44.6025
 11
-58.4108
 21
-44.5287
  0
LINE
  8
0
 10
-58.4108
 20
-44.5287
 11
-58.3008
 21
-44.4682
  0
LINE
  8
0
 10
-58.3008
 20
-44.4682
 11
-58.184
 21
-44.4219
  0
LINE
  8
0
 10
-58.184
 20
-44.4219
 11
-58.0624
 21
-44.3907
  0
LINE
  8
0
 10
-58.0624
 20
-44.3907
 11
-57.9378
 21
-44.375
  0
LINE
  8
0
 10
-57.9378
 20
-44.375
 11
-57.8122
 21
-44.375
  0
LINE
  8
0
 10
-57.8122
 20
-44.375
 11
-57.6876
 21
-44.3907
  0
LINE
  8
0
 10
-57.6876
 20
-44.3907
 11
-57.566
 21
-44.4219
  0
LINE
  8
0
 10
-57.566
 20
-44.4219
 11
-57.4492
 21
-44.4682
  0
LINE
  8
0
 10
-57.4492
 20
-44.4682
 11
-57.3392
 21
-44.5287
  0
LINE
  8
0
 10
-57.3392
 20
-44.5287
 11
-57.2376
 21
-44.6025
  0
LINE
  8
0
 10
-57.2376
 20
-44.6025
 11
-57.146
 21
-44.6884
  0
LINE
  8
0
 10
-57.146
 20
-44.6884
 11
-57.066
 21
-44.7852
  0
LINE
  8
0
 10
-57.066
 20
-44.7852
 11
-56.9987
 21
-44.8912
  0
LINE
  8
0
 10
-56.9987
 20
-44.8912
 11
-56.9452
 21
-45.0049
  0
LINE
  8
0
 10
-56.9452
 20
-45.0049
 11
-56.9064
 21
-45.1243
  0
LINE
  8
0
 10
-56.9064
 20
-45.1243
 11
-56.8829
 21
-45.2477
  0
LINE
  8
0
 10
-56.8829
 20
-45.2477
 11
-56.875
 21
-45.373
  0
LINE
  8
0
 10
-56.875
 20
-45.373
 11
-56.8829
 21
-45.4983
  0
LINE
  8
0
 10
-56.8829
 20
-45.4983
 11
-56.9064
 21
-45.6217
  0
LINE
  8
0
 10
-56.9064
 20
-45.6217
 11
-56.9452
 21
-45.7411
  0
LINE
  8
0
 10
-56.9452
 20
-45.7411
 11
-56.9987
 21
-45.8547
  0
LINE
  8
0
 10
-56.9987
 20
-45.8547
 11
-57.066
 21
-45.9608
  0
LINE
  8
0
 10
-57.066
 20
-45.9608
 11
-57.146
 21
-46.0575
  0
LINE
  8
0
 10
-57.146
 20
-46.0575
 11
-57.2376
 21
-46.1435
  0
LINE
  8
0
 10
-57.2376
 20
-46.1435
 11
-57.3392
 21
-46.2173
  0
LINE
  8
0
 10
-57.3392
 20
-46.2173
 11
-57.4492
 21
-46.2778
  0
LINE
  8
0
 10
-57.4492
 20
-46.2778
 11
-57.566
 21
-46.324
  0
LINE
  8
0
 10
-57.566
 20
-46.324
 11
-57.6876
 21
-46.3553
  0
LINE
  8
0
 10
-57.6876
 20
-46.3553
 11
-57.8122
 21
-46.371
  0
LINE
  8
0
 10
-57.8122
 20
-46.371
 11
-57.9378
 21
-46.371
  0
LINE
  8
0
 10
57.2262
 20
-46.787
 11
57.1016
 21
-46.7713
  0
LINE
  8
0
 10
57.1016
 20
-46.7713
 11
56.98
 21
-46.74
  0
LINE
  8
0
 10
56.98
 20
-46.74
 11
56.8632
 21
-46.6938
  0
LINE
  8
0
 10
56.8632
 20
-46.6938
 11
56.7532
 21
-46.6333
  0
LINE
  8
0
 10
56.7532
 20
-46.6333
 11
56.6516
 21
-46.5595
  0
LINE
  8
0
 10
56.6516
 20
-46.5595
 11
56.56
 21
-46.4735
  0
LINE
  8
0
 10
56.56
 20
-46.4735
 11
56.48
 21
-46.3768
  0
LINE
  8
0
 10
56.48
 20
-46.3768
 11
56.4127
 21
-46.2707
  0
LINE
  8
0
 10
56.4127
 20
-46.2707
 11
56.3592
 21
-46.1571
  0
LINE
  8
0
 10
56.3592
 20
-46.1571
 11
56.3204
 21
-46.0377
  0
LINE
  8
0
 10
56.3204
 20
-46.0377
 11
56.2969
 21
-45.9143
  0
LINE
  8
0
 10
56.2969
 20
-45.9143
 11
56.289
 21
-45.789
  0
LINE
  8
0
 10
56.289
 20
-45.789
 11
56.2969
 21
-45.6637
  0
LINE
  8
0
 10
56.2969
 20
-45.6637
 11
56.3204
 21
-45.5403
  0
LINE
  8
0
 10
56.3204
 20
-45.5403
 11
56.3592
 21
-45.4209
  0
LINE
  8
0
 10
56.3592
 20
-45.4209
 11
56.4127
 21
-45.3072
  0
LINE
  8
0
 10
56.4127
 20
-45.3072
 11
56.48
 21
-45.2012
  0
LINE
  8
0
 10
56.48
 20
-45.2012
 11
56.56
 21
-45.1044
  0
LINE
  8
0
 10
56.56
 20
-45.1044
 11
56.6516
 21
-45.0185
  0
LINE
  8
0
 10
56.6516
 20
-45.0185
 11
56.7532
 21
-44.9447
  0
LINE
  8
0
 10
56.7532
 20
-44.9447
 11
56.8632
 21
-44.8842
  0
LINE
  8
0
 10
56.8632
 20
-44.8842
 11
56.98
 21
-44.8379
  0
LINE
  8
0
 10
56.98
 20
-44.8379
 11
57.1016
 21
-44.8067
  0
LINE
  8
0
 10
57.1016
 20
-44.8067
 11
57.2262
 21
-44.791
  0
LINE
  8
0
 10
57.2262
 20
-44.791
 11
57.3518
 21
-44.791
  0
LINE
  8
0
 10
57.3518
 20
-44.791
 11
57.4764
 21
-44.8067
  0
LINE
  8
0
 10
57.4764
 20
-44.8067
 11
57.598
 21
-44.8379
  0
LINE
  8
0
 10
57.598
 20
-44.8379
 11
57.7148
 21
-44.8842
  0
LINE
  8
0
 10
57.7148
 20
-44.8842
 11
57.8248
 21
-44.9447
  0
LINE
  8
0
 10
57.8248
 20
-44.9447
 11
57.9264
 21
-45.0185
  0
LINE
  8
0
 10
57.9264
 20
-45.0185
 11
58.0179
 21
-45.1044
  0
LINE
  8
0
 10
58.0179
 20
-45.1044
 11
58.098
 21
-45.2012
  0
LINE
  8
0
 10
58.098
 20
-45.2012
 11
58.1653
 21
-45.3072
  0
LINE
  8
0
 10
58.1653
 20
-45.3072
 11
58.2188
 21
-45.4209
  0
LINE
  8
0
 10
58.2188
 20
-45.4209
 11
58.2576
 21
-45.5403
  0
LINE
  8
0
 10
58.2576
 20
-45.5403
 11
58.2811
 21
-45.6637
  0
LINE
  8
0
 10
58.2811
 20
-45.6637
 11
58.289
 21
-45.789
  0
LINE
  8
0
 10
58.289
 20
-45.789
 11
58.2811
 21
-45.9143
  0
LINE
  8
0
 10
58.2811
 20
-45.9143
 11
58.2576
 21
-46.0377
  0
LINE
  8
0
 10
58.2576
 20
-46.0377
 11
58.2188
 21
-46.1571
  0
LINE
  8
0
 10
58.2188
 20
-46.1571
 11
58.1653
 21
-46.2707
  0
LINE
  8
0
 10
58.1653
 20
-46.2707
 11
58.098
 21
-46.3768
  0
LINE
  8
0
 10
58.098
 20
-46.3768
 11
58.0179
 21
-46.4735
  0
LINE
  8
0
 10
58.0179
 20
-46.4735
 11
57.9264
 21
-46.5595
  0
LINE
  8
0
 10
57.9264
 20
-46.5595
 11
57.8248
 21
-46.6333
  0
LINE
  8
0
 10
57.8248
 20
-46.6333
 11
57.7148
 21
-46.6938
  0
LINE
  8
0
 10
57.7148
 20
-46.6938
 11
57.598
 21
-46.74
  0
LINE
  8
0
 10
57.598
 20
-46.74
 11
57.4764
 21
-46.7713
  0
LINE
  8
0
 10
57.4764
 20
-46.7713
 11
57.3518
 21
-46.787
  0
LINE
  8
0
 10
57.3518
 20
-46.787
 11
57.2262
 21
-46.787
  0
ENDSEC
  0
SECTION
  2
OBJECTS
  0
DICTIONARY
  0
ENDSEC
  0
EOF
