  0
SECTION
  2
BLOCKS
  0
ENDSEC
  0
SECTION
  2
ENTITIES
  0
LINE
  8
0
 10
-170.543
 20
119.923
 11
-170.496
 21
119.923
  0
LINE
  8
0
 10
-170.496
 20
119.923
 11
-169.997
 21
119.986
  0
LINE
  8
0
 10
-169.997
 20
119.986
 11
-169.511
 21
120.111
  0
LINE
  8
0
 10
-169.511
 20
120.111
 11
-169.044
 21
120.296
  0
LINE
  8
0
 10
-169.044
 20
120.296
 11
-168.604
 21
120.538
  0
LINE
  8
0
 10
-168.604
 20
120.538
 11
-168.197
 21
120.833
  0
LINE
  8
0
 10
-168.197
 20
120.833
 11
-167.831
 21
121.177
  0
LINE
  8
0
 10
-167.831
 20
121.177
 11
-167.511
 21
121.564
  0
LINE
  8
0
 10
-167.511
 20
121.564
 11
-167.242
 21
121.988
  0
LINE
  8
0
 10
-167.242
 20
121.988
 11
-167.028
 21
122.443
  0
LINE
  8
0
 10
-167.028
 20
122.443
 11
-166.873
 21
122.92
  0
LINE
  8
0
 10
-166.873
 20
122.92
 11
-166.779
 21
123.414
  0
LINE
  8
0
 10
-166.779
 20
123.414
 11
-166.747
 21
123.915
  0
LINE
  8
0
 10
-166.747
 20
123.915
 11
-166.779
 21
124.416
  0
LINE
  8
0
 10
-166.779
 20
124.416
 11
-166.873
 21
124.91
  0
LINE
  8
0
 10
-166.873
 20
124.91
 11
-167.028
 21
125.387
  0
LINE
  8
0
 10
-167.028
 20
125.387
 11
-167.242
 21
125.842
  0
LINE
  8
0
 10
-167.242
 20
125.842
 11
-167.434
 21
126.144
  0
LINE
  8
0
 10
-167.434
 20
126.144
 11
-156.315
 21
138.683
  0
LINE
  8
0
 10
-156.315
 20
138.683
 11
-124.553
 21
130.172
  0
LINE
  8
0
 10
-124.553
 20
130.172
 11
-124.418
 21
130.146
  0
LINE
  8
0
 10
-124.418
 20
130.146
 11
-124.292
 21
130.138
  0
LINE
  8
0
 10
-124.292
 20
130.138
 11
-124.167
 21
130.146
  0
LINE
  8
0
 10
-124.167
 20
130.146
 11
-124.044
 21
130.17
  0
LINE
  8
0
 10
-124.044
 20
130.17
 11
-123.924
 21
130.209
  0
LINE
  8
0
 10
-123.924
 20
130.209
 11
-123.811
 21
130.262
  0
LINE
  8
0
 10
-123.811
 20
130.262
 11
-123.705
 21
130.33
  0
LINE
  8
0
 10
-123.705
 20
130.33
 11
-112.038
 21
138.837
  0
LINE
  8
0
 10
-112.038
 20
138.837
 11
-111.641
 21
138.549
  0
LINE
  8
0
 10
-111.641
 20
138.549
 11
-111.201
 21
138.307
  0
LINE
  8
0
 10
-111.201
 20
138.307
 11
-110.734
 21
138.122
  0
LINE
  8
0
 10
-110.734
 20
138.122
 11
-110.247
 21
137.997
  0
LINE
  8
0
 10
-110.247
 20
137.997
 11
-109.749
 21
137.934
  0
LINE
  8
0
 10
-109.749
 20
137.934
 11
-109.247
 21
137.934
  0
LINE
  8
0
 10
-109.247
 20
137.934
 11
-108.748
 21
137.997
  0
LINE
  8
0
 10
-108.748
 20
137.997
 11
-108.262
 21
138.122
  0
LINE
  8
0
 10
-108.262
 20
138.122
 11
-107.795
 21
138.307
  0
LINE
  8
0
 10
-107.795
 20
138.307
 11
-107.355
 21
138.549
  0
LINE
  8
0
 10
-107.355
 20
138.549
 11
-106.948
 21
138.844
  0
LINE
  8
0
 10
-106.948
 20
138.844
 11
-106.582
 21
139.188
  0
LINE
  8
0
 10
-106.582
 20
139.188
 11
-106.262
 21
139.575
  0
LINE
  8
0
 10
-106.262
 20
139.575
 11
-106.019
 21
139.958
  0
LINE
  8
0
 10
-106.019
 20
139.958
 11
-56.5057
 21
126.692
  0
LINE
  8
0
 10
-56.5057
 20
126.692
 11
-56.508
 21
126.656
  0
LINE
  8
0
 10
-56.508
 20
126.656
 11
-56.4764
 21
126.155
  0
LINE
  8
0
 10
-56.4764
 20
126.155
 11
-56.3823
 21
125.661
  0
LINE
  8
0
 10
-56.3823
 20
125.661
 11
-56.2271
 21
125.184
  0
LINE
  8
0
 10
-56.2271
 20
125.184
 11
-56.0132
 21
124.729
  0
LINE
  8
0
 10
-56.0132
 20
124.729
 11
-55.744
 21
124.305
  0
LINE
  8
0
 10
-55.744
 20
124.305
 11
-55.4239
 21
123.918
  0
LINE
  8
0
 10
-55.4239
 20
123.918
 11
-55.0577
 21
123.574
  0
LINE
  8
0
 10
-55.0577
 20
123.574
 11
-54.6513
 21
123.279
  0
LINE
  8
0
 10
-54.6513
 20
123.279
 11
-54.2111
 21
123.037
  0
LINE
  8
0
 10
-54.2111
 20
123.037
 11
-53.744
 21
122.852
  0
LINE
  8
0
 10
-53.744
 20
122.852
 11
-53.2575
 21
122.727
  0
LINE
  8
0
 10
-53.2575
 20
122.727
 11
-52.7592
 21
122.664
  0
LINE
  8
0
 10
-52.7592
 20
122.664
 11
-52.2568
 21
122.664
  0
LINE
  8
0
 10
-52.2568
 20
122.664
 11
-51.7585
 21
122.727
  0
LINE
  8
0
 10
-51.7585
 20
122.727
 11
-51.4413
 21
122.808
  0
LINE
  8
0
 10
-51.4413
 20
122.808
 11
-46.657
 21
114.521
  0
LINE
  8
0
 10
-46.657
 20
114.521
 11
-46.5681
 21
114.392
  0
LINE
  8
0
 10
-46.5681
 20
114.392
 11
-46.4831
 21
114.299
  0
LINE
  8
0
 10
-46.4831
 20
114.299
 11
-46.3872
 21
114.218
  0
LINE
  8
0
 10
-46.3872
 20
114.218
 11
-46.2819
 21
114.15
  0
LINE
  8
0
 10
-46.2819
 20
114.15
 11
-46.1688
 21
114.095
  0
LINE
  8
0
 10
-46.1688
 20
114.095
 11
-46.0498
 21
114.055
  0
LINE
  8
0
 10
-46.0498
 20
114.055
 11
-20.4247
 21
107.189
  0
LINE
  8
0
 10
-20.4247
 20
107.189
 11
-20.427
 21
107.153
  0
LINE
  8
0
 10
-20.427
 20
107.153
 11
-20.3954
 21
106.652
  0
LINE
  8
0
 10
-20.3954
 20
106.652
 11
-20.3013
 21
106.158
  0
LINE
  8
0
 10
-20.3013
 20
106.158
 11
-20.1461
 21
105.681
  0
LINE
  8
0
 10
-20.1461
 20
105.681
 11
-19.9322
 21
105.226
  0
LINE
  8
0
 10
-19.9322
 20
105.226
 11
-19.663
 21
104.802
  0
LINE
  8
0
 10
-19.663
 20
104.802
 11
-19.3428
 21
104.415
  0
LINE
  8
0
 10
-19.3428
 20
104.415
 11
-18.9767
 21
104.071
  0
LINE
  8
0
 10
-18.9767
 20
104.071
 11
-18.5703
 21
103.776
  0
LINE
  8
0
 10
-18.5703
 20
103.776
 11
-18.1301
 21
103.534
  0
LINE
  8
0
 10
-18.1301
 20
103.534
 11
-17.663
 21
103.349
  0
LINE
  8
0
 10
-17.663
 20
103.349
 11
-17.1765
 21
103.224
  0
LINE
  8
0
 10
-17.1765
 20
103.224
 11
-16.6781
 21
103.161
  0
LINE
  8
0
 10
-16.6781
 20
103.161
 11
-16.1758
 21
103.161
  0
LINE
  8
0
 10
-16.1758
 20
103.161
 11
-15.6775
 21
103.224
  0
LINE
  8
0
 10
-15.6775
 20
103.224
 11
-15.1909
 21
103.349
  0
LINE
  8
0
 10
-15.1909
 20
103.349
 11
-14.7239
 21
103.534
  0
LINE
  8
0
 10
-14.7239
 20
103.534
 11
-14.2837
 21
103.776
  0
LINE
  8
0
 10
-14.2837
 20
103.776
 11
-13.8773
 21
104.071
  0
LINE
  8
0
 10
-13.8773
 20
104.071
 11
-13.5111
 21
104.415
  0
LINE
  8
0
 10
-13.5111
 20
104.415
 11
-13.1909
 21
104.802
  0
LINE
  8
0
 10
-13.1909
 20
104.802
 11
-12.9218
 21
105.226
  0
LINE
  8
0
 10
-12.9218
 20
105.226
 11
-12.7079
 21
105.681
  0
LINE
  8
0
 10
-12.7079
 20
105.681
 11
-12.5646
 21
106.122
  0
LINE
  8
0
 10
-12.5646
 20
106.122
 11
0
 21
106.02
  0
LINE
  8
0
 10
0
 20
106.02
 11
0
 21
112.02
  0
LINE
  8
0
 10
0
 20
112.02
 11
-15.7488
 21
112.148
  0
LINE
  8
0
 10
-15.7488
 20
112.148
 11
-42.4963
 21
119.315
  0
LINE
  8
0
 10
-42.4963
 20
119.315
 11
-48.1778
 21
129.156
  0
LINE
  8
0
 10
-48.1778
 20
129.156
 11
-48.5253
 21
129.679
  0
LINE
  8
0
 10
-48.5253
 20
129.679
 11
-48.9355
 21
130.154
  0
LINE
  8
0
 10
-48.9355
 20
130.154
 11
-49.4021
 21
130.574
  0
LINE
  8
0
 10
-49.4021
 20
130.574
 11
-49.9177
 21
130.933
  0
LINE
  8
0
 10
-49.9177
 20
130.933
 11
-50.4742
 21
131.224
  0
LINE
  8
0
 10
-50.4742
 20
131.224
 11
-51.2139
 21
131.486
  0
LINE
  8
0
 10
-51.2139
 20
131.486
 11
-108.204
 21
146.756
  0
LINE
  8
0
 10
-108.204
 20
146.756
 11
-108.819
 21
146.88
  0
LINE
  8
0
 10
-108.819
 20
146.88
 11
-109.446
 21
146.926
  0
LINE
  8
0
 10
-109.446
 20
146.926
 11
-110.073
 21
146.893
  0
LINE
  8
0
 10
-110.073
 20
146.893
 11
-110.691
 21
146.782
  0
LINE
  8
0
 10
-110.691
 20
146.782
 11
-111.29
 21
146.594
  0
LINE
  8
0
 10
-111.29
 20
146.594
 11
-111.861
 21
146.332
  0
LINE
  8
0
 10
-111.861
 20
146.332
 11
-112.444
 21
145.966
  0
LINE
  8
0
 10
-112.444
 20
145.966
 11
-125.308
 21
136.586
  0
LINE
  8
0
 10
-125.308
 20
136.586
 11
-155.359
 21
144.639
  0
LINE
  8
0
 10
-155.359
 20
144.639
 11
-155.974
 21
144.763
  0
LINE
  8
0
 10
-155.974
 20
144.763
 11
-156.601
 21
144.809
  0
LINE
  8
0
 10
-156.601
 20
144.809
 11
-157.228
 21
144.776
  0
LINE
  8
0
 10
-157.228
 20
144.776
 11
-157.846
 21
144.665
  0
LINE
  8
0
 10
-157.846
 20
144.665
 11
-158.445
 21
144.477
  0
LINE
  8
0
 10
-158.445
 20
144.477
 11
-159.016
 21
144.216
  0
LINE
  8
0
 10
-159.016
 20
144.216
 11
-159.549
 21
143.885
  0
LINE
  8
0
 10
-159.549
 20
143.885
 11
-160.037
 21
143.49
  0
LINE
  8
0
 10
-160.037
 20
143.49
 11
-160.394
 21
143.126
  0
LINE
  8
0
 10
-160.394
 20
143.126
 11
-174.488
 21
127.232
  0
LINE
  8
0
 10
-174.488
 20
127.232
 11
-174.874
 21
126.737
  0
LINE
  8
0
 10
-174.874
 20
126.737
 11
-175.195
 21
126.198
  0
LINE
  8
0
 10
-175.195
 20
126.198
 11
-175.447
 21
125.622
  0
LINE
  8
0
 10
-175.447
 20
125.622
 11
-175.646
 21
124.917
  0
LINE
  8
0
 10
-175.646
 20
124.917
 11
-184.831
 21
80
  0
LINE
  8
0
 10
-184.831
 20
80
 11
-178.706
 21
80
  0
LINE
  8
0
 10
-178.706
 20
80
 11
-170.543
 21
119.923
  0
LINE
  8
0
 10
-109.561
 20
140.928
 11
-109.685
 21
140.944
  0
LINE
  8
0
 10
-109.685
 20
140.944
 11
-109.807
 21
140.975
  0
LINE
  8
0
 10
-109.807
 20
140.975
 11
-109.924
 21
141.021
  0
LINE
  8
0
 10
-109.924
 20
141.021
 11
-110.034
 21
141.082
  0
LINE
  8
0
 10
-110.034
 20
141.082
 11
-110.135
 21
141.155
  0
LINE
  8
0
 10
-110.135
 20
141.155
 11
-110.227
 21
141.241
  0
LINE
  8
0
 10
-110.227
 20
141.241
 11
-110.307
 21
141.338
  0
LINE
  8
0
 10
-110.307
 20
141.338
 11
-110.374
 21
141.444
  0
LINE
  8
0
 10
-110.374
 20
141.444
 11
-110.428
 21
141.558
  0
LINE
  8
0
 10
-110.428
 20
141.558
 11
-110.467
 21
141.677
  0
LINE
  8
0
 10
-110.467
 20
141.677
 11
-110.49
 21
141.801
  0
LINE
  8
0
 10
-110.49
 20
141.801
 11
-110.498
 21
141.926
  0
LINE
  8
0
 10
-110.498
 20
141.926
 11
-110.49
 21
142.051
  0
LINE
  8
0
 10
-110.49
 20
142.051
 11
-110.467
 21
142.175
  0
LINE
  8
0
 10
-110.467
 20
142.175
 11
-110.428
 21
142.294
  0
LINE
  8
0
 10
-110.428
 20
142.294
 11
-110.374
 21
142.408
  0
LINE
  8
0
 10
-110.374
 20
142.408
 11
-110.307
 21
142.514
  0
LINE
  8
0
 10
-110.307
 20
142.514
 11
-110.227
 21
142.611
  0
LINE
  8
0
 10
-110.227
 20
142.611
 11
-110.135
 21
142.697
  0
LINE
  8
0
 10
-110.135
 20
142.697
 11
-110.034
 21
142.77
  0
LINE
  8
0
 10
-110.034
 20
142.77
 11
-109.924
 21
142.831
  0
LINE
  8
0
 10
-109.924
 20
142.831
 11
-109.807
 21
142.877
  0
LINE
  8
0
 10
-109.807
 20
142.877
 11
-109.685
 21
142.908
  0
LINE
  8
0
 10
-109.685
 20
142.908
 11
-109.561
 21
142.924
  0
LINE
  8
0
 10
-109.561
 20
142.924
 11
-109.435
 21
142.924
  0
LINE
  8
0
 10
-109.435
 20
142.924
 11
-109.311
 21
142.908
  0
LINE
  8
0
 10
-109.311
 20
142.908
 11
-109.189
 21
142.877
  0
LINE
  8
0
 10
-109.189
 20
142.877
 11
-109.072
 21
142.831
  0
LINE
  8
0
 10
-109.072
 20
142.831
 11
-108.962
 21
142.77
  0
LINE
  8
0
 10
-108.962
 20
142.77
 11
-108.861
 21
142.697
  0
LINE
  8
0
 10
-108.861
 20
142.697
 11
-108.769
 21
142.611
  0
LINE
  8
0
 10
-108.769
 20
142.611
 11
-108.689
 21
142.514
  0
LINE
  8
0
 10
-108.689
 20
142.514
 11
-108.622
 21
142.408
  0
LINE
  8
0
 10
-108.622
 20
142.408
 11
-108.568
 21
142.294
  0
LINE
  8
0
 10
-108.568
 20
142.294
 11
-108.529
 21
142.175
  0
LINE
  8
0
 10
-108.529
 20
142.175
 11
-108.506
 21
142.051
  0
LINE
  8
0
 10
-108.506
 20
142.051
 11
-108.498
 21
141.926
  0
LINE
  8
0
 10
-108.498
 20
141.926
 11
-108.506
 21
141.801
  0
LINE
  8
0
 10
-108.506
 20
141.801
 11
-108.529
 21
141.677
  0
LINE
  8
0
 10
-108.529
 20
141.677
 11
-108.568
 21
141.558
  0
LINE
  8
0
 10
-108.568
 20
141.558
 11
-108.622
 21
141.444
  0
LINE
  8
0
 10
-108.622
 20
141.444
 11
-108.689
 21
141.338
  0
LINE
  8
0
 10
-108.689
 20
141.338
 11
-108.769
 21
141.241
  0
LINE
  8
0
 10
-108.769
 20
141.241
 11
-108.861
 21
141.155
  0
LINE
  8
0
 10
-108.861
 20
141.155
 11
-108.962
 21
141.082
  0
LINE
  8
0
 10
-108.962
 20
141.082
 11
-109.072
 21
141.021
  0
LINE
  8
0
 10
-109.072
 20
141.021
 11
-109.189
 21
140.975
  0
LINE
  8
0
 10
-109.189
 20
140.975
 11
-109.311
 21
140.944
  0
LINE
  8
0
 10
-109.311
 20
140.944
 11
-109.435
 21
140.928
  0
LINE
  8
0
 10
-109.435
 20
140.928
 11
-109.561
 21
140.928
  0
LINE
  8
0
 10
-52.5708
 20
125.658
 11
-52.6954
 21
125.674
  0
LINE
  8
0
 10
-52.6954
 20
125.674
 11
-52.817
 21
125.705
  0
LINE
  8
0
 10
-52.817
 20
125.705
 11
-52.9338
 21
125.751
  0
LINE
  8
0
 10
-52.9338
 20
125.751
 11
-53.0438
 21
125.812
  0
LINE
  8
0
 10
-53.0438
 20
125.812
 11
-53.1454
 21
125.885
  0
LINE
  8
0
 10
-53.1454
 20
125.885
 11
-53.237
 21
125.971
  0
LINE
  8
0
 10
-53.237
 20
125.971
 11
-53.317
 21
126.068
  0
LINE
  8
0
 10
-53.317
 20
126.068
 11
-53.3843
 21
126.174
  0
LINE
  8
0
 10
-53.3843
 20
126.174
 11
-53.4378
 21
126.288
  0
LINE
  8
0
 10
-53.4378
 20
126.288
 11
-53.4766
 21
126.407
  0
LINE
  8
0
 10
-53.4766
 20
126.407
 11
-53.5001
 21
126.531
  0
LINE
  8
0
 10
-53.5001
 20
126.531
 11
-53.508
 21
126.656
  0
LINE
  8
0
 10
-53.508
 20
126.656
 11
-53.5001
 21
126.781
  0
LINE
  8
0
 10
-53.5001
 20
126.781
 11
-53.4766
 21
126.905
  0
LINE
  8
0
 10
-53.4766
 20
126.905
 11
-53.4378
 21
127.024
  0
LINE
  8
0
 10
-53.4378
 20
127.024
 11
-53.3843
 21
127.138
  0
LINE
  8
0
 10
-53.3843
 20
127.138
 11
-53.317
 21
127.244
  0
LINE
  8
0
 10
-53.317
 20
127.244
 11
-53.237
 21
127.341
  0
LINE
  8
0
 10
-53.237
 20
127.341
 11
-53.1454
 21
127.426
  0
LINE
  8
0
 10
-53.1454
 20
127.426
 11
-53.0438
 21
127.5
  0
LINE
  8
0
 10
-53.0438
 20
127.5
 11
-52.9338
 21
127.561
  0
LINE
  8
0
 10
-52.9338
 20
127.561
 11
-52.817
 21
127.607
  0
LINE
  8
0
 10
-52.817
 20
127.607
 11
-52.6954
 21
127.638
  0
LINE
  8
0
 10
-52.6954
 20
127.638
 11
-52.5708
 21
127.654
  0
LINE
  8
0
 10
-52.5708
 20
127.654
 11
-52.4452
 21
127.654
  0
LINE
  8
0
 10
-52.4452
 20
127.654
 11
-52.3206
 21
127.638
  0
LINE
  8
0
 10
-52.3206
 20
127.638
 11
-52.199
 21
127.607
  0
LINE
  8
0
 10
-52.199
 20
127.607
 11
-52.0822
 21
127.561
  0
LINE
  8
0
 10
-52.0822
 20
127.561
 11
-51.9722
 21
127.5
  0
LINE
  8
0
 10
-51.9722
 20
127.5
 11
-51.8706
 21
127.426
  0
LINE
  8
0
 10
-51.8706
 20
127.426
 11
-51.779
 21
127.341
  0
LINE
  8
0
 10
-51.779
 20
127.341
 11
-51.699
 21
127.244
  0
LINE
  8
0
 10
-51.699
 20
127.244
 11
-51.6317
 21
127.138
  0
LINE
  8
0
 10
-51.6317
 20
127.138
 11
-51.5782
 21
127.024
  0
LINE
  8
0
 10
-51.5782
 20
127.024
 11
-51.5394
 21
126.905
  0
LINE
  8
0
 10
-51.5394
 20
126.905
 11
-51.5159
 21
126.781
  0
LINE
  8
0
 10
-51.5159
 20
126.781
 11
-51.508
 21
126.656
  0
LINE
  8
0
 10
-51.508
 20
126.656
 11
-51.5159
 21
126.531
  0
LINE
  8
0
 10
-51.5159
 20
126.531
 11
-51.5394
 21
126.407
  0
LINE
  8
0
 10
-51.5394
 20
126.407
 11
-51.5782
 21
126.288
  0
LINE
  8
0
 10
-51.5782
 20
126.288
 11
-51.6317
 21
126.174
  0
LINE
  8
0
 10
-51.6317
 20
126.174
 11
-51.699
 21
126.068
  0
LINE
  8
0
 10
-51.699
 20
126.068
 11
-51.779
 21
125.971
  0
LINE
  8
0
 10
-51.779
 20
125.971
 11
-51.8706
 21
125.885
  0
LINE
  8
0
 10
-51.8706
 20
125.885
 11
-51.9722
 21
125.812
  0
LINE
  8
0
 10
-51.9722
 20
125.812
 11
-52.0822
 21
125.751
  0
LINE
  8
0
 10
-52.0822
 20
125.751
 11
-52.199
 21
125.705
  0
LINE
  8
0
 10
-52.199
 20
125.705
 11
-52.3206
 21
125.674
  0
LINE
  8
0
 10
-52.3206
 20
125.674
 11
-52.4452
 21
125.658
  0
LINE
  8
0
 10
-52.4452
 20
125.658
 11
-52.5708
 21
125.658
  0
LINE
  8
0
 10
-170.81
 20
122.917
 11
-170.934
 21
122.933
  0
LINE
  8
0
 10
-170.934
 20
122.933
 11
-171.056
 21
122.964
  0
LINE
  8
0
 10
-171.056
 20
122.964
 11
-171.173
 21
123.01
  0
LINE
  8
0
 10
-171.173
 20
123.01
 11
-171.283
 21
123.071
  0
LINE
  8
0
 10
-171.283
 20
123.071
 11
-171.384
 21
123.144
  0
LINE
  8
0
 10
-171.384
 20
123.144
 11
-171.476
 21
123.23
  0
LINE
  8
0
 10
-171.476
 20
123.23
 11
-171.556
 21
123.327
  0
LINE
  8
0
 10
-171.556
 20
123.327
 11
-171.623
 21
123.433
  0
LINE
  8
0
 10
-171.623
 20
123.433
 11
-171.677
 21
123.547
  0
LINE
  8
0
 10
-171.677
 20
123.547
 11
-171.716
 21
123.666
  0
LINE
  8
0
 10
-171.716
 20
123.666
 11
-171.739
 21
123.79
  0
LINE
  8
0
 10
-171.739
 20
123.79
 11
-171.747
 21
123.915
  0
LINE
  8
0
 10
-171.747
 20
123.915
 11
-171.739
 21
124.04
  0
LINE
  8
0
 10
-171.739
 20
124.04
 11
-171.716
 21
124.164
  0
LINE
  8
0
 10
-171.716
 20
124.164
 11
-171.677
 21
124.283
  0
LINE
  8
0
 10
-171.677
 20
124.283
 11
-171.623
 21
124.397
  0
LINE
  8
0
 10
-171.623
 20
124.397
 11
-171.556
 21
124.503
  0
LINE
  8
0
 10
-171.556
 20
124.503
 11
-171.476
 21
124.6
  0
LINE
  8
0
 10
-171.476
 20
124.6
 11
-171.384
 21
124.686
  0
LINE
  8
0
 10
-171.384
 20
124.686
 11
-171.283
 21
124.759
  0
LINE
  8
0
 10
-171.283
 20
124.759
 11
-171.173
 21
124.82
  0
LINE
  8
0
 10
-171.173
 20
124.82
 11
-171.056
 21
124.866
  0
LINE
  8
0
 10
-171.056
 20
124.866
 11
-170.934
 21
124.897
  0
LINE
  8
0
 10
-170.934
 20
124.897
 11
-170.81
 21
124.913
  0
LINE
  8
0
 10
-170.81
 20
124.913
 11
-170.684
 21
124.913
  0
LINE
  8
0
 10
-170.684
 20
124.913
 11
-170.56
 21
124.897
  0
LINE
  8
0
 10
-170.56
 20
124.897
 11
-170.438
 21
124.866
  0
LINE
  8
0
 10
-170.438
 20
124.866
 11
-170.321
 21
124.82
  0
LINE
  8
0
 10
-170.321
 20
124.82
 11
-170.211
 21
124.759
  0
LINE
  8
0
 10
-170.211
 20
124.759
 11
-170.11
 21
124.686
  0
LINE
  8
0
 10
-170.11
 20
124.686
 11
-170.018
 21
124.6
  0
LINE
  8
0
 10
-170.018
 20
124.6
 11
-169.938
 21
124.503
  0
LINE
  8
0
 10
-169.938
 20
124.503
 11
-169.871
 21
124.397
  0
LINE
  8
0
 10
-169.871
 20
124.397
 11
-169.817
 21
124.283
  0
LINE
  8
0
 10
-169.817
 20
124.283
 11
-169.778
 21
124.164
  0
LINE
  8
0
 10
-169.778
 20
124.164
 11
-169.755
 21
124.04
  0
LINE
  8
0
 10
-169.755
 20
124.04
 11
-169.747
 21
123.915
  0
LINE
  8
0
 10
-169.747
 20
123.915
 11
-169.755
 21
123.79
  0
LINE
  8
0
 10
-169.755
 20
123.79
 11
-169.778
 21
123.666
  0
LINE
  8
0
 10
-169.778
 20
123.666
 11
-169.817
 21
123.547
  0
LINE
  8
0
 10
-169.817
 20
123.547
 11
-169.871
 21
123.433
  0
LINE
  8
0
 10
-169.871
 20
123.433
 11
-169.938
 21
123.327
  0
LINE
  8
0
 10
-169.938
 20
123.327
 11
-170.018
 21
123.23
  0
LINE
  8
0
 10
-170.018
 20
123.23
 11
-170.11
 21
123.144
  0
LINE
  8
0
 10
-170.11
 20
123.144
 11
-170.211
 21
123.071
  0
LINE
  8
0
 10
-170.211
 20
123.071
 11
-170.321
 21
123.01
  0
LINE
  8
0
 10
-170.321
 20
123.01
 11
-170.438
 21
122.964
  0
LINE
  8
0
 10
-170.438
 20
122.964
 11
-170.56
 21
122.933
  0
LINE
  8
0
 10
-170.56
 20
122.933
 11
-170.684
 21
122.917
  0
LINE
  8
0
 10
-170.684
 20
122.917
 11
-170.81
 21
122.917
  0
LINE
  8
0
 10
-16.4898
 20
106.155
 11
-16.6144
 21
106.171
  0
LINE
  8
0
 10
-16.6144
 20
106.171
 11
-16.736
 21
106.202
  0
LINE
  8
0
 10
-16.736
 20
106.202
 11
-16.8528
 21
106.248
  0
LINE
  8
0
 10
-16.8528
 20
106.248
 11
-16.9628
 21
106.309
  0
LINE
  8
0
 10
-16.9628
 20
106.309
 11
-17.0644
 21
106.382
  0
LINE
  8
0
 10
-17.0644
 20
106.382
 11
-17.1559
 21
106.468
  0
LINE
  8
0
 10
-17.1559
 20
106.468
 11
-17.236
 21
106.565
  0
LINE
  8
0
 10
-17.236
 20
106.565
 11
-17.3033
 21
106.671
  0
LINE
  8
0
 10
-17.3033
 20
106.671
 11
-17.3568
 21
106.785
  0
LINE
  8
0
 10
-17.3568
 20
106.785
 11
-17.3956
 21
106.904
  0
LINE
  8
0
 10
-17.3956
 20
106.904
 11
-17.4191
 21
107.028
  0
LINE
  8
0
 10
-17.4191
 20
107.028
 11
-17.427
 21
107.153
  0
LINE
  8
0
 10
-17.427
 20
107.153
 11
-17.4191
 21
107.278
  0
LINE
  8
0
 10
-17.4191
 20
107.278
 11
-17.3956
 21
107.402
  0
LINE
  8
0
 10
-17.3956
 20
107.402
 11
-17.3568
 21
107.521
  0
LINE
  8
0
 10
-17.3568
 20
107.521
 11
-17.3033
 21
107.635
  0
LINE
  8
0
 10
-17.3033
 20
107.635
 11
-17.236
 21
107.741
  0
LINE
  8
0
 10
-17.236
 20
107.741
 11
-17.1559
 21
107.838
  0
LINE
  8
0
 10
-17.1559
 20
107.838
 11
-17.0644
 21
107.924
  0
LINE
  8
0
 10
-17.0644
 20
107.924
 11
-16.9628
 21
107.997
  0
LINE
  8
0
 10
-16.9628
 20
107.997
 11
-16.8528
 21
108.058
  0
LINE
  8
0
 10
-16.8528
 20
108.058
 11
-16.736
 21
108.104
  0
LINE
  8
0
 10
-16.736
 20
108.104
 11
-16.6144
 21
108.135
  0
LINE
  8
0
 10
-16.6144
 20
108.135
 11
-16.4898
 21
108.151
  0
LINE
  8
0
 10
-16.4898
 20
108.151
 11
-16.3642
 21
108.151
  0
LINE
  8
0
 10
-16.3642
 20
108.151
 11
-16.2396
 21
108.135
  0
LINE
  8
0
 10
-16.2396
 20
108.135
 11
-16.118
 21
108.104
  0
LINE
  8
0
 10
-16.118
 20
108.104
 11
-16.0012
 21
108.058
  0
LINE
  8
0
 10
-16.0012
 20
108.058
 11
-15.8912
 21
107.997
  0
LINE
  8
0
 10
-15.8912
 20
107.997
 11
-15.7896
 21
107.924
  0
LINE
  8
0
 10
-15.7896
 20
107.924
 11
-15.698
 21
107.838
  0
LINE
  8
0
 10
-15.698
 20
107.838
 11
-15.618
 21
107.741
  0
LINE
  8
0
 10
-15.618
 20
107.741
 11
-15.5507
 21
107.635
  0
LINE
  8
0
 10
-15.5507
 20
107.635
 11
-15.4972
 21
107.521
  0
LINE
  8
0
 10
-15.4972
 20
107.521
 11
-15.4584
 21
107.402
  0
LINE
  8
0
 10
-15.4584
 20
107.402
 11
-15.4349
 21
107.278
  0
LINE
  8
0
 10
-15.4349
 20
107.278
 11
-15.427
 21
107.153
  0
LINE
  8
0
 10
-15.427
 20
107.153
 11
-15.4349
 21
107.028
  0
LINE
  8
0
 10
-15.4349
 20
107.028
 11
-15.4584
 21
106.904
  0
LINE
  8
0
 10
-15.4584
 20
106.904
 11
-15.4972
 21
106.785
  0
LINE
  8
0
 10
-15.4972
 20
106.785
 11
-15.5507
 21
106.671
  0
LINE
  8
0
 10
-15.5507
 20
106.671
 11
-15.618
 21
106.565
  0
LINE
  8
0
 10
-15.618
 20
106.565
 11
-15.698
 21
106.468
  0
LINE
  8
0
 10
-15.698
 20
106.468
 11
-15.7896
 21
106.382
  0
LINE
  8
0
 10
-15.7896
 20
106.382
 11
-15.8912
 21
106.309
  0
LINE
  8
0
 10
-15.8912
 20
106.309
 11
-16.0012
 21
106.248
  0
LINE
  8
0
 10
-16.0012
 20
106.248
 11
-16.118
 21
106.202
  0
LINE
  8
0
 10
-16.118
 20
106.202
 11
-16.2396
 21
106.171
  0
LINE
  8
0
 10
-16.2396
 20
106.171
 11
-16.3642
 21
106.155
  0
LINE
  8
0
 10
-16.3642
 20
106.155
 11
-16.4898
 21
106.155
  0
ENDSEC
  0
SECTION
  2
OBJECTS
  0
DICTIONARY
  0
ENDSEC
  0
EOF
