  0
SECTION
  2
BLOCKS
  0
ENDSEC
  0
SECTION
  2
ENTITIES
  0
LINE
  8
0
 10
174.197
 20
124.529
 11
174.032
 21
125.135
  0
LINE
  8
0
 10
174.032
 20
125.135
 11
173.794
 21
125.715
  0
LINE
  8
0
 10
173.794
 20
125.715
 11
173.484
 21
126.262
  0
LINE
  8
0
 10
173.484
 20
126.262
 11
173.039
 21
126.844
  0
LINE
  8
0
 10
173.039
 20
126.844
 11
158.945
 21
142.737
  0
LINE
  8
0
 10
158.945
 20
142.737
 11
158.5
 21
143.18
  0
LINE
  8
0
 10
158.5
 20
143.18
 11
158.002
 21
143.564
  0
LINE
  8
0
 10
158.002
 20
143.564
 11
157.461
 21
143.882
  0
LINE
  8
0
 10
157.461
 20
143.882
 11
156.884
 21
144.129
  0
LINE
  8
0
 10
156.884
 20
144.129
 11
156.281
 21
144.303
  0
LINE
  8
0
 10
156.281
 20
144.303
 11
155.66
 21
144.399
  0
LINE
  8
0
 10
155.66
 20
144.399
 11
155.032
 21
144.417
  0
LINE
  8
0
 10
155.032
 20
144.417
 11
154.407
 21
144.356
  0
LINE
  8
0
 10
154.407
 20
144.356
 11
153.91
 21
144.25
  0
LINE
  8
0
 10
153.91
 20
144.25
 11
124.342
 21
136.327
  0
LINE
  8
0
 10
124.342
 20
136.327
 11
111.478
 21
145.707
  0
LINE
  8
0
 10
111.478
 20
145.707
 11
110.948
 21
146.044
  0
LINE
  8
0
 10
110.948
 20
146.044
 11
110.38
 21
146.313
  0
LINE
  8
0
 10
110.38
 20
146.313
 11
109.784
 21
146.508
  0
LINE
  8
0
 10
109.784
 20
146.508
 11
109.167
 21
146.627
  0
LINE
  8
0
 10
109.167
 20
146.627
 11
108.54
 21
146.667
  0
LINE
  8
0
 10
108.54
 20
146.667
 11
107.914
 21
146.629
  0
LINE
  8
0
 10
107.914
 20
146.629
 11
107.238
 21
146.497
  0
LINE
  8
0
 10
107.238
 20
146.497
 11
50.2479
 21
131.227
  0
LINE
  8
0
 10
50.2479
 20
131.227
 11
49.6528
 21
131.026
  0
LINE
  8
0
 10
49.6528
 20
131.026
 11
49.0875
 21
130.753
  0
LINE
  8
0
 10
49.0875
 20
130.753
 11
48.5609
 21
130.411
  0
LINE
  8
0
 10
48.5609
 20
130.411
 11
48.0813
 21
130.006
  0
LINE
  8
0
 10
48.0813
 20
130.006
 11
47.6563
 21
129.544
  0
LINE
  8
0
 10
47.6563
 20
129.544
 11
47.2118
 21
128.897
  0
LINE
  8
0
 10
47.2118
 20
128.897
 11
41.5303
 21
119.056
  0
LINE
  8
0
 10
41.5303
 20
119.056
 11
14.8227
 21
111.899
  0
LINE
  8
0
 10
14.8227
 20
111.899
 11
0
 21
112.02
  0
LINE
  8
0
 10
0
 20
112.02
 11
0
 21
106.02
  0
LINE
  8
0
 10
0
 20
106.02
 11
11.5817
 21
105.925
  0
LINE
  8
0
 10
11.5817
 20
105.925
 11
11.5867
 21
105.899
  0
LINE
  8
0
 10
11.5867
 20
105.899
 11
11.7419
 21
105.422
  0
LINE
  8
0
 10
11.7419
 20
105.422
 11
11.9558
 21
104.967
  0
LINE
  8
0
 10
11.9558
 20
104.967
 11
12.2249
 21
104.543
  0
LINE
  8
0
 10
12.2249
 20
104.543
 11
12.5451
 21
104.156
  0
LINE
  8
0
 10
12.5451
 20
104.156
 11
12.9113
 21
103.812
  0
LINE
  8
0
 10
12.9113
 20
103.812
 11
13.3177
 21
103.517
  0
LINE
  8
0
 10
13.3177
 20
103.517
 11
13.7579
 21
103.275
  0
LINE
  8
0
 10
13.7579
 20
103.275
 11
14.2249
 21
103.09
  0
LINE
  8
0
 10
14.2249
 20
103.09
 11
14.7115
 21
102.965
  0
LINE
  8
0
 10
14.7115
 20
102.965
 11
15.2098
 21
102.902
  0
LINE
  8
0
 10
15.2098
 20
102.902
 11
15.7122
 21
102.902
  0
LINE
  8
0
 10
15.7122
 20
102.902
 11
16.2105
 21
102.965
  0
LINE
  8
0
 10
16.2105
 20
102.965
 11
16.6971
 21
103.09
  0
LINE
  8
0
 10
16.6971
 20
103.09
 11
17.1641
 21
103.275
  0
LINE
  8
0
 10
17.1641
 20
103.275
 11
17.6043
 21
103.517
  0
LINE
  8
0
 10
17.6043
 20
103.517
 11
18.0107
 21
103.812
  0
LINE
  8
0
 10
18.0107
 20
103.812
 11
18.3769
 21
104.156
  0
LINE
  8
0
 10
18.3769
 20
104.156
 11
18.6971
 21
104.543
  0
LINE
  8
0
 10
18.6971
 20
104.543
 11
18.9662
 21
104.967
  0
LINE
  8
0
 10
18.9662
 20
104.967
 11
19.1801
 21
105.422
  0
LINE
  8
0
 10
19.1801
 20
105.422
 11
19.3353
 21
105.899
  0
LINE
  8
0
 10
19.3353
 20
105.899
 11
19.4294
 21
106.393
  0
LINE
  8
0
 10
19.4294
 20
106.393
 11
19.461
 21
106.894
  0
LINE
  8
0
 10
19.461
 20
106.894
 11
19.4587
 21
106.93
  0
LINE
  8
0
 10
19.4587
 20
106.93
 11
45.0838
 21
113.796
  0
LINE
  8
0
 10
45.0838
 20
113.796
 11
45.2318
 21
113.848
  0
LINE
  8
0
 10
45.2318
 20
113.848
 11
45.343
 21
113.907
  0
LINE
  8
0
 10
45.343
 20
113.907
 11
45.4462
 21
113.978
  0
LINE
  8
0
 10
45.4462
 20
113.978
 11
45.5395
 21
114.062
  0
LINE
  8
0
 10
45.5395
 20
114.062
 11
45.6216
 21
114.157
  0
LINE
  8
0
 10
45.6216
 20
114.157
 11
45.691
 21
114.262
  0
LINE
  8
0
 10
45.691
 20
114.262
 11
50.4754
 21
122.549
  0
LINE
  8
0
 10
50.4754
 20
122.549
 11
50.7925
 21
122.468
  0
LINE
  8
0
 10
50.7925
 20
122.468
 11
51.2908
 21
122.405
  0
LINE
  8
0
 10
51.2908
 20
122.405
 11
51.7932
 21
122.405
  0
LINE
  8
0
 10
51.7932
 20
122.405
 11
52.2915
 21
122.468
  0
LINE
  8
0
 10
52.2915
 20
122.468
 11
52.778
 21
122.593
  0
LINE
  8
0
 10
52.778
 20
122.593
 11
53.2451
 21
122.778
  0
LINE
  8
0
 10
53.2451
 20
122.778
 11
53.6853
 21
123.02
  0
LINE
  8
0
 10
53.6853
 20
123.02
 11
54.0917
 21
123.315
  0
LINE
  8
0
 10
54.0917
 20
123.315
 11
54.4579
 21
123.659
  0
LINE
  8
0
 10
54.4579
 20
123.659
 11
54.778
 21
124.046
  0
LINE
  8
0
 10
54.778
 20
124.046
 11
55.0472
 21
124.47
  0
LINE
  8
0
 10
55.0472
 20
124.47
 11
55.2611
 21
124.924
  0
LINE
  8
0
 10
55.2611
 20
124.924
 11
55.4163
 21
125.402
  0
LINE
  8
0
 10
55.4163
 20
125.402
 11
55.5104
 21
125.896
  0
LINE
  8
0
 10
55.5104
 20
125.896
 11
55.542
 21
126.397
  0
LINE
  8
0
 10
55.542
 20
126.397
 11
55.5397
 21
126.433
  0
LINE
  8
0
 10
55.5397
 20
126.433
 11
105.053
 21
139.699
  0
LINE
  8
0
 10
105.053
 20
139.699
 11
105.296
 21
139.316
  0
LINE
  8
0
 10
105.296
 20
139.316
 11
105.616
 21
138.929
  0
LINE
  8
0
 10
105.616
 20
138.929
 11
105.982
 21
138.585
  0
LINE
  8
0
 10
105.982
 20
138.585
 11
106.389
 21
138.29
  0
LINE
  8
0
 10
106.389
 20
138.29
 11
106.829
 21
138.048
  0
LINE
  8
0
 10
106.829
 20
138.048
 11
107.296
 21
137.863
  0
LINE
  8
0
 10
107.296
 20
137.863
 11
107.782
 21
137.738
  0
LINE
  8
0
 10
107.782
 20
137.738
 11
108.281
 21
137.675
  0
LINE
  8
0
 10
108.281
 20
137.675
 11
108.783
 21
137.675
  0
LINE
  8
0
 10
108.783
 20
137.675
 11
109.282
 21
137.738
  0
LINE
  8
0
 10
109.282
 20
137.738
 11
109.768
 21
137.863
  0
LINE
  8
0
 10
109.768
 20
137.863
 11
110.235
 21
138.048
  0
LINE
  8
0
 10
110.235
 20
138.048
 11
110.675
 21
138.29
  0
LINE
  8
0
 10
110.675
 20
138.29
 11
111.072
 21
138.578
  0
LINE
  8
0
 10
111.072
 20
138.578
 11
122.739
 21
130.071
  0
LINE
  8
0
 10
122.739
 20
130.071
 11
122.855
 21
129.998
  0
LINE
  8
0
 10
122.855
 20
129.998
 11
122.97
 21
129.945
  0
LINE
  8
0
 10
122.97
 20
129.945
 11
123.089
 21
129.908
  0
LINE
  8
0
 10
123.089
 20
129.908
 11
123.213
 21
129.886
  0
LINE
  8
0
 10
123.213
 20
129.886
 11
123.338
 21
129.879
  0
LINE
  8
0
 10
123.338
 20
129.879
 11
123.464
 21
129.888
  0
LINE
  8
0
 10
123.464
 20
129.888
 11
123.587
 21
129.913
  0
LINE
  8
0
 10
123.587
 20
129.913
 11
154.866
 21
138.294
  0
LINE
  8
0
 10
154.866
 20
138.294
 11
165.985
 21
125.756
  0
LINE
  8
0
 10
165.985
 20
125.756
 11
165.793
 21
125.454
  0
LINE
  8
0
 10
165.793
 20
125.454
 11
165.579
 21
124.999
  0
LINE
  8
0
 10
165.579
 20
124.999
 11
165.424
 21
124.522
  0
LINE
  8
0
 10
165.424
 20
124.522
 11
165.33
 21
124.028
  0
LINE
  8
0
 10
165.33
 20
124.028
 11
165.298
 21
123.527
  0
LINE
  8
0
 10
165.298
 20
123.527
 11
165.33
 21
123.026
  0
LINE
  8
0
 10
165.33
 20
123.026
 11
165.424
 21
122.532
  0
LINE
  8
0
 10
165.424
 20
122.532
 11
165.579
 21
122.055
  0
LINE
  8
0
 10
165.579
 20
122.055
 11
165.793
 21
121.6
  0
LINE
  8
0
 10
165.793
 20
121.6
 11
166.062
 21
121.176
  0
LINE
  8
0
 10
166.062
 20
121.176
 11
166.382
 21
120.789
  0
LINE
  8
0
 10
166.382
 20
120.789
 11
166.748
 21
120.445
  0
LINE
  8
0
 10
166.748
 20
120.445
 11
167.155
 21
120.15
  0
LINE
  8
0
 10
167.155
 20
120.15
 11
167.595
 21
119.908
  0
LINE
  8
0
 10
167.595
 20
119.908
 11
168.062
 21
119.723
  0
LINE
  8
0
 10
168.062
 20
119.723
 11
168.548
 21
119.598
  0
LINE
  8
0
 10
168.548
 20
119.598
 11
169.047
 21
119.535
  0
LINE
  8
0
 10
169.047
 20
119.535
 11
169.094
 21
119.535
  0
LINE
  8
0
 10
169.094
 20
119.535
 11
177.178
 21
80
  0
LINE
  8
0
 10
177.178
 20
80
 11
183.302
 21
80
  0
LINE
  8
0
 10
183.302
 20
80
 11
174.197
 21
124.529
  0
LINE
  8
0
 10
108.469
 20
140.669
 11
108.345
 21
140.685
  0
LINE
  8
0
 10
108.345
 20
140.685
 11
108.223
 21
140.716
  0
LINE
  8
0
 10
108.223
 20
140.716
 11
108.106
 21
140.762
  0
LINE
  8
0
 10
108.106
 20
140.762
 11
107.996
 21
140.823
  0
LINE
  8
0
 10
107.996
 20
140.823
 11
107.895
 21
140.896
  0
LINE
  8
0
 10
107.895
 20
140.896
 11
107.803
 21
140.982
  0
LINE
  8
0
 10
107.803
 20
140.982
 11
107.723
 21
141.079
  0
LINE
  8
0
 10
107.723
 20
141.079
 11
107.656
 21
141.185
  0
LINE
  8
0
 10
107.656
 20
141.185
 11
107.602
 21
141.299
  0
LINE
  8
0
 10
107.602
 20
141.299
 11
107.563
 21
141.418
  0
LINE
  8
0
 10
107.563
 20
141.418
 11
107.54
 21
141.542
  0
LINE
  8
0
 10
107.54
 20
141.542
 11
107.532
 21
141.667
  0
LINE
  8
0
 10
107.532
 20
141.667
 11
107.54
 21
141.792
  0
LINE
  8
0
 10
107.54
 20
141.792
 11
107.563
 21
141.916
  0
LINE
  8
0
 10
107.563
 20
141.916
 11
107.602
 21
142.035
  0
LINE
  8
0
 10
107.602
 20
142.035
 11
107.656
 21
142.149
  0
LINE
  8
0
 10
107.656
 20
142.149
 11
107.723
 21
142.255
  0
LINE
  8
0
 10
107.723
 20
142.255
 11
107.803
 21
142.352
  0
LINE
  8
0
 10
107.803
 20
142.352
 11
107.895
 21
142.438
  0
LINE
  8
0
 10
107.895
 20
142.438
 11
107.996
 21
142.511
  0
LINE
  8
0
 10
107.996
 20
142.511
 11
108.106
 21
142.572
  0
LINE
  8
0
 10
108.106
 20
142.572
 11
108.223
 21
142.618
  0
LINE
  8
0
 10
108.223
 20
142.618
 11
108.345
 21
142.649
  0
LINE
  8
0
 10
108.345
 20
142.649
 11
108.469
 21
142.665
  0
LINE
  8
0
 10
108.469
 20
142.665
 11
108.595
 21
142.665
  0
LINE
  8
0
 10
108.595
 20
142.665
 11
108.719
 21
142.649
  0
LINE
  8
0
 10
108.719
 20
142.649
 11
108.841
 21
142.618
  0
LINE
  8
0
 10
108.841
 20
142.618
 11
108.958
 21
142.572
  0
LINE
  8
0
 10
108.958
 20
142.572
 11
109.068
 21
142.511
  0
LINE
  8
0
 10
109.068
 20
142.511
 11
109.169
 21
142.438
  0
LINE
  8
0
 10
109.169
 20
142.438
 11
109.261
 21
142.352
  0
LINE
  8
0
 10
109.261
 20
142.352
 11
109.341
 21
142.255
  0
LINE
  8
0
 10
109.341
 20
142.255
 11
109.408
 21
142.149
  0
LINE
  8
0
 10
109.408
 20
142.149
 11
109.462
 21
142.035
  0
LINE
  8
0
 10
109.462
 20
142.035
 11
109.501
 21
141.916
  0
LINE
  8
0
 10
109.501
 20
141.916
 11
109.524
 21
141.792
  0
LINE
  8
0
 10
109.524
 20
141.792
 11
109.532
 21
141.667
  0
LINE
  8
0
 10
109.532
 20
141.667
 11
109.524
 21
141.542
  0
LINE
  8
0
 10
109.524
 20
141.542
 11
109.501
 21
141.418
  0
LINE
  8
0
 10
109.501
 20
141.418
 11
109.462
 21
141.299
  0
LINE
  8
0
 10
109.462
 20
141.299
 11
109.408
 21
141.185
  0
LINE
  8
0
 10
109.408
 20
141.185
 11
109.341
 21
141.079
  0
LINE
  8
0
 10
109.341
 20
141.079
 11
109.261
 21
140.982
  0
LINE
  8
0
 10
109.261
 20
140.982
 11
109.169
 21
140.896
  0
LINE
  8
0
 10
109.169
 20
140.896
 11
109.068
 21
140.823
  0
LINE
  8
0
 10
109.068
 20
140.823
 11
108.958
 21
140.762
  0
LINE
  8
0
 10
108.958
 20
140.762
 11
108.841
 21
140.716
  0
LINE
  8
0
 10
108.841
 20
140.716
 11
108.719
 21
140.685
  0
LINE
  8
0
 10
108.719
 20
140.685
 11
108.595
 21
140.669
  0
LINE
  8
0
 10
108.595
 20
140.669
 11
108.469
 21
140.669
  0
LINE
  8
0
 10
51.4792
 20
125.399
 11
51.3546
 21
125.415
  0
LINE
  8
0
 10
51.3546
 20
125.415
 11
51.233
 21
125.446
  0
LINE
  8
0
 10
51.233
 20
125.446
 11
51.1162
 21
125.492
  0
LINE
  8
0
 10
51.1162
 20
125.492
 11
51.0062
 21
125.553
  0
LINE
  8
0
 10
51.0062
 20
125.553
 11
50.9046
 21
125.626
  0
LINE
  8
0
 10
50.9046
 20
125.626
 11
50.813
 21
125.712
  0
LINE
  8
0
 10
50.813
 20
125.712
 11
50.733
 21
125.809
  0
LINE
  8
0
 10
50.733
 20
125.809
 11
50.6657
 21
125.915
  0
LINE
  8
0
 10
50.6657
 20
125.915
 11
50.6122
 21
126.029
  0
LINE
  8
0
 10
50.6122
 20
126.029
 11
50.5734
 21
126.148
  0
LINE
  8
0
 10
50.5734
 20
126.148
 11
50.5499
 21
126.272
  0
LINE
  8
0
 10
50.5499
 20
126.272
 11
50.542
 21
126.397
  0
LINE
  8
0
 10
50.542
 20
126.397
 11
50.5499
 21
126.522
  0
LINE
  8
0
 10
50.5499
 20
126.522
 11
50.5734
 21
126.646
  0
LINE
  8
0
 10
50.5734
 20
126.646
 11
50.6122
 21
126.765
  0
LINE
  8
0
 10
50.6122
 20
126.765
 11
50.6657
 21
126.879
  0
LINE
  8
0
 10
50.6657
 20
126.879
 11
50.733
 21
126.985
  0
LINE
  8
0
 10
50.733
 20
126.985
 11
50.813
 21
127.082
  0
LINE
  8
0
 10
50.813
 20
127.082
 11
50.9046
 21
127.167
  0
LINE
  8
0
 10
50.9046
 20
127.167
 11
51.0062
 21
127.241
  0
LINE
  8
0
 10
51.0062
 20
127.241
 11
51.1162
 21
127.302
  0
LINE
  8
0
 10
51.1162
 20
127.302
 11
51.233
 21
127.348
  0
LINE
  8
0
 10
51.233
 20
127.348
 11
51.3546
 21
127.379
  0
LINE
  8
0
 10
51.3546
 20
127.379
 11
51.4792
 21
127.395
  0
LINE
  8
0
 10
51.4792
 20
127.395
 11
51.6048
 21
127.395
  0
LINE
  8
0
 10
51.6048
 20
127.395
 11
51.7294
 21
127.379
  0
LINE
  8
0
 10
51.7294
 20
127.379
 11
51.851
 21
127.348
  0
LINE
  8
0
 10
51.851
 20
127.348
 11
51.9678
 21
127.302
  0
LINE
  8
0
 10
51.9678
 20
127.302
 11
52.0778
 21
127.241
  0
LINE
  8
0
 10
52.0778
 20
127.241
 11
52.1794
 21
127.167
  0
LINE
  8
0
 10
52.1794
 20
127.167
 11
52.271
 21
127.082
  0
LINE
  8
0
 10
52.271
 20
127.082
 11
52.351
 21
126.985
  0
LINE
  8
0
 10
52.351
 20
126.985
 11
52.4183
 21
126.879
  0
LINE
  8
0
 10
52.4183
 20
126.879
 11
52.4718
 21
126.765
  0
LINE
  8
0
 10
52.4718
 20
126.765
 11
52.5106
 21
126.646
  0
LINE
  8
0
 10
52.5106
 20
126.646
 11
52.5341
 21
126.522
  0
LINE
  8
0
 10
52.5341
 20
126.522
 11
52.542
 21
126.397
  0
LINE
  8
0
 10
52.542
 20
126.397
 11
52.5341
 21
126.272
  0
LINE
  8
0
 10
52.5341
 20
126.272
 11
52.5106
 21
126.148
  0
LINE
  8
0
 10
52.5106
 20
126.148
 11
52.4718
 21
126.029
  0
LINE
  8
0
 10
52.4718
 20
126.029
 11
52.4183
 21
125.915
  0
LINE
  8
0
 10
52.4183
 20
125.915
 11
52.351
 21
125.809
  0
LINE
  8
0
 10
52.351
 20
125.809
 11
52.271
 21
125.712
  0
LINE
  8
0
 10
52.271
 20
125.712
 11
52.1794
 21
125.626
  0
LINE
  8
0
 10
52.1794
 20
125.626
 11
52.0778
 21
125.553
  0
LINE
  8
0
 10
52.0778
 20
125.553
 11
51.9678
 21
125.492
  0
LINE
  8
0
 10
51.9678
 20
125.492
 11
51.851
 21
125.446
  0
LINE
  8
0
 10
51.851
 20
125.446
 11
51.7294
 21
125.415
  0
LINE
  8
0
 10
51.7294
 20
125.415
 11
51.6048
 21
125.399
  0
LINE
  8
0
 10
51.6048
 20
125.399
 11
51.4792
 21
125.399
  0
LINE
  8
0
 10
169.235
 20
122.529
 11
169.111
 21
122.545
  0
LINE
  8
0
 10
169.111
 20
122.545
 11
168.989
 21
122.576
  0
LINE
  8
0
 10
168.989
 20
122.576
 11
168.872
 21
122.622
  0
LINE
  8
0
 10
168.872
 20
122.622
 11
168.762
 21
122.683
  0
LINE
  8
0
 10
168.762
 20
122.683
 11
168.661
 21
122.756
  0
LINE
  8
0
 10
168.661
 20
122.756
 11
168.569
 21
122.842
  0
LINE
  8
0
 10
168.569
 20
122.842
 11
168.489
 21
122.939
  0
LINE
  8
0
 10
168.489
 20
122.939
 11
168.422
 21
123.045
  0
LINE
  8
0
 10
168.422
 20
123.045
 11
168.368
 21
123.159
  0
LINE
  8
0
 10
168.368
 20
123.159
 11
168.329
 21
123.278
  0
LINE
  8
0
 10
168.329
 20
123.278
 11
168.306
 21
123.402
  0
LINE
  8
0
 10
168.306
 20
123.402
 11
168.298
 21
123.527
  0
LINE
  8
0
 10
168.298
 20
123.527
 11
168.306
 21
123.652
  0
LINE
  8
0
 10
168.306
 20
123.652
 11
168.329
 21
123.776
  0
LINE
  8
0
 10
168.329
 20
123.776
 11
168.368
 21
123.895
  0
LINE
  8
0
 10
168.368
 20
123.895
 11
168.422
 21
124.009
  0
LINE
  8
0
 10
168.422
 20
124.009
 11
168.489
 21
124.115
  0
LINE
  8
0
 10
168.489
 20
124.115
 11
168.569
 21
124.212
  0
LINE
  8
0
 10
168.569
 20
124.212
 11
168.661
 21
124.298
  0
LINE
  8
0
 10
168.661
 20
124.298
 11
168.762
 21
124.371
  0
LINE
  8
0
 10
168.762
 20
124.371
 11
168.872
 21
124.432
  0
LINE
  8
0
 10
168.872
 20
124.432
 11
168.989
 21
124.478
  0
LINE
  8
0
 10
168.989
 20
124.478
 11
169.111
 21
124.509
  0
LINE
  8
0
 10
169.111
 20
124.509
 11
169.235
 21
124.525
  0
LINE
  8
0
 10
169.235
 20
124.525
 11
169.361
 21
124.525
  0
LINE
  8
0
 10
169.361
 20
124.525
 11
169.485
 21
124.509
  0
LINE
  8
0
 10
169.485
 20
124.509
 11
169.607
 21
124.478
  0
LINE
  8
0
 10
169.607
 20
124.478
 11
169.724
 21
124.432
  0
LINE
  8
0
 10
169.724
 20
124.432
 11
169.834
 21
124.371
  0
LINE
  8
0
 10
169.834
 20
124.371
 11
169.935
 21
124.298
  0
LINE
  8
0
 10
169.935
 20
124.298
 11
170.027
 21
124.212
  0
LINE
  8
0
 10
170.027
 20
124.212
 11
170.107
 21
124.115
  0
LINE
  8
0
 10
170.107
 20
124.115
 11
170.174
 21
124.009
  0
LINE
  8
0
 10
170.174
 20
124.009
 11
170.228
 21
123.895
  0
LINE
  8
0
 10
170.228
 20
123.895
 11
170.267
 21
123.776
  0
LINE
  8
0
 10
170.267
 20
123.776
 11
170.29
 21
123.652
  0
LINE
  8
0
 10
170.29
 20
123.652
 11
170.298
 21
123.527
  0
LINE
  8
0
 10
170.298
 20
123.527
 11
170.29
 21
123.402
  0
LINE
  8
0
 10
170.29
 20
123.402
 11
170.267
 21
123.278
  0
LINE
  8
0
 10
170.267
 20
123.278
 11
170.228
 21
123.159
  0
LINE
  8
0
 10
170.228
 20
123.159
 11
170.174
 21
123.045
  0
LINE
  8
0
 10
170.174
 20
123.045
 11
170.107
 21
122.939
  0
LINE
  8
0
 10
170.107
 20
122.939
 11
170.027
 21
122.842
  0
LINE
  8
0
 10
170.027
 20
122.842
 11
169.935
 21
122.756
  0
LINE
  8
0
 10
169.935
 20
122.756
 11
169.834
 21
122.683
  0
LINE
  8
0
 10
169.834
 20
122.683
 11
169.724
 21
122.622
  0
LINE
  8
0
 10
169.724
 20
122.622
 11
169.607
 21
122.576
  0
LINE
  8
0
 10
169.607
 20
122.576
 11
169.485
 21
122.545
  0
LINE
  8
0
 10
169.485
 20
122.545
 11
169.361
 21
122.529
  0
LINE
  8
0
 10
169.361
 20
122.529
 11
169.235
 21
122.529
  0
LINE
  8
0
 10
15.3982
 20
105.896
 11
15.2736
 21
105.912
  0
LINE
  8
0
 10
15.2736
 20
105.912
 11
15.152
 21
105.943
  0
LINE
  8
0
 10
15.152
 20
105.943
 11
15.0352
 21
105.989
  0
LINE
  8
0
 10
15.0352
 20
105.989
 11
14.9252
 21
106.05
  0
LINE
  8
0
 10
14.9252
 20
106.05
 11
14.8236
 21
106.123
  0
LINE
  8
0
 10
14.8236
 20
106.123
 11
14.732
 21
106.209
  0
LINE
  8
0
 10
14.732
 20
106.209
 11
14.652
 21
106.306
  0
LINE
  8
0
 10
14.652
 20
106.306
 11
14.5847
 21
106.412
  0
LINE
  8
0
 10
14.5847
 20
106.412
 11
14.5312
 21
106.526
  0
LINE
  8
0
 10
14.5312
 20
106.526
 11
14.4924
 21
106.645
  0
LINE
  8
0
 10
14.4924
 20
106.645
 11
14.4689
 21
106.769
  0
LINE
  8
0
 10
14.4689
 20
106.769
 11
14.461
 21
106.894
  0
LINE
  8
0
 10
14.461
 20
106.894
 11
14.4689
 21
107.019
  0
LINE
  8
0
 10
14.4689
 20
107.019
 11
14.4924
 21
107.143
  0
LINE
  8
0
 10
14.4924
 20
107.143
 11
14.5312
 21
107.262
  0
LINE
  8
0
 10
14.5312
 20
107.262
 11
14.5847
 21
107.376
  0
LINE
  8
0
 10
14.5847
 20
107.376
 11
14.652
 21
107.482
  0
LINE
  8
0
 10
14.652
 20
107.482
 11
14.732
 21
107.579
  0
LINE
  8
0
 10
14.732
 20
107.579
 11
14.8236
 21
107.665
  0
LINE
  8
0
 10
14.8236
 20
107.665
 11
14.9252
 21
107.738
  0
LINE
  8
0
 10
14.9252
 20
107.738
 11
15.0352
 21
107.799
  0
LINE
  8
0
 10
15.0352
 20
107.799
 11
15.152
 21
107.845
  0
LINE
  8
0
 10
15.152
 20
107.845
 11
15.2736
 21
107.876
  0
LINE
  8
0
 10
15.2736
 20
107.876
 11
15.3982
 21
107.892
  0
LINE
  8
0
 10
15.3982
 20
107.892
 11
15.5238
 21
107.892
  0
LINE
  8
0
 10
15.5238
 20
107.892
 11
15.6484
 21
107.876
  0
LINE
  8
0
 10
15.6484
 20
107.876
 11
15.77
 21
107.845
  0
LINE
  8
0
 10
15.77
 20
107.845
 11
15.8868
 21
107.799
  0
LINE
  8
0
 10
15.8868
 20
107.799
 11
15.9968
 21
107.738
  0
LINE
  8
0
 10
15.9968
 20
107.738
 11
16.0984
 21
107.665
  0
LINE
  8
0
 10
16.0984
 20
107.665
 11
16.19
 21
107.579
  0
LINE
  8
0
 10
16.19
 20
107.579
 11
16.27
 21
107.482
  0
LINE
  8
0
 10
16.27
 20
107.482
 11
16.3373
 21
107.376
  0
LINE
  8
0
 10
16.3373
 20
107.376
 11
16.3908
 21
107.262
  0
LINE
  8
0
 10
16.3908
 20
107.262
 11
16.4296
 21
107.143
  0
LINE
  8
0
 10
16.4296
 20
107.143
 11
16.4531
 21
107.019
  0
LINE
  8
0
 10
16.4531
 20
107.019
 11
16.461
 21
106.894
  0
LINE
  8
0
 10
16.461
 20
106.894
 11
16.4531
 21
106.769
  0
LINE
  8
0
 10
16.4531
 20
106.769
 11
16.4296
 21
106.645
  0
LINE
  8
0
 10
16.4296
 20
106.645
 11
16.3908
 21
106.526
  0
LINE
  8
0
 10
16.3908
 20
106.526
 11
16.3373
 21
106.412
  0
LINE
  8
0
 10
16.3373
 20
106.412
 11
16.27
 21
106.306
  0
LINE
  8
0
 10
16.27
 20
106.306
 11
16.19
 21
106.209
  0
LINE
  8
0
 10
16.19
 20
106.209
 11
16.0984
 21
106.123
  0
LINE
  8
0
 10
16.0984
 20
106.123
 11
15.9968
 21
106.05
  0
LINE
  8
0
 10
15.9968
 20
106.05
 11
15.8868
 21
105.989
  0
LINE
  8
0
 10
15.8868
 20
105.989
 11
15.77
 21
105.943
  0
LINE
  8
0
 10
15.77
 20
105.943
 11
15.6484
 21
105.912
  0
LINE
  8
0
 10
15.6484
 20
105.912
 11
15.5238
 21
105.896
  0
LINE
  8
0
 10
15.5238
 20
105.896
 11
15.3982
 21
105.896
  0
ENDSEC
  0
SECTION
  2
OBJECTS
  0
DICTIONARY
  0
ENDSEC
  0
EOF
