  0
SECTION
  2
BLOCKS
  0
ENDSEC
  0
SECTION
  2
ENTITIES
  0
LINE
  8
0
 10
0
 20
-44.582
 11
-53.999
 21
-44.387
  0
LINE
  8
0
 10
-53.999
 20
-44.387
 11
-54.0007
 21
-44.3782
  0
LINE
  8
0
 10
-54.0007
 20
-44.3782
 11
-54.1559
 21
-43.9005
  0
LINE
  8
0
 10
-54.1559
 20
-43.9005
 11
-54.3698
 21
-43.446
  0
LINE
  8
0
 10
-54.3698
 20
-43.446
 11
-54.6389
 21
-43.0219
  0
LINE
  8
0
 10
-54.6389
 20
-43.0219
 11
-54.9591
 21
-42.6348
  0
LINE
  8
0
 10
-54.9591
 20
-42.6348
 11
-55.3253
 21
-42.2909
  0
LINE
  8
0
 10
-55.3253
 20
-42.2909
 11
-55.7317
 21
-41.9957
  0
LINE
  8
0
 10
-55.7317
 20
-41.9957
 11
-56.1719
 21
-41.7537
  0
LINE
  8
0
 10
-56.1719
 20
-41.7537
 11
-56.6389
 21
-41.5688
  0
LINE
  8
0
 10
-56.6389
 20
-41.5688
 11
-57.1255
 21
-41.4438
  0
LINE
  8
0
 10
-57.1255
 20
-41.4438
 11
-57.6238
 21
-41.3809
  0
LINE
  8
0
 10
-57.6238
 20
-41.3809
 11
-58.1262
 21
-41.3809
  0
LINE
  8
0
 10
-58.1262
 20
-41.3809
 11
-58.3336
 21
-41.4071
  0
LINE
  8
0
 10
-58.3336
 20
-41.4071
 11
-65.1531
 21
-23.7369
  0
LINE
  8
0
 10
-65.1531
 20
-23.7369
 11
-65.1995
 21
-23.6343
  0
LINE
  8
0
 10
-65.1995
 20
-23.6343
 11
-65.2645
 21
-23.5268
  0
LINE
  8
0
 10
-65.2645
 20
-23.5268
 11
-75.6775
 21
-8.5238
  0
LINE
  8
0
 10
-75.6775
 20
-8.5238
 11
-75.7615
 21
-8.41861
  0
LINE
  8
0
 10
-75.7615
 20
-8.41861
 11
-75.852
 21
-8.3315
  0
LINE
  8
0
 10
-75.852
 20
-8.3315
 11
-90.2479
 21
3.88382
  0
LINE
  8
0
 10
-90.2479
 20
3.88382
 11
-90.1229
 21
4.14951
  0
LINE
  8
0
 10
-90.1229
 20
4.14951
 11
-89.9677
 21
4.62724
  0
LINE
  8
0
 10
-89.9677
 20
4.62724
 11
-89.8736
 21
5.12067
  0
LINE
  8
0
 10
-89.8736
 20
5.12067
 11
-89.842
 21
5.62199
  0
LINE
  8
0
 10
-89.842
 20
5.62199
 11
-89.8736
 21
6.12332
  0
LINE
  8
0
 10
-89.8736
 20
6.12332
 11
-89.9677
 21
6.61674
  0
LINE
  8
0
 10
-89.9677
 20
6.61674
 11
-90.1229
 21
7.09448
  0
LINE
  8
0
 10
-90.1229
 20
7.09448
 11
-90.3368
 21
7.549
  0
LINE
  8
0
 10
-90.3368
 20
7.549
 11
-90.4902
 21
7.7908
  0
LINE
  8
0
 10
-90.4902
 20
7.7908
 11
-80.5397
 21
18.6163
  0
LINE
  8
0
 10
-80.5397
 20
18.6163
 11
-80.4373
 21
18.7484
  0
LINE
  8
0
 10
-80.4373
 20
18.7484
 11
-80.3757
 21
18.8578
  0
LINE
  8
0
 10
-80.3757
 20
18.8578
 11
-80.3282
 21
18.974
  0
LINE
  8
0
 10
-80.3282
 20
18.974
 11
-80.2957
 21
19.0953
  0
LINE
  8
0
 10
-80.2957
 20
19.0953
 11
-80.2787
 21
19.2198
  0
LINE
  8
0
 10
-80.2787
 20
19.2198
 11
-80.2774
 21
19.3453
  0
LINE
  8
0
 10
-80.2774
 20
19.3453
 11
-80.2918
 21
19.4701
  0
LINE
  8
0
 10
-80.2918
 20
19.4701
 11
-80.3217
 21
19.592
  0
LINE
  8
0
 10
-80.3217
 20
19.592
 11
-80.3667
 21
19.7093
  0
LINE
  8
0
 10
-80.3667
 20
19.7093
 11
-80.4261
 21
19.8199
  0
LINE
  8
0
 10
-80.4261
 20
19.8199
 11
-80.4988
 21
19.9223
  0
LINE
  8
0
 10
-80.4988
 20
19.9223
 11
-80.5838
 21
20.0148
  0
LINE
  8
0
 10
-80.5838
 20
20.0148
 11
-80.6798
 21
20.0958
  0
LINE
  8
0
 10
-80.6798
 20
20.0958
 11
-80.7851
 21
20.1642
  0
LINE
  8
0
 10
-80.7851
 20
20.1642
 11
-80.8981
 21
20.2189
  0
LINE
  8
0
 10
-80.8981
 20
20.2189
 11
-81.0172
 21
20.2589
  0
LINE
  8
0
 10
-81.0172
 20
20.2589
 11
-123.159
 21
31.5511
  0
LINE
  8
0
 10
-123.159
 20
31.5511
 11
-123.157
 21
31.587
  0
LINE
  8
0
 10
-123.157
 20
31.587
 11
-123.189
 21
32.0883
  0
LINE
  8
0
 10
-123.189
 20
32.0883
 11
-123.283
 21
32.5817
  0
LINE
  8
0
 10
-123.283
 20
32.5817
 11
-123.438
 21
33.0595
  0
LINE
  8
0
 10
-123.438
 20
33.0595
 11
-123.652
 21
33.514
  0
LINE
  8
0
 10
-123.652
 20
33.514
 11
-123.921
 21
33.9381
  0
LINE
  8
0
 10
-123.921
 20
33.9381
 11
-124.241
 21
34.3252
  0
LINE
  8
0
 10
-124.241
 20
34.3252
 11
-124.607
 21
34.669
  0
LINE
  8
0
 10
-124.607
 20
34.669
 11
-125.014
 21
34.9643
  0
LINE
  8
0
 10
-125.014
 20
34.9643
 11
-125.454
 21
35.2063
  0
LINE
  8
0
 10
-125.454
 20
35.2063
 11
-125.921
 21
35.3912
  0
LINE
  8
0
 10
-125.921
 20
35.3912
 11
-126.407
 21
35.5161
  0
LINE
  8
0
 10
-126.407
 20
35.5161
 11
-126.906
 21
35.5791
  0
LINE
  8
0
 10
-126.906
 20
35.5791
 11
-127.408
 21
35.5791
  0
LINE
  8
0
 10
-127.408
 20
35.5791
 11
-127.907
 21
35.5161
  0
LINE
  8
0
 10
-127.907
 20
35.5161
 11
-128.393
 21
35.3912
  0
LINE
  8
0
 10
-128.393
 20
35.3912
 11
-128.86
 21
35.2063
  0
LINE
  8
0
 10
-128.86
 20
35.2063
 11
-129.3
 21
34.9643
  0
LINE
  8
0
 10
-129.3
 20
34.9643
 11
-129.707
 21
34.669
  0
LINE
  8
0
 10
-129.707
 20
34.669
 11
-130.073
 21
34.3252
  0
LINE
  8
0
 10
-130.073
 20
34.3252
 11
-130.393
 21
33.9381
  0
LINE
  8
0
 10
-130.393
 20
33.9381
 11
-130.662
 21
33.514
  0
LINE
  8
0
 10
-130.662
 20
33.514
 11
-130.876
 21
33.0595
  0
LINE
  8
0
 10
-130.876
 20
33.0595
 11
-131.031
 21
32.5817
  0
LINE
  8
0
 10
-131.031
 20
32.5817
 11
-131.125
 21
32.0883
  0
LINE
  8
0
 10
-131.125
 20
32.0883
 11
-131.157
 21
31.587
  0
LINE
  8
0
 10
-131.157
 20
31.587
 11
-131.125
 21
31.0857
  0
LINE
  8
0
 10
-131.125
 20
31.0857
 11
-131.031
 21
30.5922
  0
LINE
  8
0
 10
-131.031
 20
30.5922
 11
-131.007
 21
30.5189
  0
LINE
  8
0
 10
-131.007
 20
30.5189
 11
-138.905
 21
25.96
  0
LINE
  8
0
 10
-138.905
 20
25.96
 11
-169.746
 21
36.1423
  0
LINE
  8
0
 10
-169.746
 20
36.1423
 11
-181.276
 21
55.8148
  0
LINE
  8
0
 10
-181.276
 20
55.8148
 11
-181.178
 21
55.9068
  0
LINE
  8
0
 10
-181.178
 20
55.9068
 11
-180.858
 21
56.2939
  0
LINE
  8
0
 10
-180.858
 20
56.2939
 11
-180.589
 21
56.718
  0
LINE
  8
0
 10
-180.589
 20
56.718
 11
-180.375
 21
57.1725
  0
LINE
  8
0
 10
-180.375
 20
57.1725
 11
-180.22
 21
57.6502
  0
LINE
  8
0
 10
-180.22
 20
57.6502
 11
-180.126
 21
58.1437
  0
LINE
  8
0
 10
-180.126
 20
58.1437
 11
-180.094
 21
58.645
  0
LINE
  8
0
 10
-180.094
 20
58.645
 11
-180.126
 21
59.1463
  0
LINE
  8
0
 10
-180.126
 20
59.1463
 11
-180.22
 21
59.6397
  0
LINE
  8
0
 10
-180.22
 20
59.6397
 11
-180.375
 21
60.1175
  0
LINE
  8
0
 10
-180.375
 20
60.1175
 11
-180.589
 21
60.572
  0
LINE
  8
0
 10
-180.589
 20
60.572
 11
-180.858
 21
60.9961
  0
LINE
  8
0
 10
-180.858
 20
60.9961
 11
-181.178
 21
61.3832
  0
LINE
  8
0
 10
-181.178
 20
61.3832
 11
-181.544
 21
61.727
  0
LINE
  8
0
 10
-181.544
 20
61.727
 11
-181.951
 21
62.0223
  0
LINE
  8
0
 10
-181.951
 20
62.0223
 11
-182.339
 21
62.2358
  0
LINE
  8
0
 10
-182.339
 20
62.2358
 11
-178.706
 21
80
  0
LINE
  8
0
 10
-178.706
 20
80
 11
-184.831
 21
80
  0
LINE
  8
0
 10
-184.831
 20
80
 11
-188.993
 21
59.6467
  0
LINE
  8
0
 10
-188.993
 20
59.6467
 11
-189.08
 21
59.0248
  0
LINE
  8
0
 10
-189.08
 20
59.0248
 11
-189.088
 21
58.397
  0
LINE
  8
0
 10
-189.088
 20
58.397
 11
-189.017
 21
57.7731
  0
LINE
  8
0
 10
-189.017
 20
57.7731
 11
-188.869
 21
57.1629
  0
LINE
  8
0
 10
-188.869
 20
57.1629
 11
-188.646
 21
56.576
  0
LINE
  8
0
 10
-188.646
 20
56.576
 11
-188.408
 21
56.1167
  0
LINE
  8
0
 10
-188.408
 20
56.1167
 11
-174.732
 21
32.7827
  0
LINE
  8
0
 10
-174.732
 20
32.7827
 11
-174.381
 21
32.262
  0
LINE
  8
0
 10
-174.381
 20
32.262
 11
-173.967
 21
31.7894
  0
LINE
  8
0
 10
-173.967
 20
31.7894
 11
-173.498
 21
31.3723
  0
LINE
  8
0
 10
-173.498
 20
31.3723
 11
-172.98
 21
31.0173
  0
LINE
  8
0
 10
-172.98
 20
31.0173
 11
-172.422
 21
30.7301
  0
LINE
  8
0
 10
-172.422
 20
30.7301
 11
-171.986
 21
30.5631
  0
LINE
  8
0
 10
-171.986
 20
30.5631
 11
-140.361
 21
20.1221
  0
LINE
  8
0
 10
-140.361
 20
20.1221
 11
-139.753
 21
19.963
  0
LINE
  8
0
 10
-139.753
 20
19.963
 11
-139.131
 21
19.8814
  0
LINE
  8
0
 10
-139.131
 20
19.8814
 11
-138.503
 21
19.8784
  0
LINE
  8
0
 10
-138.503
 20
19.8784
 11
-137.879
 21
19.9542
  0
LINE
  8
0
 10
-137.879
 20
19.9542
 11
-137.27
 21
20.1075
  0
LINE
  8
0
 10
-137.27
 20
20.1075
 11
-136.686
 21
20.3359
  0
LINE
  8
0
 10
-136.686
 20
20.3359
 11
-136.293
 21
20.5397
  0
LINE
  8
0
 10
-136.293
 20
20.5397
 11
-126.451
 21
26.2214
  0
LINE
  8
0
 10
-126.451
 20
26.2214
 11
-90.5429
 21
16.5997
  0
LINE
  8
0
 10
-90.5429
 20
16.5997
 11
-97.5232
 21
9.00563
  0
LINE
  8
0
 10
-97.5232
 20
9.00563
 11
-97.9182
 21
8.51758
  0
LINE
  8
0
 10
-97.9182
 20
8.51758
 11
-98.249
 21
7.98386
  0
LINE
  8
0
 10
-98.249
 20
7.98386
 11
-98.5103
 21
7.41289
  0
LINE
  8
0
 10
-98.5103
 20
7.41289
 11
-98.6979
 21
6.81367
  0
LINE
  8
0
 10
-98.6979
 20
6.81367
 11
-98.809
 21
6.19566
  0
LINE
  8
0
 10
-98.809
 20
6.19566
 11
-98.8417
 21
5.56862
  0
LINE
  8
0
 10
-98.8417
 20
5.56862
 11
-98.7956
 21
4.94241
  0
LINE
  8
0
 10
-98.7956
 20
4.94241
 11
-98.6714
 21
4.32692
  0
LINE
  8
0
 10
-98.6714
 20
4.32692
 11
-98.471
 21
3.73186
  0
LINE
  8
0
 10
-98.471
 20
3.73186
 11
-98.1976
 21
3.1666
  0
LINE
  8
0
 10
-98.1976
 20
3.1666
 11
-97.8555
 21
2.64006
  0
LINE
  8
0
 10
-97.8555
 20
2.64006
 11
-97.4501
 21
2.16054
  0
LINE
  8
0
 10
-97.4501
 20
2.16054
 11
-97.077
 21
1.80952
  0
LINE
  8
0
 10
-97.077
 20
1.80952
 11
-80.2332
 21
-12.4828
  0
LINE
  8
0
 10
-80.2332
 20
-12.4828
 11
-70.535
 21
-26.4559
  0
LINE
  8
0
 10
-70.535
 20
-26.4559
 11
-62.5397
 21
-47.1732
  0
LINE
  8
0
 10
-62.5397
 20
-47.1732
 11
-62.2773
 21
-47.7437
  0
LINE
  8
0
 10
-62.2773
 20
-47.7437
 11
-61.9454
 21
-48.2767
  0
LINE
  8
0
 10
-61.9454
 20
-48.2767
 11
-61.5494
 21
-48.764
  0
LINE
  8
0
 10
-61.5494
 20
-48.764
 11
-61.0954
 21
-49.1978
  0
LINE
  8
0
 10
-61.0954
 20
-49.1978
 11
-60.5907
 21
-49.5712
  0
LINE
  8
0
 10
-60.5907
 20
-49.5712
 11
-60.0431
 21
-49.8785
  0
LINE
  8
0
 10
-60.0431
 20
-49.8785
 11
-59.4613
 21
-50.1147
  0
LINE
  8
0
 10
-59.4613
 20
-50.1147
 11
-58.8545
 21
-50.2761
  0
LINE
  8
0
 10
-58.8545
 20
-50.2761
 11
-58.2322
 21
-50.3602
  0
LINE
  8
0
 10
-58.2322
 20
-50.3602
 11
-57.8931
 21
-50.373
  0
LINE
  8
0
 10
-57.8931
 20
-50.373
 11
0
 21
-50.5821
  0
LINE
  8
0
 10
0
 20
-50.5821
 11
0
 21
-44.582
  0
LINE
  8
0
 10
-184.157
 20
57.647
 11
-184.281
 21
57.6627
  0
LINE
  8
0
 10
-184.281
 20
57.6627
 11
-184.403
 21
57.6939
  0
LINE
  8
0
 10
-184.403
 20
57.6939
 11
-184.52
 21
57.7402
  0
LINE
  8
0
 10
-184.52
 20
57.7402
 11
-184.63
 21
57.8007
  0
LINE
  8
0
 10
-184.63
 20
57.8007
 11
-184.731
 21
57.8745
  0
LINE
  8
0
 10
-184.731
 20
57.8745
 11
-184.823
 21
57.9604
  0
LINE
  8
0
 10
-184.823
 20
57.9604
 11
-184.903
 21
58.0572
  0
LINE
  8
0
 10
-184.903
 20
58.0572
 11
-184.97
 21
58.1632
  0
LINE
  8
0
 10
-184.97
 20
58.1632
 11
-185.024
 21
58.2769
  0
LINE
  8
0
 10
-185.024
 20
58.2769
 11
-185.063
 21
58.3963
  0
LINE
  8
0
 10
-185.063
 20
58.3963
 11
-185.086
 21
58.5197
  0
LINE
  8
0
 10
-185.086
 20
58.5197
 11
-185.094
 21
58.645
  0
LINE
  8
0
 10
-185.094
 20
58.645
 11
-185.086
 21
58.7703
  0
LINE
  8
0
 10
-185.086
 20
58.7703
 11
-185.063
 21
58.8937
  0
LINE
  8
0
 10
-185.063
 20
58.8937
 11
-185.024
 21
59.0131
  0
LINE
  8
0
 10
-185.024
 20
59.0131
 11
-184.97
 21
59.1267
  0
LINE
  8
0
 10
-184.97
 20
59.1267
 11
-184.903
 21
59.2328
  0
LINE
  8
0
 10
-184.903
 20
59.2328
 11
-184.823
 21
59.3295
  0
LINE
  8
0
 10
-184.823
 20
59.3295
 11
-184.731
 21
59.4155
  0
LINE
  8
0
 10
-184.731
 20
59.4155
 11
-184.63
 21
59.4893
  0
LINE
  8
0
 10
-184.63
 20
59.4893
 11
-184.52
 21
59.5498
  0
LINE
  8
0
 10
-184.52
 20
59.5498
 11
-184.403
 21
59.596
  0
LINE
  8
0
 10
-184.403
 20
59.596
 11
-184.281
 21
59.6273
  0
LINE
  8
0
 10
-184.281
 20
59.6273
 11
-184.157
 21
59.643
  0
LINE
  8
0
 10
-184.157
 20
59.643
 11
-184.031
 21
59.643
  0
LINE
  8
0
 10
-184.031
 20
59.643
 11
-183.907
 21
59.6273
  0
LINE
  8
0
 10
-183.907
 20
59.6273
 11
-183.785
 21
59.596
  0
LINE
  8
0
 10
-183.785
 20
59.596
 11
-183.668
 21
59.5498
  0
LINE
  8
0
 10
-183.668
 20
59.5498
 11
-183.558
 21
59.4893
  0
LINE
  8
0
 10
-183.558
 20
59.4893
 11
-183.457
 21
59.4155
  0
LINE
  8
0
 10
-183.457
 20
59.4155
 11
-183.365
 21
59.3295
  0
LINE
  8
0
 10
-183.365
 20
59.3295
 11
-183.285
 21
59.2328
  0
LINE
  8
0
 10
-183.285
 20
59.2328
 11
-183.218
 21
59.1267
  0
LINE
  8
0
 10
-183.218
 20
59.1267
 11
-183.164
 21
59.0131
  0
LINE
  8
0
 10
-183.164
 20
59.0131
 11
-183.125
 21
58.8937
  0
LINE
  8
0
 10
-183.125
 20
58.8937
 11
-183.102
 21
58.7703
  0
LINE
  8
0
 10
-183.102
 20
58.7703
 11
-183.094
 21
58.645
  0
LINE
  8
0
 10
-183.094
 20
58.645
 11
-183.102
 21
58.5197
  0
LINE
  8
0
 10
-183.102
 20
58.5197
 11
-183.125
 21
58.3963
  0
LINE
  8
0
 10
-183.125
 20
58.3963
 11
-183.164
 21
58.2769
  0
LINE
  8
0
 10
-183.164
 20
58.2769
 11
-183.218
 21
58.1632
  0
LINE
  8
0
 10
-183.218
 20
58.1632
 11
-183.285
 21
58.0572
  0
LINE
  8
0
 10
-183.285
 20
58.0572
 11
-183.365
 21
57.9604
  0
LINE
  8
0
 10
-183.365
 20
57.9604
 11
-183.457
 21
57.8745
  0
LINE
  8
0
 10
-183.457
 20
57.8745
 11
-183.558
 21
57.8007
  0
LINE
  8
0
 10
-183.558
 20
57.8007
 11
-183.668
 21
57.7402
  0
LINE
  8
0
 10
-183.668
 20
57.7402
 11
-183.785
 21
57.6939
  0
LINE
  8
0
 10
-183.785
 20
57.6939
 11
-183.907
 21
57.6627
  0
LINE
  8
0
 10
-183.907
 20
57.6627
 11
-184.031
 21
57.647
  0
LINE
  8
0
 10
-184.031
 20
57.647
 11
-184.157
 21
57.647
  0
LINE
  8
0
 10
-127.22
 20
30.589
 11
-127.344
 21
30.6047
  0
LINE
  8
0
 10
-127.344
 20
30.6047
 11
-127.466
 21
30.6359
  0
LINE
  8
0
 10
-127.466
 20
30.6359
 11
-127.583
 21
30.6822
  0
LINE
  8
0
 10
-127.583
 20
30.6822
 11
-127.693
 21
30.7427
  0
LINE
  8
0
 10
-127.693
 20
30.7427
 11
-127.794
 21
30.8165
  0
LINE
  8
0
 10
-127.794
 20
30.8165
 11
-127.886
 21
30.9025
  0
LINE
  8
0
 10
-127.886
 20
30.9025
 11
-127.966
 21
30.9992
  0
LINE
  8
0
 10
-127.966
 20
30.9992
 11
-128.033
 21
31.1052
  0
LINE
  8
0
 10
-128.033
 20
31.1052
 11
-128.087
 21
31.2189
  0
LINE
  8
0
 10
-128.087
 20
31.2189
 11
-128.126
 21
31.3383
  0
LINE
  8
0
 10
-128.126
 20
31.3383
 11
-128.149
 21
31.4617
  0
LINE
  8
0
 10
-128.149
 20
31.4617
 11
-128.157
 21
31.587
  0
LINE
  8
0
 10
-128.157
 20
31.587
 11
-128.149
 21
31.7123
  0
LINE
  8
0
 10
-128.149
 20
31.7123
 11
-128.126
 21
31.8357
  0
LINE
  8
0
 10
-128.126
 20
31.8357
 11
-128.087
 21
31.9551
  0
LINE
  8
0
 10
-128.087
 20
31.9551
 11
-128.033
 21
32.0687
  0
LINE
  8
0
 10
-128.033
 20
32.0687
 11
-127.966
 21
32.1748
  0
LINE
  8
0
 10
-127.966
 20
32.1748
 11
-127.886
 21
32.2715
  0
LINE
  8
0
 10
-127.886
 20
32.2715
 11
-127.794
 21
32.3575
  0
LINE
  8
0
 10
-127.794
 20
32.3575
 11
-127.693
 21
32.4313
  0
LINE
  8
0
 10
-127.693
 20
32.4313
 11
-127.583
 21
32.4918
  0
LINE
  8
0
 10
-127.583
 20
32.4918
 11
-127.466
 21
32.538
  0
LINE
  8
0
 10
-127.466
 20
32.538
 11
-127.344
 21
32.5693
  0
LINE
  8
0
 10
-127.344
 20
32.5693
 11
-127.22
 21
32.585
  0
LINE
  8
0
 10
-127.22
 20
32.585
 11
-127.094
 21
32.585
  0
LINE
  8
0
 10
-127.094
 20
32.585
 11
-126.97
 21
32.5693
  0
LINE
  8
0
 10
-126.97
 20
32.5693
 11
-126.848
 21
32.538
  0
LINE
  8
0
 10
-126.848
 20
32.538
 11
-126.731
 21
32.4918
  0
LINE
  8
0
 10
-126.731
 20
32.4918
 11
-126.621
 21
32.4313
  0
LINE
  8
0
 10
-126.621
 20
32.4313
 11
-126.52
 21
32.3575
  0
LINE
  8
0
 10
-126.52
 20
32.3575
 11
-126.428
 21
32.2715
  0
LINE
  8
0
 10
-126.428
 20
32.2715
 11
-126.348
 21
32.1748
  0
LINE
  8
0
 10
-126.348
 20
32.1748
 11
-126.281
 21
32.0687
  0
LINE
  8
0
 10
-126.281
 20
32.0687
 11
-126.227
 21
31.9551
  0
LINE
  8
0
 10
-126.227
 20
31.9551
 11
-126.188
 21
31.8357
  0
LINE
  8
0
 10
-126.188
 20
31.8357
 11
-126.165
 21
31.7123
  0
LINE
  8
0
 10
-126.165
 20
31.7123
 11
-126.157
 21
31.587
  0
LINE
  8
0
 10
-126.157
 20
31.587
 11
-126.165
 21
31.4617
  0
LINE
  8
0
 10
-126.165
 20
31.4617
 11
-126.188
 21
31.3383
  0
LINE
  8
0
 10
-126.188
 20
31.3383
 11
-126.227
 21
31.2189
  0
LINE
  8
0
 10
-126.227
 20
31.2189
 11
-126.281
 21
31.1052
  0
LINE
  8
0
 10
-126.281
 20
31.1052
 11
-126.348
 21
30.9992
  0
LINE
  8
0
 10
-126.348
 20
30.9992
 11
-126.428
 21
30.9025
  0
LINE
  8
0
 10
-126.428
 20
30.9025
 11
-126.52
 21
30.8165
  0
LINE
  8
0
 10
-126.52
 20
30.8165
 11
-126.621
 21
30.7427
  0
LINE
  8
0
 10
-126.621
 20
30.7427
 11
-126.731
 21
30.6822
  0
LINE
  8
0
 10
-126.731
 20
30.6822
 11
-126.848
 21
30.6359
  0
LINE
  8
0
 10
-126.848
 20
30.6359
 11
-126.97
 21
30.6047
  0
LINE
  8
0
 10
-126.97
 20
30.6047
 11
-127.094
 21
30.589
  0
LINE
  8
0
 10
-127.094
 20
30.589
 11
-127.22
 21
30.589
  0
LINE
  8
0
 10
-93.9048
 20
4.62398
 11
-94.0294
 21
4.63971
  0
LINE
  8
0
 10
-94.0294
 20
4.63971
 11
-94.151
 21
4.67094
  0
LINE
  8
0
 10
-94.151
 20
4.67094
 11
-94.2678
 21
4.71718
  0
LINE
  8
0
 10
-94.2678
 20
4.71718
 11
-94.3778
 21
4.77768
  0
LINE
  8
0
 10
-94.3778
 20
4.77768
 11
-94.4794
 21
4.85149
  0
LINE
  8
0
 10
-94.4794
 20
4.85149
 11
-94.571
 21
4.93745
  0
LINE
  8
0
 10
-94.571
 20
4.93745
 11
-94.651
 21
5.03421
  0
LINE
  8
0
 10
-94.651
 20
5.03421
 11
-94.7183
 21
5.14024
  0
LINE
  8
0
 10
-94.7183
 20
5.14024
 11
-94.7718
 21
5.25388
  0
LINE
  8
0
 10
-94.7718
 20
5.25388
 11
-94.8106
 21
5.37331
  0
LINE
  8
0
 10
-94.8106
 20
5.37331
 11
-94.8341
 21
5.49667
  0
LINE
  8
0
 10
-94.8341
 20
5.49667
 11
-94.842
 21
5.62199
  0
LINE
  8
0
 10
-94.842
 20
5.62199
 11
-94.8341
 21
5.74731
  0
LINE
  8
0
 10
-94.8341
 20
5.74731
 11
-94.8106
 21
5.87068
  0
LINE
  8
0
 10
-94.8106
 20
5.87068
 11
-94.7718
 21
5.99011
  0
LINE
  8
0
 10
-94.7718
 20
5.99011
 11
-94.7183
 21
6.10374
  0
LINE
  8
0
 10
-94.7183
 20
6.10374
 11
-94.651
 21
6.20978
  0
LINE
  8
0
 10
-94.651
 20
6.20978
 11
-94.571
 21
6.30653
  0
LINE
  8
0
 10
-94.571
 20
6.30653
 11
-94.4794
 21
6.3925
  0
LINE
  8
0
 10
-94.4794
 20
6.3925
 11
-94.3778
 21
6.46631
  0
LINE
  8
0
 10
-94.3778
 20
6.46631
 11
-94.2678
 21
6.52681
  0
LINE
  8
0
 10
-94.2678
 20
6.52681
 11
-94.151
 21
6.57304
  0
LINE
  8
0
 10
-94.151
 20
6.57304
 11
-94.0294
 21
6.60428
  0
LINE
  8
0
 10
-94.0294
 20
6.60428
 11
-93.9048
 21
6.62001
  0
LINE
  8
0
 10
-93.9048
 20
6.62001
 11
-93.7792
 21
6.62001
  0
LINE
  8
0
 10
-93.7792
 20
6.62001
 11
-93.6546
 21
6.60428
  0
LINE
  8
0
 10
-93.6546
 20
6.60428
 11
-93.533
 21
6.57304
  0
LINE
  8
0
 10
-93.533
 20
6.57304
 11
-93.4162
 21
6.52681
  0
LINE
  8
0
 10
-93.4162
 20
6.52681
 11
-93.3062
 21
6.46631
  0
LINE
  8
0
 10
-93.3062
 20
6.46631
 11
-93.2046
 21
6.3925
  0
LINE
  8
0
 10
-93.2046
 20
6.3925
 11
-93.113
 21
6.30653
  0
LINE
  8
0
 10
-93.113
 20
6.30653
 11
-93.033
 21
6.20978
  0
LINE
  8
0
 10
-93.033
 20
6.20978
 11
-92.9657
 21
6.10374
  0
LINE
  8
0
 10
-92.9657
 20
6.10374
 11
-92.9122
 21
5.99011
  0
LINE
  8
0
 10
-92.9122
 20
5.99011
 11
-92.8734
 21
5.87068
  0
LINE
  8
0
 10
-92.8734
 20
5.87068
 11
-92.8499
 21
5.74731
  0
LINE
  8
0
 10
-92.8499
 20
5.74731
 11
-92.842
 21
5.62199
  0
LINE
  8
0
 10
-92.842
 20
5.62199
 11
-92.8499
 21
5.49667
  0
LINE
  8
0
 10
-92.8499
 20
5.49667
 11
-92.8734
 21
5.37331
  0
LINE
  8
0
 10
-92.8734
 20
5.37331
 11
-92.9122
 21
5.25388
  0
LINE
  8
0
 10
-92.9122
 20
5.25388
 11
-92.9657
 21
5.14024
  0
LINE
  8
0
 10
-92.9657
 20
5.14024
 11
-93.033
 21
5.03421
  0
LINE
  8
0
 10
-93.033
 20
5.03421
 11
-93.113
 21
4.93745
  0
LINE
  8
0
 10
-93.113
 20
4.93745
 11
-93.2046
 21
4.85149
  0
LINE
  8
0
 10
-93.2046
 20
4.85149
 11
-93.3062
 21
4.77768
  0
LINE
  8
0
 10
-93.3062
 20
4.77768
 11
-93.4162
 21
4.71718
  0
LINE
  8
0
 10
-93.4162
 20
4.71718
 11
-93.533
 21
4.67094
  0
LINE
  8
0
 10
-93.533
 20
4.67094
 11
-93.6546
 21
4.63971
  0
LINE
  8
0
 10
-93.6546
 20
4.63971
 11
-93.7792
 21
4.62398
  0
LINE
  8
0
 10
-93.7792
 20
4.62398
 11
-93.9048
 21
4.62398
  0
LINE
  8
0
 10
-57.9378
 20
-46.371
 11
-58.0624
 21
-46.3553
  0
LINE
  8
0
 10
-58.0624
 20
-46.3553
 11
-58.184
 21
-46.324
  0
LINE
  8
0
 10
-58.184
 20
-46.324
 11
-58.3008
 21
-46.2778
  0
LINE
  8
0
 10
-58.3008
 20
-46.2778
 11
-58.4108
 21
-46.2173
  0
LINE
  8
0
 10
-58.4108
 20
-46.2173
 11
-58.5124
 21
-46.1435
  0
LINE
  8
0
 10
-58.5124
 20
-46.1435
 11
-58.604
 21
-46.0575
  0
LINE
  8
0
 10
-58.604
 20
-46.0575
 11
-58.684
 21
-45.9608
  0
LINE
  8
0
 10
-58.684
 20
-45.9608
 11
-58.7513
 21
-45.8547
  0
LINE
  8
0
 10
-58.7513
 20
-45.8547
 11
-58.8048
 21
-45.7411
  0
LINE
  8
0
 10
-58.8048
 20
-45.7411
 11
-58.8436
 21
-45.6217
  0
LINE
  8
0
 10
-58.8436
 20
-45.6217
 11
-58.8671
 21
-45.4983
  0
LINE
  8
0
 10
-58.8671
 20
-45.4983
 11
-58.875
 21
-45.373
  0
LINE
  8
0
 10
-58.875
 20
-45.373
 11
-58.8671
 21
-45.2477
  0
LINE
  8
0
 10
-58.8671
 20
-45.2477
 11
-58.8436
 21
-45.1243
  0
LINE
  8
0
 10
-58.8436
 20
-45.1243
 11
-58.8048
 21
-45.0049
  0
LINE
  8
0
 10
-58.8048
 20
-45.0049
 11
-58.7513
 21
-44.8912
  0
LINE
  8
0
 10
-58.7513
 20
-44.8912
 11
-58.684
 21
-44.7852
  0
LINE
  8
0
 10
-58.684
 20
-44.7852
 11
-58.604
 21
-44.6884
  0
LINE
  8
0
 10
-58.604
 20
-44.6884
 11
-58.5124
 21
-44.6025
  0
LINE
  8
0
 10
-58.5124
 20
-44.6025
 11
-58.4108
 21
-44.5287
  0
LINE
  8
0
 10
-58.4108
 20
-44.5287
 11
-58.3008
 21
-44.4682
  0
LINE
  8
0
 10
-58.3008
 20
-44.4682
 11
-58.184
 21
-44.4219
  0
LINE
  8
0
 10
-58.184
 20
-44.4219
 11
-58.0624
 21
-44.3907
  0
LINE
  8
0
 10
-58.0624
 20
-44.3907
 11
-57.9378
 21
-44.375
  0
LINE
  8
0
 10
-57.9378
 20
-44.375
 11
-57.8122
 21
-44.375
  0
LINE
  8
0
 10
-57.8122
 20
-44.375
 11
-57.6876
 21
-44.3907
  0
LINE
  8
0
 10
-57.6876
 20
-44.3907
 11
-57.566
 21
-44.4219
  0
LINE
  8
0
 10
-57.566
 20
-44.4219
 11
-57.4492
 21
-44.4682
  0
LINE
  8
0
 10
-57.4492
 20
-44.4682
 11
-57.3392
 21
-44.5287
  0
LINE
  8
0
 10
-57.3392
 20
-44.5287
 11
-57.2376
 21
-44.6025
  0
LINE
  8
0
 10
-57.2376
 20
-44.6025
 11
-57.146
 21
-44.6884
  0
LINE
  8
0
 10
-57.146
 20
-44.6884
 11
-57.066
 21
-44.7852
  0
LINE
  8
0
 10
-57.066
 20
-44.7852
 11
-56.9987
 21
-44.8912
  0
LINE
  8
0
 10
-56.9987
 20
-44.8912
 11
-56.9452
 21
-45.0049
  0
LINE
  8
0
 10
-56.9452
 20
-45.0049
 11
-56.9064
 21
-45.1243
  0
LINE
  8
0
 10
-56.9064
 20
-45.1243
 11
-56.8829
 21
-45.2477
  0
LINE
  8
0
 10
-56.8829
 20
-45.2477
 11
-56.875
 21
-45.373
  0
LINE
  8
0
 10
-56.875
 20
-45.373
 11
-56.8829
 21
-45.4983
  0
LINE
  8
0
 10
-56.8829
 20
-45.4983
 11
-56.9064
 21
-45.6217
  0
LINE
  8
0
 10
-56.9064
 20
-45.6217
 11
-56.9452
 21
-45.7411
  0
LINE
  8
0
 10
-56.9452
 20
-45.7411
 11
-56.9987
 21
-45.8547
  0
LINE
  8
0
 10
-56.9987
 20
-45.8547
 11
-57.066
 21
-45.9608
  0
LINE
  8
0
 10
-57.066
 20
-45.9608
 11
-57.146
 21
-46.0575
  0
LINE
  8
0
 10
-57.146
 20
-46.0575
 11
-57.2376
 21
-46.1435
  0
LINE
  8
0
 10
-57.2376
 20
-46.1435
 11
-57.3392
 21
-46.2173
  0
LINE
  8
0
 10
-57.3392
 20
-46.2173
 11
-57.4492
 21
-46.2778
  0
LINE
  8
0
 10
-57.4492
 20
-46.2778
 11
-57.566
 21
-46.324
  0
LINE
  8
0
 10
-57.566
 20
-46.324
 11
-57.6876
 21
-46.3553
  0
LINE
  8
0
 10
-57.6876
 20
-46.3553
 11
-57.8122
 21
-46.371
  0
LINE
  8
0
 10
-57.8122
 20
-46.371
 11
-57.9378
 21
-46.371
  0
ENDSEC
  0
SECTION
  2
OBJECTS
  0
DICTIONARY
  0
ENDSEC
  0
EOF
