  0
SECTION
  2
BLOCKS
  0
ENDSEC
  0
SECTION
  2
ENTITIES
  0
LINE
  8
0
 10
57.8977
 20
-50.7518
 11
58.5149
 21
-50.6364
  0
LINE
  8
0
 10
58.5149
 20
-50.6364
 11
59.1128
 21
-50.4445
  0
LINE
  8
0
 10
59.1128
 20
-50.4445
 11
59.6819
 21
-50.1792
  0
LINE
  8
0
 10
59.6819
 20
-50.1792
 11
60.2133
 21
-49.8447
  0
LINE
  8
0
 10
60.2133
 20
-49.8447
 11
60.6985
 21
-49.4462
  0
LINE
  8
0
 10
60.6985
 20
-49.4462
 11
61.13
 21
-48.99
  0
LINE
  8
0
 10
61.13
 20
-48.99
 11
61.5009
 21
-48.4834
  0
LINE
  8
0
 10
61.5009
 20
-48.4834
 11
61.8054
 21
-47.9342
  0
LINE
  8
0
 10
61.8054
 20
-47.9342
 11
61.966
 21
-47.557
  0
LINE
  8
0
 10
61.966
 20
-47.557
 11
69.8252
 21
-26.7666
  0
LINE
  8
0
 10
69.8252
 20
-26.7666
 11
79.4238
 21
-12.6995
  0
LINE
  8
0
 10
79.4238
 20
-12.6995
 11
96.1508
 21
1.75931
  0
LINE
  8
0
 10
96.1508
 20
1.75931
 11
96.5991
 21
2.19894
  0
LINE
  8
0
 10
96.5991
 20
2.19894
 11
96.9887
 21
2.6913
  0
LINE
  8
0
 10
96.9887
 20
2.6913
 11
97.3136
 21
3.22862
  0
LINE
  8
0
 10
97.3136
 20
3.22862
 11
97.5686
 21
3.80241
  0
LINE
  8
0
 10
97.5686
 20
3.80241
 11
97.7497
 21
4.40366
  0
LINE
  8
0
 10
97.7497
 20
4.40366
 11
97.854
 21
5.02284
  0
LINE
  8
0
 10
97.854
 20
5.02284
 11
97.8798
 21
5.65021
  0
LINE
  8
0
 10
97.8798
 20
5.65021
 11
97.8268
 21
6.27588
  0
LINE
  8
0
 10
97.8268
 20
6.27588
 11
97.6959
 21
6.88997
  0
LINE
  8
0
 10
97.6959
 20
6.88997
 11
97.489
 21
7.4828
  0
LINE
  8
0
 10
97.489
 20
7.4828
 11
97.2094
 21
8.04503
  0
LINE
  8
0
 10
97.2094
 20
8.04503
 11
96.8615
 21
8.56778
  0
LINE
  8
0
 10
96.8615
 20
8.56778
 11
96.5392
 21
8.95045
  0
LINE
  8
0
 10
96.5392
 20
8.95045
 11
89.6382
 21
16.3571
  0
LINE
  8
0
 10
89.6382
 20
16.3571
 11
125.486
 21
25.9624
  0
LINE
  8
0
 10
125.486
 20
25.9624
 11
135.327
 21
20.2808
  0
LINE
  8
0
 10
135.327
 20
20.2808
 11
135.89
 21
20.0016
  0
LINE
  8
0
 10
135.89
 20
20.0016
 11
136.483
 21
19.7951
  0
LINE
  8
0
 10
136.483
 20
19.7951
 11
137.097
 21
19.6646
  0
LINE
  8
0
 10
137.097
 20
19.6646
 11
137.722
 21
19.6121
  0
LINE
  8
0
 10
137.722
 20
19.6121
 11
138.35
 21
19.6384
  0
LINE
  8
0
 10
138.35
 20
19.6384
 11
138.969
 21
19.7431
  0
LINE
  8
0
 10
138.969
 20
19.7431
 11
139.395
 21
19.8631
  0
LINE
  8
0
 10
139.395
 20
19.8631
 11
171.02
 21
30.3041
  0
LINE
  8
0
 10
171.02
 20
30.3041
 11
171.602
 21
30.538
  0
LINE
  8
0
 10
171.602
 20
30.538
 11
172.151
 21
30.843
  0
LINE
  8
0
 10
172.151
 20
30.843
 11
172.657
 21
31.2145
  0
LINE
  8
0
 10
172.657
 20
31.2145
 11
173.113
 21
31.6465
  0
LINE
  8
0
 10
173.113
 20
31.6465
 11
173.511
 21
32.1322
  0
LINE
  8
0
 10
173.511
 20
32.1322
 11
173.799
 21
32.5808
  0
LINE
  8
0
 10
173.799
 20
32.5808
 11
186.992
 21
55.7858
  0
LINE
  8
0
 10
186.992
 20
55.7858
 11
187.267
 21
56.35
  0
LINE
  8
0
 10
187.267
 20
56.35
 11
187.47
 21
56.9444
  0
LINE
  8
0
 10
187.47
 20
56.9444
 11
187.596
 21
57.5594
  0
LINE
  8
0
 10
187.596
 20
57.5594
 11
187.644
 21
58.1854
  0
LINE
  8
0
 10
187.644
 20
58.1854
 11
187.614
 21
58.8126
  0
LINE
  8
0
 10
187.614
 20
58.8126
 11
187.544
 21
59.2587
  0
LINE
  8
0
 10
187.544
 20
59.2587
 11
183.302
 21
80
  0
LINE
  8
0
 10
183.302
 20
80
 11
177.178
 21
80
  0
LINE
  8
0
 10
177.178
 20
80
 11
180.89
 21
61.8478
  0
LINE
  8
0
 10
180.89
 20
61.8478
 11
180.502
 21
61.6343
  0
LINE
  8
0
 10
180.502
 20
61.6343
 11
180.095
 21
61.339
  0
LINE
  8
0
 10
180.095
 20
61.339
 11
179.729
 21
60.9952
  0
LINE
  8
0
 10
179.729
 20
60.9952
 11
179.409
 21
60.6081
  0
LINE
  8
0
 10
179.409
 20
60.6081
 11
179.14
 21
60.184
  0
LINE
  8
0
 10
179.14
 20
60.184
 11
178.926
 21
59.7295
  0
LINE
  8
0
 10
178.926
 20
59.7295
 11
178.771
 21
59.2517
  0
LINE
  8
0
 10
178.771
 20
59.2517
 11
178.677
 21
58.7583
  0
LINE
  8
0
 10
178.677
 20
58.7583
 11
178.645
 21
58.257
  0
LINE
  8
0
 10
178.645
 20
58.257
 11
178.677
 21
57.7557
  0
LINE
  8
0
 10
178.677
 20
57.7557
 11
178.771
 21
57.2622
  0
LINE
  8
0
 10
178.771
 20
57.2622
 11
178.926
 21
56.7845
  0
LINE
  8
0
 10
178.926
 20
56.7845
 11
179.14
 21
56.33
  0
LINE
  8
0
 10
179.14
 20
56.33
 11
179.409
 21
55.9059
  0
LINE
  8
0
 10
179.409
 20
55.9059
 11
179.729
 21
55.5188
  0
LINE
  8
0
 10
179.729
 20
55.5188
 11
179.865
 21
55.391
  0
LINE
  8
0
 10
179.865
 20
55.391
 11
168.773
 21
35.8809
  0
LINE
  8
0
 10
168.773
 20
35.8809
 11
137.939
 21
25.701
  0
LINE
  8
0
 10
137.939
 20
25.701
 11
130.042
 21
30.2598
  0
LINE
  8
0
 10
130.042
 20
30.2598
 11
130.066
 21
30.3332
  0
LINE
  8
0
 10
130.066
 20
30.3332
 11
130.16
 21
30.8267
  0
LINE
  8
0
 10
130.16
 20
30.8267
 11
130.192
 21
31.328
  0
LINE
  8
0
 10
130.192
 20
31.328
 11
130.16
 21
31.8293
  0
LINE
  8
0
 10
130.16
 20
31.8293
 11
130.066
 21
32.3227
  0
LINE
  8
0
 10
130.066
 20
32.3227
 11
129.911
 21
32.8005
  0
LINE
  8
0
 10
129.911
 20
32.8005
 11
129.697
 21
33.255
  0
LINE
  8
0
 10
129.697
 20
33.255
 11
129.428
 21
33.6791
  0
LINE
  8
0
 10
129.428
 20
33.6791
 11
129.108
 21
34.0662
  0
LINE
  8
0
 10
129.108
 20
34.0662
 11
128.742
 21
34.41
  0
LINE
  8
0
 10
128.742
 20
34.41
 11
128.335
 21
34.7053
  0
LINE
  8
0
 10
128.335
 20
34.7053
 11
127.895
 21
34.9473
  0
LINE
  8
0
 10
127.895
 20
34.9473
 11
127.428
 21
35.1322
  0
LINE
  8
0
 10
127.428
 20
35.1322
 11
126.941
 21
35.2571
  0
LINE
  8
0
 10
126.941
 20
35.2571
 11
126.443
 21
35.3201
  0
LINE
  8
0
 10
126.443
 20
35.3201
 11
125.941
 21
35.3201
  0
LINE
  8
0
 10
125.941
 20
35.3201
 11
125.442
 21
35.2571
  0
LINE
  8
0
 10
125.442
 20
35.2571
 11
124.956
 21
35.1322
  0
LINE
  8
0
 10
124.956
 20
35.1322
 11
124.489
 21
34.9473
  0
LINE
  8
0
 10
124.489
 20
34.9473
 11
124.049
 21
34.7053
  0
LINE
  8
0
 10
124.049
 20
34.7053
 11
123.642
 21
34.41
  0
LINE
  8
0
 10
123.642
 20
34.41
 11
123.276
 21
34.0662
  0
LINE
  8
0
 10
123.276
 20
34.0662
 11
122.956
 21
33.6791
  0
LINE
  8
0
 10
122.956
 20
33.6791
 11
122.687
 21
33.255
  0
LINE
  8
0
 10
122.687
 20
33.255
 11
122.473
 21
32.8005
  0
LINE
  8
0
 10
122.473
 20
32.8005
 11
122.318
 21
32.3227
  0
LINE
  8
0
 10
122.318
 20
32.3227
 11
122.224
 21
31.8293
  0
LINE
  8
0
 10
122.224
 20
31.8293
 11
122.192
 21
31.328
  0
LINE
  8
0
 10
122.192
 20
31.328
 11
122.194
 21
31.2921
  0
LINE
  8
0
 10
122.194
 20
31.2921
 11
80.0512
 21
19.9999
  0
LINE
  8
0
 10
80.0512
 20
19.9999
 11
79.8878
 21
19.9405
  0
LINE
  8
0
 10
79.8878
 20
19.9405
 11
79.7775
 21
19.8804
  0
LINE
  8
0
 10
79.7775
 20
19.8804
 11
79.6756
 21
19.807
  0
LINE
  8
0
 10
79.6756
 20
19.807
 11
79.5837
 21
19.7214
  0
LINE
  8
0
 10
79.5837
 20
19.7214
 11
79.5033
 21
19.6249
  0
LINE
  8
0
 10
79.5033
 20
19.6249
 11
79.4356
 21
19.5192
  0
LINE
  8
0
 10
79.4356
 20
19.5192
 11
79.3817
 21
19.4057
  0
LINE
  8
0
 10
79.3817
 20
19.4057
 11
79.3424
 21
19.2865
  0
LINE
  8
0
 10
79.3424
 20
19.2865
 11
79.3184
 21
19.1632
  0
LINE
  8
0
 10
79.3184
 20
19.1632
 11
79.31
 21
19.0379
  0
LINE
  8
0
 10
79.31
 20
19.0379
 11
79.3174
 21
18.9125
  0
LINE
  8
0
 10
79.3174
 20
18.9125
 11
79.3405
 21
18.7891
  0
LINE
  8
0
 10
79.3405
 20
18.7891
 11
79.3788
 21
18.6695
  0
LINE
  8
0
 10
79.3788
 20
18.6695
 11
79.4318
 21
18.5557
  0
LINE
  8
0
 10
79.4318
 20
18.5557
 11
79.4987
 21
18.4494
  0
LINE
  8
0
 10
79.4987
 20
18.4494
 11
79.5784
 21
18.3523
  0
LINE
  8
0
 10
79.5784
 20
18.3523
 11
89.5147
 21
7.68794
  0
LINE
  8
0
 10
89.5147
 20
7.68794
 11
89.3758
 21
7.46899
  0
LINE
  8
0
 10
89.3758
 20
7.46899
 11
89.1619
 21
7.01448
  0
LINE
  8
0
 10
89.1619
 20
7.01448
 11
89.0067
 21
6.53674
  0
LINE
  8
0
 10
89.0067
 20
6.53674
 11
88.9126
 21
6.04332
  0
LINE
  8
0
 10
88.9126
 20
6.04332
 11
88.881
 21
5.54199
  0
LINE
  8
0
 10
88.881
 20
5.54199
 11
88.9126
 21
5.04066
  0
LINE
  8
0
 10
88.9126
 20
5.04066
 11
89.0067
 21
4.54724
  0
LINE
  8
0
 10
89.0067
 20
4.54724
 11
89.1619
 21
4.0695
  0
LINE
  8
0
 10
89.1619
 20
4.0695
 11
89.3026
 21
3.77058
  0
LINE
  8
0
 10
89.3026
 20
3.77058
 11
75.007
 21
-8.58646
  0
LINE
  8
0
 10
75.007
 20
-8.58646
 11
74.9121
 21
-8.68027
  0
LINE
  8
0
 10
74.9121
 20
-8.68027
 11
74.835
 21
-8.77936
  0
LINE
  8
0
 10
74.835
 20
-8.77936
 11
64.533
 21
-23.8774
  0
LINE
  8
0
 10
64.533
 20
-23.8774
 11
64.4753
 21
-23.9729
  0
LINE
  8
0
 10
64.4753
 20
-23.9729
 11
64.4236
 21
-24.0874
  0
LINE
  8
0
 10
64.4236
 20
-24.0874
 11
57.7204
 21
-41.8197
  0
LINE
  8
0
 10
57.7204
 20
-41.8197
 11
57.5401
 21
-41.7969
  0
LINE
  8
0
 10
57.5401
 20
-41.7969
 11
57.0378
 21
-41.7969
  0
LINE
  8
0
 10
57.0378
 20
-41.7969
 11
56.5395
 21
-41.8598
  0
LINE
  8
0
 10
56.5395
 20
-41.8598
 11
56.0529
 21
-41.9848
  0
LINE
  8
0
 10
56.0529
 20
-41.9848
 11
55.5859
 21
-42.1697
  0
LINE
  8
0
 10
55.5859
 20
-42.1697
 11
55.1457
 21
-42.4117
  0
LINE
  8
0
 10
55.1457
 20
-42.4117
 11
54.7393
 21
-42.7069
  0
LINE
  8
0
 10
54.7393
 20
-42.7069
 11
54.3731
 21
-43.0508
  0
LINE
  8
0
 10
54.3731
 20
-43.0508
 11
54.0529
 21
-43.4379
  0
LINE
  8
0
 10
54.0529
 20
-43.4379
 11
53.7838
 21
-43.862
  0
LINE
  8
0
 10
53.7838
 20
-43.862
 11
53.5699
 21
-44.3165
  0
LINE
  8
0
 10
53.5699
 20
-44.3165
 11
53.4209
 21
-44.775
  0
LINE
  8
0
 10
53.4209
 20
-44.775
 11
0
 21
-44.582
  0
LINE
  8
0
 10
0
 20
-44.582
 11
0
 21
-50.5821
  0
LINE
  8
0
 10
0
 20
-50.5821
 11
57.2709
 21
-50.789
  0
LINE
  8
0
 10
57.2709
 20
-50.789
 11
57.8977
 21
-50.7518
  0
LINE
  8
0
 10
182.582
 20
57.259
 11
182.458
 21
57.2747
  0
LINE
  8
0
 10
182.458
 20
57.2747
 11
182.336
 21
57.3059
  0
LINE
  8
0
 10
182.336
 20
57.3059
 11
182.219
 21
57.3522
  0
LINE
  8
0
 10
182.219
 20
57.3522
 11
182.109
 21
57.4127
  0
LINE
  8
0
 10
182.109
 20
57.4127
 11
182.008
 21
57.4865
  0
LINE
  8
0
 10
182.008
 20
57.4865
 11
181.916
 21
57.5724
  0
LINE
  8
0
 10
181.916
 20
57.5724
 11
181.836
 21
57.6692
  0
LINE
  8
0
 10
181.836
 20
57.6692
 11
181.769
 21
57.7752
  0
LINE
  8
0
 10
181.769
 20
57.7752
 11
181.715
 21
57.8889
  0
LINE
  8
0
 10
181.715
 20
57.8889
 11
181.676
 21
58.0083
  0
LINE
  8
0
 10
181.676
 20
58.0083
 11
181.653
 21
58.1317
  0
LINE
  8
0
 10
181.653
 20
58.1317
 11
181.645
 21
58.257
  0
LINE
  8
0
 10
181.645
 20
58.257
 11
181.653
 21
58.3823
  0
LINE
  8
0
 10
181.653
 20
58.3823
 11
181.676
 21
58.5057
  0
LINE
  8
0
 10
181.676
 20
58.5057
 11
181.715
 21
58.6251
  0
LINE
  8
0
 10
181.715
 20
58.6251
 11
181.769
 21
58.7387
  0
LINE
  8
0
 10
181.769
 20
58.7387
 11
181.836
 21
58.8448
  0
LINE
  8
0
 10
181.836
 20
58.8448
 11
181.916
 21
58.9415
  0
LINE
  8
0
 10
181.916
 20
58.9415
 11
182.008
 21
59.0275
  0
LINE
  8
0
 10
182.008
 20
59.0275
 11
182.109
 21
59.1013
  0
LINE
  8
0
 10
182.109
 20
59.1013
 11
182.219
 21
59.1618
  0
LINE
  8
0
 10
182.219
 20
59.1618
 11
182.336
 21
59.208
  0
LINE
  8
0
 10
182.336
 20
59.208
 11
182.458
 21
59.2393
  0
LINE
  8
0
 10
182.458
 20
59.2393
 11
182.582
 21
59.255
  0
LINE
  8
0
 10
182.582
 20
59.255
 11
182.708
 21
59.255
  0
LINE
  8
0
 10
182.708
 20
59.255
 11
182.832
 21
59.2393
  0
LINE
  8
0
 10
182.832
 20
59.2393
 11
182.954
 21
59.208
  0
LINE
  8
0
 10
182.954
 20
59.208
 11
183.071
 21
59.1618
  0
LINE
  8
0
 10
183.071
 20
59.1618
 11
183.181
 21
59.1013
  0
LINE
  8
0
 10
183.181
 20
59.1013
 11
183.282
 21
59.0275
  0
LINE
  8
0
 10
183.282
 20
59.0275
 11
183.374
 21
58.9415
  0
LINE
  8
0
 10
183.374
 20
58.9415
 11
183.454
 21
58.8448
  0
LINE
  8
0
 10
183.454
 20
58.8448
 11
183.521
 21
58.7387
  0
LINE
  8
0
 10
183.521
 20
58.7387
 11
183.575
 21
58.6251
  0
LINE
  8
0
 10
183.575
 20
58.6251
 11
183.614
 21
58.5057
  0
LINE
  8
0
 10
183.614
 20
58.5057
 11
183.637
 21
58.3823
  0
LINE
  8
0
 10
183.637
 20
58.3823
 11
183.645
 21
58.257
  0
LINE
  8
0
 10
183.645
 20
58.257
 11
183.637
 21
58.1317
  0
LINE
  8
0
 10
183.637
 20
58.1317
 11
183.614
 21
58.0083
  0
LINE
  8
0
 10
183.614
 20
58.0083
 11
183.575
 21
57.8889
  0
LINE
  8
0
 10
183.575
 20
57.8889
 11
183.521
 21
57.7752
  0
LINE
  8
0
 10
183.521
 20
57.7752
 11
183.454
 21
57.6692
  0
LINE
  8
0
 10
183.454
 20
57.6692
 11
183.374
 21
57.5724
  0
LINE
  8
0
 10
183.374
 20
57.5724
 11
183.282
 21
57.4865
  0
LINE
  8
0
 10
183.282
 20
57.4865
 11
183.181
 21
57.4127
  0
LINE
  8
0
 10
183.181
 20
57.4127
 11
183.071
 21
57.3522
  0
LINE
  8
0
 10
183.071
 20
57.3522
 11
182.954
 21
57.3059
  0
LINE
  8
0
 10
182.954
 20
57.3059
 11
182.832
 21
57.2747
  0
LINE
  8
0
 10
182.832
 20
57.2747
 11
182.708
 21
57.259
  0
LINE
  8
0
 10
182.708
 20
57.259
 11
182.582
 21
57.259
  0
LINE
  8
0
 10
126.129
 20
30.33
 11
126.005
 21
30.3457
  0
LINE
  8
0
 10
126.005
 20
30.3457
 11
125.883
 21
30.3769
  0
LINE
  8
0
 10
125.883
 20
30.3769
 11
125.766
 21
30.4232
  0
LINE
  8
0
 10
125.766
 20
30.4232
 11
125.656
 21
30.4837
  0
LINE
  8
0
 10
125.656
 20
30.4837
 11
125.555
 21
30.5575
  0
LINE
  8
0
 10
125.555
 20
30.5575
 11
125.463
 21
30.6434
  0
LINE
  8
0
 10
125.463
 20
30.6434
 11
125.383
 21
30.7402
  0
LINE
  8
0
 10
125.383
 20
30.7402
 11
125.316
 21
30.8462
  0
LINE
  8
0
 10
125.316
 20
30.8462
 11
125.262
 21
30.9599
  0
LINE
  8
0
 10
125.262
 20
30.9599
 11
125.223
 21
31.0793
  0
LINE
  8
0
 10
125.223
 20
31.0793
 11
125.2
 21
31.2027
  0
LINE
  8
0
 10
125.2
 20
31.2027
 11
125.192
 21
31.328
  0
LINE
  8
0
 10
125.192
 20
31.328
 11
125.2
 21
31.4533
  0
LINE
  8
0
 10
125.2
 20
31.4533
 11
125.223
 21
31.5767
  0
LINE
  8
0
 10
125.223
 20
31.5767
 11
125.262
 21
31.6961
  0
LINE
  8
0
 10
125.262
 20
31.6961
 11
125.316
 21
31.8097
  0
LINE
  8
0
 10
125.316
 20
31.8097
 11
125.383
 21
31.9158
  0
LINE
  8
0
 10
125.383
 20
31.9158
 11
125.463
 21
32.0125
  0
LINE
  8
0
 10
125.463
 20
32.0125
 11
125.555
 21
32.0985
  0
LINE
  8
0
 10
125.555
 20
32.0985
 11
125.656
 21
32.1723
  0
LINE
  8
0
 10
125.656
 20
32.1723
 11
125.766
 21
32.2328
  0
LINE
  8
0
 10
125.766
 20
32.2328
 11
125.883
 21
32.279
  0
LINE
  8
0
 10
125.883
 20
32.279
 11
126.005
 21
32.3103
  0
LINE
  8
0
 10
126.005
 20
32.3103
 11
126.129
 21
32.326
  0
LINE
  8
0
 10
126.129
 20
32.326
 11
126.255
 21
32.326
  0
LINE
  8
0
 10
126.255
 20
32.326
 11
126.379
 21
32.3103
  0
LINE
  8
0
 10
126.379
 20
32.3103
 11
126.501
 21
32.279
  0
LINE
  8
0
 10
126.501
 20
32.279
 11
126.618
 21
32.2328
  0
LINE
  8
0
 10
126.618
 20
32.2328
 11
126.728
 21
32.1723
  0
LINE
  8
0
 10
126.728
 20
32.1723
 11
126.829
 21
32.0985
  0
LINE
  8
0
 10
126.829
 20
32.0985
 11
126.921
 21
32.0125
  0
LINE
  8
0
 10
126.921
 20
32.0125
 11
127.001
 21
31.9158
  0
LINE
  8
0
 10
127.001
 20
31.9158
 11
127.068
 21
31.8097
  0
LINE
  8
0
 10
127.068
 20
31.8097
 11
127.122
 21
31.6961
  0
LINE
  8
0
 10
127.122
 20
31.6961
 11
127.161
 21
31.5767
  0
LINE
  8
0
 10
127.161
 20
31.5767
 11
127.184
 21
31.4533
  0
LINE
  8
0
 10
127.184
 20
31.4533
 11
127.192
 21
31.328
  0
LINE
  8
0
 10
127.192
 20
31.328
 11
127.184
 21
31.2027
  0
LINE
  8
0
 10
127.184
 20
31.2027
 11
127.161
 21
31.0793
  0
LINE
  8
0
 10
127.161
 20
31.0793
 11
127.122
 21
30.9599
  0
LINE
  8
0
 10
127.122
 20
30.9599
 11
127.068
 21
30.8462
  0
LINE
  8
0
 10
127.068
 20
30.8462
 11
127.001
 21
30.7402
  0
LINE
  8
0
 10
127.001
 20
30.7402
 11
126.921
 21
30.6434
  0
LINE
  8
0
 10
126.921
 20
30.6434
 11
126.829
 21
30.5575
  0
LINE
  8
0
 10
126.829
 20
30.5575
 11
126.728
 21
30.4837
  0
LINE
  8
0
 10
126.728
 20
30.4837
 11
126.618
 21
30.4232
  0
LINE
  8
0
 10
126.618
 20
30.4232
 11
126.501
 21
30.3769
  0
LINE
  8
0
 10
126.501
 20
30.3769
 11
126.379
 21
30.3457
  0
LINE
  8
0
 10
126.379
 20
30.3457
 11
126.255
 21
30.33
  0
LINE
  8
0
 10
126.255
 20
30.33
 11
126.129
 21
30.33
  0
LINE
  8
0
 10
92.8182
 20
4.54398
 11
92.6936
 21
4.55971
  0
LINE
  8
0
 10
92.6936
 20
4.55971
 11
92.572
 21
4.59094
  0
LINE
  8
0
 10
92.572
 20
4.59094
 11
92.4552
 21
4.63718
  0
LINE
  8
0
 10
92.4552
 20
4.63718
 11
92.3452
 21
4.69768
  0
LINE
  8
0
 10
92.3452
 20
4.69768
 11
92.2436
 21
4.77148
  0
LINE
  8
0
 10
92.2436
 20
4.77148
 11
92.152
 21
4.85745
  0
LINE
  8
0
 10
92.152
 20
4.85745
 11
92.072
 21
4.95421
  0
LINE
  8
0
 10
92.072
 20
4.95421
 11
92.0047
 21
5.06024
  0
LINE
  8
0
 10
92.0047
 20
5.06024
 11
91.9512
 21
5.17387
  0
LINE
  8
0
 10
91.9512
 20
5.17387
 11
91.9124
 21
5.2933
  0
LINE
  8
0
 10
91.9124
 20
5.2933
 11
91.8889
 21
5.41667
  0
LINE
  8
0
 10
91.8889
 20
5.41667
 11
91.881
 21
5.54199
  0
LINE
  8
0
 10
91.881
 20
5.54199
 11
91.8889
 21
5.66731
  0
LINE
  8
0
 10
91.8889
 20
5.66731
 11
91.9124
 21
5.79068
  0
LINE
  8
0
 10
91.9124
 20
5.79068
 11
91.9512
 21
5.91011
  0
LINE
  8
0
 10
91.9512
 20
5.91011
 11
92.0047
 21
6.02374
  0
LINE
  8
0
 10
92.0047
 20
6.02374
 11
92.072
 21
6.12978
  0
LINE
  8
0
 10
92.072
 20
6.12978
 11
92.152
 21
6.22653
  0
LINE
  8
0
 10
92.152
 20
6.22653
 11
92.2436
 21
6.3125
  0
LINE
  8
0
 10
92.2436
 20
6.3125
 11
92.3452
 21
6.38631
  0
LINE
  8
0
 10
92.3452
 20
6.38631
 11
92.4552
 21
6.44681
  0
LINE
  8
0
 10
92.4552
 20
6.44681
 11
92.572
 21
6.49304
  0
LINE
  8
0
 10
92.572
 20
6.49304
 11
92.6936
 21
6.52428
  0
LINE
  8
0
 10
92.6936
 20
6.52428
 11
92.8182
 21
6.54001
  0
LINE
  8
0
 10
92.8182
 20
6.54001
 11
92.9438
 21
6.54001
  0
LINE
  8
0
 10
92.9438
 20
6.54001
 11
93.0684
 21
6.52428
  0
LINE
  8
0
 10
93.0684
 20
6.52428
 11
93.19
 21
6.49304
  0
LINE
  8
0
 10
93.19
 20
6.49304
 11
93.3068
 21
6.44681
  0
LINE
  8
0
 10
93.3068
 20
6.44681
 11
93.4168
 21
6.38631
  0
LINE
  8
0
 10
93.4168
 20
6.38631
 11
93.5184
 21
6.3125
  0
LINE
  8
0
 10
93.5184
 20
6.3125
 11
93.61
 21
6.22653
  0
LINE
  8
0
 10
93.61
 20
6.22653
 11
93.69
 21
6.12978
  0
LINE
  8
0
 10
93.69
 20
6.12978
 11
93.7573
 21
6.02374
  0
LINE
  8
0
 10
93.7573
 20
6.02374
 11
93.8108
 21
5.91011
  0
LINE
  8
0
 10
93.8108
 20
5.91011
 11
93.8496
 21
5.79068
  0
LINE
  8
0
 10
93.8496
 20
5.79068
 11
93.8731
 21
5.66731
  0
LINE
  8
0
 10
93.8731
 20
5.66731
 11
93.881
 21
5.54199
  0
LINE
  8
0
 10
93.881
 20
5.54199
 11
93.8731
 21
5.41667
  0
LINE
  8
0
 10
93.8731
 20
5.41667
 11
93.8496
 21
5.2933
  0
LINE
  8
0
 10
93.8496
 20
5.2933
 11
93.8108
 21
5.17387
  0
LINE
  8
0
 10
93.8108
 20
5.17387
 11
93.7573
 21
5.06024
  0
LINE
  8
0
 10
93.7573
 20
5.06024
 11
93.69
 21
4.95421
  0
LINE
  8
0
 10
93.69
 20
4.95421
 11
93.61
 21
4.85745
  0
LINE
  8
0
 10
93.61
 20
4.85745
 11
93.5184
 21
4.77148
  0
LINE
  8
0
 10
93.5184
 20
4.77148
 11
93.4168
 21
4.69768
  0
LINE
  8
0
 10
93.4168
 20
4.69768
 11
93.3068
 21
4.63718
  0
LINE
  8
0
 10
93.3068
 20
4.63718
 11
93.19
 21
4.59094
  0
LINE
  8
0
 10
93.19
 20
4.59094
 11
93.0684
 21
4.55971
  0
LINE
  8
0
 10
93.0684
 20
4.55971
 11
92.9438
 21
4.54398
  0
LINE
  8
0
 10
92.9438
 20
4.54398
 11
92.8182
 21
4.54398
  0
LINE
  8
0
 10
57.2262
 20
-46.787
 11
57.1016
 21
-46.7713
  0
LINE
  8
0
 10
57.1016
 20
-46.7713
 11
56.98
 21
-46.74
  0
LINE
  8
0
 10
56.98
 20
-46.74
 11
56.8632
 21
-46.6938
  0
LINE
  8
0
 10
56.8632
 20
-46.6938
 11
56.7532
 21
-46.6333
  0
LINE
  8
0
 10
56.7532
 20
-46.6333
 11
56.6516
 21
-46.5595
  0
LINE
  8
0
 10
56.6516
 20
-46.5595
 11
56.56
 21
-46.4735
  0
LINE
  8
0
 10
56.56
 20
-46.4735
 11
56.48
 21
-46.3768
  0
LINE
  8
0
 10
56.48
 20
-46.3768
 11
56.4127
 21
-46.2707
  0
LINE
  8
0
 10
56.4127
 20
-46.2707
 11
56.3592
 21
-46.1571
  0
LINE
  8
0
 10
56.3592
 20
-46.1571
 11
56.3204
 21
-46.0377
  0
LINE
  8
0
 10
56.3204
 20
-46.0377
 11
56.2969
 21
-45.9143
  0
LINE
  8
0
 10
56.2969
 20
-45.9143
 11
56.289
 21
-45.789
  0
LINE
  8
0
 10
56.289
 20
-45.789
 11
56.2969
 21
-45.6637
  0
LINE
  8
0
 10
56.2969
 20
-45.6637
 11
56.3204
 21
-45.5403
  0
LINE
  8
0
 10
56.3204
 20
-45.5403
 11
56.3592
 21
-45.4209
  0
LINE
  8
0
 10
56.3592
 20
-45.4209
 11
56.4127
 21
-45.3072
  0
LINE
  8
0
 10
56.4127
 20
-45.3072
 11
56.48
 21
-45.2012
  0
LINE
  8
0
 10
56.48
 20
-45.2012
 11
56.56
 21
-45.1044
  0
LINE
  8
0
 10
56.56
 20
-45.1044
 11
56.6516
 21
-45.0185
  0
LINE
  8
0
 10
56.6516
 20
-45.0185
 11
56.7532
 21
-44.9447
  0
LINE
  8
0
 10
56.7532
 20
-44.9447
 11
56.8632
 21
-44.8842
  0
LINE
  8
0
 10
56.8632
 20
-44.8842
 11
56.98
 21
-44.8379
  0
LINE
  8
0
 10
56.98
 20
-44.8379
 11
57.1016
 21
-44.8067
  0
LINE
  8
0
 10
57.1016
 20
-44.8067
 11
57.2262
 21
-44.791
  0
LINE
  8
0
 10
57.2262
 20
-44.791
 11
57.3518
 21
-44.791
  0
LINE
  8
0
 10
57.3518
 20
-44.791
 11
57.4764
 21
-44.8067
  0
LINE
  8
0
 10
57.4764
 20
-44.8067
 11
57.598
 21
-44.8379
  0
LINE
  8
0
 10
57.598
 20
-44.8379
 11
57.7148
 21
-44.8842
  0
LINE
  8
0
 10
57.7148
 20
-44.8842
 11
57.8248
 21
-44.9447
  0
LINE
  8
0
 10
57.8248
 20
-44.9447
 11
57.9264
 21
-45.0185
  0
LINE
  8
0
 10
57.9264
 20
-45.0185
 11
58.0179
 21
-45.1044
  0
LINE
  8
0
 10
58.0179
 20
-45.1044
 11
58.098
 21
-45.2012
  0
LINE
  8
0
 10
58.098
 20
-45.2012
 11
58.1653
 21
-45.3072
  0
LINE
  8
0
 10
58.1653
 20
-45.3072
 11
58.2188
 21
-45.4209
  0
LINE
  8
0
 10
58.2188
 20
-45.4209
 11
58.2576
 21
-45.5403
  0
LINE
  8
0
 10
58.2576
 20
-45.5403
 11
58.2811
 21
-45.6637
  0
LINE
  8
0
 10
58.2811
 20
-45.6637
 11
58.289
 21
-45.789
  0
LINE
  8
0
 10
58.289
 20
-45.789
 11
58.2811
 21
-45.9143
  0
LINE
  8
0
 10
58.2811
 20
-45.9143
 11
58.2576
 21
-46.0377
  0
LINE
  8
0
 10
58.2576
 20
-46.0377
 11
58.2188
 21
-46.1571
  0
LINE
  8
0
 10
58.2188
 20
-46.1571
 11
58.1653
 21
-46.2707
  0
LINE
  8
0
 10
58.1653
 20
-46.2707
 11
58.098
 21
-46.3768
  0
LINE
  8
0
 10
58.098
 20
-46.3768
 11
58.0179
 21
-46.4735
  0
LINE
  8
0
 10
58.0179
 20
-46.4735
 11
57.9264
 21
-46.5595
  0
LINE
  8
0
 10
57.9264
 20
-46.5595
 11
57.8248
 21
-46.6333
  0
LINE
  8
0
 10
57.8248
 20
-46.6333
 11
57.7148
 21
-46.6938
  0
LINE
  8
0
 10
57.7148
 20
-46.6938
 11
57.598
 21
-46.74
  0
LINE
  8
0
 10
57.598
 20
-46.74
 11
57.4764
 21
-46.7713
  0
LINE
  8
0
 10
57.4764
 20
-46.7713
 11
57.3518
 21
-46.787
  0
LINE
  8
0
 10
57.3518
 20
-46.787
 11
57.2262
 21
-46.787
  0
ENDSEC
  0
SECTION
  2
OBJECTS
  0
DICTIONARY
  0
ENDSEC
  0
EOF
