  0
SECTION
  2
BLOCKS
  0
ENDSEC
  0
SECTION
  2
ENTITIES
  0
LINE
  8
0
 10
57.8977
 20
-50.7518
 11
58.5149
 21
-50.6364
  0
LINE
  8
0
 10
58.5149
 20
-50.6364
 11
59.1128
 21
-50.4445
  0
LINE
  8
0
 10
59.1128
 20
-50.4445
 11
59.6819
 21
-50.1792
  0
LINE
  8
0
 10
59.6819
 20
-50.1792
 11
60.2133
 21
-49.8447
  0
LINE
  8
0
 10
60.2133
 20
-49.8447
 11
60.6985
 21
-49.4462
  0
LINE
  8
0
 10
60.6985
 20
-49.4462
 11
61.13
 21
-48.99
  0
LINE
  8
0
 10
61.13
 20
-48.99
 11
61.5009
 21
-48.4834
  0
LINE
  8
0
 10
61.5009
 20
-48.4834
 11
61.8054
 21
-47.9342
  0
LINE
  8
0
 10
61.8054
 20
-47.9342
 11
61.966
 21
-47.557
  0
LINE
  8
0
 10
61.966
 20
-47.557
 11
69.8252
 21
-26.7666
  0
LINE
  8
0
 10
69.8252
 20
-26.7666
 11
79.4238
 21
-12.6995
  0
LINE
  8
0
 10
79.4238
 20
-12.6995
 11
96.1508
 21
1.75931
  0
LINE
  8
0
 10
96.1508
 20
1.75931
 11
96.5991
 21
2.19894
  0
LINE
  8
0
 10
96.5991
 20
2.19894
 11
96.9887
 21
2.6913
  0
LINE
  8
0
 10
96.9887
 20
2.6913
 11
97.3136
 21
3.22862
  0
LINE
  8
0
 10
97.3136
 20
3.22862
 11
97.5686
 21
3.80241
  0
LINE
  8
0
 10
97.5686
 20
3.80241
 11
97.7497
 21
4.40366
  0
LINE
  8
0
 10
97.7497
 20
4.40366
 11
97.854
 21
5.02284
  0
LINE
  8
0
 10
97.854
 20
5.02284
 11
97.8798
 21
5.65021
  0
LINE
  8
0
 10
97.8798
 20
5.65021
 11
97.8268
 21
6.27588
  0
LINE
  8
0
 10
97.8268
 20
6.27588
 11
97.6959
 21
6.88997
  0
LINE
  8
0
 10
97.6959
 20
6.88997
 11
97.489
 21
7.4828
  0
LINE
  8
0
 10
97.489
 20
7.4828
 11
97.2094
 21
8.04503
  0
LINE
  8
0
 10
97.2094
 20
8.04503
 11
96.8615
 21
8.56778
  0
LINE
  8
0
 10
96.8615
 20
8.56778
 11
96.5392
 21
8.95045
  0
LINE
  8
0
 10
96.5392
 20
8.95045
 11
89.6382
 21
16.3571
  0
LINE
  8
0
 10
89.6382
 20
16.3571
 11
125.486
 21
25.9624
  0
LINE
  8
0
 10
125.486
 20
25.9624
 11
135.327
 21
20.2808
  0
LINE
  8
0
 10
135.327
 20
20.2808
 11
135.89
 21
20.0016
  0
LINE
  8
0
 10
135.89
 20
20.0016
 11
136.483
 21
19.7951
  0
LINE
  8
0
 10
136.483
 20
19.7951
 11
137.097
 21
19.6646
  0
LINE
  8
0
 10
137.097
 20
19.6646
 11
137.722
 21
19.6121
  0
LINE
  8
0
 10
137.722
 20
19.6121
 11
138.35
 21
19.6384
  0
LINE
  8
0
 10
138.35
 20
19.6384
 11
138.969
 21
19.7431
  0
LINE
  8
0
 10
138.969
 20
19.7431
 11
139.395
 21
19.8631
  0
LINE
  8
0
 10
139.395
 20
19.8631
 11
171.02
 21
30.3041
  0
LINE
  8
0
 10
171.02
 20
30.3041
 11
171.602
 21
30.538
  0
LINE
  8
0
 10
171.602
 20
30.538
 11
172.151
 21
30.843
  0
LINE
  8
0
 10
172.151
 20
30.843
 11
172.657
 21
31.2145
  0
LINE
  8
0
 10
172.657
 20
31.2145
 11
173.113
 21
31.6465
  0
LINE
  8
0
 10
173.113
 20
31.6465
 11
173.511
 21
32.1322
  0
LINE
  8
0
 10
173.511
 20
32.1322
 11
173.799
 21
32.5808
  0
LINE
  8
0
 10
173.799
 20
32.5808
 11
186.992
 21
55.7858
  0
LINE
  8
0
 10
186.992
 20
55.7858
 11
187.267
 21
56.35
  0
LINE
  8
0
 10
187.267
 20
56.35
 11
187.47
 21
56.9444
  0
LINE
  8
0
 10
187.47
 20
56.9444
 11
187.596
 21
57.5594
  0
LINE
  8
0
 10
187.596
 20
57.5594
 11
187.644
 21
58.1854
  0
LINE
  8
0
 10
187.644
 20
58.1854
 11
187.614
 21
58.8126
  0
LINE
  8
0
 10
187.614
 20
58.8126
 11
187.544
 21
59.2587
  0
LINE
  8
0
 10
187.544
 20
59.2587
 11
174.197
 21
124.529
  0
LINE
  8
0
 10
174.197
 20
124.529
 11
174.032
 21
125.135
  0
LINE
  8
0
 10
174.032
 20
125.135
 11
173.794
 21
125.715
  0
LINE
  8
0
 10
173.794
 20
125.715
 11
173.484
 21
126.262
  0
LINE
  8
0
 10
173.484
 20
126.262
 11
173.039
 21
126.844
  0
LINE
  8
0
 10
173.039
 20
126.844
 11
158.945
 21
142.737
  0
LINE
  8
0
 10
158.945
 20
142.737
 11
158.5
 21
143.18
  0
LINE
  8
0
 10
158.5
 20
143.18
 11
158.002
 21
143.564
  0
LINE
  8
0
 10
158.002
 20
143.564
 11
157.461
 21
143.882
  0
LINE
  8
0
 10
157.461
 20
143.882
 11
156.884
 21
144.129
  0
LINE
  8
0
 10
156.884
 20
144.129
 11
156.281
 21
144.303
  0
LINE
  8
0
 10
156.281
 20
144.303
 11
155.66
 21
144.399
  0
LINE
  8
0
 10
155.66
 20
144.399
 11
155.032
 21
144.417
  0
LINE
  8
0
 10
155.032
 20
144.417
 11
154.407
 21
144.356
  0
LINE
  8
0
 10
154.407
 20
144.356
 11
153.91
 21
144.25
  0
LINE
  8
0
 10
153.91
 20
144.25
 11
124.342
 21
136.327
  0
LINE
  8
0
 10
124.342
 20
136.327
 11
111.478
 21
145.707
  0
LINE
  8
0
 10
111.478
 20
145.707
 11
110.948
 21
146.044
  0
LINE
  8
0
 10
110.948
 20
146.044
 11
110.38
 21
146.313
  0
LINE
  8
0
 10
110.38
 20
146.313
 11
109.784
 21
146.508
  0
LINE
  8
0
 10
109.784
 20
146.508
 11
109.167
 21
146.627
  0
LINE
  8
0
 10
109.167
 20
146.627
 11
108.54
 21
146.667
  0
LINE
  8
0
 10
108.54
 20
146.667
 11
107.914
 21
146.629
  0
LINE
  8
0
 10
107.914
 20
146.629
 11
107.238
 21
146.497
  0
LINE
  8
0
 10
107.238
 20
146.497
 11
50.2479
 21
131.227
  0
LINE
  8
0
 10
50.2479
 20
131.227
 11
49.6528
 21
131.026
  0
LINE
  8
0
 10
49.6528
 20
131.026
 11
49.0875
 21
130.753
  0
LINE
  8
0
 10
49.0875
 20
130.753
 11
48.5609
 21
130.411
  0
LINE
  8
0
 10
48.5609
 20
130.411
 11
48.0813
 21
130.006
  0
LINE
  8
0
 10
48.0813
 20
130.006
 11
47.6563
 21
129.544
  0
LINE
  8
0
 10
47.6563
 20
129.544
 11
47.2118
 21
128.897
  0
LINE
  8
0
 10
47.2118
 20
128.897
 11
41.5303
 21
119.056
  0
LINE
  8
0
 10
41.5303
 20
119.056
 11
14.8227
 21
111.899
  0
LINE
  8
0
 10
14.8227
 20
111.899
 11
-15.7488
 21
112.148
  0
LINE
  8
0
 10
-15.7488
 20
112.148
 11
-42.4963
 21
119.315
  0
LINE
  8
0
 10
-42.4963
 20
119.315
 11
-48.1778
 21
129.156
  0
LINE
  8
0
 10
-48.1778
 20
129.156
 11
-48.5253
 21
129.679
  0
LINE
  8
0
 10
-48.5253
 20
129.679
 11
-48.9355
 21
130.154
  0
LINE
  8
0
 10
-48.9355
 20
130.154
 11
-49.4021
 21
130.574
  0
LINE
  8
0
 10
-49.4021
 20
130.574
 11
-49.9177
 21
130.933
  0
LINE
  8
0
 10
-49.9177
 20
130.933
 11
-50.4742
 21
131.224
  0
LINE
  8
0
 10
-50.4742
 20
131.224
 11
-51.2139
 21
131.486
  0
LINE
  8
0
 10
-51.2139
 20
131.486
 11
-108.204
 21
146.756
  0
LINE
  8
0
 10
-108.204
 20
146.756
 11
-108.819
 21
146.88
  0
LINE
  8
0
 10
-108.819
 20
146.88
 11
-109.446
 21
146.926
  0
LINE
  8
0
 10
-109.446
 20
146.926
 11
-110.073
 21
146.893
  0
LINE
  8
0
 10
-110.073
 20
146.893
 11
-110.691
 21
146.782
  0
LINE
  8
0
 10
-110.691
 20
146.782
 11
-111.29
 21
146.594
  0
LINE
  8
0
 10
-111.29
 20
146.594
 11
-111.861
 21
146.332
  0
LINE
  8
0
 10
-111.861
 20
146.332
 11
-112.444
 21
145.966
  0
LINE
  8
0
 10
-112.444
 20
145.966
 11
-125.308
 21
136.586
  0
LINE
  8
0
 10
-125.308
 20
136.586
 11
-155.359
 21
144.639
  0
LINE
  8
0
 10
-155.359
 20
144.639
 11
-155.974
 21
144.763
  0
LINE
  8
0
 10
-155.974
 20
144.763
 11
-156.601
 21
144.809
  0
LINE
  8
0
 10
-156.601
 20
144.809
 11
-157.228
 21
144.776
  0
LINE
  8
0
 10
-157.228
 20
144.776
 11
-157.846
 21
144.665
  0
LINE
  8
0
 10
-157.846
 20
144.665
 11
-158.445
 21
144.477
  0
LINE
  8
0
 10
-158.445
 20
144.477
 11
-159.016
 21
144.216
  0
LINE
  8
0
 10
-159.016
 20
144.216
 11
-159.549
 21
143.885
  0
LINE
  8
0
 10
-159.549
 20
143.885
 11
-160.037
 21
143.49
  0
LINE
  8
0
 10
-160.037
 20
143.49
 11
-160.394
 21
143.126
  0
LINE
  8
0
 10
-160.394
 20
143.126
 11
-174.488
 21
127.232
  0
LINE
  8
0
 10
-174.488
 20
127.232
 11
-174.874
 21
126.737
  0
LINE
  8
0
 10
-174.874
 20
126.737
 11
-175.195
 21
126.198
  0
LINE
  8
0
 10
-175.195
 20
126.198
 11
-175.447
 21
125.622
  0
LINE
  8
0
 10
-175.447
 20
125.622
 11
-175.646
 21
124.917
  0
LINE
  8
0
 10
-175.646
 20
124.917
 11
-188.993
 21
59.6467
  0
LINE
  8
0
 10
-188.993
 20
59.6467
 11
-189.08
 21
59.0248
  0
LINE
  8
0
 10
-189.08
 20
59.0248
 11
-189.088
 21
58.397
  0
LINE
  8
0
 10
-189.088
 20
58.397
 11
-189.017
 21
57.7731
  0
LINE
  8
0
 10
-189.017
 20
57.7731
 11
-188.869
 21
57.1629
  0
LINE
  8
0
 10
-188.869
 20
57.1629
 11
-188.646
 21
56.576
  0
LINE
  8
0
 10
-188.646
 20
56.576
 11
-188.408
 21
56.1167
  0
LINE
  8
0
 10
-188.408
 20
56.1167
 11
-174.732
 21
32.7827
  0
LINE
  8
0
 10
-174.732
 20
32.7827
 11
-174.381
 21
32.262
  0
LINE
  8
0
 10
-174.381
 20
32.262
 11
-173.967
 21
31.7894
  0
LINE
  8
0
 10
-173.967
 20
31.7894
 11
-173.498
 21
31.3723
  0
LINE
  8
0
 10
-173.498
 20
31.3723
 11
-172.98
 21
31.0173
  0
LINE
  8
0
 10
-172.98
 20
31.0173
 11
-172.422
 21
30.7301
  0
LINE
  8
0
 10
-172.422
 20
30.7301
 11
-171.986
 21
30.5631
  0
LINE
  8
0
 10
-171.986
 20
30.5631
 11
-140.361
 21
20.1221
  0
LINE
  8
0
 10
-140.361
 20
20.1221
 11
-139.753
 21
19.963
  0
LINE
  8
0
 10
-139.753
 20
19.963
 11
-139.131
 21
19.8814
  0
LINE
  8
0
 10
-139.131
 20
19.8814
 11
-138.503
 21
19.8784
  0
LINE
  8
0
 10
-138.503
 20
19.8784
 11
-137.879
 21
19.9542
  0
LINE
  8
0
 10
-137.879
 20
19.9542
 11
-137.27
 21
20.1075
  0
LINE
  8
0
 10
-137.27
 20
20.1075
 11
-136.686
 21
20.3359
  0
LINE
  8
0
 10
-136.686
 20
20.3359
 11
-136.293
 21
20.5397
  0
LINE
  8
0
 10
-136.293
 20
20.5397
 11
-126.451
 21
26.2214
  0
LINE
  8
0
 10
-126.451
 20
26.2214
 11
-90.5429
 21
16.5997
  0
LINE
  8
0
 10
-90.5429
 20
16.5997
 11
-97.5232
 21
9.00563
  0
LINE
  8
0
 10
-97.5232
 20
9.00563
 11
-97.9182
 21
8.51758
  0
LINE
  8
0
 10
-97.9182
 20
8.51758
 11
-98.249
 21
7.98386
  0
LINE
  8
0
 10
-98.249
 20
7.98386
 11
-98.5103
 21
7.41289
  0
LINE
  8
0
 10
-98.5103
 20
7.41289
 11
-98.6979
 21
6.81367
  0
LINE
  8
0
 10
-98.6979
 20
6.81367
 11
-98.809
 21
6.19566
  0
LINE
  8
0
 10
-98.809
 20
6.19566
 11
-98.8417
 21
5.56862
  0
LINE
  8
0
 10
-98.8417
 20
5.56862
 11
-98.7956
 21
4.94241
  0
LINE
  8
0
 10
-98.7956
 20
4.94241
 11
-98.6714
 21
4.32692
  0
LINE
  8
0
 10
-98.6714
 20
4.32692
 11
-98.471
 21
3.73186
  0
LINE
  8
0
 10
-98.471
 20
3.73186
 11
-98.1976
 21
3.1666
  0
LINE
  8
0
 10
-98.1976
 20
3.1666
 11
-97.8555
 21
2.64006
  0
LINE
  8
0
 10
-97.8555
 20
2.64006
 11
-97.4501
 21
2.16054
  0
LINE
  8
0
 10
-97.4501
 20
2.16054
 11
-97.077
 21
1.80952
  0
LINE
  8
0
 10
-97.077
 20
1.80952
 11
-80.2332
 21
-12.4828
  0
LINE
  8
0
 10
-80.2332
 20
-12.4828
 11
-70.535
 21
-26.4559
  0
LINE
  8
0
 10
-70.535
 20
-26.4559
 11
-62.5397
 21
-47.1732
  0
LINE
  8
0
 10
-62.5397
 20
-47.1732
 11
-62.2773
 21
-47.7437
  0
LINE
  8
0
 10
-62.2773
 20
-47.7437
 11
-61.9454
 21
-48.2767
  0
LINE
  8
0
 10
-61.9454
 20
-48.2767
 11
-61.5494
 21
-48.764
  0
LINE
  8
0
 10
-61.5494
 20
-48.764
 11
-61.0954
 21
-49.1978
  0
LINE
  8
0
 10
-61.0954
 20
-49.1978
 11
-60.5907
 21
-49.5712
  0
LINE
  8
0
 10
-60.5907
 20
-49.5712
 11
-60.0431
 21
-49.8785
  0
LINE
  8
0
 10
-60.0431
 20
-49.8785
 11
-59.4613
 21
-50.1147
  0
LINE
  8
0
 10
-59.4613
 20
-50.1147
 11
-58.8545
 21
-50.2761
  0
LINE
  8
0
 10
-58.8545
 20
-50.2761
 11
-58.2322
 21
-50.3602
  0
LINE
  8
0
 10
-58.2322
 20
-50.3602
 11
-57.8931
 21
-50.373
  0
LINE
  8
0
 10
-57.8931
 20
-50.373
 11
57.2709
 21
-50.789
  0
LINE
  8
0
 10
57.2709
 20
-50.789
 11
57.8977
 21
-50.7518
  0
LINE
  8
0
 10
-109.561
 20
140.928
 11
-109.685
 21
140.944
  0
LINE
  8
0
 10
-109.685
 20
140.944
 11
-109.807
 21
140.975
  0
LINE
  8
0
 10
-109.807
 20
140.975
 11
-109.924
 21
141.021
  0
LINE
  8
0
 10
-109.924
 20
141.021
 11
-110.034
 21
141.082
  0
LINE
  8
0
 10
-110.034
 20
141.082
 11
-110.135
 21
141.155
  0
LINE
  8
0
 10
-110.135
 20
141.155
 11
-110.227
 21
141.241
  0
LINE
  8
0
 10
-110.227
 20
141.241
 11
-110.307
 21
141.338
  0
LINE
  8
0
 10
-110.307
 20
141.338
 11
-110.374
 21
141.444
  0
LINE
  8
0
 10
-110.374
 20
141.444
 11
-110.428
 21
141.558
  0
LINE
  8
0
 10
-110.428
 20
141.558
 11
-110.467
 21
141.677
  0
LINE
  8
0
 10
-110.467
 20
141.677
 11
-110.49
 21
141.801
  0
LINE
  8
0
 10
-110.49
 20
141.801
 11
-110.498
 21
141.926
  0
LINE
  8
0
 10
-110.498
 20
141.926
 11
-110.49
 21
142.051
  0
LINE
  8
0
 10
-110.49
 20
142.051
 11
-110.467
 21
142.175
  0
LINE
  8
0
 10
-110.467
 20
142.175
 11
-110.428
 21
142.294
  0
LINE
  8
0
 10
-110.428
 20
142.294
 11
-110.374
 21
142.408
  0
LINE
  8
0
 10
-110.374
 20
142.408
 11
-110.307
 21
142.514
  0
LINE
  8
0
 10
-110.307
 20
142.514
 11
-110.227
 21
142.611
  0
LINE
  8
0
 10
-110.227
 20
142.611
 11
-110.135
 21
142.697
  0
LINE
  8
0
 10
-110.135
 20
142.697
 11
-110.034
 21
142.77
  0
LINE
  8
0
 10
-110.034
 20
142.77
 11
-109.924
 21
142.831
  0
LINE
  8
0
 10
-109.924
 20
142.831
 11
-109.807
 21
142.877
  0
LINE
  8
0
 10
-109.807
 20
142.877
 11
-109.685
 21
142.908
  0
LINE
  8
0
 10
-109.685
 20
142.908
 11
-109.561
 21
142.924
  0
LINE
  8
0
 10
-109.561
 20
142.924
 11
-109.435
 21
142.924
  0
LINE
  8
0
 10
-109.435
 20
142.924
 11
-109.311
 21
142.908
  0
LINE
  8
0
 10
-109.311
 20
142.908
 11
-109.189
 21
142.877
  0
LINE
  8
0
 10
-109.189
 20
142.877
 11
-109.072
 21
142.831
  0
LINE
  8
0
 10
-109.072
 20
142.831
 11
-108.962
 21
142.77
  0
LINE
  8
0
 10
-108.962
 20
142.77
 11
-108.861
 21
142.697
  0
LINE
  8
0
 10
-108.861
 20
142.697
 11
-108.769
 21
142.611
  0
LINE
  8
0
 10
-108.769
 20
142.611
 11
-108.689
 21
142.514
  0
LINE
  8
0
 10
-108.689
 20
142.514
 11
-108.622
 21
142.408
  0
LINE
  8
0
 10
-108.622
 20
142.408
 11
-108.568
 21
142.294
  0
LINE
  8
0
 10
-108.568
 20
142.294
 11
-108.529
 21
142.175
  0
LINE
  8
0
 10
-108.529
 20
142.175
 11
-108.506
 21
142.051
  0
LINE
  8
0
 10
-108.506
 20
142.051
 11
-108.498
 21
141.926
  0
LINE
  8
0
 10
-108.498
 20
141.926
 11
-108.506
 21
141.801
  0
LINE
  8
0
 10
-108.506
 20
141.801
 11
-108.529
 21
141.677
  0
LINE
  8
0
 10
-108.529
 20
141.677
 11
-108.568
 21
141.558
  0
LINE
  8
0
 10
-108.568
 20
141.558
 11
-108.622
 21
141.444
  0
LINE
  8
0
 10
-108.622
 20
141.444
 11
-108.689
 21
141.338
  0
LINE
  8
0
 10
-108.689
 20
141.338
 11
-108.769
 21
141.241
  0
LINE
  8
0
 10
-108.769
 20
141.241
 11
-108.861
 21
141.155
  0
LINE
  8
0
 10
-108.861
 20
141.155
 11
-108.962
 21
141.082
  0
LINE
  8
0
 10
-108.962
 20
141.082
 11
-109.072
 21
141.021
  0
LINE
  8
0
 10
-109.072
 20
141.021
 11
-109.189
 21
140.975
  0
LINE
  8
0
 10
-109.189
 20
140.975
 11
-109.311
 21
140.944
  0
LINE
  8
0
 10
-109.311
 20
140.944
 11
-109.435
 21
140.928
  0
LINE
  8
0
 10
-109.435
 20
140.928
 11
-109.561
 21
140.928
  0
LINE
  8
0
 10
108.469
 20
140.669
 11
108.345
 21
140.685
  0
LINE
  8
0
 10
108.345
 20
140.685
 11
108.223
 21
140.716
  0
LINE
  8
0
 10
108.223
 20
140.716
 11
108.106
 21
140.762
  0
LINE
  8
0
 10
108.106
 20
140.762
 11
107.996
 21
140.823
  0
LINE
  8
0
 10
107.996
 20
140.823
 11
107.895
 21
140.896
  0
LINE
  8
0
 10
107.895
 20
140.896
 11
107.803
 21
140.982
  0
LINE
  8
0
 10
107.803
 20
140.982
 11
107.723
 21
141.079
  0
LINE
  8
0
 10
107.723
 20
141.079
 11
107.656
 21
141.185
  0
LINE
  8
0
 10
107.656
 20
141.185
 11
107.602
 21
141.299
  0
LINE
  8
0
 10
107.602
 20
141.299
 11
107.563
 21
141.418
  0
LINE
  8
0
 10
107.563
 20
141.418
 11
107.54
 21
141.542
  0
LINE
  8
0
 10
107.54
 20
141.542
 11
107.532
 21
141.667
  0
LINE
  8
0
 10
107.532
 20
141.667
 11
107.54
 21
141.792
  0
LINE
  8
0
 10
107.54
 20
141.792
 11
107.563
 21
141.916
  0
LINE
  8
0
 10
107.563
 20
141.916
 11
107.602
 21
142.035
  0
LINE
  8
0
 10
107.602
 20
142.035
 11
107.656
 21
142.149
  0
LINE
  8
0
 10
107.656
 20
142.149
 11
107.723
 21
142.255
  0
LINE
  8
0
 10
107.723
 20
142.255
 11
107.803
 21
142.352
  0
LINE
  8
0
 10
107.803
 20
142.352
 11
107.895
 21
142.438
  0
LINE
  8
0
 10
107.895
 20
142.438
 11
107.996
 21
142.511
  0
LINE
  8
0
 10
107.996
 20
142.511
 11
108.106
 21
142.572
  0
LINE
  8
0
 10
108.106
 20
142.572
 11
108.223
 21
142.618
  0
LINE
  8
0
 10
108.223
 20
142.618
 11
108.345
 21
142.649
  0
LINE
  8
0
 10
108.345
 20
142.649
 11
108.469
 21
142.665
  0
LINE
  8
0
 10
108.469
 20
142.665
 11
108.595
 21
142.665
  0
LINE
  8
0
 10
108.595
 20
142.665
 11
108.719
 21
142.649
  0
LINE
  8
0
 10
108.719
 20
142.649
 11
108.841
 21
142.618
  0
LINE
  8
0
 10
108.841
 20
142.618
 11
108.958
 21
142.572
  0
LINE
  8
0
 10
108.958
 20
142.572
 11
109.068
 21
142.511
  0
LINE
  8
0
 10
109.068
 20
142.511
 11
109.169
 21
142.438
  0
LINE
  8
0
 10
109.169
 20
142.438
 11
109.261
 21
142.352
  0
LINE
  8
0
 10
109.261
 20
142.352
 11
109.341
 21
142.255
  0
LINE
  8
0
 10
109.341
 20
142.255
 11
109.408
 21
142.149
  0
LINE
  8
0
 10
109.408
 20
142.149
 11
109.462
 21
142.035
  0
LINE
  8
0
 10
109.462
 20
142.035
 11
109.501
 21
141.916
  0
LINE
  8
0
 10
109.501
 20
141.916
 11
109.524
 21
141.792
  0
LINE
  8
0
 10
109.524
 20
141.792
 11
109.532
 21
141.667
  0
LINE
  8
0
 10
109.532
 20
141.667
 11
109.524
 21
141.542
  0
LINE
  8
0
 10
109.524
 20
141.542
 11
109.501
 21
141.418
  0
LINE
  8
0
 10
109.501
 20
141.418
 11
109.462
 21
141.299
  0
LINE
  8
0
 10
109.462
 20
141.299
 11
109.408
 21
141.185
  0
LINE
  8
0
 10
109.408
 20
141.185
 11
109.341
 21
141.079
  0
LINE
  8
0
 10
109.341
 20
141.079
 11
109.261
 21
140.982
  0
LINE
  8
0
 10
109.261
 20
140.982
 11
109.169
 21
140.896
  0
LINE
  8
0
 10
109.169
 20
140.896
 11
109.068
 21
140.823
  0
LINE
  8
0
 10
109.068
 20
140.823
 11
108.958
 21
140.762
  0
LINE
  8
0
 10
108.958
 20
140.762
 11
108.841
 21
140.716
  0
LINE
  8
0
 10
108.841
 20
140.716
 11
108.719
 21
140.685
  0
LINE
  8
0
 10
108.719
 20
140.685
 11
108.595
 21
140.669
  0
LINE
  8
0
 10
108.595
 20
140.669
 11
108.469
 21
140.669
  0
LINE
  8
0
 10
-53.999
 20
-44.387
 11
-54.0007
 21
-44.3782
  0
LINE
  8
0
 10
-54.0007
 20
-44.3782
 11
-54.1559
 21
-43.9005
  0
LINE
  8
0
 10
-54.1559
 20
-43.9005
 11
-54.3698
 21
-43.446
  0
LINE
  8
0
 10
-54.3698
 20
-43.446
 11
-54.6389
 21
-43.0219
  0
LINE
  8
0
 10
-54.6389
 20
-43.0219
 11
-54.9591
 21
-42.6348
  0
LINE
  8
0
 10
-54.9591
 20
-42.6348
 11
-55.3253
 21
-42.2909
  0
LINE
  8
0
 10
-55.3253
 20
-42.2909
 11
-55.7317
 21
-41.9957
  0
LINE
  8
0
 10
-55.7317
 20
-41.9957
 11
-56.1719
 21
-41.7537
  0
LINE
  8
0
 10
-56.1719
 20
-41.7537
 11
-56.6389
 21
-41.5688
  0
LINE
  8
0
 10
-56.6389
 20
-41.5688
 11
-57.1255
 21
-41.4438
  0
LINE
  8
0
 10
-57.1255
 20
-41.4438
 11
-57.6238
 21
-41.3809
  0
LINE
  8
0
 10
-57.6238
 20
-41.3809
 11
-58.1262
 21
-41.3809
  0
LINE
  8
0
 10
-58.1262
 20
-41.3809
 11
-58.3336
 21
-41.4071
  0
LINE
  8
0
 10
-58.3336
 20
-41.4071
 11
-65.1531
 21
-23.7369
  0
LINE
  8
0
 10
-65.1531
 20
-23.7369
 11
-65.1995
 21
-23.6343
  0
LINE
  8
0
 10
-65.1995
 20
-23.6343
 11
-65.2645
 21
-23.5268
  0
LINE
  8
0
 10
-65.2645
 20
-23.5268
 11
-75.6775
 21
-8.5238
  0
LINE
  8
0
 10
-75.6775
 20
-8.5238
 11
-75.7615
 21
-8.41861
  0
LINE
  8
0
 10
-75.7615
 20
-8.41861
 11
-75.852
 21
-8.3315
  0
LINE
  8
0
 10
-75.852
 20
-8.3315
 11
-90.2479
 21
3.88382
  0
LINE
  8
0
 10
-90.2479
 20
3.88382
 11
-90.1229
 21
4.14951
  0
LINE
  8
0
 10
-90.1229
 20
4.14951
 11
-89.9677
 21
4.62724
  0
LINE
  8
0
 10
-89.9677
 20
4.62724
 11
-89.8736
 21
5.12067
  0
LINE
  8
0
 10
-89.8736
 20
5.12067
 11
-89.842
 21
5.62199
  0
LINE
  8
0
 10
-89.842
 20
5.62199
 11
-89.8736
 21
6.12332
  0
LINE
  8
0
 10
-89.8736
 20
6.12332
 11
-89.9677
 21
6.61674
  0
LINE
  8
0
 10
-89.9677
 20
6.61674
 11
-90.1229
 21
7.09448
  0
LINE
  8
0
 10
-90.1229
 20
7.09448
 11
-90.3368
 21
7.549
  0
LINE
  8
0
 10
-90.3368
 20
7.549
 11
-90.4902
 21
7.7908
  0
LINE
  8
0
 10
-90.4902
 20
7.7908
 11
-80.5397
 21
18.6163
  0
LINE
  8
0
 10
-80.5397
 20
18.6163
 11
-80.4373
 21
18.7484
  0
LINE
  8
0
 10
-80.4373
 20
18.7484
 11
-80.3757
 21
18.8578
  0
LINE
  8
0
 10
-80.3757
 20
18.8578
 11
-80.3282
 21
18.974
  0
LINE
  8
0
 10
-80.3282
 20
18.974
 11
-80.2957
 21
19.0953
  0
LINE
  8
0
 10
-80.2957
 20
19.0953
 11
-80.2787
 21
19.2198
  0
LINE
  8
0
 10
-80.2787
 20
19.2198
 11
-80.2774
 21
19.3453
  0
LINE
  8
0
 10
-80.2774
 20
19.3453
 11
-80.2918
 21
19.4701
  0
LINE
  8
0
 10
-80.2918
 20
19.4701
 11
-80.3217
 21
19.592
  0
LINE
  8
0
 10
-80.3217
 20
19.592
 11
-80.3667
 21
19.7093
  0
LINE
  8
0
 10
-80.3667
 20
19.7093
 11
-80.4261
 21
19.8199
  0
LINE
  8
0
 10
-80.4261
 20
19.8199
 11
-80.4988
 21
19.9223
  0
LINE
  8
0
 10
-80.4988
 20
19.9223
 11
-80.5838
 21
20.0148
  0
LINE
  8
0
 10
-80.5838
 20
20.0148
 11
-80.6798
 21
20.0958
  0
LINE
  8
0
 10
-80.6798
 20
20.0958
 11
-80.7851
 21
20.1642
  0
LINE
  8
0
 10
-80.7851
 20
20.1642
 11
-80.8981
 21
20.2189
  0
LINE
  8
0
 10
-80.8981
 20
20.2189
 11
-81.0172
 21
20.2589
  0
LINE
  8
0
 10
-81.0172
 20
20.2589
 11
-123.159
 21
31.5511
  0
LINE
  8
0
 10
-123.159
 20
31.5511
 11
-123.157
 21
31.587
  0
LINE
  8
0
 10
-123.157
 20
31.587
 11
-123.189
 21
32.0883
  0
LINE
  8
0
 10
-123.189
 20
32.0883
 11
-123.283
 21
32.5817
  0
LINE
  8
0
 10
-123.283
 20
32.5817
 11
-123.438
 21
33.0595
  0
LINE
  8
0
 10
-123.438
 20
33.0595
 11
-123.652
 21
33.514
  0
LINE
  8
0
 10
-123.652
 20
33.514
 11
-123.921
 21
33.9381
  0
LINE
  8
0
 10
-123.921
 20
33.9381
 11
-124.241
 21
34.3252
  0
LINE
  8
0
 10
-124.241
 20
34.3252
 11
-124.607
 21
34.669
  0
LINE
  8
0
 10
-124.607
 20
34.669
 11
-125.014
 21
34.9643
  0
LINE
  8
0
 10
-125.014
 20
34.9643
 11
-125.454
 21
35.2063
  0
LINE
  8
0
 10
-125.454
 20
35.2063
 11
-125.921
 21
35.3912
  0
LINE
  8
0
 10
-125.921
 20
35.3912
 11
-126.407
 21
35.5161
  0
LINE
  8
0
 10
-126.407
 20
35.5161
 11
-126.906
 21
35.5791
  0
LINE
  8
0
 10
-126.906
 20
35.5791
 11
-127.408
 21
35.5791
  0
LINE
  8
0
 10
-127.408
 20
35.5791
 11
-127.907
 21
35.5161
  0
LINE
  8
0
 10
-127.907
 20
35.5161
 11
-128.393
 21
35.3912
  0
LINE
  8
0
 10
-128.393
 20
35.3912
 11
-128.86
 21
35.2063
  0
LINE
  8
0
 10
-128.86
 20
35.2063
 11
-129.3
 21
34.9643
  0
LINE
  8
0
 10
-129.3
 20
34.9643
 11
-129.707
 21
34.669
  0
LINE
  8
0
 10
-129.707
 20
34.669
 11
-130.073
 21
34.3252
  0
LINE
  8
0
 10
-130.073
 20
34.3252
 11
-130.393
 21
33.9381
  0
LINE
  8
0
 10
-130.393
 20
33.9381
 11
-130.662
 21
33.514
  0
LINE
  8
0
 10
-130.662
 20
33.514
 11
-130.876
 21
33.0595
  0
LINE
  8
0
 10
-130.876
 20
33.0595
 11
-131.031
 21
32.5817
  0
LINE
  8
0
 10
-131.031
 20
32.5817
 11
-131.125
 21
32.0883
  0
LINE
  8
0
 10
-131.125
 20
32.0883
 11
-131.157
 21
31.587
  0
LINE
  8
0
 10
-131.157
 20
31.587
 11
-131.125
 21
31.0857
  0
LINE
  8
0
 10
-131.125
 20
31.0857
 11
-131.031
 21
30.5922
  0
LINE
  8
0
 10
-131.031
 20
30.5922
 11
-131.007
 21
30.5189
  0
LINE
  8
0
 10
-131.007
 20
30.5189
 11
-138.905
 21
25.96
  0
LINE
  8
0
 10
-138.905
 20
25.96
 11
-169.746
 21
36.1423
  0
LINE
  8
0
 10
-169.746
 20
36.1423
 11
-172.822
 21
41.3905
  0
LINE
  8
0
 10
-172.822
 20
41.3905
 11
-155.777
 21
36.8233
  0
LINE
  8
0
 10
-155.777
 20
36.8233
 11
-153.458
 21
45.4762
  0
LINE
  8
0
 10
-153.458
 20
45.4762
 11
-153.431
 21
45.4623
  0
LINE
  8
0
 10
-153.431
 20
45.4623
 11
-153.375
 21
45.4382
  0
LINE
  8
0
 10
-153.375
 20
45.4382
 11
-153.316
 21
45.4169
  0
LINE
  8
0
 10
-153.316
 20
45.4169
 11
-153.253
 21
45.3983
  0
LINE
  8
0
 10
-153.253
 20
45.3983
 11
-153.192
 21
45.3838
  0
LINE
  8
0
 10
-153.192
 20
45.3838
 11
-153.133
 21
45.3735
  0
LINE
  8
0
 10
-153.133
 20
45.3735
 11
-153.076
 21
45.3674
  0
LINE
  8
0
 10
-153.076
 20
45.3674
 11
-153.021
 21
45.3655
  0
LINE
  8
0
 10
-153.021
 20
45.3655
 11
-152.968
 21
45.3677
  0
LINE
  8
0
 10
-152.968
 20
45.3677
 11
-152.916
 21
45.3742
  0
LINE
  8
0
 10
-152.916
 20
45.3742
 11
-152.867
 21
45.3848
  0
LINE
  8
0
 10
-152.867
 20
45.3848
 11
-152.819
 21
45.3993
  0
LINE
  8
0
 10
-152.819
 20
45.3993
 11
-152.772
 21
45.417
  0
LINE
  8
0
 10
-152.772
 20
45.417
 11
-152.727
 21
45.4381
  0
LINE
  8
0
 10
-152.727
 20
45.4381
 11
-152.684
 21
45.4623
  0
LINE
  8
0
 10
-152.684
 20
45.4623
 11
-152.643
 21
45.4898
  0
LINE
  8
0
 10
-152.643
 20
45.4898
 11
-152.603
 21
45.5206
  0
LINE
  8
0
 10
-152.603
 20
45.5206
 11
-152.565
 21
45.5546
  0
LINE
  8
0
 10
-152.565
 20
45.5546
 11
-152.529
 21
45.5917
  0
LINE
  8
0
 10
-152.529
 20
45.5917
 11
-152.494
 21
45.6317
  0
LINE
  8
0
 10
-152.494
 20
45.6317
 11
-152.461
 21
45.6746
  0
LINE
  8
0
 10
-152.461
 20
45.6746
 11
-152.429
 21
45.7205
  0
LINE
  8
0
 10
-152.429
 20
45.7205
 11
-152.398
 21
45.7693
  0
LINE
  8
0
 10
-152.398
 20
45.7693
 11
-152.369
 21
45.821
  0
LINE
  8
0
 10
-152.369
 20
45.821
 11
-152.342
 21
45.8756
  0
LINE
  8
0
 10
-152.342
 20
45.8756
 11
-152.29
 21
45.9917
  0
LINE
  8
0
 10
-152.29
 20
45.9917
 11
-152.274
 21
46.0356
  0
LINE
  8
0
 10
-152.274
 20
46.0356
 11
-154.812
 21
36.564
  0
LINE
  8
0
 10
-154.812
 20
36.564
 11
-137.425
 21
31.9053
  0
LINE
  8
0
 10
-137.425
 20
31.9053
 11
-134.587
 21
42.4975
  0
LINE
  8
0
 10
-134.587
 20
42.4975
 11
-134.545
 21
42.496
  0
LINE
  8
0
 10
-134.545
 20
42.496
 11
-134.512
 21
42.4923
  0
LINE
  8
0
 10
-134.512
 20
42.4923
 11
-134.446
 21
42.4784
  0
LINE
  8
0
 10
-134.446
 20
42.4784
 11
-134.383
 21
42.4592
  0
LINE
  8
0
 10
-134.383
 20
42.4592
 11
-134.327
 21
42.4372
  0
LINE
  8
0
 10
-134.327
 20
42.4372
 11
-134.279
 21
42.4125
  0
LINE
  8
0
 10
-134.279
 20
42.4125
 11
-134.238
 21
42.3848
  0
LINE
  8
0
 10
-134.238
 20
42.3848
 11
-134.221
 21
42.3693
  0
LINE
  8
0
 10
-134.221
 20
42.3693
 11
-134.204
 21
42.3526
  0
LINE
  8
0
 10
-134.204
 20
42.3526
 11
-134.19
 21
42.3346
  0
LINE
  8
0
 10
-134.19
 20
42.3346
 11
-134.177
 21
42.3155
  0
LINE
  8
0
 10
-134.177
 20
42.3155
 11
-134.166
 21
42.2952
  0
LINE
  8
0
 10
-134.166
 20
42.2952
 11
-134.149
 21
42.2508
  0
LINE
  8
0
 10
-134.149
 20
42.2508
 11
-134.137
 21
42.201
  0
LINE
  8
0
 10
-134.137
 20
42.201
 11
-134.132
 21
42.1458
  0
LINE
  8
0
 10
-134.132
 20
42.1458
 11
-134.133
 21
42.0851
  0
LINE
  8
0
 10
-134.133
 20
42.0851
 11
-134.14
 21
42.0179
  0
LINE
  8
0
 10
-134.14
 20
42.0179
 11
-134.152
 21
41.9431
  0
LINE
  8
0
 10
-134.152
 20
41.9431
 11
-134.182
 21
41.8166
  0
LINE
  8
0
 10
-134.182
 20
41.8166
 11
-134.548
 21
40.4518
  0
LINE
  8
0
 10
-134.548
 20
40.4518
 11
-134.177
 21
40.3524
  0
LINE
  8
0
 10
-134.177
 20
40.3524
 11
-133.783
 21
41.8236
  0
LINE
  8
0
 10
-133.783
 20
41.8236
 11
-133.762
 21
41.9284
  0
LINE
  8
0
 10
-133.762
 20
41.9284
 11
-133.749
 21
42.0261
  0
LINE
  8
0
 10
-133.749
 20
42.0261
 11
-133.746
 21
42.0723
  0
LINE
  8
0
 10
-133.746
 20
42.0723
 11
-133.745
 21
42.1594
  0
LINE
  8
0
 10
-133.745
 20
42.1594
 11
-133.748
 21
42.2005
  0
LINE
  8
0
 10
-133.748
 20
42.2005
 11
-133.754
 21
42.24
  0
LINE
  8
0
 10
-133.754
 20
42.24
 11
-133.761
 21
42.2777
  0
LINE
  8
0
 10
-133.761
 20
42.2777
 11
-133.772
 21
42.3137
  0
LINE
  8
0
 10
-133.772
 20
42.3137
 11
-133.784
 21
42.3481
  0
LINE
  8
0
 10
-133.784
 20
42.3481
 11
-133.799
 21
42.3807
  0
LINE
  8
0
 10
-133.799
 20
42.3807
 11
-133.816
 21
42.412
  0
LINE
  8
0
 10
-133.816
 20
42.412
 11
-133.835
 21
42.4418
  0
LINE
  8
0
 10
-133.835
 20
42.4418
 11
-133.856
 21
42.4701
  0
LINE
  8
0
 10
-133.856
 20
42.4701
 11
-133.88
 21
42.4969
  0
LINE
  8
0
 10
-133.88
 20
42.4969
 11
-133.907
 21
42.5222
  0
LINE
  8
0
 10
-133.907
 20
42.5222
 11
-133.935
 21
42.546
  0
LINE
  8
0
 10
-133.935
 20
42.546
 11
-133.966
 21
42.5684
  0
LINE
  8
0
 10
-133.966
 20
42.5684
 11
-133.999
 21
42.5896
  0
LINE
  8
0
 10
-133.999
 20
42.5896
 11
-134.034
 21
42.6095
  0
LINE
  8
0
 10
-134.034
 20
42.6095
 11
-134.072
 21
42.6282
  0
LINE
  8
0
 10
-134.072
 20
42.6282
 11
-134.113
 21
42.6456
  0
LINE
  8
0
 10
-134.113
 20
42.6456
 11
-134.2
 21
42.6768
  0
LINE
  8
0
 10
-134.2
 20
42.6768
 11
-134.286
 21
42.7
  0
LINE
  8
0
 10
-134.286
 20
42.7
 11
-134.358
 21
42.7145
  0
LINE
  8
0
 10
-134.358
 20
42.7145
 11
-134.425
 21
42.7233
  0
LINE
  8
0
 10
-134.425
 20
42.7233
 11
-134.489
 21
42.7261
  0
LINE
  8
0
 10
-134.489
 20
42.7261
 11
-134.526
 21
42.7249
  0
LINE
  8
0
 10
-134.526
 20
42.7249
 11
-132.766
 21
49.2919
  0
LINE
  8
0
 10
-132.766
 20
49.2919
 11
-150.153
 21
53.9507
  0
LINE
  8
0
 10
-150.153
 20
53.9507
 11
-152.121
 21
46.6062
  0
LINE
  8
0
 10
-152.121
 20
46.6062
 11
-152.113
 21
46.6526
  0
LINE
  8
0
 10
-152.113
 20
46.6526
 11
-152.1
 21
46.7778
  0
LINE
  8
0
 10
-152.1
 20
46.7778
 11
-152.097
 21
46.838
  0
LINE
  8
0
 10
-152.097
 20
46.838
 11
-152.096
 21
46.8964
  0
LINE
  8
0
 10
-152.096
 20
46.8964
 11
-152.099
 21
46.9529
  0
LINE
  8
0
 10
-152.099
 20
46.9529
 11
-152.104
 21
47.0075
  0
LINE
  8
0
 10
-152.104
 20
47.0075
 11
-152.111
 21
47.0602
  0
LINE
  8
0
 10
-152.111
 20
47.0602
 11
-152.122
 21
47.111
  0
LINE
  8
0
 10
-152.122
 20
47.111
 11
-152.135
 21
47.1599
  0
LINE
  8
0
 10
-152.135
 20
47.1599
 11
-152.152
 21
47.207
  0
LINE
  8
0
 10
-152.152
 20
47.207
 11
-152.171
 21
47.252
  0
LINE
  8
0
 10
-152.171
 20
47.252
 11
-152.193
 21
47.295
  0
LINE
  8
0
 10
-152.193
 20
47.295
 11
-152.219
 21
47.336
  0
LINE
  8
0
 10
-152.219
 20
47.336
 11
-152.247
 21
47.375
  0
LINE
  8
0
 10
-152.247
 20
47.375
 11
-152.279
 21
47.412
  0
LINE
  8
0
 10
-152.279
 20
47.412
 11
-152.314
 21
47.447
  0
LINE
  8
0
 10
-152.314
 20
47.447
 11
-152.352
 21
47.4797
  0
LINE
  8
0
 10
-152.352
 20
47.4797
 11
-152.394
 21
47.5099
  0
LINE
  8
0
 10
-152.394
 20
47.5099
 11
-152.439
 21
47.5377
  0
LINE
  8
0
 10
-152.439
 20
47.5377
 11
-152.488
 21
47.5629
  0
LINE
  8
0
 10
-152.488
 20
47.5629
 11
-152.541
 21
47.5857
  0
LINE
  8
0
 10
-152.541
 20
47.5857
 11
-152.597
 21
47.606
  0
LINE
  8
0
 10
-152.597
 20
47.606
 11
-152.691
 21
47.6326
  0
LINE
  8
0
 10
-152.691
 20
47.6326
 11
-152.79
 21
47.6527
  0
LINE
  8
0
 10
-152.79
 20
47.6527
 11
-152.873
 21
47.6623
  0
LINE
  8
0
 10
-152.873
 20
47.6623
 11
-151.118
 21
54.21
  0
LINE
  8
0
 10
-151.118
 20
54.21
 11
-168.505
 21
58.8687
  0
LINE
  8
0
 10
-168.505
 20
58.8687
 11
-173.073
 21
41.8192
  0
LINE
  8
0
 10
-173.073
 20
41.8192
 11
-181.276
 21
55.8148
  0
LINE
  8
0
 10
-181.276
 20
55.8148
 11
-181.178
 21
55.9068
  0
LINE
  8
0
 10
-181.178
 20
55.9068
 11
-180.858
 21
56.2939
  0
LINE
  8
0
 10
-180.858
 20
56.2939
 11
-180.589
 21
56.718
  0
LINE
  8
0
 10
-180.589
 20
56.718
 11
-180.375
 21
57.1725
  0
LINE
  8
0
 10
-180.375
 20
57.1725
 11
-180.22
 21
57.6502
  0
LINE
  8
0
 10
-180.22
 20
57.6502
 11
-180.126
 21
58.1437
  0
LINE
  8
0
 10
-180.126
 20
58.1437
 11
-180.094
 21
58.645
  0
LINE
  8
0
 10
-180.094
 20
58.645
 11
-180.126
 21
59.1463
  0
LINE
  8
0
 10
-180.126
 20
59.1463
 11
-180.22
 21
59.6397
  0
LINE
  8
0
 10
-180.22
 20
59.6397
 11
-180.375
 21
60.1175
  0
LINE
  8
0
 10
-180.375
 20
60.1175
 11
-180.589
 21
60.572
  0
LINE
  8
0
 10
-180.589
 20
60.572
 11
-180.858
 21
60.9961
  0
LINE
  8
0
 10
-180.858
 20
60.9961
 11
-181.178
 21
61.3832
  0
LINE
  8
0
 10
-181.178
 20
61.3832
 11
-181.544
 21
61.727
  0
LINE
  8
0
 10
-181.544
 20
61.727
 11
-181.951
 21
62.0223
  0
LINE
  8
0
 10
-181.951
 20
62.0223
 11
-182.339
 21
62.2358
  0
LINE
  8
0
 10
-182.339
 20
62.2358
 11
-170.543
 21
119.923
  0
LINE
  8
0
 10
-170.543
 20
119.923
 11
-170.496
 21
119.923
  0
LINE
  8
0
 10
-170.496
 20
119.923
 11
-169.997
 21
119.986
  0
LINE
  8
0
 10
-169.997
 20
119.986
 11
-169.511
 21
120.111
  0
LINE
  8
0
 10
-169.511
 20
120.111
 11
-169.044
 21
120.296
  0
LINE
  8
0
 10
-169.044
 20
120.296
 11
-168.604
 21
120.538
  0
LINE
  8
0
 10
-168.604
 20
120.538
 11
-168.197
 21
120.833
  0
LINE
  8
0
 10
-168.197
 20
120.833
 11
-167.831
 21
121.177
  0
LINE
  8
0
 10
-167.831
 20
121.177
 11
-167.511
 21
121.564
  0
LINE
  8
0
 10
-167.511
 20
121.564
 11
-167.242
 21
121.988
  0
LINE
  8
0
 10
-167.242
 20
121.988
 11
-167.028
 21
122.443
  0
LINE
  8
0
 10
-167.028
 20
122.443
 11
-166.873
 21
122.92
  0
LINE
  8
0
 10
-166.873
 20
122.92
 11
-166.779
 21
123.414
  0
LINE
  8
0
 10
-166.779
 20
123.414
 11
-166.747
 21
123.915
  0
LINE
  8
0
 10
-166.747
 20
123.915
 11
-166.779
 21
124.416
  0
LINE
  8
0
 10
-166.779
 20
124.416
 11
-166.873
 21
124.91
  0
LINE
  8
0
 10
-166.873
 20
124.91
 11
-167.028
 21
125.387
  0
LINE
  8
0
 10
-167.028
 20
125.387
 11
-167.242
 21
125.842
  0
LINE
  8
0
 10
-167.242
 20
125.842
 11
-167.434
 21
126.144
  0
LINE
  8
0
 10
-167.434
 20
126.144
 11
-163.166
 21
130.957
  0
LINE
  8
0
 10
-163.166
 20
130.957
 11
-166.534
 21
118.386
  0
LINE
  8
0
 10
-166.534
 20
118.386
 11
-140.454
 21
111.398
  0
LINE
  8
0
 10
-140.454
 20
111.398
 11
-135.796
 21
128.784
  0
LINE
  8
0
 10
-135.796
 20
128.784
 11
-159.468
 21
135.127
  0
LINE
  8
0
 10
-159.468
 20
135.127
 11
-156.315
 21
138.683
  0
LINE
  8
0
 10
-156.315
 20
138.683
 11
-124.553
 21
130.172
  0
LINE
  8
0
 10
-124.553
 20
130.172
 11
-124.418
 21
130.146
  0
LINE
  8
0
 10
-124.418
 20
130.146
 11
-124.292
 21
130.138
  0
LINE
  8
0
 10
-124.292
 20
130.138
 11
-124.167
 21
130.146
  0
LINE
  8
0
 10
-124.167
 20
130.146
 11
-124.044
 21
130.17
  0
LINE
  8
0
 10
-124.044
 20
130.17
 11
-123.924
 21
130.209
  0
LINE
  8
0
 10
-123.924
 20
130.209
 11
-123.811
 21
130.262
  0
LINE
  8
0
 10
-123.811
 20
130.262
 11
-123.705
 21
130.33
  0
LINE
  8
0
 10
-123.705
 20
130.33
 11
-112.038
 21
138.837
  0
LINE
  8
0
 10
-112.038
 20
138.837
 11
-111.641
 21
138.549
  0
LINE
  8
0
 10
-111.641
 20
138.549
 11
-111.201
 21
138.307
  0
LINE
  8
0
 10
-111.201
 20
138.307
 11
-110.734
 21
138.122
  0
LINE
  8
0
 10
-110.734
 20
138.122
 11
-110.247
 21
137.997
  0
LINE
  8
0
 10
-110.247
 20
137.997
 11
-109.749
 21
137.934
  0
LINE
  8
0
 10
-109.749
 20
137.934
 11
-109.247
 21
137.934
  0
LINE
  8
0
 10
-109.247
 20
137.934
 11
-108.748
 21
137.997
  0
LINE
  8
0
 10
-108.748
 20
137.997
 11
-108.262
 21
138.122
  0
LINE
  8
0
 10
-108.262
 20
138.122
 11
-107.795
 21
138.307
  0
LINE
  8
0
 10
-107.795
 20
138.307
 11
-107.355
 21
138.549
  0
LINE
  8
0
 10
-107.355
 20
138.549
 11
-106.948
 21
138.844
  0
LINE
  8
0
 10
-106.948
 20
138.844
 11
-106.582
 21
139.188
  0
LINE
  8
0
 10
-106.582
 20
139.188
 11
-106.262
 21
139.575
  0
LINE
  8
0
 10
-106.262
 20
139.575
 11
-106.019
 21
139.958
  0
LINE
  8
0
 10
-106.019
 20
139.958
 11
-56.5057
 21
126.692
  0
LINE
  8
0
 10
-56.5057
 20
126.692
 11
-56.508
 21
126.656
  0
LINE
  8
0
 10
-56.508
 20
126.656
 11
-56.4764
 21
126.155
  0
LINE
  8
0
 10
-56.4764
 20
126.155
 11
-56.3823
 21
125.661
  0
LINE
  8
0
 10
-56.3823
 20
125.661
 11
-56.2271
 21
125.184
  0
LINE
  8
0
 10
-56.2271
 20
125.184
 11
-56.0132
 21
124.729
  0
LINE
  8
0
 10
-56.0132
 20
124.729
 11
-55.744
 21
124.305
  0
LINE
  8
0
 10
-55.744
 20
124.305
 11
-55.4239
 21
123.918
  0
LINE
  8
0
 10
-55.4239
 20
123.918
 11
-55.0577
 21
123.574
  0
LINE
  8
0
 10
-55.0577
 20
123.574
 11
-54.6513
 21
123.279
  0
LINE
  8
0
 10
-54.6513
 20
123.279
 11
-54.2111
 21
123.037
  0
LINE
  8
0
 10
-54.2111
 20
123.037
 11
-53.744
 21
122.852
  0
LINE
  8
0
 10
-53.744
 20
122.852
 11
-53.2575
 21
122.727
  0
LINE
  8
0
 10
-53.2575
 20
122.727
 11
-52.7592
 21
122.664
  0
LINE
  8
0
 10
-52.7592
 20
122.664
 11
-52.2568
 21
122.664
  0
LINE
  8
0
 10
-52.2568
 20
122.664
 11
-51.7585
 21
122.727
  0
LINE
  8
0
 10
-51.7585
 20
122.727
 11
-51.4413
 21
122.808
  0
LINE
  8
0
 10
-51.4413
 20
122.808
 11
-46.657
 21
114.521
  0
LINE
  8
0
 10
-46.657
 20
114.521
 11
-46.5681
 21
114.392
  0
LINE
  8
0
 10
-46.5681
 20
114.392
 11
-46.4831
 21
114.299
  0
LINE
  8
0
 10
-46.4831
 20
114.299
 11
-46.3872
 21
114.218
  0
LINE
  8
0
 10
-46.3872
 20
114.218
 11
-46.2819
 21
114.15
  0
LINE
  8
0
 10
-46.2819
 20
114.15
 11
-46.1688
 21
114.095
  0
LINE
  8
0
 10
-46.1688
 20
114.095
 11
-46.0498
 21
114.055
  0
LINE
  8
0
 10
-46.0498
 20
114.055
 11
-20.4247
 21
107.189
  0
LINE
  8
0
 10
-20.4247
 20
107.189
 11
-20.427
 21
107.153
  0
LINE
  8
0
 10
-20.427
 20
107.153
 11
-20.3954
 21
106.652
  0
LINE
  8
0
 10
-20.3954
 20
106.652
 11
-20.3013
 21
106.158
  0
LINE
  8
0
 10
-20.3013
 20
106.158
 11
-20.1461
 21
105.681
  0
LINE
  8
0
 10
-20.1461
 20
105.681
 11
-19.9322
 21
105.226
  0
LINE
  8
0
 10
-19.9322
 20
105.226
 11
-19.663
 21
104.802
  0
LINE
  8
0
 10
-19.663
 20
104.802
 11
-19.3428
 21
104.415
  0
LINE
  8
0
 10
-19.3428
 20
104.415
 11
-18.9767
 21
104.071
  0
LINE
  8
0
 10
-18.9767
 20
104.071
 11
-18.5703
 21
103.776
  0
LINE
  8
0
 10
-18.5703
 20
103.776
 11
-18.1301
 21
103.534
  0
LINE
  8
0
 10
-18.1301
 20
103.534
 11
-17.663
 21
103.349
  0
LINE
  8
0
 10
-17.663
 20
103.349
 11
-17.1765
 21
103.224
  0
LINE
  8
0
 10
-17.1765
 20
103.224
 11
-16.6781
 21
103.161
  0
LINE
  8
0
 10
-16.6781
 20
103.161
 11
-16.1758
 21
103.161
  0
LINE
  8
0
 10
-16.1758
 20
103.161
 11
-15.6775
 21
103.224
  0
LINE
  8
0
 10
-15.6775
 20
103.224
 11
-15.1909
 21
103.349
  0
LINE
  8
0
 10
-15.1909
 20
103.349
 11
-14.7239
 21
103.534
  0
LINE
  8
0
 10
-14.7239
 20
103.534
 11
-14.2837
 21
103.776
  0
LINE
  8
0
 10
-14.2837
 20
103.776
 11
-13.8773
 21
104.071
  0
LINE
  8
0
 10
-13.8773
 20
104.071
 11
-13.5111
 21
104.415
  0
LINE
  8
0
 10
-13.5111
 20
104.415
 11
-13.1909
 21
104.802
  0
LINE
  8
0
 10
-13.1909
 20
104.802
 11
-12.9218
 21
105.226
  0
LINE
  8
0
 10
-12.9218
 20
105.226
 11
-12.7079
 21
105.681
  0
LINE
  8
0
 10
-12.7079
 20
105.681
 11
-12.5646
 21
106.122
  0
LINE
  8
0
 10
-12.5646
 20
106.122
 11
11.5817
 21
105.925
  0
LINE
  8
0
 10
11.5817
 20
105.925
 11
11.5867
 21
105.899
  0
LINE
  8
0
 10
11.5867
 20
105.899
 11
11.7419
 21
105.422
  0
LINE
  8
0
 10
11.7419
 20
105.422
 11
11.9558
 21
104.967
  0
LINE
  8
0
 10
11.9558
 20
104.967
 11
12.2249
 21
104.543
  0
LINE
  8
0
 10
12.2249
 20
104.543
 11
12.5451
 21
104.156
  0
LINE
  8
0
 10
12.5451
 20
104.156
 11
12.9113
 21
103.812
  0
LINE
  8
0
 10
12.9113
 20
103.812
 11
13.3177
 21
103.517
  0
LINE
  8
0
 10
13.3177
 20
103.517
 11
13.7579
 21
103.275
  0
LINE
  8
0
 10
13.7579
 20
103.275
 11
14.2249
 21
103.09
  0
LINE
  8
0
 10
14.2249
 20
103.09
 11
14.7115
 21
102.965
  0
LINE
  8
0
 10
14.7115
 20
102.965
 11
15.2098
 21
102.902
  0
LINE
  8
0
 10
15.2098
 20
102.902
 11
15.7122
 21
102.902
  0
LINE
  8
0
 10
15.7122
 20
102.902
 11
16.2105
 21
102.965
  0
LINE
  8
0
 10
16.2105
 20
102.965
 11
16.6971
 21
103.09
  0
LINE
  8
0
 10
16.6971
 20
103.09
 11
17.1641
 21
103.275
  0
LINE
  8
0
 10
17.1641
 20
103.275
 11
17.6043
 21
103.517
  0
LINE
  8
0
 10
17.6043
 20
103.517
 11
18.0107
 21
103.812
  0
LINE
  8
0
 10
18.0107
 20
103.812
 11
18.3769
 21
104.156
  0
LINE
  8
0
 10
18.3769
 20
104.156
 11
18.6971
 21
104.543
  0
LINE
  8
0
 10
18.6971
 20
104.543
 11
18.9662
 21
104.967
  0
LINE
  8
0
 10
18.9662
 20
104.967
 11
19.1801
 21
105.422
  0
LINE
  8
0
 10
19.1801
 20
105.422
 11
19.3353
 21
105.899
  0
LINE
  8
0
 10
19.3353
 20
105.899
 11
19.4294
 21
106.393
  0
LINE
  8
0
 10
19.4294
 20
106.393
 11
19.461
 21
106.894
  0
LINE
  8
0
 10
19.461
 20
106.894
 11
19.4587
 21
106.93
  0
LINE
  8
0
 10
19.4587
 20
106.93
 11
45.0838
 21
113.796
  0
LINE
  8
0
 10
45.0838
 20
113.796
 11
45.2318
 21
113.848
  0
LINE
  8
0
 10
45.2318
 20
113.848
 11
45.343
 21
113.907
  0
LINE
  8
0
 10
45.343
 20
113.907
 11
45.4462
 21
113.978
  0
LINE
  8
0
 10
45.4462
 20
113.978
 11
45.5395
 21
114.062
  0
LINE
  8
0
 10
45.5395
 20
114.062
 11
45.6216
 21
114.157
  0
LINE
  8
0
 10
45.6216
 20
114.157
 11
45.691
 21
114.262
  0
LINE
  8
0
 10
45.691
 20
114.262
 11
50.4754
 21
122.549
  0
LINE
  8
0
 10
50.4754
 20
122.549
 11
50.7925
 21
122.468
  0
LINE
  8
0
 10
50.7925
 20
122.468
 11
51.2908
 21
122.405
  0
LINE
  8
0
 10
51.2908
 20
122.405
 11
51.7932
 21
122.405
  0
LINE
  8
0
 10
51.7932
 20
122.405
 11
52.2915
 21
122.468
  0
LINE
  8
0
 10
52.2915
 20
122.468
 11
52.778
 21
122.593
  0
LINE
  8
0
 10
52.778
 20
122.593
 11
53.2451
 21
122.778
  0
LINE
  8
0
 10
53.2451
 20
122.778
 11
53.6853
 21
123.02
  0
LINE
  8
0
 10
53.6853
 20
123.02
 11
54.0917
 21
123.315
  0
LINE
  8
0
 10
54.0917
 20
123.315
 11
54.4579
 21
123.659
  0
LINE
  8
0
 10
54.4579
 20
123.659
 11
54.778
 21
124.046
  0
LINE
  8
0
 10
54.778
 20
124.046
 11
55.0472
 21
124.47
  0
LINE
  8
0
 10
55.0472
 20
124.47
 11
55.2611
 21
124.924
  0
LINE
  8
0
 10
55.2611
 20
124.924
 11
55.4163
 21
125.402
  0
LINE
  8
0
 10
55.4163
 20
125.402
 11
55.5104
 21
125.896
  0
LINE
  8
0
 10
55.5104
 20
125.896
 11
55.542
 21
126.397
  0
LINE
  8
0
 10
55.542
 20
126.397
 11
55.5397
 21
126.433
  0
LINE
  8
0
 10
55.5397
 20
126.433
 11
105.053
 21
139.699
  0
LINE
  8
0
 10
105.053
 20
139.699
 11
105.296
 21
139.316
  0
LINE
  8
0
 10
105.296
 20
139.316
 11
105.616
 21
138.929
  0
LINE
  8
0
 10
105.616
 20
138.929
 11
105.982
 21
138.585
  0
LINE
  8
0
 10
105.982
 20
138.585
 11
106.389
 21
138.29
  0
LINE
  8
0
 10
106.389
 20
138.29
 11
106.829
 21
138.048
  0
LINE
  8
0
 10
106.829
 20
138.048
 11
107.296
 21
137.863
  0
LINE
  8
0
 10
107.296
 20
137.863
 11
107.782
 21
137.738
  0
LINE
  8
0
 10
107.782
 20
137.738
 11
108.281
 21
137.675
  0
LINE
  8
0
 10
108.281
 20
137.675
 11
108.783
 21
137.675
  0
LINE
  8
0
 10
108.783
 20
137.675
 11
109.282
 21
137.738
  0
LINE
  8
0
 10
109.282
 20
137.738
 11
109.768
 21
137.863
  0
LINE
  8
0
 10
109.768
 20
137.863
 11
110.235
 21
138.048
  0
LINE
  8
0
 10
110.235
 20
138.048
 11
110.675
 21
138.29
  0
LINE
  8
0
 10
110.675
 20
138.29
 11
111.072
 21
138.578
  0
LINE
  8
0
 10
111.072
 20
138.578
 11
122.739
 21
130.071
  0
LINE
  8
0
 10
122.739
 20
130.071
 11
122.855
 21
129.998
  0
LINE
  8
0
 10
122.855
 20
129.998
 11
122.97
 21
129.945
  0
LINE
  8
0
 10
122.97
 20
129.945
 11
123.089
 21
129.908
  0
LINE
  8
0
 10
123.089
 20
129.908
 11
123.213
 21
129.886
  0
LINE
  8
0
 10
123.213
 20
129.886
 11
123.338
 21
129.879
  0
LINE
  8
0
 10
123.338
 20
129.879
 11
123.464
 21
129.888
  0
LINE
  8
0
 10
123.464
 20
129.888
 11
123.587
 21
129.913
  0
LINE
  8
0
 10
123.587
 20
129.913
 11
154.866
 21
138.294
  0
LINE
  8
0
 10
154.866
 20
138.294
 11
158.018
 21
134.739
  0
LINE
  8
0
 10
158.018
 20
134.739
 11
134.347
 21
128.396
  0
LINE
  8
0
 10
134.347
 20
128.396
 11
139.005
 21
111.01
  0
LINE
  8
0
 10
139.005
 20
111.01
 11
165.085
 21
117.998
  0
LINE
  8
0
 10
165.085
 20
117.998
 11
161.717
 21
130.568
  0
LINE
  8
0
 10
161.717
 20
130.568
 11
165.985
 21
125.756
  0
LINE
  8
0
 10
165.985
 20
125.756
 11
165.793
 21
125.454
  0
LINE
  8
0
 10
165.793
 20
125.454
 11
165.579
 21
124.999
  0
LINE
  8
0
 10
165.579
 20
124.999
 11
165.424
 21
124.522
  0
LINE
  8
0
 10
165.424
 20
124.522
 11
165.33
 21
124.028
  0
LINE
  8
0
 10
165.33
 20
124.028
 11
165.298
 21
123.527
  0
LINE
  8
0
 10
165.298
 20
123.527
 11
165.33
 21
123.026
  0
LINE
  8
0
 10
165.33
 20
123.026
 11
165.424
 21
122.532
  0
LINE
  8
0
 10
165.424
 20
122.532
 11
165.579
 21
122.055
  0
LINE
  8
0
 10
165.579
 20
122.055
 11
165.793
 21
121.6
  0
LINE
  8
0
 10
165.793
 20
121.6
 11
166.062
 21
121.176
  0
LINE
  8
0
 10
166.062
 20
121.176
 11
166.382
 21
120.789
  0
LINE
  8
0
 10
166.382
 20
120.789
 11
166.748
 21
120.445
  0
LINE
  8
0
 10
166.748
 20
120.445
 11
167.155
 21
120.15
  0
LINE
  8
0
 10
167.155
 20
120.15
 11
167.595
 21
119.908
  0
LINE
  8
0
 10
167.595
 20
119.908
 11
168.062
 21
119.723
  0
LINE
  8
0
 10
168.062
 20
119.723
 11
168.548
 21
119.598
  0
LINE
  8
0
 10
168.548
 20
119.598
 11
169.047
 21
119.535
  0
LINE
  8
0
 10
169.047
 20
119.535
 11
169.094
 21
119.535
  0
LINE
  8
0
 10
169.094
 20
119.535
 11
180.89
 21
61.8478
  0
LINE
  8
0
 10
180.89
 20
61.8478
 11
180.502
 21
61.6343
  0
LINE
  8
0
 10
180.502
 20
61.6343
 11
180.095
 21
61.339
  0
LINE
  8
0
 10
180.095
 20
61.339
 11
179.729
 21
60.9952
  0
LINE
  8
0
 10
179.729
 20
60.9952
 11
179.409
 21
60.6081
  0
LINE
  8
0
 10
179.409
 20
60.6081
 11
179.14
 21
60.184
  0
LINE
  8
0
 10
179.14
 20
60.184
 11
178.926
 21
59.7295
  0
LINE
  8
0
 10
178.926
 20
59.7295
 11
178.771
 21
59.2517
  0
LINE
  8
0
 10
178.771
 20
59.2517
 11
178.677
 21
58.7583
  0
LINE
  8
0
 10
178.677
 20
58.7583
 11
178.645
 21
58.257
  0
LINE
  8
0
 10
178.645
 20
58.257
 11
178.677
 21
57.7557
  0
LINE
  8
0
 10
178.677
 20
57.7557
 11
178.771
 21
57.2622
  0
LINE
  8
0
 10
178.771
 20
57.2622
 11
178.926
 21
56.7845
  0
LINE
  8
0
 10
178.926
 20
56.7845
 11
179.14
 21
56.33
  0
LINE
  8
0
 10
179.14
 20
56.33
 11
179.409
 21
55.9059
  0
LINE
  8
0
 10
179.409
 20
55.9059
 11
179.729
 21
55.5188
  0
LINE
  8
0
 10
179.729
 20
55.5188
 11
179.865
 21
55.391
  0
LINE
  8
0
 10
179.865
 20
55.391
 11
172.074
 21
41.6875
  0
LINE
  8
0
 10
172.074
 20
41.6875
 11
167.54
 21
58.6097
  0
LINE
  8
0
 10
167.54
 20
58.6097
 11
150.153
 21
53.951
  0
LINE
  8
0
 10
150.153
 20
53.951
 11
151.91
 21
47.3959
  0
LINE
  8
0
 10
151.91
 20
47.3959
 11
151.861
 21
47.3927
  0
LINE
  8
0
 10
151.861
 20
47.3927
 11
151.793
 21
47.3838
  0
LINE
  8
0
 10
151.793
 20
47.3838
 11
151.721
 21
47.3704
  0
LINE
  8
0
 10
151.721
 20
47.3704
 11
151.648
 21
47.3526
  0
LINE
  8
0
 10
151.648
 20
47.3526
 11
151.593
 21
47.3367
  0
LINE
  8
0
 10
151.593
 20
47.3367
 11
151.54
 21
47.3187
  0
LINE
  8
0
 10
151.54
 20
47.3187
 11
151.489
 21
47.2985
  0
LINE
  8
0
 10
151.489
 20
47.2985
 11
151.44
 21
47.2762
  0
LINE
  8
0
 10
151.44
 20
47.2762
 11
151.392
 21
47.2517
  0
LINE
  8
0
 10
151.392
 20
47.2517
 11
151.345
 21
47.2251
  0
LINE
  8
0
 10
151.345
 20
47.2251
 11
151.3
 21
47.1963
  0
LINE
  8
0
 10
151.3
 20
47.1963
 11
151.258
 21
47.1655
  0
LINE
  8
0
 10
151.258
 20
47.1655
 11
151.218
 21
47.1322
  0
LINE
  8
0
 10
151.218
 20
47.1322
 11
151.18
 21
47.0964
  0
LINE
  8
0
 10
151.18
 20
47.0964
 11
151.145
 21
47.058
  0
LINE
  8
0
 10
151.145
 20
47.058
 11
151.112
 21
47.017
  0
LINE
  8
0
 10
151.112
 20
47.017
 11
151.082
 21
46.9736
  0
LINE
  8
0
 10
151.082
 20
46.9736
 11
151.054
 21
46.9275
  0
LINE
  8
0
 10
151.054
 20
46.9275
 11
151.03
 21
46.8792
  0
LINE
  8
0
 10
151.03
 20
46.8792
 11
151.019
 21
46.8546
  0
LINE
  8
0
 10
151.019
 20
46.8546
 11
149.187
 21
53.6917
  0
LINE
  8
0
 10
149.187
 20
53.6917
 11
131.8
 21
49.033
  0
LINE
  8
0
 10
131.8
 20
49.033
 11
136.459
 21
31.6463
  0
LINE
  8
0
 10
136.459
 20
31.6463
 11
153.846
 21
36.305
  0
LINE
  8
0
 10
153.846
 20
36.305
 11
151.45
 21
45.2446
  0
LINE
  8
0
 10
151.45
 20
45.2446
 11
151.476
 21
45.2245
  0
LINE
  8
0
 10
151.476
 20
45.2245
 11
151.569
 21
45.1691
  0
LINE
  8
0
 10
151.569
 20
45.1691
 11
151.669
 21
45.1277
  0
LINE
  8
0
 10
151.669
 20
45.1277
 11
151.774
 21
45.1002
  0
LINE
  8
0
 10
151.774
 20
45.1002
 11
151.885
 21
45.0867
  0
LINE
  8
0
 10
151.885
 20
45.0867
 11
152.003
 21
45.0872
  0
LINE
  8
0
 10
152.003
 20
45.0872
 11
152.126
 21
45.1016
  0
LINE
  8
0
 10
152.126
 20
45.1016
 11
152.255
 21
45.1299
  0
LINE
  8
0
 10
152.255
 20
45.1299
 11
152.312
 21
45.1465
  0
LINE
  8
0
 10
152.312
 20
45.1465
 11
152.367
 21
45.1643
  0
LINE
  8
0
 10
152.367
 20
45.1643
 11
152.419
 21
45.1835
  0
LINE
  8
0
 10
152.419
 20
45.1835
 11
152.494
 21
45.2163
  0
LINE
  8
0
 10
152.494
 20
45.2163
 11
154.812
 21
36.5643
  0
LINE
  8
0
 10
154.812
 20
36.5643
 11
171.74
 21
41.1002
  0
LINE
  8
0
 10
171.74
 20
41.1002
 11
168.773
 21
35.8809
  0
LINE
  8
0
 10
168.773
 20
35.8809
 11
137.939
 21
25.701
  0
LINE
  8
0
 10
137.939
 20
25.701
 11
130.042
 21
30.2598
  0
LINE
  8
0
 10
130.042
 20
30.2598
 11
130.066
 21
30.3332
  0
LINE
  8
0
 10
130.066
 20
30.3332
 11
130.16
 21
30.8267
  0
LINE
  8
0
 10
130.16
 20
30.8267
 11
130.192
 21
31.328
  0
LINE
  8
0
 10
130.192
 20
31.328
 11
130.16
 21
31.8293
  0
LINE
  8
0
 10
130.16
 20
31.8293
 11
130.066
 21
32.3227
  0
LINE
  8
0
 10
130.066
 20
32.3227
 11
129.911
 21
32.8005
  0
LINE
  8
0
 10
129.911
 20
32.8005
 11
129.697
 21
33.255
  0
LINE
  8
0
 10
129.697
 20
33.255
 11
129.428
 21
33.6791
  0
LINE
  8
0
 10
129.428
 20
33.6791
 11
129.108
 21
34.0662
  0
LINE
  8
0
 10
129.108
 20
34.0662
 11
128.742
 21
34.41
  0
LINE
  8
0
 10
128.742
 20
34.41
 11
128.335
 21
34.7053
  0
LINE
  8
0
 10
128.335
 20
34.7053
 11
127.895
 21
34.9473
  0
LINE
  8
0
 10
127.895
 20
34.9473
 11
127.428
 21
35.1322
  0
LINE
  8
0
 10
127.428
 20
35.1322
 11
126.941
 21
35.2571
  0
LINE
  8
0
 10
126.941
 20
35.2571
 11
126.443
 21
35.3201
  0
LINE
  8
0
 10
126.443
 20
35.3201
 11
125.941
 21
35.3201
  0
LINE
  8
0
 10
125.941
 20
35.3201
 11
125.442
 21
35.2571
  0
LINE
  8
0
 10
125.442
 20
35.2571
 11
124.956
 21
35.1322
  0
LINE
  8
0
 10
124.956
 20
35.1322
 11
124.489
 21
34.9473
  0
LINE
  8
0
 10
124.489
 20
34.9473
 11
124.049
 21
34.7053
  0
LINE
  8
0
 10
124.049
 20
34.7053
 11
123.642
 21
34.41
  0
LINE
  8
0
 10
123.642
 20
34.41
 11
123.276
 21
34.0662
  0
LINE
  8
0
 10
123.276
 20
34.0662
 11
122.956
 21
33.6791
  0
LINE
  8
0
 10
122.956
 20
33.6791
 11
122.687
 21
33.255
  0
LINE
  8
0
 10
122.687
 20
33.255
 11
122.473
 21
32.8005
  0
LINE
  8
0
 10
122.473
 20
32.8005
 11
122.318
 21
32.3227
  0
LINE
  8
0
 10
122.318
 20
32.3227
 11
122.224
 21
31.8293
  0
LINE
  8
0
 10
122.224
 20
31.8293
 11
122.192
 21
31.328
  0
LINE
  8
0
 10
122.192
 20
31.328
 11
122.194
 21
31.2921
  0
LINE
  8
0
 10
122.194
 20
31.2921
 11
80.0512
 21
19.9999
  0
LINE
  8
0
 10
80.0512
 20
19.9999
 11
79.8878
 21
19.9405
  0
LINE
  8
0
 10
79.8878
 20
19.9405
 11
79.7775
 21
19.8804
  0
LINE
  8
0
 10
79.7775
 20
19.8804
 11
79.6756
 21
19.807
  0
LINE
  8
0
 10
79.6756
 20
19.807
 11
79.5837
 21
19.7214
  0
LINE
  8
0
 10
79.5837
 20
19.7214
 11
79.5033
 21
19.6249
  0
LINE
  8
0
 10
79.5033
 20
19.6249
 11
79.4356
 21
19.5192
  0
LINE
  8
0
 10
79.4356
 20
19.5192
 11
79.3817
 21
19.4057
  0
LINE
  8
0
 10
79.3817
 20
19.4057
 11
79.3424
 21
19.2865
  0
LINE
  8
0
 10
79.3424
 20
19.2865
 11
79.3184
 21
19.1632
  0
LINE
  8
0
 10
79.3184
 20
19.1632
 11
79.31
 21
19.0379
  0
LINE
  8
0
 10
79.31
 20
19.0379
 11
79.3174
 21
18.9125
  0
LINE
  8
0
 10
79.3174
 20
18.9125
 11
79.3405
 21
18.7891
  0
LINE
  8
0
 10
79.3405
 20
18.7891
 11
79.3788
 21
18.6695
  0
LINE
  8
0
 10
79.3788
 20
18.6695
 11
79.4318
 21
18.5557
  0
LINE
  8
0
 10
79.4318
 20
18.5557
 11
79.4987
 21
18.4494
  0
LINE
  8
0
 10
79.4987
 20
18.4494
 11
79.5784
 21
18.3523
  0
LINE
  8
0
 10
79.5784
 20
18.3523
 11
89.5147
 21
7.68794
  0
LINE
  8
0
 10
89.5147
 20
7.68794
 11
89.3758
 21
7.46899
  0
LINE
  8
0
 10
89.3758
 20
7.46899
 11
89.1619
 21
7.01448
  0
LINE
  8
0
 10
89.1619
 20
7.01448
 11
89.0067
 21
6.53674
  0
LINE
  8
0
 10
89.0067
 20
6.53674
 11
88.9126
 21
6.04332
  0
LINE
  8
0
 10
88.9126
 20
6.04332
 11
88.881
 21
5.54199
  0
LINE
  8
0
 10
88.881
 20
5.54199
 11
88.9126
 21
5.04066
  0
LINE
  8
0
 10
88.9126
 20
5.04066
 11
89.0067
 21
4.54724
  0
LINE
  8
0
 10
89.0067
 20
4.54724
 11
89.1619
 21
4.0695
  0
LINE
  8
0
 10
89.1619
 20
4.0695
 11
89.3026
 21
3.77058
  0
LINE
  8
0
 10
89.3026
 20
3.77058
 11
75.007
 21
-8.58646
  0
LINE
  8
0
 10
75.007
 20
-8.58646
 11
74.9121
 21
-8.68027
  0
LINE
  8
0
 10
74.9121
 20
-8.68027
 11
74.835
 21
-8.77936
  0
LINE
  8
0
 10
74.835
 20
-8.77936
 11
64.533
 21
-23.8774
  0
LINE
  8
0
 10
64.533
 20
-23.8774
 11
64.4753
 21
-23.9729
  0
LINE
  8
0
 10
64.4753
 20
-23.9729
 11
64.4236
 21
-24.0874
  0
LINE
  8
0
 10
64.4236
 20
-24.0874
 11
57.7204
 21
-41.8197
  0
LINE
  8
0
 10
57.7204
 20
-41.8197
 11
57.5401
 21
-41.7969
  0
LINE
  8
0
 10
57.5401
 20
-41.7969
 11
57.0378
 21
-41.7969
  0
LINE
  8
0
 10
57.0378
 20
-41.7969
 11
56.5395
 21
-41.8598
  0
LINE
  8
0
 10
56.5395
 20
-41.8598
 11
56.0529
 21
-41.9848
  0
LINE
  8
0
 10
56.0529
 20
-41.9848
 11
55.5859
 21
-42.1697
  0
LINE
  8
0
 10
55.5859
 20
-42.1697
 11
55.1457
 21
-42.4117
  0
LINE
  8
0
 10
55.1457
 20
-42.4117
 11
54.7393
 21
-42.7069
  0
LINE
  8
0
 10
54.7393
 20
-42.7069
 11
54.3731
 21
-43.0508
  0
LINE
  8
0
 10
54.3731
 20
-43.0508
 11
54.0529
 21
-43.4379
  0
LINE
  8
0
 10
54.0529
 20
-43.4379
 11
53.7838
 21
-43.862
  0
LINE
  8
0
 10
53.7838
 20
-43.862
 11
53.5699
 21
-44.3165
  0
LINE
  8
0
 10
53.5699
 20
-44.3165
 11
53.4209
 21
-44.775
  0
LINE
  8
0
 10
53.4209
 20
-44.775
 11
-53.999
 21
-44.387
  0
LINE
  8
0
 10
-94.2163
 20
127.479
 11
-111.603
 21
132.138
  0
LINE
  8
0
 10
-111.603
 20
132.138
 11
-116.262
 21
114.751
  0
LINE
  8
0
 10
-116.262
 20
114.751
 11
-98.875
 21
110.092
  0
LINE
  8
0
 10
-98.875
 20
110.092
 11
-94.2163
 21
127.479
  0
LINE
  8
0
 10
115.296
 20
114.492
 11
110.637
 21
131.879
  0
LINE
  8
0
 10
110.637
 20
131.879
 11
93.2503
 21
127.22
  0
LINE
  8
0
 10
93.2503
 20
127.22
 11
97.909
 21
109.833
  0
LINE
  8
0
 10
97.909
 20
109.833
 11
115.296
 21
114.492
  0
LINE
  8
0
 10
-72.7023
 20
126.632
 11
-90.089
 21
131.291
  0
LINE
  8
0
 10
-90.089
 20
131.291
 11
-94.7477
 21
113.904
  0
LINE
  8
0
 10
-94.7477
 20
113.904
 11
-77.361
 21
109.245
  0
LINE
  8
0
 10
-77.361
 20
109.245
 11
-72.7023
 21
126.632
  0
LINE
  8
0
 10
93.7817
 20
113.645
 11
89.123
 21
131.032
  0
LINE
  8
0
 10
89.123
 20
131.032
 11
71.7363
 21
126.373
  0
LINE
  8
0
 10
71.7363
 20
126.373
 11
76.395
 21
108.986
  0
LINE
  8
0
 10
76.395
 20
108.986
 11
93.7817
 21
113.645
  0
LINE
  8
0
 10
-116.959
 20
123.738
 11
-134.346
 21
128.397
  0
LINE
  8
0
 10
-134.346
 20
128.397
 11
-139.005
 21
111.01
  0
LINE
  8
0
 10
-139.005
 20
111.01
 11
-121.618
 21
106.351
  0
LINE
  8
0
 10
-121.618
 20
106.351
 11
-116.959
 21
123.738
  0
LINE
  8
0
 10
138.039
 20
110.751
 11
133.38
 21
128.138
  0
LINE
  8
0
 10
133.38
 20
128.138
 11
115.993
 21
123.479
  0
LINE
  8
0
 10
115.993
 20
123.479
 11
120.652
 21
106.092
  0
LINE
  8
0
 10
120.652
 20
106.092
 11
138.039
 21
110.751
  0
LINE
  8
0
 10
-55.5793
 20
117.126
 11
-72.966
 21
121.785
  0
LINE
  8
0
 10
-72.966
 20
121.785
 11
-77.6247
 21
104.398
  0
LINE
  8
0
 10
-77.6247
 20
104.398
 11
-60.238
 21
99.7393
  0
LINE
  8
0
 10
-60.238
 20
99.7393
 11
-55.5793
 21
117.126
  0
LINE
  8
0
 10
76.6587
 20
104.139
 11
72
 21
121.526
  0
LINE
  8
0
 10
72
 20
121.526
 11
54.6133
 21
116.867
  0
LINE
  8
0
 10
54.6133
 20
116.867
 11
59.272
 21
99.4803
  0
LINE
  8
0
 10
59.272
 20
99.4803
 11
76.6587
 21
104.139
  0
LINE
  8
0
 10
-139.747
 20
110.173
 11
-165.827
 21
117.161
  0
LINE
  8
0
 10
-165.827
 20
117.161
 11
-170.485
 21
99.7747
  0
LINE
  8
0
 10
-170.485
 20
99.7747
 11
-144.405
 21
92.7866
  0
LINE
  8
0
 10
-144.405
 20
92.7866
 11
-139.747
 21
110.173
  0
LINE
  8
0
 10
169.036
 20
99.3867
 11
164.378
 21
116.773
  0
LINE
  8
0
 10
164.378
 20
116.773
 11
138.298
 21
109.785
  0
LINE
  8
0
 10
138.298
 20
109.785
 11
142.956
 21
92.3986
  0
LINE
  8
0
 10
142.956
 20
92.3986
 11
169.036
 21
99.3867
  0
LINE
  8
0
 10
-98.6513
 20
108.997
 11
-116.038
 21
113.656
  0
LINE
  8
0
 10
-116.038
 20
113.656
 11
-120.697
 21
96.269
  0
LINE
  8
0
 10
-120.697
 20
96.269
 11
-103.31
 21
91.6103
  0
LINE
  8
0
 10
-103.31
 20
91.6103
 11
-98.6513
 21
108.997
  0
LINE
  8
0
 10
119.731
 20
96.01
 11
115.072
 21
113.397
  0
LINE
  8
0
 10
115.072
 20
113.397
 11
97.6853
 21
108.738
  0
LINE
  8
0
 10
97.6853
 20
108.738
 11
102.344
 21
91.3513
  0
LINE
  8
0
 10
102.344
 20
91.3513
 11
119.731
 21
96.01
  0
LINE
  8
0
 10
-77.6203
 20
108.279
 11
-95.007
 21
112.938
  0
LINE
  8
0
 10
-95.007
 20
112.938
 11
-99.6657
 21
95.551
  0
LINE
  8
0
 10
-99.6657
 20
95.551
 11
-82.279
 21
90.8923
  0
LINE
  8
0
 10
-82.279
 20
90.8923
 11
-77.6203
 21
108.279
  0
LINE
  8
0
 10
98.6997
 20
95.292
 11
94.041
 21
112.679
  0
LINE
  8
0
 10
94.041
 20
112.679
 11
76.6543
 21
108.02
  0
LINE
  8
0
 10
76.6543
 20
108.02
 11
81.313
 21
90.6333
  0
LINE
  8
0
 10
81.313
 20
90.6333
 11
98.6997
 21
95.292
  0
LINE
  8
0
 10
-38.4563
 20
107.62
 11
-55.843
 21
112.279
  0
LINE
  8
0
 10
-55.843
 20
112.279
 11
-60.5017
 21
94.892
  0
LINE
  8
0
 10
-60.5017
 20
94.892
 11
-43.115
 21
90.2333
  0
LINE
  8
0
 10
-43.115
 20
90.2333
 11
-38.4563
 21
107.62
  0
LINE
  8
0
 10
59.5357
 20
94.633
 11
54.877
 21
112.02
  0
LINE
  8
0
 10
54.877
 20
112.02
 11
37.4903
 21
107.361
  0
LINE
  8
0
 10
37.4903
 20
107.361
 11
42.149
 21
89.9743
  0
LINE
  8
0
 10
42.149
 20
89.9743
 11
59.5357
 21
94.633
  0
LINE
  8
0
 10
-120.911
 20
105.126
 11
-138.298
 21
109.785
  0
LINE
  8
0
 10
-138.298
 20
109.785
 11
-142.957
 21
92.398
  0
LINE
  8
0
 10
-142.957
 20
92.398
 11
-125.57
 21
87.7393
  0
LINE
  8
0
 10
-125.57
 20
87.7393
 11
-120.911
 21
105.126
  0
LINE
  8
0
 10
141.991
 20
92.139
 11
137.332
 21
109.526
  0
LINE
  8
0
 10
137.332
 20
109.526
 11
119.945
 21
104.867
  0
LINE
  8
0
 10
119.945
 20
104.867
 11
124.604
 21
87.4803
  0
LINE
  8
0
 10
124.604
 20
87.4803
 11
141.991
 21
92.139
  0
LINE
  8
0
 10
-20.1033
 20
102.703
 11
-37.49
 21
107.362
  0
LINE
  8
0
 10
-37.49
 20
107.362
 11
-42.1487
 21
89.975
  0
LINE
  8
0
 10
-42.1487
 20
89.975
 11
-24.762
 21
85.3163
  0
LINE
  8
0
 10
-24.762
 20
85.3163
 11
-20.1033
 21
102.703
  0
LINE
  8
0
 10
41.1827
 20
89.716
 11
36.524
 21
107.103
  0
LINE
  8
0
 10
36.524
 20
107.103
 11
19.1373
 21
102.444
  0
LINE
  8
0
 10
19.1373
 20
102.444
 11
23.796
 21
85.0573
  0
LINE
  8
0
 10
23.796
 20
85.0573
 11
41.1827
 21
89.716
  0
LINE
  8
0
 10
-60.4973
 20
98.7729
 11
-77.884
 21
103.432
  0
LINE
  8
0
 10
-77.884
 20
103.432
 11
-82.5427
 21
86.045
  0
LINE
  8
0
 10
-82.5427
 20
86.045
 11
-65.156
 21
81.3863
  0
LINE
  8
0
 10
-65.156
 20
81.3863
 11
-60.4973
 21
98.7729
  0
LINE
  8
0
 10
81.5767
 20
85.787
 11
76.918
 21
103.174
  0
LINE
  8
0
 10
76.918
 20
103.174
 11
59.5313
 21
98.515
  0
LINE
  8
0
 10
59.5313
 20
98.515
 11
64.19
 21
81.1283
  0
LINE
  8
0
 10
64.19
 20
81.1283
 11
81.5767
 21
85.787
  0
LINE
  8
0
 10
-143.699
 20
91.5623
 11
-169.779
 21
98.5504
  0
LINE
  8
0
 10
-169.779
 20
98.5504
 11
-174.437
 21
81.1637
  0
LINE
  8
0
 10
-174.437
 20
81.1637
 11
-148.357
 21
74.1756
  0
LINE
  8
0
 10
-148.357
 20
74.1756
 11
-143.699
 21
91.5623
  0
LINE
  8
0
 10
172.988
 20
80.7747
 11
168.33
 21
98.1614
  0
LINE
  8
0
 10
168.33
 20
98.1614
 11
142.25
 21
91.1733
  0
LINE
  8
0
 10
142.25
 20
91.1733
 11
146.908
 21
73.7866
  0
LINE
  8
0
 10
146.908
 20
73.7866
 11
172.988
 21
80.7747
  0
LINE
  8
0
 10
-103.085
 20
90.515
 11
-120.472
 21
95.1737
  0
LINE
  8
0
 10
-120.472
 20
95.1737
 11
-125.131
 21
77.787
  0
LINE
  8
0
 10
-125.131
 20
77.787
 11
-107.744
 21
73.1283
  0
LINE
  8
0
 10
-107.744
 20
73.1283
 11
-103.085
 21
90.515
  0
LINE
  8
0
 10
124.165
 20
77.528
 11
119.506
 21
94.9147
  0
LINE
  8
0
 10
119.506
 20
94.9147
 11
102.119
 21
90.256
  0
LINE
  8
0
 10
102.119
 20
90.256
 11
106.778
 21
72.8693
  0
LINE
  8
0
 10
106.778
 20
72.8693
 11
124.165
 21
77.528
  0
LINE
  8
0
 10
-82.5373
 20
89.927
 11
-99.924
 21
94.5857
  0
LINE
  8
0
 10
-99.924
 20
94.5857
 11
-104.583
 21
77.199
  0
LINE
  8
0
 10
-104.583
 20
77.199
 11
-87.196
 21
72.5403
  0
LINE
  8
0
 10
-87.196
 20
72.5403
 11
-82.5373
 21
89.927
  0
LINE
  8
0
 10
103.617
 20
76.94
 11
98.9579
 21
94.3267
  0
LINE
  8
0
 10
98.9579
 20
94.3267
 11
81.5713
 21
89.668
  0
LINE
  8
0
 10
81.5713
 20
89.668
 11
86.23
 21
72.2813
  0
LINE
  8
0
 10
86.23
 20
72.2813
 11
103.617
 21
76.94
  0
LINE
  8
0
 10
-43.3733
 20
89.268
 11
-60.7599
 21
93.9267
  0
LINE
  8
0
 10
-60.7599
 20
93.9267
 11
-65.4187
 21
76.54
  0
LINE
  8
0
 10
-65.4187
 20
76.54
 11
-48.032
 21
71.8813
  0
LINE
  8
0
 10
-48.032
 20
71.8813
 11
-43.3733
 21
89.268
  0
LINE
  8
0
 10
64.4537
 20
76.281
 11
59.795
 21
93.6677
  0
LINE
  8
0
 10
59.795
 20
93.6677
 11
42.4083
 21
89.009
  0
LINE
  8
0
 10
42.4083
 20
89.009
 11
47.067
 21
71.6223
  0
LINE
  8
0
 10
47.067
 20
71.6223
 11
64.4537
 21
76.281
  0
LINE
  8
0
 10
-124.863
 20
86.515
 11
-142.25
 21
91.1737
  0
LINE
  8
0
 10
-142.25
 20
91.1737
 11
-146.909
 21
73.787
  0
LINE
  8
0
 10
-146.909
 20
73.787
 11
-129.522
 21
69.1283
  0
LINE
  8
0
 10
-129.522
 20
69.1283
 11
-124.863
 21
86.515
  0
LINE
  8
0
 10
145.943
 20
73.528
 11
141.284
 21
90.9147
  0
LINE
  8
0
 10
141.284
 20
90.9147
 11
123.897
 21
86.256
  0
LINE
  8
0
 10
123.897
 20
86.256
 11
128.556
 21
68.8693
  0
LINE
  8
0
 10
128.556
 20
68.8693
 11
145.943
 21
73.528
  0
LINE
  8
0
 10
-25.0213
 20
84.35
 11
-42.408
 21
89.0087
  0
LINE
  8
0
 10
-42.408
 20
89.0087
 11
-47.0667
 21
71.622
  0
LINE
  8
0
 10
-47.0667
 20
71.622
 11
-29.68
 21
66.9633
  0
LINE
  8
0
 10
-29.68
 20
66.9633
 11
-25.0213
 21
84.35
  0
LINE
  8
0
 10
46.1007
 20
71.363
 11
41.442
 21
88.7497
  0
LINE
  8
0
 10
41.442
 20
88.7497
 11
24.0553
 21
84.091
  0
LINE
  8
0
 10
24.0553
 20
84.091
 11
28.714
 21
66.7043
  0
LINE
  8
0
 10
28.714
 20
66.7043
 11
46.1007
 21
71.363
  0
LINE
  8
0
 10
-65.4143
 20
80.421
 11
-82.8009
 21
85.0797
  0
LINE
  8
0
 10
-82.8009
 20
85.0797
 11
-87.4597
 21
67.693
  0
LINE
  8
0
 10
-87.4597
 20
67.693
 11
-70.073
 21
63.0343
  0
LINE
  8
0
 10
-70.073
 20
63.0343
 11
-65.4143
 21
80.421
  0
LINE
  8
0
 10
86.4937
 20
67.434
 11
81.835
 21
84.8207
  0
LINE
  8
0
 10
81.835
 20
84.8207
 11
64.4483
 21
80.162
  0
LINE
  8
0
 10
64.4483
 20
80.162
 11
69.107
 21
62.7753
  0
LINE
  8
0
 10
69.107
 20
62.7753
 11
86.4937
 21
67.434
  0
LINE
  8
0
 10
-146.685
 20
72.6913
 11
-172.765
 21
79.6794
  0
LINE
  8
0
 10
-172.765
 20
79.6794
 11
-177.423
 21
62.2927
  0
LINE
  8
0
 10
-177.423
 20
62.2927
 11
-151.343
 21
55.3046
  0
LINE
  8
0
 10
-151.343
 20
55.3046
 11
-146.685
 21
72.6913
  0
LINE
  8
0
 10
175.974
 20
61.9047
 11
171.316
 21
79.2914
  0
LINE
  8
0
 10
171.316
 20
79.2914
 11
145.236
 21
72.3033
  0
LINE
  8
0
 10
145.236
 20
72.3033
 11
149.894
 21
54.9166
  0
LINE
  8
0
 10
149.894
 20
54.9166
 11
175.974
 21
61.9047
  0
LINE
  8
0
 10
-107.037
 20
71.903
 11
-124.424
 21
76.5617
  0
LINE
  8
0
 10
-124.424
 20
76.5617
 11
-129.083
 21
59.175
  0
LINE
  8
0
 10
-129.083
 20
59.175
 11
-111.696
 21
54.5163
  0
LINE
  8
0
 10
-111.696
 20
54.5163
 11
-107.037
 21
71.903
  0
LINE
  8
0
 10
128.117
 20
58.917
 11
123.458
 21
76.3037
  0
LINE
  8
0
 10
123.458
 20
76.3037
 11
106.071
 21
71.645
  0
LINE
  8
0
 10
106.071
 20
71.645
 11
110.73
 21
54.2583
  0
LINE
  8
0
 10
110.73
 20
54.2583
 11
128.117
 21
58.917
  0
LINE
  8
0
 10
-87.4553
 20
71.574
 11
-104.842
 21
76.2327
  0
LINE
  8
0
 10
-104.842
 20
76.2327
 11
-109.501
 21
58.846
  0
LINE
  8
0
 10
-109.501
 20
58.846
 11
-92.114
 21
54.1873
  0
LINE
  8
0
 10
-92.114
 20
54.1873
 11
-87.4553
 21
71.574
  0
LINE
  8
0
 10
108.535
 20
58.587
 11
103.876
 21
75.9737
  0
LINE
  8
0
 10
103.876
 20
75.9737
 11
86.4893
 21
71.315
  0
LINE
  8
0
 10
86.4893
 20
71.315
 11
91.148
 21
53.9283
  0
LINE
  8
0
 10
91.148
 20
53.9283
 11
108.535
 21
58.587
  0
LINE
  8
0
 10
-48.2913
 20
70.9149
 11
-65.6779
 21
75.5737
  0
LINE
  8
0
 10
-65.6779
 20
75.5737
 11
-70.3367
 21
58.187
  0
LINE
  8
0
 10
-70.3367
 20
58.187
 11
-52.95
 21
53.5283
  0
LINE
  8
0
 10
-52.95
 20
53.5283
 11
-48.2913
 21
70.9149
  0
LINE
  8
0
 10
69.3707
 20
57.928
 11
64.712
 21
75.3147
  0
LINE
  8
0
 10
64.712
 20
75.3147
 11
47.3253
 21
70.656
  0
LINE
  8
0
 10
47.3253
 20
70.656
 11
51.984
 21
53.2693
  0
LINE
  8
0
 10
51.984
 20
53.2693
 11
69.3707
 21
57.928
  0
LINE
  8
0
 10
-127.848
 20
67.645
 11
-145.235
 21
72.3037
  0
LINE
  8
0
 10
-145.235
 20
72.3037
 11
-149.894
 21
54.917
  0
LINE
  8
0
 10
-149.894
 20
54.917
 11
-132.507
 21
50.2583
  0
LINE
  8
0
 10
-132.507
 20
50.2583
 11
-127.848
 21
67.645
  0
LINE
  8
0
 10
148.928
 20
54.658
 11
144.269
 21
72.0447
  0
LINE
  8
0
 10
144.269
 20
72.0447
 11
126.882
 21
67.386
  0
LINE
  8
0
 10
126.882
 20
67.386
 11
131.541
 21
49.9993
  0
LINE
  8
0
 10
131.541
 20
49.9993
 11
148.928
 21
54.658
  0
LINE
  8
0
 10
-29.9383
 20
65.998
 11
-47.325
 21
70.6567
  0
LINE
  8
0
 10
-47.325
 20
70.6567
 11
-51.9837
 21
53.27
  0
LINE
  8
0
 10
-51.9837
 20
53.27
 11
-34.597
 21
48.6113
  0
LINE
  8
0
 10
-34.597
 20
48.6113
 11
-29.9383
 21
65.998
  0
LINE
  8
0
 10
51.0177
 20
53.011
 11
46.3589
 21
70.3977
  0
LINE
  8
0
 10
46.3589
 20
70.3977
 11
28.9723
 21
65.739
  0
LINE
  8
0
 10
28.9723
 20
65.739
 11
33.631
 21
48.3523
  0
LINE
  8
0
 10
33.631
 20
48.3523
 11
51.0177
 21
53.011
  0
LINE
  8
0
 10
-70.3323
 20
62.0679
 11
-87.7189
 21
66.7267
  0
LINE
  8
0
 10
-87.7189
 20
66.7267
 11
-92.3777
 21
49.34
  0
LINE
  8
0
 10
-92.3777
 20
49.34
 11
-74.991
 21
44.6813
  0
LINE
  8
0
 10
-74.991
 20
44.6813
 11
-70.3323
 21
62.0679
  0
LINE
  8
0
 10
91.4117
 20
49.081
 11
86.753
 21
66.4677
  0
LINE
  8
0
 10
86.753
 20
66.4677
 11
69.3663
 21
61.809
  0
LINE
  8
0
 10
69.3663
 20
61.809
 11
74.025
 21
44.4223
  0
LINE
  8
0
 10
74.025
 20
44.4223
 11
91.4117
 21
49.081
  0
LINE
  8
0
 10
-111.955
 20
53.5509
 11
-129.342
 21
58.2097
  0
LINE
  8
0
 10
-129.342
 20
58.2097
 11
-134.001
 21
40.823
  0
LINE
  8
0
 10
-134.001
 20
40.823
 11
-116.614
 21
36.1643
  0
LINE
  8
0
 10
-116.614
 20
36.1643
 11
-111.955
 21
53.5509
  0
LINE
  8
0
 10
113.453
 20
40.235
 11
110.65
 21
50.6959
  0
LINE
  8
0
 10
110.65
 20
50.6959
 11
110.68
 21
50.7462
  0
LINE
  8
0
 10
110.68
 20
50.7462
 11
110.698
 21
50.7709
  0
LINE
  8
0
 10
110.698
 20
50.7709
 11
110.718
 21
50.7943
  0
LINE
  8
0
 10
110.718
 20
50.7943
 11
110.739
 21
50.8162
  0
LINE
  8
0
 10
110.739
 20
50.8162
 11
110.786
 21
50.8563
  0
LINE
  8
0
 10
110.786
 20
50.8563
 11
110.812
 21
50.8741
  0
LINE
  8
0
 10
110.812
 20
50.8741
 11
110.839
 21
50.8903
  0
LINE
  8
0
 10
110.839
 20
50.8903
 11
110.868
 21
50.9049
  0
LINE
  8
0
 10
110.868
 20
50.9049
 11
110.898
 21
50.918
  0
LINE
  8
0
 10
110.898
 20
50.918
 11
110.962
 21
50.9392
  0
LINE
  8
0
 10
110.962
 20
50.9392
 11
111.027
 21
50.954
  0
LINE
  8
0
 10
111.027
 20
50.954
 11
111.086
 21
50.9628
  0
LINE
  8
0
 10
111.086
 20
50.9628
 11
111.14
 21
50.9654
  0
LINE
  8
0
 10
111.14
 20
50.9654
 11
111.189
 21
50.9618
  0
LINE
  8
0
 10
111.189
 20
50.9618
 11
111.212
 21
50.9572
  0
LINE
  8
0
 10
111.212
 20
50.9572
 11
111.234
 21
50.9508
  0
LINE
  8
0
 10
111.234
 20
50.9508
 11
111.256
 21
50.9425
  0
LINE
  8
0
 10
111.256
 20
50.9425
 11
111.276
 21
50.9323
  0
LINE
  8
0
 10
111.276
 20
50.9323
 11
111.296
 21
50.9203
  0
LINE
  8
0
 10
111.296
 20
50.9203
 11
111.333
 21
50.8905
  0
LINE
  8
0
 10
111.333
 20
50.8905
 11
111.368
 21
50.8532
  0
LINE
  8
0
 10
111.368
 20
50.8532
 11
111.4
 21
50.808
  0
LINE
  8
0
 10
111.4
 20
50.808
 11
111.43
 21
50.755
  0
LINE
  8
0
 10
111.43
 20
50.755
 11
111.458
 21
50.6933
  0
LINE
  8
0
 10
111.458
 20
50.6933
 11
111.484
 21
50.6223
  0
LINE
  8
0
 10
111.484
 20
50.6223
 11
111.522
 21
50.4979
  0
LINE
  8
0
 10
111.522
 20
50.4979
 11
111.887
 21
49.1331
  0
LINE
  8
0
 10
111.887
 20
49.1331
 11
112.089
 21
49.1872
  0
LINE
  8
0
 10
112.089
 20
49.1872
 11
115.648
 21
35.9053
  0
LINE
  8
0
 10
115.648
 20
35.9053
 11
133.035
 21
40.564
  0
LINE
  8
0
 10
133.035
 20
40.564
 11
130.719
 21
49.2077
  0
LINE
  8
0
 10
130.719
 20
49.2077
 11
130.727
 21
49.2074
  0
LINE
  8
0
 10
130.727
 20
49.2074
 11
130.845
 21
49.2285
  0
LINE
  8
0
 10
130.845
 20
49.2285
 11
130.964
 21
49.2645
  0
LINE
  8
0
 10
130.964
 20
49.2645
 11
131.11
 21
49.3235
  0
LINE
  8
0
 10
131.11
 20
49.3235
 11
131.201
 21
49.3684
  0
LINE
  8
0
 10
131.201
 20
49.3684
 11
131.139
 21
49.6012
  0
LINE
  8
0
 10
131.139
 20
49.6012
 11
130.997
 21
49.5369
  0
LINE
  8
0
 10
130.997
 20
49.5369
 11
130.939
 21
49.5188
  0
LINE
  8
0
 10
130.939
 20
49.5188
 11
130.905
 21
49.5109
  0
LINE
  8
0
 10
130.905
 20
49.5109
 11
130.872
 21
49.5065
  0
LINE
  8
0
 10
130.872
 20
49.5065
 11
130.843
 21
49.5055
  0
LINE
  8
0
 10
130.843
 20
49.5055
 11
130.815
 21
49.5079
  0
LINE
  8
0
 10
130.815
 20
49.5079
 11
130.79
 21
49.5136
  0
LINE
  8
0
 10
130.79
 20
49.5136
 11
130.767
 21
49.5228
  0
LINE
  8
0
 10
130.767
 20
49.5228
 11
130.746
 21
49.5354
  0
LINE
  8
0
 10
130.746
 20
49.5354
 11
130.727
 21
49.552
  0
LINE
  8
0
 10
130.727
 20
49.552
 11
130.71
 21
49.573
  0
LINE
  8
0
 10
130.71
 20
49.573
 11
130.693
 21
49.5984
  0
LINE
  8
0
 10
130.693
 20
49.5984
 11
130.677
 21
49.6282
  0
LINE
  8
0
 10
130.677
 20
49.6282
 11
130.663
 21
49.6624
  0
LINE
  8
0
 10
130.663
 20
49.6624
 11
130.649
 21
49.7011
  0
LINE
  8
0
 10
130.649
 20
49.7011
 11
130.636
 21
49.7441
  0
LINE
  8
0
 10
130.636
 20
49.7441
 11
130.266
 21
51.1273
  0
LINE
  8
0
 10
130.266
 20
51.1273
 11
130.658
 21
51.2324
  0
LINE
  8
0
 10
130.658
 20
51.2324
 11
130.592
 21
51.4797
  0
LINE
  8
0
 10
130.592
 20
51.4797
 11
130.2
 21
51.3746
  0
LINE
  8
0
 10
130.2
 20
51.3746
 11
130.067
 21
51.8692
  0
LINE
  8
0
 10
130.067
 20
51.8692
 11
130.01
 21
51.8538
  0
LINE
  8
0
 10
130.01
 20
51.8538
 11
128.376
 21
57.9507
  0
LINE
  8
0
 10
128.376
 20
57.9507
 11
110.989
 21
53.2919
  0
LINE
  8
0
 10
110.989
 20
53.2919
 11
111.553
 21
51.1895
  0
LINE
  8
0
 10
111.553
 20
51.1895
 11
111.51
 21
51.2128
  0
LINE
  8
0
 10
111.51
 20
51.2128
 11
111.477
 21
51.2265
  0
LINE
  8
0
 10
111.477
 20
51.2265
 11
111.443
 21
51.2378
  0
LINE
  8
0
 10
111.443
 20
51.2378
 11
111.407
 21
51.2466
  0
LINE
  8
0
 10
111.407
 20
51.2466
 11
111.371
 21
51.253
  0
LINE
  8
0
 10
111.371
 20
51.253
 11
111.333
 21
51.2569
  0
LINE
  8
0
 10
111.333
 20
51.2569
 11
111.294
 21
51.2588
  0
LINE
  8
0
 10
111.294
 20
51.2588
 11
111.253
 21
51.2583
  0
LINE
  8
0
 10
111.253
 20
51.2583
 11
111.211
 21
51.2556
  0
LINE
  8
0
 10
111.211
 20
51.2556
 11
111.167
 21
51.2506
  0
LINE
  8
0
 10
111.167
 20
51.2506
 11
111.076
 21
51.2336
  0
LINE
  8
0
 10
111.076
 20
51.2336
 11
110.99
 21
51.2111
  0
LINE
  8
0
 10
110.99
 20
51.2111
 11
110.921
 21
51.1877
  0
LINE
  8
0
 10
110.921
 20
51.1877
 11
110.857
 21
51.1613
  0
LINE
  8
0
 10
110.857
 20
51.1613
 11
110.801
 21
51.132
  0
LINE
  8
0
 10
110.801
 20
51.132
 11
110.75
 21
51.1003
  0
LINE
  8
0
 10
110.75
 20
51.1003
 11
110.703
 21
51.0658
  0
LINE
  8
0
 10
110.703
 20
51.0658
 11
110.662
 21
51.0285
  0
LINE
  8
0
 10
110.662
 20
51.0285
 11
110.625
 21
50.9887
  0
LINE
  8
0
 10
110.625
 20
50.9887
 11
110.585
 21
50.9363
  0
LINE
  8
0
 10
110.585
 20
50.9363
 11
108.794
 21
57.6217
  0
LINE
  8
0
 10
108.794
 20
57.6217
 11
91.4073
 21
52.963
  0
LINE
  8
0
 10
91.4073
 20
52.963
 11
96.066
 21
35.5763
  0
LINE
  8
0
 10
96.066
 20
35.5763
 11
113.453
 21
40.235
  0
LINE
  8
0
 10
-94.7173
 20
44.473
 11
-94.699
 21
44.4698
  0
LINE
  8
0
 10
-94.699
 20
44.4698
 11
-94.6304
 21
44.4633
  0
LINE
  8
0
 10
-94.6304
 20
44.4633
 11
-94.566
 21
44.4622
  0
LINE
  8
0
 10
-94.566
 20
44.4622
 11
-94.5048
 21
44.4657
  0
LINE
  8
0
 10
-94.5048
 20
44.4657
 11
-94.4466
 21
44.4738
  0
LINE
  8
0
 10
-94.4466
 20
44.4738
 11
-94.3914
 21
44.4866
  0
LINE
  8
0
 10
-94.3914
 20
44.4866
 11
-94.3382
 21
44.5043
  0
LINE
  8
0
 10
-94.3382
 20
44.5043
 11
-94.2876
 21
44.5263
  0
LINE
  8
0
 10
-94.2876
 20
44.5263
 11
-94.2396
 21
44.5525
  0
LINE
  8
0
 10
-94.2396
 20
44.5525
 11
-94.1709
 21
44.5994
  0
LINE
  8
0
 10
-94.1709
 20
44.5994
 11
-94.1041
 21
44.6534
  0
LINE
  8
0
 10
-94.1041
 20
44.6534
 11
-94.0606
 21
44.6931
  0
LINE
  8
0
 10
-94.0606
 20
44.6931
 11
-94.0549
 21
44.6915
  0
LINE
  8
0
 10
-94.0549
 20
44.6915
 11
-94.1228
 21
44.3723
  0
LINE
  8
0
 10
-94.1228
 20
44.3723
 11
-93.7722
 21
44.2783
  0
LINE
  8
0
 10
-93.7722
 20
44.2783
 11
-93.6634
 21
44.7306
  0
LINE
  8
0
 10
-93.6634
 20
44.7306
 11
-93.2206
 21
46.3833
  0
LINE
  8
0
 10
-93.2206
 20
46.3833
 11
-93.5915
 21
46.4826
  0
LINE
  8
0
 10
-93.5915
 20
46.4826
 11
-93.9388
 21
45.1895
  0
LINE
  8
0
 10
-93.9388
 20
45.1895
 11
-93.9684
 21
45.1051
  0
LINE
  8
0
 10
-93.9684
 20
45.1051
 11
-94.0028
 21
45.0284
  0
LINE
  8
0
 10
-94.0028
 20
45.0284
 11
-94.0219
 21
44.9929
  0
LINE
  8
0
 10
-94.0219
 20
44.9929
 11
-94.0631
 21
44.928
  0
LINE
  8
0
 10
-94.0631
 20
44.928
 11
-94.1079
 21
44.871
  0
LINE
  8
0
 10
-94.1079
 20
44.871
 11
-94.1318
 21
44.8455
  0
LINE
  8
0
 10
-94.1318
 20
44.8455
 11
-94.1566
 21
44.8219
  0
LINE
  8
0
 10
-94.1566
 20
44.8219
 11
-94.1824
 21
44.8002
  0
LINE
  8
0
 10
-94.1824
 20
44.8002
 11
-94.2091
 21
44.7805
  0
LINE
  8
0
 10
-94.2091
 20
44.7805
 11
-94.2363
 21
44.7629
  0
LINE
  8
0
 10
-94.2363
 20
44.7629
 11
-94.2644
 21
44.7472
  0
LINE
  8
0
 10
-94.2644
 20
44.7472
 11
-94.2932
 21
44.7334
  0
LINE
  8
0
 10
-94.2932
 20
44.7334
 11
-94.3229
 21
44.7216
  0
LINE
  8
0
 10
-94.3229
 20
44.7216
 11
-94.3534
 21
44.7116
  0
LINE
  8
0
 10
-94.3534
 20
44.7116
 11
-94.3846
 21
44.7035
  0
LINE
  8
0
 10
-94.3846
 20
44.7035
 11
-94.4167
 21
44.6974
  0
LINE
  8
0
 10
-94.4167
 20
44.6974
 11
-94.4493
 21
44.6935
  0
LINE
  8
0
 10
-94.4493
 20
44.6935
 11
-94.4824
 21
44.6917
  0
LINE
  8
0
 10
-94.4824
 20
44.6917
 11
-94.5161
 21
44.6919
  0
LINE
  8
0
 10
-94.5161
 20
44.6919
 11
-94.5502
 21
44.6943
  0
LINE
  8
0
 10
-94.5502
 20
44.6943
 11
-94.6199
 21
44.7052
  0
LINE
  8
0
 10
-94.6199
 20
44.7052
 11
-94.6528
 21
44.7138
  0
LINE
  8
0
 10
-94.6528
 20
44.7138
 11
-92.3733
 21
53.2209
  0
LINE
  8
0
 10
-92.3733
 20
53.2209
 11
-109.76
 21
57.8797
  0
LINE
  8
0
 10
-109.76
 20
57.8797
 11
-114.419
 21
40.493
  0
LINE
  8
0
 10
-114.419
 20
40.493
 11
-97.032
 21
35.8343
  0
LINE
  8
0
 10
-97.032
 20
35.8343
 11
-94.7173
 21
44.473
  0
LINE
  8
0
 10
-53.2093
 20
52.563
 11
-70.5959
 21
57.2217
  0
LINE
  8
0
 10
-70.5959
 20
57.2217
 11
-75.2547
 21
39.835
  0
LINE
  8
0
 10
-75.2547
 20
39.835
 11
-57.868
 21
35.1763
  0
LINE
  8
0
 10
-57.868
 20
35.1763
 11
-53.2093
 21
52.563
  0
LINE
  8
0
 10
74.2887
 20
39.576
 11
69.63
 21
56.9627
  0
LINE
  8
0
 10
69.63
 20
56.9627
 11
52.2433
 21
52.304
  0
LINE
  8
0
 10
52.2433
 20
52.304
 11
56.902
 21
34.9173
  0
LINE
  8
0
 10
56.902
 20
34.9173
 11
74.2887
 21
39.576
  0
LINE
  8
0
 10
-34.8563
 20
47.645
 11
-52.243
 21
52.3037
  0
LINE
  8
0
 10
-52.243
 20
52.3037
 11
-56.9017
 21
34.917
  0
LINE
  8
0
 10
-56.9017
 20
34.917
 11
-39.515
 21
30.2583
  0
LINE
  8
0
 10
-39.515
 20
30.2583
 11
-34.8563
 21
47.645
  0
LINE
  8
0
 10
55.9357
 20
34.658
 11
51.2769
 21
52.0447
  0
LINE
  8
0
 10
51.2769
 20
52.0447
 11
33.8903
 21
47.386
  0
LINE
  8
0
 10
33.8903
 20
47.386
 11
38.549
 21
29.9993
  0
LINE
  8
0
 10
38.549
 20
29.9993
 11
55.9357
 21
34.658
  0
LINE
  8
0
 10
-75.2493
 20
43.716
 11
-92.636
 21
48.3747
  0
LINE
  8
0
 10
-92.636
 20
48.3747
 11
-97.2947
 21
30.988
  0
LINE
  8
0
 10
-97.2947
 20
30.988
 11
-79.908
 21
26.3293
  0
LINE
  8
0
 10
-79.908
 20
26.3293
 11
-75.2493
 21
43.716
  0
LINE
  8
0
 10
96.3287
 20
30.729
 11
91.67
 21
48.1157
  0
LINE
  8
0
 10
91.67
 20
48.1157
 11
74.2833
 21
43.457
  0
LINE
  8
0
 10
74.2833
 20
43.457
 11
78.942
 21
26.0703
  0
LINE
  8
0
 10
78.942
 20
26.0703
 11
96.3287
 21
30.729
  0
LINE
  8
0
 10
-62.3311
 20
6.24696
 11
-62.3292
 21
6.23703
  0
LINE
  8
0
 10
-62.3292
 20
6.23703
 11
-62.3149
 21
6.19606
  0
LINE
  8
0
 10
-62.3149
 20
6.19606
 11
-62.2943
 21
6.15523
  0
LINE
  8
0
 10
-62.2943
 20
6.15523
 11
-62.2673
 21
6.11426
  0
LINE
  8
0
 10
-62.2673
 20
6.11426
 11
-62.2335
 21
6.0733
  0
LINE
  8
0
 10
-62.2335
 20
6.0733
 11
-62.2141
 21
6.05281
  0
LINE
  8
0
 10
-62.2141
 20
6.05281
 11
-62.1281
 21
5.97557
  0
LINE
  8
0
 10
-62.1281
 20
5.97557
 11
-62.0134
 21
5.8932
  0
LINE
  8
0
 10
-62.0134
 20
5.8932
 11
-61.9609
 21
5.86177
  0
LINE
  8
0
 10
-61.9609
 20
5.86177
 11
-61.7991
 21
6.03485
  0
LINE
  8
0
 10
-61.7991
 20
6.03485
 11
-61.8955
 21
6.10449
  0
LINE
  8
0
 10
-61.8955
 20
6.10449
 11
-61.9178
 21
6.1277
  0
LINE
  8
0
 10
-61.9178
 20
6.1277
 11
-61.9356
 21
6.15126
  0
LINE
  8
0
 10
-61.9356
 20
6.15126
 11
-61.9487
 21
6.17519
  0
LINE
  8
0
 10
-61.9487
 20
6.17519
 11
-61.9573
 21
6.19946
  0
LINE
  8
0
 10
-61.9573
 20
6.19946
 11
-61.9613
 21
6.22409
  0
LINE
  8
0
 10
-61.9613
 20
6.22409
 11
-61.9608
 21
6.24907
  0
LINE
  8
0
 10
-61.9608
 20
6.24907
 11
-61.9556
 21
6.27441
  0
LINE
  8
0
 10
-61.9556
 20
6.27441
 11
-61.9462
 21
6.30077
  0
LINE
  8
0
 10
-61.9462
 20
6.30077
 11
-61.9333
 21
6.32841
  0
LINE
  8
0
 10
-61.9333
 20
6.32841
 11
-61.9168
 21
6.35732
  0
LINE
  8
0
 10
-61.9168
 20
6.35732
 11
-61.8968
 21
6.38751
  0
LINE
  8
0
 10
-61.8968
 20
6.38751
 11
-61.8462
 21
6.45168
  0
LINE
  8
0
 10
-61.8462
 20
6.45168
 11
-61.1577
 21
7.189
  0
LINE
  8
0
 10
-61.1577
 20
7.189
 11
-61.0917
 21
7.26562
  0
LINE
  8
0
 10
-61.0917
 20
7.26562
 11
-61.0366
 21
7.34274
  0
LINE
  8
0
 10
-61.0366
 20
7.34274
 11
-60.9923
 21
7.42036
  0
LINE
  8
0
 10
-60.9923
 20
7.42036
 11
-60.959
 21
7.4985
  0
LINE
  8
0
 10
-60.959
 20
7.4985
 11
-60.9365
 21
7.57713
  0
LINE
  8
0
 10
-60.9365
 20
7.57713
 11
-60.9249
 21
7.65627
  0
LINE
  8
0
 10
-60.9249
 20
7.65627
 11
-60.9241
 21
7.73592
  0
LINE
  8
0
 10
-60.9241
 20
7.73592
 11
-60.9258
 21
7.74939
  0
LINE
  8
0
 10
-60.9258
 20
7.74939
 11
-49.6927
 21
19.7591
  0
LINE
  8
0
 10
-49.6927
 20
19.7591
 11
-62.8386
 21
32.0549
  0
LINE
  8
0
 10
-62.8386
 20
32.0549
 11
-88.1133
 21
5.03285
  0
LINE
  8
0
 10
-88.1133
 20
5.03285
 11
-74.9674
 21
-7.26291
  0
LINE
  8
0
 10
-74.9674
 20
-7.26291
 11
-62.3311
 21
6.24696
  0
LINE
  8
0
 10
87.1536
 20
4.89177
 11
74.4195
 21
18.2634
  0
LINE
  8
0
 10
74.4195
 20
18.2634
 11
74.4428
 21
18.3012
  0
LINE
  8
0
 10
74.4428
 20
18.3012
 11
74.4727
 21
18.36
  0
LINE
  8
0
 10
74.4727
 20
18.36
 11
74.4967
 21
18.4191
  0
LINE
  8
0
 10
74.4967
 20
18.4191
 11
74.5149
 21
18.4784
  0
LINE
  8
0
 10
74.5149
 20
18.4784
 11
74.5273
 21
18.5387
  0
LINE
  8
0
 10
74.5273
 20
18.5387
 11
74.5342
 21
18.5992
  0
LINE
  8
0
 10
74.5342
 20
18.5992
 11
74.5356
 21
18.6598
  0
LINE
  8
0
 10
74.5356
 20
18.6598
 11
74.5284
 21
18.7514
  0
LINE
  8
0
 10
74.5284
 20
18.7514
 11
74.5134
 21
18.8454
  0
LINE
  8
0
 10
74.5134
 20
18.8454
 11
74.4992
 21
18.9095
  0
LINE
  8
0
 10
74.4992
 20
18.9095
 11
74.5079
 21
18.9178
  0
LINE
  8
0
 10
74.5079
 20
18.9178
 11
74.5761
 21
18.8594
  0
LINE
  8
0
 10
74.5761
 20
18.8594
 11
74.642
 21
18.8125
  0
LINE
  8
0
 10
74.642
 20
18.8125
 11
74.6848
 21
18.7881
  0
LINE
  8
0
 10
74.6848
 20
18.7881
 11
74.7271
 21
18.7695
  0
LINE
  8
0
 10
74.7271
 20
18.7695
 11
74.7691
 21
18.7566
  0
LINE
  8
0
 10
74.7691
 20
18.7566
 11
74.8108
 21
18.7491
  0
LINE
  8
0
 10
74.8108
 20
18.7491
 11
74.8527
 21
18.7481
  0
LINE
  8
0
 10
74.8527
 20
18.7481
 11
74.8945
 21
18.7536
  0
LINE
  8
0
 10
74.8945
 20
18.7536
 11
74.9362
 21
18.7655
  0
LINE
  8
0
 10
74.9362
 20
18.7655
 11
74.9781
 21
18.7837
  0
LINE
  8
0
 10
74.9781
 20
18.7837
 11
75.0206
 21
18.8083
  0
LINE
  8
0
 10
75.0206
 20
18.8083
 11
75.0635
 21
18.8397
  0
LINE
  8
0
 10
75.0635
 20
18.8397
 11
75.085
 21
18.8579
  0
LINE
  8
0
 10
75.085
 20
18.8579
 11
75.1671
 21
18.9393
  0
LINE
  8
0
 10
75.1671
 20
18.9393
 11
75.256
 21
19.049
  0
LINE
  8
0
 10
75.256
 20
19.049
 11
75.2904
 21
19.0996
  0
LINE
  8
0
 10
75.2904
 20
19.0996
 11
75.127
 21
19.2712
  0
LINE
  8
0
 10
75.127
 20
19.2712
 11
75.0518
 21
19.179
  0
LINE
  8
0
 10
75.0518
 20
19.179
 11
75.0274
 21
19.158
  0
LINE
  8
0
 10
75.0274
 20
19.158
 11
75.0028
 21
19.1416
  0
LINE
  8
0
 10
75.0028
 20
19.1416
 11
74.9782
 21
19.1299
  0
LINE
  8
0
 10
74.9782
 20
19.1299
 11
74.9535
 21
19.1227
  0
LINE
  8
0
 10
74.9535
 20
19.1227
 11
74.9286
 21
19.1201
  0
LINE
  8
0
 10
74.9286
 20
19.1201
 11
74.9037
 21
19.1221
  0
LINE
  8
0
 10
74.9037
 20
19.1221
 11
74.8787
 21
19.1287
  0
LINE
  8
0
 10
74.8787
 20
19.1287
 11
74.853
 21
19.1396
  0
LINE
  8
0
 10
74.853
 20
19.1396
 11
74.8261
 21
19.1541
  0
LINE
  8
0
 10
74.8261
 20
19.1541
 11
74.7982
 21
19.1723
  0
LINE
  8
0
 10
74.7982
 20
19.1723
 11
74.7692
 21
19.194
  0
LINE
  8
0
 10
74.7692
 20
19.194
 11
74.7081
 21
19.2482
  0
LINE
  8
0
 10
74.7081
 20
19.2482
 11
74.0118
 21
19.9782
  0
LINE
  8
0
 10
74.0118
 20
19.9782
 11
73.9391
 21
20.0485
  0
LINE
  8
0
 10
73.9391
 20
20.0485
 11
73.8653
 21
20.108
  0
LINE
  8
0
 10
73.8653
 20
20.108
 11
73.7904
 21
20.1566
  0
LINE
  8
0
 10
73.7904
 20
20.1566
 11
73.7143
 21
20.1945
  0
LINE
  8
0
 10
73.7143
 20
20.1945
 11
73.6371
 21
20.2214
  0
LINE
  8
0
 10
73.6371
 20
20.2214
 11
73.5588
 21
20.2376
  0
LINE
  8
0
 10
73.5588
 20
20.2376
 11
73.4793
 21
20.243
  0
LINE
  8
0
 10
73.4793
 20
20.243
 11
73.399
 21
20.2372
  0
LINE
  8
0
 10
73.399
 20
20.2372
 11
73.3183
 21
20.2202
  0
LINE
  8
0
 10
73.3183
 20
20.2202
 11
73.2372
 21
20.1919
  0
LINE
  8
0
 10
73.2372
 20
20.1919
 11
73.1556
 21
20.1523
  0
LINE
  8
0
 10
73.1556
 20
20.1523
 11
73.0735
 21
20.1013
  0
LINE
  8
0
 10
73.0735
 20
20.1013
 11
72.991
 21
20.0391
  0
LINE
  8
0
 10
72.991
 20
20.0391
 11
72.9081
 21
19.9655
  0
LINE
  8
0
 10
72.9081
 20
19.9655
 11
72.8523
 21
19.909
  0
LINE
  8
0
 10
72.8523
 20
19.909
 11
61.6372
 21
31.6856
  0
LINE
  8
0
 10
61.6372
 20
31.6856
 11
48.6023
 21
19.2722
  0
LINE
  8
0
 10
48.6023
 20
19.2722
 11
74.1188
 21
-7.52162
  0
LINE
  8
0
 10
74.1188
 20
-7.52162
 11
87.1536
 21
4.89177
  0
LINE
  8
0
 10
73.0288
 20
19.7237
 11
73.0969
 21
19.791
  0
LINE
  8
0
 10
73.0969
 20
19.791
 11
73.143
 21
19.8283
  0
LINE
  8
0
 10
73.143
 20
19.8283
 11
73.1887
 21
19.8588
  0
LINE
  8
0
 10
73.1887
 20
19.8588
 11
73.2343
 21
19.8826
  0
LINE
  8
0
 10
73.2343
 20
19.8826
 11
73.2795
 21
19.8998
  0
LINE
  8
0
 10
73.2795
 20
19.8998
 11
73.3252
 21
19.9101
  0
LINE
  8
0
 10
73.3252
 20
19.9101
 11
73.3715
 21
19.9135
  0
LINE
  8
0
 10
73.3715
 20
19.9135
 11
73.4182
 21
19.91
  0
LINE
  8
0
 10
73.4182
 20
19.91
 11
73.4655
 21
19.899
  0
LINE
  8
0
 10
73.4655
 20
19.899
 11
73.5139
 21
19.8801
  0
LINE
  8
0
 10
73.5139
 20
19.8801
 11
73.5632
 21
19.8533
  0
LINE
  8
0
 10
73.5632
 20
19.8533
 11
73.614
 21
19.819
  0
LINE
  8
0
 10
73.614
 20
19.819
 11
73.6664
 21
19.7769
  0
LINE
  8
0
 10
73.6664
 20
19.7769
 11
73.7201
 21
19.7268
  0
LINE
  8
0
 10
73.7201
 20
19.7268
 11
73.833
 21
19.6091
  0
LINE
  8
0
 10
73.833
 20
19.6091
 11
73.4749
 21
19.2553
  0
LINE
  8
0
 10
73.4749
 20
19.2553
 11
73.0288
 21
19.7237
  0
LINE
  8
0
 10
73.6555
 20
19.0657
 11
73.7118
 21
19.1264
  0
LINE
  8
0
 10
73.7118
 20
19.1264
 11
74.0096
 21
19.4237
  0
LINE
  8
0
 10
74.0096
 20
19.4237
 11
74.1626
 21
19.2618
  0
LINE
  8
0
 10
74.1626
 20
19.2618
 11
74.2038
 21
19.2088
  0
LINE
  8
0
 10
74.2038
 20
19.2088
 11
74.2413
 21
19.15
  0
LINE
  8
0
 10
74.2413
 20
19.15
 11
74.2751
 21
19.0855
  0
LINE
  8
0
 10
74.2751
 20
19.0855
 11
74.3034
 21
19.0168
  0
LINE
  8
0
 10
74.3034
 20
19.0168
 11
74.3246
 21
18.9456
  0
LINE
  8
0
 10
74.3246
 20
18.9456
 11
74.3388
 21
18.8719
  0
LINE
  8
0
 10
74.3388
 20
18.8719
 11
74.3432
 21
18.8341
  0
LINE
  8
0
 10
74.3432
 20
18.8341
 11
74.3454
 21
18.7962
  0
LINE
  8
0
 10
74.3454
 20
18.7962
 11
74.3452
 21
18.7581
  0
LINE
  8
0
 10
74.3452
 20
18.7581
 11
74.3429
 21
18.7198
  0
LINE
  8
0
 10
74.3429
 20
18.7198
 11
74.3382
 21
18.6815
  0
LINE
  8
0
 10
74.3382
 20
18.6815
 11
74.3312
 21
18.6429
  0
LINE
  8
0
 10
74.3312
 20
18.6429
 11
74.322
 21
18.6042
  0
LINE
  8
0
 10
74.322
 20
18.6042
 11
74.3105
 21
18.5654
  0
LINE
  8
0
 10
74.3105
 20
18.5654
 11
74.2962
 21
18.5273
  0
LINE
  8
0
 10
74.2962
 20
18.5273
 11
74.2788
 21
18.49
  0
LINE
  8
0
 10
74.2788
 20
18.49
 11
74.2502
 21
18.4412
  0
LINE
  8
0
 10
74.2502
 20
18.4412
 11
73.6555
 21
19.0657
  0
LINE
  8
0
 10
77.0867
 20
20.9697
 11
77.1924
 21
20.996
  0
LINE
  8
0
 10
77.1924
 20
20.996
 11
77.2965
 21
21.0374
  0
LINE
  8
0
 10
77.2965
 20
21.0374
 11
77.3992
 21
21.0939
  0
LINE
  8
0
 10
77.3992
 20
21.0939
 11
77.5004
 21
21.1655
  0
LINE
  8
0
 10
77.5004
 20
21.1655
 11
77.6
 21
21.2522
  0
LINE
  8
0
 10
77.6
 20
21.2522
 11
77.6429
 21
21.2944
  0
LINE
  8
0
 10
77.6429
 20
21.2944
 11
77.6824
 21
21.3363
  0
LINE
  8
0
 10
77.6824
 20
21.3363
 11
77.7188
 21
21.3779
  0
LINE
  8
0
 10
77.7188
 20
21.3779
 11
77.7518
 21
21.4192
  0
LINE
  8
0
 10
77.7518
 20
21.4192
 11
77.7816
 21
21.4603
  0
LINE
  8
0
 10
77.7816
 20
21.4603
 11
77.8081
 21
21.501
  0
LINE
  8
0
 10
77.8081
 20
21.501
 11
77.8313
 21
21.5414
  0
LINE
  8
0
 10
77.8313
 20
21.5414
 11
77.8703
 21
21.6211
  0
LINE
  8
0
 10
77.8703
 20
21.6211
 11
77.9001
 21
21.6981
  0
LINE
  8
0
 10
77.9001
 20
21.6981
 11
77.9116
 21
21.7356
  0
LINE
  8
0
 10
77.9116
 20
21.7356
 11
77.9208
 21
21.7724
  0
LINE
  8
0
 10
77.9208
 20
21.7724
 11
77.9325
 21
21.8445
  0
LINE
  8
0
 10
77.9325
 20
21.8445
 11
77.9369
 21
21.9145
  0
LINE
  8
0
 10
77.9369
 20
21.9145
 11
77.9341
 21
21.982
  0
LINE
  8
0
 10
77.9341
 20
21.982
 11
77.9243
 21
22.047
  0
LINE
  8
0
 10
77.9243
 20
22.047
 11
77.9015
 21
22.1396
  0
LINE
  8
0
 10
77.9015
 20
22.1396
 11
77.872
 21
22.2248
  0
LINE
  8
0
 10
77.872
 20
22.2248
 11
77.8607
 21
22.2516
  0
LINE
  8
0
 10
77.8607
 20
22.2516
 11
77.5627
 21
22.1004
  0
LINE
  8
0
 10
77.5627
 20
22.1004
 11
77.5834
 21
22.0558
  0
LINE
  8
0
 10
77.5834
 20
22.0558
 11
77.5997
 21
22.0104
  0
LINE
  8
0
 10
77.5997
 20
22.0104
 11
77.6117
 21
21.9641
  0
LINE
  8
0
 10
77.6117
 20
21.9641
 11
77.6195
 21
21.917
  0
LINE
  8
0
 10
77.6195
 20
21.917
 11
77.6229
 21
21.8691
  0
LINE
  8
0
 10
77.6229
 20
21.8691
 11
77.6221
 21
21.8204
  0
LINE
  8
0
 10
77.6221
 20
21.8204
 11
77.6169
 21
21.7709
  0
LINE
  8
0
 10
77.6169
 20
21.7709
 11
77.6066
 21
21.7215
  0
LINE
  8
0
 10
77.6066
 20
21.7215
 11
77.5905
 21
21.6727
  0
LINE
  8
0
 10
77.5905
 20
21.6727
 11
77.5687
 21
21.6245
  0
LINE
  8
0
 10
77.5687
 20
21.6245
 11
77.5412
 21
21.577
  0
LINE
  8
0
 10
77.5412
 20
21.577
 11
77.5079
 21
21.5301
  0
LINE
  8
0
 10
77.5079
 20
21.5301
 11
77.4689
 21
21.4838
  0
LINE
  8
0
 10
77.4689
 20
21.4838
 11
77.4242
 21
21.4382
  0
LINE
  8
0
 10
77.4242
 20
21.4382
 11
77.3913
 21
21.4086
  0
LINE
  8
0
 10
77.3913
 20
21.4086
 11
77.3581
 21
21.3821
  0
LINE
  8
0
 10
77.3581
 20
21.3821
 11
77.3245
 21
21.3587
  0
LINE
  8
0
 10
77.3245
 20
21.3587
 11
77.2906
 21
21.3385
  0
LINE
  8
0
 10
77.2906
 20
21.3385
 11
77.2563
 21
21.3213
  0
LINE
  8
0
 10
77.2563
 20
21.3213
 11
77.2216
 21
21.3072
  0
LINE
  8
0
 10
77.2216
 20
21.3072
 11
77.1866
 21
21.2962
  0
LINE
  8
0
 10
77.1866
 20
21.2962
 11
77.1513
 21
21.288
  0
LINE
  8
0
 10
77.1513
 20
21.288
 11
77.1158
 21
21.2824
  0
LINE
  8
0
 10
77.1158
 20
21.2824
 11
77.0801
 21
21.2794
  0
LINE
  8
0
 10
77.0801
 20
21.2794
 11
77.0443
 21
21.279
  0
LINE
  8
0
 10
77.0443
 20
21.279
 11
77.0082
 21
21.2811
  0
LINE
  8
0
 10
77.0082
 20
21.2811
 11
76.9719
 21
21.2858
  0
LINE
  8
0
 10
76.9719
 20
21.2858
 11
76.9354
 21
21.2931
  0
LINE
  8
0
 10
76.9354
 20
21.2931
 11
76.8986
 21
21.303
  0
LINE
  8
0
 10
76.8986
 20
21.303
 11
76.8617
 21
21.3152
  0
LINE
  8
0
 10
76.8617
 20
21.3152
 11
76.8247
 21
21.3297
  0
LINE
  8
0
 10
76.8247
 20
21.3297
 11
76.7877
 21
21.3465
  0
LINE
  8
0
 10
76.7877
 20
21.3465
 11
76.7132
 21
21.3869
  0
LINE
  8
0
 10
76.7132
 20
21.3869
 11
76.6759
 21
21.4105
  0
LINE
  8
0
 10
76.6759
 20
21.4105
 11
76.6016
 21
21.4644
  0
LINE
  8
0
 10
76.6016
 20
21.4644
 11
76.5281
 21
21.5255
  0
LINE
  8
0
 10
76.5281
 20
21.5255
 11
76.4555
 21
21.5936
  0
LINE
  8
0
 10
76.4555
 20
21.5936
 11
76.4196
 21
21.6304
  0
LINE
  8
0
 10
76.4196
 20
21.6304
 11
77.5319
 21
22.6897
  0
LINE
  8
0
 10
77.5319
 20
22.6897
 11
77.4492
 21
22.7751
  0
LINE
  8
0
 10
77.4492
 20
22.7751
 11
77.3501
 21
22.868
  0
LINE
  8
0
 10
77.3501
 20
22.868
 11
77.2999
 21
22.9109
  0
LINE
  8
0
 10
77.2999
 20
22.9109
 11
77.2493
 21
22.9516
  0
LINE
  8
0
 10
77.2493
 20
22.9516
 11
77.1983
 21
22.9899
  0
LINE
  8
0
 10
77.1983
 20
22.9899
 11
77.1468
 21
23.0258
  0
LINE
  8
0
 10
77.1468
 20
23.0258
 11
77.0948
 21
23.0591
  0
LINE
  8
0
 10
77.0948
 20
23.0591
 11
77.0424
 21
23.0889
  0
LINE
  8
0
 10
77.0424
 20
23.0889
 11
76.9898
 21
23.1152
  0
LINE
  8
0
 10
76.9898
 20
23.1152
 11
76.9369
 21
23.138
  0
LINE
  8
0
 10
76.9369
 20
23.138
 11
76.8837
 21
23.1573
  0
LINE
  8
0
 10
76.8837
 20
23.1573
 11
76.8303
 21
23.1732
  0
LINE
  8
0
 10
76.8303
 20
23.1732
 11
76.7765
 21
23.1855
  0
LINE
  8
0
 10
76.7765
 20
23.1855
 11
76.7225
 21
23.1941
  0
LINE
  8
0
 10
76.7225
 20
23.1941
 11
76.6683
 21
23.1987
  0
LINE
  8
0
 10
76.6683
 20
23.1987
 11
76.6139
 21
23.1992
  0
LINE
  8
0
 10
76.6139
 20
23.1992
 11
76.5592
 21
23.1957
  0
LINE
  8
0
 10
76.5592
 20
23.1957
 11
76.5043
 21
23.1881
  0
LINE
  8
0
 10
76.5043
 20
23.1881
 11
76.4493
 21
23.1765
  0
LINE
  8
0
 10
76.4493
 20
23.1765
 11
76.394
 21
23.1609
  0
LINE
  8
0
 10
76.394
 20
23.1609
 11
76.3385
 21
23.1411
  0
LINE
  8
0
 10
76.3385
 20
23.1411
 11
76.2829
 21
23.1161
  0
LINE
  8
0
 10
76.2829
 20
23.1161
 11
76.2272
 21
23.0858
  0
LINE
  8
0
 10
76.2272
 20
23.0858
 11
76.1714
 21
23.0504
  0
LINE
  8
0
 10
76.1714
 20
23.0504
 11
76.1154
 21
23.0098
  0
LINE
  8
0
 10
76.1154
 20
23.0098
 11
76.0593
 21
22.964
  0
LINE
  8
0
 10
76.0593
 20
22.964
 11
76.0031
 21
22.913
  0
LINE
  8
0
 10
76.0031
 20
22.913
 11
75.963
 21
22.873
  0
LINE
  8
0
 10
75.963
 20
22.873
 11
75.9252
 21
22.8319
  0
LINE
  8
0
 10
75.9252
 20
22.8319
 11
75.8899
 21
22.7897
  0
LINE
  8
0
 10
75.8899
 20
22.7897
 11
75.857
 21
22.7464
  0
LINE
  8
0
 10
75.857
 20
22.7464
 11
75.8266
 21
22.7019
  0
LINE
  8
0
 10
75.8266
 20
22.7019
 11
75.7985
 21
22.6563
  0
LINE
  8
0
 10
75.7985
 20
22.6563
 11
75.7729
 21
22.6095
  0
LINE
  8
0
 10
75.7729
 20
22.6095
 11
75.7502
 21
22.5621
  0
LINE
  8
0
 10
75.7502
 20
22.5621
 11
75.731
 21
22.5137
  0
LINE
  8
0
 10
75.731
 20
22.5137
 11
75.7151
 21
22.4642
  0
LINE
  8
0
 10
75.7151
 20
22.4642
 11
75.7027
 21
22.4137
  0
LINE
  8
0
 10
75.7027
 20
22.4137
 11
75.6936
 21
22.3621
  0
LINE
  8
0
 10
75.6936
 20
22.3621
 11
75.688
 21
22.3095
  0
LINE
  8
0
 10
75.688
 20
22.3095
 11
75.6858
 21
22.2559
  0
LINE
  8
0
 10
75.6858
 20
22.2559
 11
75.687
 21
22.2015
  0
LINE
  8
0
 10
75.687
 20
22.2015
 11
75.6923
 21
22.1463
  0
LINE
  8
0
 10
75.6923
 20
22.1463
 11
75.7015
 21
22.0903
  0
LINE
  8
0
 10
75.7015
 20
22.0903
 11
75.7146
 21
22.0333
  0
LINE
  8
0
 10
75.7146
 20
22.0333
 11
75.7318
 21
21.9756
  0
LINE
  8
0
 10
75.7318
 20
21.9756
 11
75.7529
 21
21.917
  0
LINE
  8
0
 10
75.7529
 20
21.917
 11
75.7779
 21
21.8575
  0
LINE
  8
0
 10
75.7779
 20
21.8575
 11
75.8072
 21
21.7975
  0
LINE
  8
0
 10
75.8072
 20
21.7975
 11
75.8415
 21
21.7368
  0
LINE
  8
0
 10
75.8415
 20
21.7368
 11
75.8808
 21
21.6753
  0
LINE
  8
0
 10
75.8808
 20
21.6753
 11
75.925
 21
21.6131
  0
LINE
  8
0
 10
75.925
 20
21.6131
 11
75.9743
 21
21.5501
  0
LINE
  8
0
 10
75.9743
 20
21.5501
 11
76.0285
 21
21.4864
  0
LINE
  8
0
 10
76.0285
 20
21.4864
 11
76.0877
 21
21.422
  0
LINE
  8
0
 10
76.0877
 20
21.422
 11
76.2014
 21
21.31
  0
LINE
  8
0
 10
76.2014
 20
21.31
 11
76.3146
 21
21.2134
  0
LINE
  8
0
 10
76.3146
 20
21.2134
 11
76.4271
 21
21.1322
  0
LINE
  8
0
 10
76.4271
 20
21.1322
 11
76.539
 21
21.0665
  0
LINE
  8
0
 10
76.539
 20
21.0665
 11
76.6502
 21
21.0163
  0
LINE
  8
0
 10
76.6502
 20
21.0163
 11
76.7608
 21
20.9816
  0
LINE
  8
0
 10
76.7608
 20
20.9816
 11
76.8708
 21
20.9622
  0
LINE
  8
0
 10
76.8708
 20
20.9622
 11
76.9795
 21
20.9584
  0
LINE
  8
0
 10
76.9795
 20
20.9584
 11
77.0867
 21
20.9697
  0
LINE
  8
0
 10
76.2079
 20
21.8631
 11
76.1735
 21
21.907
  0
LINE
  8
0
 10
76.1735
 20
21.907
 11
76.1426
 21
21.95
  0
LINE
  8
0
 10
76.1426
 20
21.95
 11
76.1152
 21
21.9922
  0
LINE
  8
0
 10
76.1152
 20
21.9922
 11
76.0914
 21
22.0336
  0
LINE
  8
0
 10
76.0914
 20
22.0336
 11
76.0711
 21
22.0741
  0
LINE
  8
0
 10
76.0711
 20
22.0741
 11
76.0544
 21
22.1139
  0
LINE
  8
0
 10
76.0544
 20
22.1139
 11
76.0287
 21
22.191
  0
LINE
  8
0
 10
76.0287
 20
22.191
 11
76.0194
 21
22.2281
  0
LINE
  8
0
 10
76.0194
 20
22.2281
 11
76.0125
 21
22.2641
  0
LINE
  8
0
 10
76.0125
 20
22.2641
 11
76.008
 21
22.2992
  0
LINE
  8
0
 10
76.008
 20
22.2992
 11
76.0058
 21
22.3332
  0
LINE
  8
0
 10
76.0058
 20
22.3332
 11
76.0061
 21
22.3662
  0
LINE
  8
0
 10
76.0061
 20
22.3662
 11
76.0125
 21
22.4299
  0
LINE
  8
0
 10
76.0125
 20
22.4299
 11
76.026
 21
22.4894
  0
LINE
  8
0
 10
76.026
 20
22.4894
 11
76.0355
 21
22.5175
  0
LINE
  8
0
 10
76.0355
 20
22.5175
 11
76.0468
 21
22.5446
  0
LINE
  8
0
 10
76.0468
 20
22.5446
 11
76.0743
 21
22.5958
  0
LINE
  8
0
 10
76.0743
 20
22.5958
 11
76.1049
 21
22.6425
  0
LINE
  8
0
 10
76.1049
 20
22.6425
 11
76.1379
 21
22.6843
  0
LINE
  8
0
 10
76.1379
 20
22.6843
 11
76.1732
 21
22.7214
  0
LINE
  8
0
 10
76.1732
 20
22.7214
 11
76.2285
 21
22.7694
  0
LINE
  8
0
 10
76.2285
 20
22.7694
 11
76.2851
 21
22.8089
  0
LINE
  8
0
 10
76.2851
 20
22.8089
 11
76.3427
 21
22.84
  0
LINE
  8
0
 10
76.3427
 20
22.84
 11
76.4015
 21
22.8626
  0
LINE
  8
0
 10
76.4015
 20
22.8626
 11
76.4613
 21
22.8768
  0
LINE
  8
0
 10
76.4613
 20
22.8768
 11
76.5223
 21
22.8825
  0
LINE
  8
0
 10
76.5223
 20
22.8825
 11
76.5845
 21
22.8797
  0
LINE
  8
0
 10
76.5845
 20
22.8797
 11
76.6481
 21
22.8684
  0
LINE
  8
0
 10
76.6481
 20
22.8684
 11
76.7139
 21
22.848
  0
LINE
  8
0
 10
76.7139
 20
22.848
 11
76.7821
 21
22.8186
  0
LINE
  8
0
 10
76.7821
 20
22.8186
 11
76.8525
 21
22.7801
  0
LINE
  8
0
 10
76.8525
 20
22.7801
 11
76.9251
 21
22.7325
  0
LINE
  8
0
 10
76.9251
 20
22.7325
 11
77.0001
 21
22.6759
  0
LINE
  8
0
 10
77.0001
 20
22.6759
 11
77.0772
 21
22.6102
  0
LINE
  8
0
 10
77.0772
 20
22.6102
 11
76.2459
 21
21.8185
  0
LINE
  8
0
 10
76.2459
 20
21.8185
 11
76.2079
 21
21.8631
  0
LINE
  8
0
 10
75.5635
 20
19.5563
 11
75.618
 21
19.5638
  0
LINE
  8
0
 10
75.618
 20
19.5638
 11
75.6726
 21
19.5751
  0
LINE
  8
0
 10
75.6726
 20
19.5751
 11
75.7273
 21
19.5902
  0
LINE
  8
0
 10
75.7273
 20
19.5902
 11
75.782
 21
19.6101
  0
LINE
  8
0
 10
75.782
 20
19.6101
 11
75.8365
 21
19.6347
  0
LINE
  8
0
 10
75.8365
 20
19.6347
 11
75.8908
 21
19.6641
  0
LINE
  8
0
 10
75.8908
 20
19.6641
 11
75.9449
 21
19.6982
  0
LINE
  8
0
 10
75.9449
 20
19.6982
 11
75.9987
 21
19.7371
  0
LINE
  8
0
 10
75.9987
 20
19.7371
 11
76.0524
 21
19.7808
  0
LINE
  8
0
 10
76.0524
 20
19.7808
 11
76.1059
 21
19.8293
  0
LINE
  8
0
 10
76.1059
 20
19.8293
 11
76.1452
 21
19.8683
  0
LINE
  8
0
 10
76.1452
 20
19.8683
 11
76.1814
 21
19.9076
  0
LINE
  8
0
 10
76.1814
 20
19.9076
 11
76.2147
 21
19.9473
  0
LINE
  8
0
 10
76.2147
 20
19.9473
 11
76.245
 21
19.9874
  0
LINE
  8
0
 10
76.245
 20
19.9874
 11
76.2723
 21
20.0279
  0
LINE
  8
0
 10
76.2723
 20
20.0279
 11
76.2966
 21
20.0687
  0
LINE
  8
0
 10
76.2966
 20
20.0687
 11
76.3179
 21
20.1098
  0
LINE
  8
0
 10
76.3179
 20
20.1098
 11
76.3367
 21
20.1509
  0
LINE
  8
0
 10
76.3367
 20
20.1509
 11
76.3531
 21
20.1917
  0
LINE
  8
0
 10
76.3531
 20
20.1917
 11
76.3671
 21
20.2324
  0
LINE
  8
0
 10
76.3671
 20
20.2324
 11
76.3787
 21
20.2728
  0
LINE
  8
0
 10
76.3787
 20
20.2728
 11
76.3879
 21
20.313
  0
LINE
  8
0
 10
76.3879
 20
20.313
 11
76.3947
 21
20.3531
  0
LINE
  8
0
 10
76.3947
 20
20.3531
 11
76.3991
 21
20.3929
  0
LINE
  8
0
 10
76.3991
 20
20.3929
 11
76.4012
 21
20.4328
  0
LINE
  8
0
 10
76.4012
 20
20.4328
 11
76.4012
 21
20.4724
  0
LINE
  8
0
 10
76.4012
 20
20.4724
 11
76.3991
 21
20.5116
  0
LINE
  8
0
 10
76.3991
 20
20.5116
 11
76.3949
 21
20.5504
  0
LINE
  8
0
 10
76.3949
 20
20.5504
 11
76.3886
 21
20.5888
  0
LINE
  8
0
 10
76.3886
 20
20.5888
 11
76.3802
 21
20.6269
  0
LINE
  8
0
 10
76.3802
 20
20.6269
 11
76.3696
 21
20.6645
  0
LINE
  8
0
 10
76.3696
 20
20.6645
 11
76.3429
 21
20.738
  0
LINE
  8
0
 10
76.3429
 20
20.738
 11
76.3102
 21
20.8077
  0
LINE
  8
0
 10
76.3102
 20
20.8077
 11
76.2713
 21
20.8736
  0
LINE
  8
0
 10
76.2713
 20
20.8736
 11
76.2496
 21
20.9051
  0
LINE
  8
0
 10
76.2496
 20
20.9051
 11
75.955
 21
20.6577
  0
LINE
  8
0
 10
75.955
 20
20.6577
 11
75.9906
 21
20.6049
  0
LINE
  8
0
 10
75.9906
 20
20.6049
 11
76.0199
 21
20.5529
  0
LINE
  8
0
 10
76.0199
 20
20.5529
 11
76.043
 21
20.5016
  0
LINE
  8
0
 10
76.043
 20
20.5016
 11
76.0598
 21
20.4509
  0
LINE
  8
0
 10
76.0598
 20
20.4509
 11
76.0704
 21
20.401
  0
LINE
  8
0
 10
76.0704
 20
20.401
 11
76.0748
 21
20.3518
  0
LINE
  8
0
 10
76.0748
 20
20.3518
 11
76.0729
 21
20.3033
  0
LINE
  8
0
 10
76.0729
 20
20.3033
 11
76.0656
 21
20.256
  0
LINE
  8
0
 10
76.0656
 20
20.256
 11
76.0533
 21
20.2102
  0
LINE
  8
0
 10
76.0533
 20
20.2102
 11
76.036
 21
20.1658
  0
LINE
  8
0
 10
76.036
 20
20.1658
 11
76.0138
 21
20.1229
  0
LINE
  8
0
 10
76.0138
 20
20.1229
 11
75.9865
 21
20.0815
  0
LINE
  8
0
 10
75.9865
 20
20.0815
 11
75.9543
 21
20.0415
  0
LINE
  8
0
 10
75.9543
 20
20.0415
 11
75.917
 21
20.0029
  0
LINE
  8
0
 10
75.917
 20
20.0029
 11
75.885
 21
19.9742
  0
LINE
  8
0
 10
75.885
 20
19.9742
 11
75.8525
 21
19.9489
  0
LINE
  8
0
 10
75.8525
 20
19.9489
 11
75.8196
 21
19.9269
  0
LINE
  8
0
 10
75.8196
 20
19.9269
 11
75.7863
 21
19.9082
  0
LINE
  8
0
 10
75.7863
 20
19.9082
 11
75.7526
 21
19.8928
  0
LINE
  8
0
 10
75.7526
 20
19.8928
 11
75.7185
 21
19.8808
  0
LINE
  8
0
 10
75.7185
 20
19.8808
 11
75.684
 21
19.8721
  0
LINE
  8
0
 10
75.684
 20
19.8721
 11
75.6493
 21
19.8666
  0
LINE
  8
0
 10
75.6493
 20
19.8666
 11
75.6142
 21
19.8639
  0
LINE
  8
0
 10
75.6142
 20
19.8639
 11
75.5788
 21
19.864
  0
LINE
  8
0
 10
75.5788
 20
19.864
 11
75.543
 21
19.8668
  0
LINE
  8
0
 10
75.543
 20
19.8668
 11
75.5068
 21
19.8723
  0
LINE
  8
0
 10
75.5068
 20
19.8723
 11
75.4702
 21
19.8806
  0
LINE
  8
0
 10
75.4702
 20
19.8806
 11
75.4333
 21
19.8916
  0
LINE
  8
0
 10
75.4333
 20
19.8916
 11
75.3962
 21
19.9053
  0
LINE
  8
0
 10
75.3962
 20
19.9053
 11
75.3588
 21
19.9212
  0
LINE
  8
0
 10
75.3588
 20
19.9212
 11
75.3213
 21
19.9396
  0
LINE
  8
0
 10
75.3213
 20
19.9396
 11
75.2458
 21
19.9834
  0
LINE
  8
0
 10
75.2458
 20
19.9834
 11
75.1695
 21
20.0367
  0
LINE
  8
0
 10
75.1695
 20
20.0367
 11
75.0923
 21
20.0986
  0
LINE
  8
0
 10
75.0923
 20
20.0986
 11
75.0147
 21
20.1673
  0
LINE
  8
0
 10
75.0147
 20
20.1673
 11
74.9367
 21
20.2428
  0
LINE
  8
0
 10
74.9367
 20
20.2428
 11
74.8546
 21
20.329
  0
LINE
  8
0
 10
74.8546
 20
20.329
 11
74.7761
 21
20.4179
  0
LINE
  8
0
 10
74.7761
 20
20.4179
 11
74.7073
 21
20.5029
  0
LINE
  8
0
 10
74.7073
 20
20.5029
 11
74.6482
 21
20.5842
  0
LINE
  8
0
 10
74.6482
 20
20.5842
 11
74.5993
 21
20.663
  0
LINE
  8
0
 10
74.5993
 20
20.663
 11
74.579
 21
20.7015
  0
LINE
  8
0
 10
74.579
 20
20.7015
 11
74.5613
 21
20.7393
  0
LINE
  8
0
 10
74.5613
 20
20.7393
 11
74.5463
 21
20.7765
  0
LINE
  8
0
 10
74.5463
 20
20.7765
 11
74.5341
 21
20.813
  0
LINE
  8
0
 10
74.5341
 20
20.813
 11
74.5245
 21
20.8489
  0
LINE
  8
0
 10
74.5245
 20
20.8489
 11
74.5176
 21
20.8842
  0
LINE
  8
0
 10
74.5176
 20
20.8842
 11
74.5135
 21
20.9189
  0
LINE
  8
0
 10
74.5135
 20
20.9189
 11
74.5121
 21
20.9531
  0
LINE
  8
0
 10
74.5121
 20
20.9531
 11
74.5134
 21
20.9867
  0
LINE
  8
0
 10
74.5134
 20
20.9867
 11
74.5175
 21
21.0198
  0
LINE
  8
0
 10
74.5175
 20
21.0198
 11
74.5243
 21
21.0523
  0
LINE
  8
0
 10
74.5243
 20
21.0523
 11
74.5338
 21
21.0842
  0
LINE
  8
0
 10
74.5338
 20
21.0842
 11
74.5462
 21
21.1162
  0
LINE
  8
0
 10
74.5462
 20
21.1162
 11
74.5617
 21
21.148
  0
LINE
  8
0
 10
74.5617
 20
21.148
 11
74.5803
 21
21.1797
  0
LINE
  8
0
 10
74.5803
 20
21.1797
 11
74.602
 21
21.2112
  0
LINE
  8
0
 10
74.602
 20
21.2112
 11
74.6268
 21
21.2425
  0
LINE
  8
0
 10
74.6268
 20
21.2425
 11
74.6546
 21
21.2737
  0
LINE
  8
0
 10
74.6546
 20
21.2737
 11
74.6856
 21
21.3047
  0
LINE
  8
0
 10
74.6856
 20
21.3047
 11
74.7299
 21
21.3436
  0
LINE
  8
0
 10
74.7299
 20
21.3436
 11
74.7748
 21
21.3761
  0
LINE
  8
0
 10
74.7748
 20
21.3761
 11
74.8202
 21
21.4023
  0
LINE
  8
0
 10
74.8202
 20
21.4023
 11
74.8661
 21
21.4222
  0
LINE
  8
0
 10
74.8661
 20
21.4222
 11
74.9127
 21
21.4357
  0
LINE
  8
0
 10
74.9127
 20
21.4357
 11
74.9597
 21
21.443
  0
LINE
  8
0
 10
74.9597
 20
21.443
 11
75.0073
 21
21.444
  0
LINE
  8
0
 10
75.0073
 20
21.444
 11
75.055
 21
21.4393
  0
LINE
  8
0
 10
75.055
 20
21.4393
 11
75.1025
 21
21.4297
  0
LINE
  8
0
 10
75.1025
 20
21.4297
 11
75.1498
 21
21.415
  0
LINE
  8
0
 10
75.1498
 20
21.415
 11
75.197
 21
21.3954
  0
LINE
  8
0
 10
75.197
 20
21.3954
 11
75.2439
 21
21.3708
  0
LINE
  8
0
 10
75.2439
 20
21.3708
 11
75.2906
 21
21.3411
  0
LINE
  8
0
 10
75.2906
 20
21.3411
 11
75.3371
 21
21.3065
  0
LINE
  8
0
 10
75.3371
 20
21.3065
 11
75.5951
 21
21.5923
  0
LINE
  8
0
 10
75.5951
 20
21.5923
 11
75.5268
 21
21.6372
  0
LINE
  8
0
 10
75.5268
 20
21.6372
 11
75.4561
 21
21.6755
  0
LINE
  8
0
 10
75.4561
 20
21.6755
 11
75.3831
 21
21.7073
  0
LINE
  8
0
 10
75.3831
 20
21.7073
 11
75.3077
 21
21.7326
  0
LINE
  8
0
 10
75.3077
 20
21.7326
 11
75.2694
 21
21.7422
  0
LINE
  8
0
 10
75.2694
 20
21.7422
 11
75.2308
 21
21.7498
  0
LINE
  8
0
 10
75.2308
 20
21.7498
 11
75.192
 21
21.7552
  0
LINE
  8
0
 10
75.192
 20
21.7552
 11
75.1528
 21
21.7584
  0
LINE
  8
0
 10
75.1528
 20
21.7584
 11
75.1134
 21
21.7596
  0
LINE
  8
0
 10
75.1134
 20
21.7596
 11
75.0736
 21
21.7586
  0
LINE
  8
0
 10
75.0736
 20
21.7586
 11
75.034
 21
21.7555
  0
LINE
  8
0
 10
75.034
 20
21.7555
 11
74.9942
 21
21.7503
  0
LINE
  8
0
 10
74.9942
 20
21.7503
 11
74.9543
 21
21.7427
  0
LINE
  8
0
 10
74.9543
 20
21.7427
 11
74.9144
 21
21.7329
  0
LINE
  8
0
 10
74.9144
 20
21.7329
 11
74.8743
 21
21.7208
  0
LINE
  8
0
 10
74.8743
 20
21.7208
 11
74.8342
 21
21.7064
  0
LINE
  8
0
 10
74.8342
 20
21.7064
 11
74.794
 21
21.6897
  0
LINE
  8
0
 10
74.794
 20
21.6897
 11
74.7539
 21
21.6705
  0
LINE
  8
0
 10
74.7539
 20
21.6705
 11
74.714
 21
21.6487
  0
LINE
  8
0
 10
74.714
 20
21.6487
 11
74.6744
 21
21.6241
  0
LINE
  8
0
 10
74.6744
 20
21.6241
 11
74.635
 21
21.5969
  0
LINE
  8
0
 10
74.635
 20
21.5969
 11
74.5959
 21
21.567
  0
LINE
  8
0
 10
74.5959
 20
21.567
 11
74.557
 21
21.5344
  0
LINE
  8
0
 10
74.557
 20
21.5344
 11
74.4944
 21
21.4755
  0
LINE
  8
0
 10
74.4944
 20
21.4755
 11
74.4264
 21
21.4006
  0
LINE
  8
0
 10
74.4264
 20
21.4006
 11
74.3648
 21
21.3196
  0
LINE
  8
0
 10
74.3648
 20
21.3196
 11
74.3282
 21
21.2632
  0
LINE
  8
0
 10
74.3282
 20
21.2632
 11
74.2961
 21
21.2043
  0
LINE
  8
0
 10
74.2961
 20
21.2043
 11
74.2685
 21
21.1431
  0
LINE
  8
0
 10
74.2685
 20
21.1431
 11
74.2457
 21
21.0798
  0
LINE
  8
0
 10
74.2457
 20
21.0798
 11
74.2285
 21
21.0144
  0
LINE
  8
0
 10
74.2285
 20
21.0144
 11
74.2169
 21
20.9466
  0
LINE
  8
0
 10
74.2169
 20
20.9466
 11
74.2111
 21
20.8764
  0
LINE
  8
0
 10
74.2111
 20
20.8764
 11
74.2119
 21
20.8038
  0
LINE
  8
0
 10
74.2119
 20
20.8038
 11
74.2203
 21
20.7289
  0
LINE
  8
0
 10
74.2203
 20
20.7289
 11
74.2363
 21
20.6518
  0
LINE
  8
0
 10
74.2363
 20
20.6518
 11
74.2597
 21
20.5726
  0
LINE
  8
0
 10
74.2597
 20
20.5726
 11
74.2912
 21
20.4917
  0
LINE
  8
0
 10
74.2912
 20
20.4917
 11
74.3311
 21
20.4089
  0
LINE
  8
0
 10
74.3311
 20
20.4089
 11
74.3794
 21
20.3241
  0
LINE
  8
0
 10
74.3794
 20
20.3241
 11
74.4366
 21
20.2377
  0
LINE
  8
0
 10
74.4366
 20
20.2377
 11
74.5042
 21
20.1492
  0
LINE
  8
0
 10
74.5042
 20
20.1492
 11
74.5822
 21
20.0586
  0
LINE
  8
0
 10
74.5822
 20
20.0586
 11
74.6737
 21
19.9628
  0
LINE
  8
0
 10
74.6737
 20
19.9628
 11
74.7229
 21
19.9156
  0
LINE
  8
0
 10
74.7229
 20
19.9156
 11
74.7726
 21
19.8708
  0
LINE
  8
0
 10
74.7726
 20
19.8708
 11
74.8228
 21
19.8285
  0
LINE
  8
0
 10
74.8228
 20
19.8285
 11
74.8735
 21
19.7886
  0
LINE
  8
0
 10
74.8735
 20
19.7886
 11
74.9247
 21
19.7511
  0
LINE
  8
0
 10
74.9247
 20
19.7511
 11
74.9764
 21
19.7161
  0
LINE
  8
0
 10
74.9764
 20
19.7161
 11
75.0285
 21
19.6844
  0
LINE
  8
0
 10
75.0285
 20
19.6844
 11
75.0808
 21
19.656
  0
LINE
  8
0
 10
75.0808
 20
19.656
 11
75.1335
 21
19.631
  0
LINE
  8
0
 10
75.1335
 20
19.631
 11
75.1864
 21
19.6094
  0
LINE
  8
0
 10
75.1864
 20
19.6094
 11
75.2396
 21
19.5912
  0
LINE
  8
0
 10
75.2396
 20
19.5912
 11
75.2931
 21
19.5763
  0
LINE
  8
0
 10
75.2931
 20
19.5763
 11
75.3469
 21
19.5648
  0
LINE
  8
0
 10
75.3469
 20
19.5648
 11
75.4008
 21
19.557
  0
LINE
  8
0
 10
75.4008
 20
19.557
 11
75.4549
 21
19.5529
  0
LINE
  8
0
 10
75.4549
 20
19.5529
 11
75.5092
 21
19.5527
  0
LINE
  8
0
 10
75.5092
 20
19.5527
 11
75.5635
 21
19.5563
  0
LINE
  8
0
 10
-25.5925
 20
4.17284
 11
-35.8568
 21
18.9595
  0
LINE
  8
0
 10
-35.8568
 20
18.9595
 11
-50.6434
 21
8.69516
  0
LINE
  8
0
 10
-50.6434
 20
8.69516
 11
-40.3792
 21
-6.09145
  0
LINE
  8
0
 10
-40.3792
 20
-6.09145
 11
-25.5925
 21
4.17284
  0
LINE
  8
0
 10
49.661
 20
8.23114
 11
34.7928
 21
18.377
  0
LINE
  8
0
 10
34.7928
 20
18.377
 11
24.647
 21
3.50885
  0
LINE
  8
0
 10
24.647
 20
3.50885
 11
39.5151
 21
-6.63699
  0
LINE
  8
0
 10
39.5151
 20
-6.63699
 11
49.661
 21
8.23114
  0
LINE
  8
0
 10
-41.4059
 20
-6.80408
 11
-51.6702
 21
7.98253
  0
LINE
  8
0
 10
-51.6702
 20
7.98253
 11
-73.8501
 21
-7.41391
  0
LINE
  8
0
 10
-73.8501
 20
-7.41391
 11
-63.5858
 21
-22.2005
  0
LINE
  8
0
 10
-63.5858
 20
-22.2005
 11
-41.4059
 21
-6.80408
  0
LINE
  8
0
 10
72.996
 20
-7.69131
 11
50.6938
 21
7.52745
  0
LINE
  8
0
 10
50.6938
 20
7.52745
 11
40.548
 21
-7.34067
  0
LINE
  8
0
 10
40.548
 20
-7.34067
 11
62.8502
 21
-22.5594
  0
LINE
  8
0
 10
62.8502
 20
-22.5594
 11
72.996
 21
-7.69131
  0
LINE
  8
0
 10
-60.5657
 20
4.82986
 11
-60.5262
 21
4.83212
  0
LINE
  8
0
 10
-60.5262
 20
4.83212
 11
-60.4872
 21
4.83647
  0
LINE
  8
0
 10
-60.4872
 20
4.83647
 11
-60.4487
 21
4.84291
  0
LINE
  8
0
 10
-60.4487
 20
4.84291
 11
-60.4107
 21
4.85144
  0
LINE
  8
0
 10
-60.4107
 20
4.85144
 11
-60.3732
 21
4.86206
  0
LINE
  8
0
 10
-60.3732
 20
4.86206
 11
-60.3362
 21
4.87477
  0
LINE
  8
0
 10
-60.3362
 20
4.87477
 11
-60.2645
 21
4.90565
  0
LINE
  8
0
 10
-60.2645
 20
4.90565
 11
-60.1968
 21
4.94238
  0
LINE
  8
0
 10
-60.1968
 20
4.94238
 11
-60.1332
 21
4.985
  0
LINE
  8
0
 10
-60.1332
 20
4.985
 11
-60.103
 21
5.0085
  0
LINE
  8
0
 10
-60.103
 20
5.0085
 11
-60.3671
 21
5.28835
  0
LINE
  8
0
 10
-60.3671
 20
5.28835
 11
-60.4176
 21
5.24976
  0
LINE
  8
0
 10
-60.4176
 20
5.24976
 11
-60.4679
 21
5.21745
  0
LINE
  8
0
 10
-60.4679
 20
5.21745
 11
-60.5178
 21
5.19142
  0
LINE
  8
0
 10
-60.5178
 20
5.19142
 11
-60.5674
 21
5.17168
  0
LINE
  8
0
 10
-60.5674
 20
5.17168
 11
-60.6166
 21
5.15822
  0
LINE
  8
0
 10
-60.6166
 20
5.15822
 11
-60.6655
 21
5.15102
  0
LINE
  8
0
 10
-60.6655
 20
5.15102
 11
-60.7141
 21
5.1501
  0
LINE
  8
0
 10
-60.7141
 20
5.1501
 11
-60.7616
 21
5.15466
  0
LINE
  8
0
 10
-60.7616
 20
5.15466
 11
-60.8081
 21
5.16428
  0
LINE
  8
0
 10
-60.8081
 20
5.16428
 11
-60.8534
 21
5.17897
  0
LINE
  8
0
 10
-60.8534
 20
5.17897
 11
-60.8975
 21
5.19873
  0
LINE
  8
0
 10
-60.8975
 20
5.19873
 11
-60.9405
 21
5.22354
  0
LINE
  8
0
 10
-60.9405
 20
5.22354
 11
-60.9823
 21
5.25342
  0
LINE
  8
0
 10
-60.9823
 20
5.25342
 11
-61.0229
 21
5.28836
  0
LINE
  8
0
 10
-61.0229
 20
5.28836
 11
-61.0534
 21
5.31873
  0
LINE
  8
0
 10
-61.0534
 20
5.31873
 11
-61.0806
 21
5.34969
  0
LINE
  8
0
 10
-61.0806
 20
5.34969
 11
-61.1045
 21
5.38124
  0
LINE
  8
0
 10
-61.1045
 20
5.38124
 11
-61.125
 21
5.41339
  0
LINE
  8
0
 10
-61.125
 20
5.41339
 11
-61.1423
 21
5.44615
  0
LINE
  8
0
 10
-61.1423
 20
5.44615
 11
-61.1563
 21
5.47952
  0
LINE
  8
0
 10
-61.1563
 20
5.47952
 11
-61.167
 21
5.51347
  0
LINE
  8
0
 10
-61.167
 20
5.51347
 11
-61.1744
 21
5.54781
  0
LINE
  8
0
 10
-61.1744
 20
5.54781
 11
-61.1792
 21
5.58267
  0
LINE
  8
0
 10
-61.1792
 20
5.58267
 11
-61.1812
 21
5.61804
  0
LINE
  8
0
 10
-61.1812
 20
5.61804
 11
-61.1805
 21
5.65396
  0
LINE
  8
0
 10
-61.1805
 20
5.65396
 11
-61.177
 21
5.69038
  0
LINE
  8
0
 10
-61.177
 20
5.69038
 11
-61.1708
 21
5.72734
  0
LINE
  8
0
 10
-61.1708
 20
5.72734
 11
-61.1619
 21
5.76482
  0
LINE
  8
0
 10
-61.1619
 20
5.76482
 11
-61.1505
 21
5.8027
  0
LINE
  8
0
 10
-61.1505
 20
5.8027
 11
-61.1367
 21
5.84091
  0
LINE
  8
0
 10
-61.1367
 20
5.84091
 11
-61.1205
 21
5.87943
  0
LINE
  8
0
 10
-61.1205
 20
5.87943
 11
-61.0811
 21
5.95738
  0
LINE
  8
0
 10
-61.0811
 20
5.95738
 11
-61.0323
 21
6.03658
  0
LINE
  8
0
 10
-61.0323
 20
6.03658
 11
-60.975
 21
6.11722
  0
LINE
  8
0
 10
-60.975
 20
6.11722
 11
-60.9109
 21
6.19865
  0
LINE
  8
0
 10
-60.9109
 20
6.19865
 11
-60.84
 21
6.2809
  0
LINE
  8
0
 10
-60.84
 20
6.2809
 11
-60.7587
 21
6.36783
  0
LINE
  8
0
 10
-60.7587
 20
6.36783
 11
-60.6745
 21
6.45139
  0
LINE
  8
0
 10
-60.6745
 20
6.45139
 11
-60.5936
 21
6.52501
  0
LINE
  8
0
 10
-60.5936
 20
6.52501
 11
-60.5159
 21
6.5887
  0
LINE
  8
0
 10
-60.5159
 20
6.5887
 11
-60.44
 21
6.64201
  0
LINE
  8
0
 10
-60.44
 20
6.64201
 11
-60.4028
 21
6.66457
  0
LINE
  8
0
 10
-60.4028
 20
6.66457
 11
-60.3661
 21
6.68439
  0
LINE
  8
0
 10
-60.3661
 20
6.68439
 11
-60.3298
 21
6.70148
  0
LINE
  8
0
 10
-60.3298
 20
6.70148
 11
-60.2941
 21
6.71585
  0
LINE
  8
0
 10
-60.2941
 20
6.71585
 11
-60.2588
 21
6.72748
  0
LINE
  8
0
 10
-60.2588
 20
6.72748
 11
-60.224
 21
6.73636
  0
LINE
  8
0
 10
-60.224
 20
6.73636
 11
-60.1895
 21
6.74249
  0
LINE
  8
0
 10
-60.1895
 20
6.74249
 11
-60.1555
 21
6.74588
  0
LINE
  8
0
 10
-60.1555
 20
6.74588
 11
-60.1218
 21
6.74649
  0
LINE
  8
0
 10
-60.1218
 20
6.74649
 11
-60.0886
 21
6.74435
  0
LINE
  8
0
 10
-60.0886
 20
6.74435
 11
-60.0558
 21
6.73946
  0
LINE
  8
0
 10
-60.0558
 20
6.73946
 11
-60.0233
 21
6.73181
  0
LINE
  8
0
 10
-60.0233
 20
6.73181
 11
-59.9907
 21
6.72125
  0
LINE
  8
0
 10
-59.9907
 20
6.72125
 11
-59.958
 21
6.7076
  0
LINE
  8
0
 10
-59.958
 20
6.7076
 11
-59.9253
 21
6.69086
  0
LINE
  8
0
 10
-59.9253
 20
6.69086
 11
-59.8926
 21
6.67104
  0
LINE
  8
0
 10
-59.8926
 20
6.67104
 11
-59.8599
 21
6.64812
  0
LINE
  8
0
 10
-59.8599
 20
6.64812
 11
-59.8272
 21
6.6221
  0
LINE
  8
0
 10
-59.8272
 20
6.6221
 11
-59.7944
 21
6.593
  0
LINE
  8
0
 10
-59.7944
 20
6.593
 11
-59.7531
 21
6.55098
  0
LINE
  8
0
 10
-59.7531
 20
6.55098
 11
-59.718
 21
6.50806
  0
LINE
  8
0
 10
-59.718
 20
6.50806
 11
-59.6893
 21
6.46422
  0
LINE
  8
0
 10
-59.6893
 20
6.46422
 11
-59.6667
 21
6.41951
  0
LINE
  8
0
 10
-59.6667
 20
6.41951
 11
-59.6505
 21
6.37387
  0
LINE
  8
0
 10
-59.6505
 20
6.37387
 11
-59.6405
 21
6.32733
  0
LINE
  8
0
 10
-59.6405
 20
6.32733
 11
-59.6368
 21
6.27989
  0
LINE
  8
0
 10
-59.6368
 20
6.27989
 11
-59.6387
 21
6.23198
  0
LINE
  8
0
 10
-59.6387
 20
6.23198
 11
-59.6456
 21
6.18396
  0
LINE
  8
0
 10
-59.6456
 20
6.18396
 11
-59.6575
 21
6.13586
  0
LINE
  8
0
 10
-59.6575
 20
6.13586
 11
-59.6744
 21
6.08769
  0
LINE
  8
0
 10
-59.6744
 20
6.08769
 11
-59.6962
 21
6.03946
  0
LINE
  8
0
 10
-59.6962
 20
6.03946
 11
-59.7231
 21
5.99112
  0
LINE
  8
0
 10
-59.7231
 20
5.99112
 11
-59.755
 21
5.94272
  0
LINE
  8
0
 10
-59.755
 20
5.94272
 11
-59.4547
 21
5.70158
  0
LINE
  8
0
 10
-59.4547
 20
5.70158
 11
-59.4139
 21
5.77235
  0
LINE
  8
0
 10
-59.4139
 20
5.77235
 11
-59.3797
 21
5.84512
  0
LINE
  8
0
 10
-59.3797
 20
5.84512
 11
-59.3522
 21
5.91986
  0
LINE
  8
0
 10
-59.3522
 20
5.91986
 11
-59.3313
 21
5.9966
  0
LINE
  8
0
 10
-59.3313
 20
5.9966
 11
-59.3239
 21
6.03542
  0
LINE
  8
0
 10
-59.3239
 20
6.03542
 11
-59.3186
 21
6.07436
  0
LINE
  8
0
 10
-59.3186
 20
6.07436
 11
-59.3155
 21
6.11348
  0
LINE
  8
0
 10
-59.3155
 20
6.11348
 11
-59.3145
 21
6.15276
  0
LINE
  8
0
 10
-59.3145
 20
6.15276
 11
-59.3156
 21
6.1922
  0
LINE
  8
0
 10
-59.3156
 20
6.1922
 11
-59.3189
 21
6.2318
  0
LINE
  8
0
 10
-59.3189
 20
6.2318
 11
-59.3242
 21
6.27126
  0
LINE
  8
0
 10
-59.3242
 20
6.27126
 11
-59.3318
 21
6.31065
  0
LINE
  8
0
 10
-59.3318
 20
6.31065
 11
-59.3416
 21
6.35002
  0
LINE
  8
0
 10
-59.3416
 20
6.35002
 11
-59.3538
 21
6.38934
  0
LINE
  8
0
 10
-59.3538
 20
6.38934
 11
-59.3682
 21
6.4286
  0
LINE
  8
0
 10
-59.3682
 20
6.4286
 11
-59.3849
 21
6.46782
  0
LINE
  8
0
 10
-59.3849
 20
6.46782
 11
-59.4038
 21
6.507
  0
LINE
  8
0
 10
-59.4038
 20
6.507
 11
-59.4253
 21
6.54594
  0
LINE
  8
0
 10
-59.4253
 20
6.54594
 11
-59.4494
 21
6.58449
  0
LINE
  8
0
 10
-59.4494
 20
6.58449
 11
-59.4762
 21
6.62262
  0
LINE
  8
0
 10
-59.4762
 20
6.62262
 11
-59.5056
 21
6.66035
  0
LINE
  8
0
 10
-59.5056
 20
6.66035
 11
-59.5378
 21
6.69766
  0
LINE
  8
0
 10
-59.5378
 20
6.69766
 11
-59.5726
 21
6.73459
  0
LINE
  8
0
 10
-59.5726
 20
6.73459
 11
-59.635
 21
6.79375
  0
LINE
  8
0
 10
-59.635
 20
6.79375
 11
-59.7136
 21
6.85727
  0
LINE
  8
0
 10
-59.7136
 20
6.85727
 11
-59.7981
 21
6.91408
  0
LINE
  8
0
 10
-59.7981
 20
6.91408
 11
-59.8565
 21
6.94742
  0
LINE
  8
0
 10
-59.8565
 20
6.94742
 11
-59.9171
 21
6.97607
  0
LINE
  8
0
 10
-59.9171
 20
6.97607
 11
-59.9799
 21
7.00002
  0
LINE
  8
0
 10
-59.9799
 20
7.00002
 11
-60.0444
 21
7.01913
  0
LINE
  8
0
 10
-60.0444
 20
7.01913
 11
-60.1107
 21
7.03258
  0
LINE
  8
0
 10
-60.1107
 20
7.03258
 11
-60.179
 21
7.04018
  0
LINE
  8
0
 10
-60.179
 20
7.04018
 11
-60.2495
 21
7.04192
  0
LINE
  8
0
 10
-60.2495
 20
7.04192
 11
-60.3219
 21
7.0369
  0
LINE
  8
0
 10
-60.3219
 20
7.0369
 11
-60.3961
 21
7.0242
  0
LINE
  8
0
 10
-60.3961
 20
7.0242
 11
-60.4722
 21
7.00381
  0
LINE
  8
0
 10
-60.4722
 20
7.00381
 11
-60.5499
 21
6.97585
  0
LINE
  8
0
 10
-60.5499
 20
6.97585
 11
-60.6288
 21
6.9397
  0
LINE
  8
0
 10
-60.6288
 20
6.9397
 11
-60.7093
 21
6.89508
  0
LINE
  8
0
 10
-60.7093
 20
6.89508
 11
-60.7911
 21
6.842
  0
LINE
  8
0
 10
-60.7911
 20
6.842
 11
-60.874
 21
6.77985
  0
LINE
  8
0
 10
-60.874
 20
6.77985
 11
-60.9585
 21
6.70726
  0
LINE
  8
0
 10
-60.9585
 20
6.70726
 11
-61.0444
 21
6.62422
  0
LINE
  8
0
 10
-61.0444
 20
6.62422
 11
-61.1347
 21
6.52728
  0
LINE
  8
0
 10
-61.1347
 20
6.52728
 11
-61.179
 21
6.47542
  0
LINE
  8
0
 10
-61.179
 20
6.47542
 11
-61.2209
 21
6.42322
  0
LINE
  8
0
 10
-61.2209
 20
6.42322
 11
-61.2603
 21
6.37067
  0
LINE
  8
0
 10
-61.2603
 20
6.37067
 11
-61.2972
 21
6.31775
  0
LINE
  8
0
 10
-61.2972
 20
6.31775
 11
-61.3316
 21
6.26448
  0
LINE
  8
0
 10
-61.3316
 20
6.26448
 11
-61.3636
 21
6.21088
  0
LINE
  8
0
 10
-61.3636
 20
6.21088
 11
-61.3923
 21
6.15706
  0
LINE
  8
0
 10
-61.3923
 20
6.15706
 11
-61.4175
 21
6.10315
  0
LINE
  8
0
 10
-61.4175
 20
6.10315
 11
-61.4394
 21
6.04915
  0
LINE
  8
0
 10
-61.4394
 20
6.04915
 11
-61.4579
 21
5.99507
  0
LINE
  8
0
 10
-61.4579
 20
5.99507
 11
-61.4731
 21
5.9409
  0
LINE
  8
0
 10
-61.4731
 20
5.9409
 11
-61.4848
 21
5.88663
  0
LINE
  8
0
 10
-61.4848
 20
5.88663
 11
-61.4932
 21
5.83228
  0
LINE
  8
0
 10
-61.4932
 20
5.83228
 11
-61.4979
 21
5.77792
  0
LINE
  8
0
 10
-61.4979
 20
5.77792
 11
-61.4988
 21
5.72369
  0
LINE
  8
0
 10
-61.4988
 20
5.72369
 11
-61.4959
 21
5.66954
  0
LINE
  8
0
 10
-61.4959
 20
5.66954
 11
-61.4892
 21
5.61548
  0
LINE
  8
0
 10
-61.4892
 20
5.61548
 11
-61.4786
 21
5.56152
  0
LINE
  8
0
 10
-61.4786
 20
5.56152
 11
-61.4641
 21
5.50769
  0
LINE
  8
0
 10
-61.4641
 20
5.50769
 11
-61.4459
 21
5.45393
  0
LINE
  8
0
 10
-61.4459
 20
5.45393
 11
-61.4229
 21
5.40048
  0
LINE
  8
0
 10
-61.4229
 20
5.40048
 11
-61.3952
 21
5.34753
  0
LINE
  8
0
 10
-61.3952
 20
5.34753
 11
-61.3627
 21
5.29503
  0
LINE
  8
0
 10
-61.3627
 20
5.29503
 11
-61.3255
 21
5.243
  0
LINE
  8
0
 10
-61.3255
 20
5.243
 11
-61.2835
 21
5.19145
  0
LINE
  8
0
 10
-61.2835
 20
5.19145
 11
-61.2368
 21
5.14038
  0
LINE
  8
0
 10
-61.2368
 20
5.14038
 11
-61.1854
 21
5.0898
  0
LINE
  8
0
 10
-61.1854
 20
5.0898
 11
-61.1442
 21
5.05284
  0
LINE
  8
0
 10
-61.1442
 20
5.05284
 11
-61.1028
 21
5.01891
  0
LINE
  8
0
 10
-61.1028
 20
5.01891
 11
-61.0612
 21
4.98799
  0
LINE
  8
0
 10
-61.0612
 20
4.98799
 11
-61.0194
 21
4.96007
  0
LINE
  8
0
 10
-61.0194
 20
4.96007
 11
-60.9775
 21
4.93517
  0
LINE
  8
0
 10
-60.9775
 20
4.93517
 11
-60.9353
 21
4.91327
  0
LINE
  8
0
 10
-60.9353
 20
4.91327
 11
-60.893
 21
4.89439
  0
LINE
  8
0
 10
-60.893
 20
4.89439
 11
-60.8509
 21
4.87798
  0
LINE
  8
0
 10
-60.8509
 20
4.87798
 11
-60.8092
 21
4.86397
  0
LINE
  8
0
 10
-60.8092
 20
4.86397
 11
-60.7678
 21
4.85234
  0
LINE
  8
0
 10
-60.7678
 20
4.85234
 11
-60.7268
 21
4.84309
  0
LINE
  8
0
 10
-60.7268
 20
4.84309
 11
-60.6861
 21
4.83624
  0
LINE
  8
0
 10
-60.6861
 20
4.83624
 11
-60.6457
 21
4.83177
  0
LINE
  8
0
 10
-60.6457
 20
4.83177
 11
-60.6057
 21
4.82968
  0
LINE
  8
0
 10
-60.6057
 20
4.82968
 11
-60.5657
 21
4.82986
  0
LINE
  8
0
 10
-58.9306
 20
3.38899
 11
-58.8662
 21
3.40259
  0
LINE
  8
0
 10
-58.8662
 20
3.40259
 11
-58.7751
 21
3.43071
  0
LINE
  8
0
 10
-58.7751
 20
3.43071
 11
-58.6918
 21
3.46507
  0
LINE
  8
0
 10
-58.6918
 20
3.46507
 11
-58.6657
 21
3.47792
  0
LINE
  8
0
 10
-58.6657
 20
3.47792
 11
-58.8338
 21
3.76662
  0
LINE
  8
0
 10
-58.8338
 20
3.76662
 11
-58.8772
 21
3.74345
  0
LINE
  8
0
 10
-58.8772
 20
3.74345
 11
-58.9216
 21
3.72453
  0
LINE
  8
0
 10
-58.9216
 20
3.72453
 11
-58.9671
 21
3.70984
  0
LINE
  8
0
 10
-58.9671
 20
3.70984
 11
-59.0136
 21
3.69939
  0
LINE
  8
0
 10
-59.0136
 20
3.69939
 11
-59.0612
 21
3.69318
  0
LINE
  8
0
 10
-59.0612
 20
3.69318
 11
-59.1099
 21
3.69121
  0
LINE
  8
0
 10
-59.1099
 20
3.69121
 11
-59.1597
 21
3.69347
  0
LINE
  8
0
 10
-59.1597
 20
3.69347
 11
-59.2096
 21
3.70093
  0
LINE
  8
0
 10
-59.2096
 20
3.70093
 11
-59.2592
 21
3.71417
  0
LINE
  8
0
 10
-59.2592
 20
3.71417
 11
-59.3085
 21
3.73317
  0
LINE
  8
0
 10
-59.3085
 20
3.73317
 11
-59.3576
 21
3.75789
  0
LINE
  8
0
 10
-59.3576
 20
3.75789
 11
-59.4063
 21
3.78839
  0
LINE
  8
0
 10
-59.4063
 20
3.78839
 11
-59.4548
 21
3.82465
  0
LINE
  8
0
 10
-59.4548
 20
3.82465
 11
-59.5029
 21
3.86665
  0
LINE
  8
0
 10
-59.5029
 20
3.86665
 11
-59.5343
 21
3.89777
  0
LINE
  8
0
 10
-59.5343
 20
3.89777
 11
-59.5627
 21
3.92941
  0
LINE
  8
0
 10
-59.5627
 20
3.92941
 11
-59.588
 21
3.96159
  0
LINE
  8
0
 10
-59.588
 20
3.96159
 11
-59.6102
 21
3.99429
  0
LINE
  8
0
 10
-59.6102
 20
3.99429
 11
-59.6293
 21
4.02754
  0
LINE
  8
0
 10
-59.6293
 20
4.02754
 11
-59.6454
 21
4.06133
  0
LINE
  8
0
 10
-59.6454
 20
4.06133
 11
-59.6584
 21
4.09564
  0
LINE
  8
0
 10
-59.6584
 20
4.09564
 11
-59.6686
 21
4.1304
  0
LINE
  8
0
 10
-59.6686
 20
4.1304
 11
-59.6762
 21
4.16551
  0
LINE
  8
0
 10
-59.6762
 20
4.16551
 11
-59.6813
 21
4.20097
  0
LINE
  8
0
 10
-59.6813
 20
4.20097
 11
-59.6838
 21
4.23676
  0
LINE
  8
0
 10
-59.6838
 20
4.23676
 11
-59.6838
 21
4.2729
  0
LINE
  8
0
 10
-59.6838
 20
4.2729
 11
-59.6812
 21
4.3094
  0
LINE
  8
0
 10
-59.6812
 20
4.3094
 11
-59.676
 21
4.34622
  0
LINE
  8
0
 10
-59.676
 20
4.34622
 11
-59.6682
 21
4.38354
  0
LINE
  8
0
 10
-59.6682
 20
4.38354
 11
-59.6582
 21
4.4211
  0
LINE
  8
0
 10
-59.6582
 20
4.4211
 11
-59.6458
 21
4.45886
  0
LINE
  8
0
 10
-59.6458
 20
4.45886
 11
-59.6313
 21
4.49684
  0
LINE
  8
0
 10
-59.6313
 20
4.49684
 11
-59.5952
 21
4.57349
  0
LINE
  8
0
 10
-59.5952
 20
4.57349
 11
-59.5738
 21
4.61212
  0
LINE
  8
0
 10
-59.5738
 20
4.61212
 11
-59.5243
 21
4.68944
  0
LINE
  8
0
 10
-59.5243
 20
4.68944
 11
-59.4676
 21
4.7663
  0
LINE
  8
0
 10
-59.4676
 20
4.7663
 11
-59.4037
 21
4.8427
  0
LINE
  8
0
 10
-59.4037
 20
4.8427
 11
-59.3691
 21
4.88074
  0
LINE
  8
0
 10
-59.3691
 20
4.88074
 11
-58.2473
 21
3.83148
  0
LINE
  8
0
 10
-58.2473
 20
3.83148
 11
-58.1668
 21
3.91896
  0
LINE
  8
0
 10
-58.1668
 20
3.91896
 11
-58.0798
 21
4.02322
  0
LINE
  8
0
 10
-58.0798
 20
4.02322
 11
-58.0398
 21
4.07582
  0
LINE
  8
0
 10
-58.0398
 20
4.07582
 11
-58.0022
 21
4.12869
  0
LINE
  8
0
 10
-58.0022
 20
4.12869
 11
-57.9669
 21
4.18185
  0
LINE
  8
0
 10
-57.9669
 20
4.18185
 11
-57.934
 21
4.23534
  0
LINE
  8
0
 10
-57.934
 20
4.23534
 11
-57.9037
 21
4.2892
  0
LINE
  8
0
 10
-57.9037
 20
4.2892
 11
-57.877
 21
4.34315
  0
LINE
  8
0
 10
-57.877
 20
4.34315
 11
-57.8538
 21
4.3972
  0
LINE
  8
0
 10
-57.8538
 20
4.3972
 11
-57.8341
 21
4.45132
  0
LINE
  8
0
 10
-57.8341
 20
4.45132
 11
-57.8179
 21
4.50554
  0
LINE
  8
0
 10
-57.8179
 20
4.50554
 11
-57.8052
 21
4.55984
  0
LINE
  8
0
 10
-57.8052
 20
4.55984
 11
-57.7959
 21
4.61421
  0
LINE
  8
0
 10
-57.7959
 20
4.61421
 11
-57.7905
 21
4.66862
  0
LINE
  8
0
 10
-57.7905
 20
4.66862
 11
-57.789
 21
4.72302
  0
LINE
  8
0
 10
-57.789
 20
4.72302
 11
-57.7917
 21
4.7774
  0
LINE
  8
0
 10
-57.7917
 20
4.7774
 11
-57.7983
 21
4.83176
  0
LINE
  8
0
 10
-57.7983
 20
4.83176
 11
-57.8091
 21
4.88609
  0
LINE
  8
0
 10
-57.8091
 20
4.88609
 11
-57.8238
 21
4.94041
  0
LINE
  8
0
 10
-57.8238
 20
4.94041
 11
-57.8426
 21
4.99471
  0
LINE
  8
0
 10
-57.8426
 20
4.99471
 11
-57.8656
 21
5.04892
  0
LINE
  8
0
 10
-57.8656
 20
5.04892
 11
-57.8938
 21
5.10297
  0
LINE
  8
0
 10
-57.8938
 20
5.10297
 11
-57.9272
 21
5.15683
  0
LINE
  8
0
 10
-57.9272
 20
5.15683
 11
-57.9658
 21
5.21053
  0
LINE
  8
0
 10
-57.9658
 20
5.21053
 11
-58.0096
 21
5.26405
  0
LINE
  8
0
 10
-58.0096
 20
5.26405
 11
-58.0585
 21
5.3174
  0
LINE
  8
0
 10
-58.0585
 20
5.3174
 11
-58.1127
 21
5.37056
  0
LINE
  8
0
 10
-58.1127
 20
5.37056
 11
-58.1549
 21
5.40836
  0
LINE
  8
0
 10
-58.1549
 20
5.40836
 11
-58.1981
 21
5.44366
  0
LINE
  8
0
 10
-58.1981
 20
5.44366
 11
-58.2423
 21
5.47647
  0
LINE
  8
0
 10
-58.2423
 20
5.47647
 11
-58.2875
 21
5.50681
  0
LINE
  8
0
 10
-58.2875
 20
5.50681
 11
-58.3337
 21
5.53464
  0
LINE
  8
0
 10
-58.3337
 20
5.53464
 11
-58.3808
 21
5.56
  0
LINE
  8
0
 10
-58.3808
 20
5.56
 11
-58.429
 21
5.58286
  0
LINE
  8
0
 10
-58.429
 20
5.58286
 11
-58.4776
 21
5.60275
  0
LINE
  8
0
 10
-58.4776
 20
5.60275
 11
-58.5271
 21
5.6192
  0
LINE
  8
0
 10
-58.5271
 20
5.6192
 11
-58.5774
 21
5.63217
  0
LINE
  8
0
 10
-58.5774
 20
5.63217
 11
-58.6286
 21
5.64168
  0
LINE
  8
0
 10
-58.6286
 20
5.64168
 11
-58.6806
 21
5.64774
  0
LINE
  8
0
 10
-58.6806
 20
5.64774
 11
-58.7334
 21
5.6503
  0
LINE
  8
0
 10
-58.7334
 20
5.6503
 11
-58.7871
 21
5.64941
  0
LINE
  8
0
 10
-58.7871
 20
5.64941
 11
-58.8413
 21
5.64502
  0
LINE
  8
0
 10
-58.8413
 20
5.64502
 11
-58.8961
 21
5.6366
  0
LINE
  8
0
 10
-58.8961
 20
5.6366
 11
-58.9515
 21
5.62418
  0
LINE
  8
0
 10
-58.9515
 20
5.62418
 11
-59.0076
 21
5.60776
  0
LINE
  8
0
 10
-59.0076
 20
5.60776
 11
-59.0642
 21
5.58731
  0
LINE
  8
0
 10
-59.0642
 20
5.58731
 11
-59.1215
 21
5.56288
  0
LINE
  8
0
 10
-59.1215
 20
5.56288
 11
-59.1794
 21
5.53444
  0
LINE
  8
0
 10
-59.1794
 20
5.53444
 11
-59.2377
 21
5.50168
  0
LINE
  8
0
 10
-59.2377
 20
5.50168
 11
-59.2963
 21
5.46394
  0
LINE
  8
0
 10
-59.2963
 20
5.46394
 11
-59.3554
 21
5.42117
  0
LINE
  8
0
 10
-59.3554
 20
5.42117
 11
-59.415
 21
5.3734
  0
LINE
  8
0
 10
-59.415
 20
5.3734
 11
-59.475
 21
5.32062
  0
LINE
  8
0
 10
-59.475
 20
5.32062
 11
-59.5354
 21
5.26282
  0
LINE
  8
0
 10
-59.5354
 20
5.26282
 11
-59.5963
 21
5.20001
  0
LINE
  8
0
 10
-59.5963
 20
5.20001
 11
-59.7016
 21
5.07996
  0
LINE
  8
0
 10
-59.7016
 20
5.07996
 11
-59.7915
 21
4.96143
  0
LINE
  8
0
 10
-59.7915
 20
4.96143
 11
-59.866
 21
4.84442
  0
LINE
  8
0
 10
-59.866
 20
4.84442
 11
-59.9251
 21
4.72894
  0
LINE
  8
0
 10
-59.9251
 20
4.72894
 11
-59.9688
 21
4.61499
  0
LINE
  8
0
 10
-59.9688
 20
4.61499
 11
-59.9971
 21
4.50255
  0
LINE
  8
0
 10
-59.9971
 20
4.50255
 11
-60.0101
 21
4.39166
  0
LINE
  8
0
 10
-60.0101
 20
4.39166
 11
-60.0076
 21
4.28293
  0
LINE
  8
0
 10
-60.0076
 20
4.28293
 11
-59.9902
 21
4.17656
  0
LINE
  8
0
 10
-59.9902
 20
4.17656
 11
-59.9578
 21
4.07256
  0
LINE
  8
0
 10
-59.9578
 20
4.07256
 11
-59.9104
 21
3.97096
  0
LINE
  8
0
 10
-59.9104
 20
3.97096
 11
-59.8481
 21
3.87173
  0
LINE
  8
0
 10
-59.8481
 20
3.87173
 11
-59.7708
 21
3.77487
  0
LINE
  8
0
 10
-59.7708
 20
3.77487
 11
-59.6785
 21
3.68039
  0
LINE
  8
0
 10
-59.6785
 20
3.68039
 11
-59.6339
 21
3.64005
  0
LINE
  8
0
 10
-59.6339
 20
3.64005
 11
-59.5898
 21
3.60297
  0
LINE
  8
0
 10
-59.5898
 20
3.60297
 11
-59.5461
 21
3.56911
  0
LINE
  8
0
 10
-59.5461
 20
3.56911
 11
-59.5029
 21
3.53851
  0
LINE
  8
0
 10
-59.5029
 20
3.53851
 11
-59.4602
 21
3.51117
  0
LINE
  8
0
 10
-59.4602
 20
3.51117
 11
-59.418
 21
3.48706
  0
LINE
  8
0
 10
-59.418
 20
3.48706
 11
-59.3763
 21
3.46622
  0
LINE
  8
0
 10
-59.3763
 20
3.46622
 11
-59.2946
 21
3.43185
  0
LINE
  8
0
 10
-59.2946
 20
3.43185
 11
-59.216
 21
3.40652
  0
LINE
  8
0
 10
-59.216
 20
3.40652
 11
-59.1779
 21
3.39725
  0
LINE
  8
0
 10
-59.1779
 20
3.39725
 11
-59.1406
 21
3.39021
  0
LINE
  8
0
 10
-59.1406
 20
3.39021
 11
-59.0679
 21
3.38268
  0
LINE
  8
0
 10
-59.0679
 20
3.38268
 11
-58.9978
 21
3.38235
  0
LINE
  8
0
 10
-58.9978
 20
3.38235
 11
-58.9306
 21
3.38899
  0
LINE
  8
0
 10
-59.1913
 20
5.06497
 11
-59.149
 21
5.10544
  0
LINE
  8
0
 10
-59.149
 20
5.10544
 11
-59.1072
 21
5.14233
  0
LINE
  8
0
 10
-59.1072
 20
5.14233
 11
-59.0661
 21
5.17566
  0
LINE
  8
0
 10
-59.0661
 20
5.17566
 11
-59.0255
 21
5.20543
  0
LINE
  8
0
 10
-59.0255
 20
5.20543
 11
-58.9856
 21
5.2316
  0
LINE
  8
0
 10
-58.9856
 20
5.2316
 11
-58.9462
 21
5.25423
  0
LINE
  8
0
 10
-58.9462
 20
5.25423
 11
-58.9075
 21
5.27325
  0
LINE
  8
0
 10
-58.9075
 20
5.27325
 11
-58.832
 21
5.30331
  0
LINE
  8
0
 10
-58.832
 20
5.30331
 11
-58.7955
 21
5.31473
  0
LINE
  8
0
 10
-58.7955
 20
5.31473
 11
-58.7599
 21
5.3237
  0
LINE
  8
0
 10
-58.7599
 20
5.3237
 11
-58.7252
 21
5.33025
  0
LINE
  8
0
 10
-58.7252
 20
5.33025
 11
-58.6914
 21
5.33437
  0
LINE
  8
0
 10
-58.6914
 20
5.33437
 11
-58.6584
 21
5.33606
  0
LINE
  8
0
 10
-58.6584
 20
5.33606
 11
-58.5945
 21
5.33334
  0
LINE
  8
0
 10
-58.5945
 20
5.33334
 11
-58.5343
 21
5.32323
  0
LINE
  8
0
 10
-58.5343
 20
5.32323
 11
-58.5056
 21
5.31538
  0
LINE
  8
0
 10
-58.5056
 20
5.31538
 11
-58.4779
 21
5.30569
  0
LINE
  8
0
 10
-58.4779
 20
5.30569
 11
-58.4252
 21
5.28117
  0
LINE
  8
0
 10
-58.4252
 20
5.28117
 11
-58.3769
 21
5.2533
  0
LINE
  8
0
 10
-58.3769
 20
5.2533
 11
-58.3332
 21
5.22281
  0
LINE
  8
0
 10
-58.3332
 20
5.22281
 11
-58.2941
 21
5.18974
  0
LINE
  8
0
 10
-58.2941
 20
5.18974
 11
-58.243
 21
5.13722
  0
LINE
  8
0
 10
-58.243
 20
5.13722
 11
-58.2003
 21
5.08308
  0
LINE
  8
0
 10
-58.2003
 20
5.08308
 11
-58.166
 21
5.02736
  0
LINE
  8
0
 10
-58.166
 20
5.02736
 11
-58.14
 21
4.96999
  0
LINE
  8
0
 10
-58.14
 20
4.96999
 11
-58.1224
 21
4.91104
  0
LINE
  8
0
 10
-58.1224
 20
4.91104
 11
-58.1132
 21
4.85048
  0
LINE
  8
0
 10
-58.1132
 20
4.85048
 11
-58.1123
 21
4.7883
  0
LINE
  8
0
 10
-58.1123
 20
4.7883
 11
-58.1199
 21
4.72414
  0
LINE
  8
0
 10
-58.1199
 20
4.72414
 11
-58.1365
 21
4.6572
  0
LINE
  8
0
 10
-58.1365
 20
4.6572
 11
-58.1619
 21
4.58748
  0
LINE
  8
0
 10
-58.1619
 20
4.58748
 11
-58.1963
 21
4.51497
  0
LINE
  8
0
 10
-58.1963
 20
4.51497
 11
-58.2396
 21
4.43968
  0
LINE
  8
0
 10
-58.2396
 20
4.43968
 11
-58.2918
 21
4.3616
  0
LINE
  8
0
 10
-58.2918
 20
4.3616
 11
-58.3529
 21
4.28076
  0
LINE
  8
0
 10
-58.3529
 20
4.28076
 11
-59.1913
 21
5.06497
  0
LINE
  8
0
 10
-13.5257
 20
-21.8391
 11
-20.4489
 21
-5.22374
  0
LINE
  8
0
 10
-20.4489
 20
-5.22374
 11
-37.0642
 21
-12.1469
  0
LINE
  8
0
 10
-37.0642
 20
-12.1469
 11
-30.1411
 21
-28.7622
  0
LINE
  8
0
 10
-30.1411
 20
-28.7622
 11
-13.5257
 21
-21.8391
  0
LINE
  8
0
 10
36.2541
 20
-12.7017
 11
19.5907
 21
-5.89491
  0
LINE
  8
0
 10
19.5907
 20
-5.89491
 11
12.7839
 21
-22.5583
  0
LINE
  8
0
 10
12.7839
 20
-22.5583
 11
29.4473
 21
-29.3651
  0
LINE
  8
0
 10
29.4473
 20
-29.3651
 11
36.2541
 21
-12.7017
  0
LINE
  8
0
 10
-31.2949
 20
-29.2423
 11
-38.218
 21
-12.627
  0
LINE
  8
0
 10
-38.218
 20
-12.627
 11
-63.1411
 21
-23.0117
  0
LINE
  8
0
 10
-63.1411
 20
-23.0117
 11
-56.2179
 21
-39.627
  0
LINE
  8
0
 10
-56.2179
 20
-39.627
 11
-31.2949
 21
-29.2423
  0
LINE
  8
0
 10
62.4069
 20
-23.3844
 11
37.4119
 21
-13.1742
  0
LINE
  8
0
 10
37.4119
 20
-13.1742
 11
30.6051
 21
-29.8376
  0
LINE
  8
0
 10
30.6051
 20
-29.8376
 11
55.6001
 21
-40.0478
  0
LINE
  8
0
 10
55.6001
 20
-40.0478
 11
62.4069
 21
-23.3844
  0
LINE
  8
0
 10
-52.5708
 20
125.658
 11
-52.6954
 21
125.674
  0
LINE
  8
0
 10
-52.6954
 20
125.674
 11
-52.817
 21
125.705
  0
LINE
  8
0
 10
-52.817
 20
125.705
 11
-52.9338
 21
125.751
  0
LINE
  8
0
 10
-52.9338
 20
125.751
 11
-53.0438
 21
125.812
  0
LINE
  8
0
 10
-53.0438
 20
125.812
 11
-53.1454
 21
125.885
  0
LINE
  8
0
 10
-53.1454
 20
125.885
 11
-53.237
 21
125.971
  0
LINE
  8
0
 10
-53.237
 20
125.971
 11
-53.317
 21
126.068
  0
LINE
  8
0
 10
-53.317
 20
126.068
 11
-53.3843
 21
126.174
  0
LINE
  8
0
 10
-53.3843
 20
126.174
 11
-53.4378
 21
126.288
  0
LINE
  8
0
 10
-53.4378
 20
126.288
 11
-53.4766
 21
126.407
  0
LINE
  8
0
 10
-53.4766
 20
126.407
 11
-53.5001
 21
126.531
  0
LINE
  8
0
 10
-53.5001
 20
126.531
 11
-53.508
 21
126.656
  0
LINE
  8
0
 10
-53.508
 20
126.656
 11
-53.5001
 21
126.781
  0
LINE
  8
0
 10
-53.5001
 20
126.781
 11
-53.4766
 21
126.905
  0
LINE
  8
0
 10
-53.4766
 20
126.905
 11
-53.4378
 21
127.024
  0
LINE
  8
0
 10
-53.4378
 20
127.024
 11
-53.3843
 21
127.138
  0
LINE
  8
0
 10
-53.3843
 20
127.138
 11
-53.317
 21
127.244
  0
LINE
  8
0
 10
-53.317
 20
127.244
 11
-53.237
 21
127.341
  0
LINE
  8
0
 10
-53.237
 20
127.341
 11
-53.1454
 21
127.426
  0
LINE
  8
0
 10
-53.1454
 20
127.426
 11
-53.0438
 21
127.5
  0
LINE
  8
0
 10
-53.0438
 20
127.5
 11
-52.9338
 21
127.561
  0
LINE
  8
0
 10
-52.9338
 20
127.561
 11
-52.817
 21
127.607
  0
LINE
  8
0
 10
-52.817
 20
127.607
 11
-52.6954
 21
127.638
  0
LINE
  8
0
 10
-52.6954
 20
127.638
 11
-52.5708
 21
127.654
  0
LINE
  8
0
 10
-52.5708
 20
127.654
 11
-52.4452
 21
127.654
  0
LINE
  8
0
 10
-52.4452
 20
127.654
 11
-52.3206
 21
127.638
  0
LINE
  8
0
 10
-52.3206
 20
127.638
 11
-52.199
 21
127.607
  0
LINE
  8
0
 10
-52.199
 20
127.607
 11
-52.0822
 21
127.561
  0
LINE
  8
0
 10
-52.0822
 20
127.561
 11
-51.9722
 21
127.5
  0
LINE
  8
0
 10
-51.9722
 20
127.5
 11
-51.8706
 21
127.426
  0
LINE
  8
0
 10
-51.8706
 20
127.426
 11
-51.779
 21
127.341
  0
LINE
  8
0
 10
-51.779
 20
127.341
 11
-51.699
 21
127.244
  0
LINE
  8
0
 10
-51.699
 20
127.244
 11
-51.6317
 21
127.138
  0
LINE
  8
0
 10
-51.6317
 20
127.138
 11
-51.5782
 21
127.024
  0
LINE
  8
0
 10
-51.5782
 20
127.024
 11
-51.5394
 21
126.905
  0
LINE
  8
0
 10
-51.5394
 20
126.905
 11
-51.5159
 21
126.781
  0
LINE
  8
0
 10
-51.5159
 20
126.781
 11
-51.508
 21
126.656
  0
LINE
  8
0
 10
-51.508
 20
126.656
 11
-51.5159
 21
126.531
  0
LINE
  8
0
 10
-51.5159
 20
126.531
 11
-51.5394
 21
126.407
  0
LINE
  8
0
 10
-51.5394
 20
126.407
 11
-51.5782
 21
126.288
  0
LINE
  8
0
 10
-51.5782
 20
126.288
 11
-51.6317
 21
126.174
  0
LINE
  8
0
 10
-51.6317
 20
126.174
 11
-51.699
 21
126.068
  0
LINE
  8
0
 10
-51.699
 20
126.068
 11
-51.779
 21
125.971
  0
LINE
  8
0
 10
-51.779
 20
125.971
 11
-51.8706
 21
125.885
  0
LINE
  8
0
 10
-51.8706
 20
125.885
 11
-51.9722
 21
125.812
  0
LINE
  8
0
 10
-51.9722
 20
125.812
 11
-52.0822
 21
125.751
  0
LINE
  8
0
 10
-52.0822
 20
125.751
 11
-52.199
 21
125.705
  0
LINE
  8
0
 10
-52.199
 20
125.705
 11
-52.3206
 21
125.674
  0
LINE
  8
0
 10
-52.3206
 20
125.674
 11
-52.4452
 21
125.658
  0
LINE
  8
0
 10
-52.4452
 20
125.658
 11
-52.5708
 21
125.658
  0
LINE
  8
0
 10
51.4792
 20
125.399
 11
51.3546
 21
125.415
  0
LINE
  8
0
 10
51.3546
 20
125.415
 11
51.233
 21
125.446
  0
LINE
  8
0
 10
51.233
 20
125.446
 11
51.1162
 21
125.492
  0
LINE
  8
0
 10
51.1162
 20
125.492
 11
51.0062
 21
125.553
  0
LINE
  8
0
 10
51.0062
 20
125.553
 11
50.9046
 21
125.626
  0
LINE
  8
0
 10
50.9046
 20
125.626
 11
50.813
 21
125.712
  0
LINE
  8
0
 10
50.813
 20
125.712
 11
50.733
 21
125.809
  0
LINE
  8
0
 10
50.733
 20
125.809
 11
50.6657
 21
125.915
  0
LINE
  8
0
 10
50.6657
 20
125.915
 11
50.6122
 21
126.029
  0
LINE
  8
0
 10
50.6122
 20
126.029
 11
50.5734
 21
126.148
  0
LINE
  8
0
 10
50.5734
 20
126.148
 11
50.5499
 21
126.272
  0
LINE
  8
0
 10
50.5499
 20
126.272
 11
50.542
 21
126.397
  0
LINE
  8
0
 10
50.542
 20
126.397
 11
50.5499
 21
126.522
  0
LINE
  8
0
 10
50.5499
 20
126.522
 11
50.5734
 21
126.646
  0
LINE
  8
0
 10
50.5734
 20
126.646
 11
50.6122
 21
126.765
  0
LINE
  8
0
 10
50.6122
 20
126.765
 11
50.6657
 21
126.879
  0
LINE
  8
0
 10
50.6657
 20
126.879
 11
50.733
 21
126.985
  0
LINE
  8
0
 10
50.733
 20
126.985
 11
50.813
 21
127.082
  0
LINE
  8
0
 10
50.813
 20
127.082
 11
50.9046
 21
127.167
  0
LINE
  8
0
 10
50.9046
 20
127.167
 11
51.0062
 21
127.241
  0
LINE
  8
0
 10
51.0062
 20
127.241
 11
51.1162
 21
127.302
  0
LINE
  8
0
 10
51.1162
 20
127.302
 11
51.233
 21
127.348
  0
LINE
  8
0
 10
51.233
 20
127.348
 11
51.3546
 21
127.379
  0
LINE
  8
0
 10
51.3546
 20
127.379
 11
51.4792
 21
127.395
  0
LINE
  8
0
 10
51.4792
 20
127.395
 11
51.6048
 21
127.395
  0
LINE
  8
0
 10
51.6048
 20
127.395
 11
51.7294
 21
127.379
  0
LINE
  8
0
 10
51.7294
 20
127.379
 11
51.851
 21
127.348
  0
LINE
  8
0
 10
51.851
 20
127.348
 11
51.9678
 21
127.302
  0
LINE
  8
0
 10
51.9678
 20
127.302
 11
52.0778
 21
127.241
  0
LINE
  8
0
 10
52.0778
 20
127.241
 11
52.1794
 21
127.167
  0
LINE
  8
0
 10
52.1794
 20
127.167
 11
52.271
 21
127.082
  0
LINE
  8
0
 10
52.271
 20
127.082
 11
52.351
 21
126.985
  0
LINE
  8
0
 10
52.351
 20
126.985
 11
52.4183
 21
126.879
  0
LINE
  8
0
 10
52.4183
 20
126.879
 11
52.4718
 21
126.765
  0
LINE
  8
0
 10
52.4718
 20
126.765
 11
52.5106
 21
126.646
  0
LINE
  8
0
 10
52.5106
 20
126.646
 11
52.5341
 21
126.522
  0
LINE
  8
0
 10
52.5341
 20
126.522
 11
52.542
 21
126.397
  0
LINE
  8
0
 10
52.542
 20
126.397
 11
52.5341
 21
126.272
  0
LINE
  8
0
 10
52.5341
 20
126.272
 11
52.5106
 21
126.148
  0
LINE
  8
0
 10
52.5106
 20
126.148
 11
52.4718
 21
126.029
  0
LINE
  8
0
 10
52.4718
 20
126.029
 11
52.4183
 21
125.915
  0
LINE
  8
0
 10
52.4183
 20
125.915
 11
52.351
 21
125.809
  0
LINE
  8
0
 10
52.351
 20
125.809
 11
52.271
 21
125.712
  0
LINE
  8
0
 10
52.271
 20
125.712
 11
52.1794
 21
125.626
  0
LINE
  8
0
 10
52.1794
 20
125.626
 11
52.0778
 21
125.553
  0
LINE
  8
0
 10
52.0778
 20
125.553
 11
51.9678
 21
125.492
  0
LINE
  8
0
 10
51.9678
 20
125.492
 11
51.851
 21
125.446
  0
LINE
  8
0
 10
51.851
 20
125.446
 11
51.7294
 21
125.415
  0
LINE
  8
0
 10
51.7294
 20
125.415
 11
51.6048
 21
125.399
  0
LINE
  8
0
 10
51.6048
 20
125.399
 11
51.4792
 21
125.399
  0
LINE
  8
0
 10
-170.81
 20
122.917
 11
-170.934
 21
122.933
  0
LINE
  8
0
 10
-170.934
 20
122.933
 11
-171.056
 21
122.964
  0
LINE
  8
0
 10
-171.056
 20
122.964
 11
-171.173
 21
123.01
  0
LINE
  8
0
 10
-171.173
 20
123.01
 11
-171.283
 21
123.071
  0
LINE
  8
0
 10
-171.283
 20
123.071
 11
-171.384
 21
123.144
  0
LINE
  8
0
 10
-171.384
 20
123.144
 11
-171.476
 21
123.23
  0
LINE
  8
0
 10
-171.476
 20
123.23
 11
-171.556
 21
123.327
  0
LINE
  8
0
 10
-171.556
 20
123.327
 11
-171.623
 21
123.433
  0
LINE
  8
0
 10
-171.623
 20
123.433
 11
-171.677
 21
123.547
  0
LINE
  8
0
 10
-171.677
 20
123.547
 11
-171.716
 21
123.666
  0
LINE
  8
0
 10
-171.716
 20
123.666
 11
-171.739
 21
123.79
  0
LINE
  8
0
 10
-171.739
 20
123.79
 11
-171.747
 21
123.915
  0
LINE
  8
0
 10
-171.747
 20
123.915
 11
-171.739
 21
124.04
  0
LINE
  8
0
 10
-171.739
 20
124.04
 11
-171.716
 21
124.164
  0
LINE
  8
0
 10
-171.716
 20
124.164
 11
-171.677
 21
124.283
  0
LINE
  8
0
 10
-171.677
 20
124.283
 11
-171.623
 21
124.397
  0
LINE
  8
0
 10
-171.623
 20
124.397
 11
-171.556
 21
124.503
  0
LINE
  8
0
 10
-171.556
 20
124.503
 11
-171.476
 21
124.6
  0
LINE
  8
0
 10
-171.476
 20
124.6
 11
-171.384
 21
124.686
  0
LINE
  8
0
 10
-171.384
 20
124.686
 11
-171.283
 21
124.759
  0
LINE
  8
0
 10
-171.283
 20
124.759
 11
-171.173
 21
124.82
  0
LINE
  8
0
 10
-171.173
 20
124.82
 11
-171.056
 21
124.866
  0
LINE
  8
0
 10
-171.056
 20
124.866
 11
-170.934
 21
124.897
  0
LINE
  8
0
 10
-170.934
 20
124.897
 11
-170.81
 21
124.913
  0
LINE
  8
0
 10
-170.81
 20
124.913
 11
-170.684
 21
124.913
  0
LINE
  8
0
 10
-170.684
 20
124.913
 11
-170.56
 21
124.897
  0
LINE
  8
0
 10
-170.56
 20
124.897
 11
-170.438
 21
124.866
  0
LINE
  8
0
 10
-170.438
 20
124.866
 11
-170.321
 21
124.82
  0
LINE
  8
0
 10
-170.321
 20
124.82
 11
-170.211
 21
124.759
  0
LINE
  8
0
 10
-170.211
 20
124.759
 11
-170.11
 21
124.686
  0
LINE
  8
0
 10
-170.11
 20
124.686
 11
-170.018
 21
124.6
  0
LINE
  8
0
 10
-170.018
 20
124.6
 11
-169.938
 21
124.503
  0
LINE
  8
0
 10
-169.938
 20
124.503
 11
-169.871
 21
124.397
  0
LINE
  8
0
 10
-169.871
 20
124.397
 11
-169.817
 21
124.283
  0
LINE
  8
0
 10
-169.817
 20
124.283
 11
-169.778
 21
124.164
  0
LINE
  8
0
 10
-169.778
 20
124.164
 11
-169.755
 21
124.04
  0
LINE
  8
0
 10
-169.755
 20
124.04
 11
-169.747
 21
123.915
  0
LINE
  8
0
 10
-169.747
 20
123.915
 11
-169.755
 21
123.79
  0
LINE
  8
0
 10
-169.755
 20
123.79
 11
-169.778
 21
123.666
  0
LINE
  8
0
 10
-169.778
 20
123.666
 11
-169.817
 21
123.547
  0
LINE
  8
0
 10
-169.817
 20
123.547
 11
-169.871
 21
123.433
  0
LINE
  8
0
 10
-169.871
 20
123.433
 11
-169.938
 21
123.327
  0
LINE
  8
0
 10
-169.938
 20
123.327
 11
-170.018
 21
123.23
  0
LINE
  8
0
 10
-170.018
 20
123.23
 11
-170.11
 21
123.144
  0
LINE
  8
0
 10
-170.11
 20
123.144
 11
-170.211
 21
123.071
  0
LINE
  8
0
 10
-170.211
 20
123.071
 11
-170.321
 21
123.01
  0
LINE
  8
0
 10
-170.321
 20
123.01
 11
-170.438
 21
122.964
  0
LINE
  8
0
 10
-170.438
 20
122.964
 11
-170.56
 21
122.933
  0
LINE
  8
0
 10
-170.56
 20
122.933
 11
-170.684
 21
122.917
  0
LINE
  8
0
 10
-170.684
 20
122.917
 11
-170.81
 21
122.917
  0
LINE
  8
0
 10
169.235
 20
122.529
 11
169.111
 21
122.545
  0
LINE
  8
0
 10
169.111
 20
122.545
 11
168.989
 21
122.576
  0
LINE
  8
0
 10
168.989
 20
122.576
 11
168.872
 21
122.622
  0
LINE
  8
0
 10
168.872
 20
122.622
 11
168.762
 21
122.683
  0
LINE
  8
0
 10
168.762
 20
122.683
 11
168.661
 21
122.756
  0
LINE
  8
0
 10
168.661
 20
122.756
 11
168.569
 21
122.842
  0
LINE
  8
0
 10
168.569
 20
122.842
 11
168.489
 21
122.939
  0
LINE
  8
0
 10
168.489
 20
122.939
 11
168.422
 21
123.045
  0
LINE
  8
0
 10
168.422
 20
123.045
 11
168.368
 21
123.159
  0
LINE
  8
0
 10
168.368
 20
123.159
 11
168.329
 21
123.278
  0
LINE
  8
0
 10
168.329
 20
123.278
 11
168.306
 21
123.402
  0
LINE
  8
0
 10
168.306
 20
123.402
 11
168.298
 21
123.527
  0
LINE
  8
0
 10
168.298
 20
123.527
 11
168.306
 21
123.652
  0
LINE
  8
0
 10
168.306
 20
123.652
 11
168.329
 21
123.776
  0
LINE
  8
0
 10
168.329
 20
123.776
 11
168.368
 21
123.895
  0
LINE
  8
0
 10
168.368
 20
123.895
 11
168.422
 21
124.009
  0
LINE
  8
0
 10
168.422
 20
124.009
 11
168.489
 21
124.115
  0
LINE
  8
0
 10
168.489
 20
124.115
 11
168.569
 21
124.212
  0
LINE
  8
0
 10
168.569
 20
124.212
 11
168.661
 21
124.298
  0
LINE
  8
0
 10
168.661
 20
124.298
 11
168.762
 21
124.371
  0
LINE
  8
0
 10
168.762
 20
124.371
 11
168.872
 21
124.432
  0
LINE
  8
0
 10
168.872
 20
124.432
 11
168.989
 21
124.478
  0
LINE
  8
0
 10
168.989
 20
124.478
 11
169.111
 21
124.509
  0
LINE
  8
0
 10
169.111
 20
124.509
 11
169.235
 21
124.525
  0
LINE
  8
0
 10
169.235
 20
124.525
 11
169.361
 21
124.525
  0
LINE
  8
0
 10
169.361
 20
124.525
 11
169.485
 21
124.509
  0
LINE
  8
0
 10
169.485
 20
124.509
 11
169.607
 21
124.478
  0
LINE
  8
0
 10
169.607
 20
124.478
 11
169.724
 21
124.432
  0
LINE
  8
0
 10
169.724
 20
124.432
 11
169.834
 21
124.371
  0
LINE
  8
0
 10
169.834
 20
124.371
 11
169.935
 21
124.298
  0
LINE
  8
0
 10
169.935
 20
124.298
 11
170.027
 21
124.212
  0
LINE
  8
0
 10
170.027
 20
124.212
 11
170.107
 21
124.115
  0
LINE
  8
0
 10
170.107
 20
124.115
 11
170.174
 21
124.009
  0
LINE
  8
0
 10
170.174
 20
124.009
 11
170.228
 21
123.895
  0
LINE
  8
0
 10
170.228
 20
123.895
 11
170.267
 21
123.776
  0
LINE
  8
0
 10
170.267
 20
123.776
 11
170.29
 21
123.652
  0
LINE
  8
0
 10
170.29
 20
123.652
 11
170.298
 21
123.527
  0
LINE
  8
0
 10
170.298
 20
123.527
 11
170.29
 21
123.402
  0
LINE
  8
0
 10
170.29
 20
123.402
 11
170.267
 21
123.278
  0
LINE
  8
0
 10
170.267
 20
123.278
 11
170.228
 21
123.159
  0
LINE
  8
0
 10
170.228
 20
123.159
 11
170.174
 21
123.045
  0
LINE
  8
0
 10
170.174
 20
123.045
 11
170.107
 21
122.939
  0
LINE
  8
0
 10
170.107
 20
122.939
 11
170.027
 21
122.842
  0
LINE
  8
0
 10
170.027
 20
122.842
 11
169.935
 21
122.756
  0
LINE
  8
0
 10
169.935
 20
122.756
 11
169.834
 21
122.683
  0
LINE
  8
0
 10
169.834
 20
122.683
 11
169.724
 21
122.622
  0
LINE
  8
0
 10
169.724
 20
122.622
 11
169.607
 21
122.576
  0
LINE
  8
0
 10
169.607
 20
122.576
 11
169.485
 21
122.545
  0
LINE
  8
0
 10
169.485
 20
122.545
 11
169.361
 21
122.529
  0
LINE
  8
0
 10
169.361
 20
122.529
 11
169.235
 21
122.529
  0
LINE
  8
0
 10
-16.4898
 20
106.155
 11
-16.6144
 21
106.171
  0
LINE
  8
0
 10
-16.6144
 20
106.171
 11
-16.736
 21
106.202
  0
LINE
  8
0
 10
-16.736
 20
106.202
 11
-16.8528
 21
106.248
  0
LINE
  8
0
 10
-16.8528
 20
106.248
 11
-16.9628
 21
106.309
  0
LINE
  8
0
 10
-16.9628
 20
106.309
 11
-17.0644
 21
106.382
  0
LINE
  8
0
 10
-17.0644
 20
106.382
 11
-17.1559
 21
106.468
  0
LINE
  8
0
 10
-17.1559
 20
106.468
 11
-17.236
 21
106.565
  0
LINE
  8
0
 10
-17.236
 20
106.565
 11
-17.3033
 21
106.671
  0
LINE
  8
0
 10
-17.3033
 20
106.671
 11
-17.3568
 21
106.785
  0
LINE
  8
0
 10
-17.3568
 20
106.785
 11
-17.3956
 21
106.904
  0
LINE
  8
0
 10
-17.3956
 20
106.904
 11
-17.4191
 21
107.028
  0
LINE
  8
0
 10
-17.4191
 20
107.028
 11
-17.427
 21
107.153
  0
LINE
  8
0
 10
-17.427
 20
107.153
 11
-17.4191
 21
107.278
  0
LINE
  8
0
 10
-17.4191
 20
107.278
 11
-17.3956
 21
107.402
  0
LINE
  8
0
 10
-17.3956
 20
107.402
 11
-17.3568
 21
107.521
  0
LINE
  8
0
 10
-17.3568
 20
107.521
 11
-17.3033
 21
107.635
  0
LINE
  8
0
 10
-17.3033
 20
107.635
 11
-17.236
 21
107.741
  0
LINE
  8
0
 10
-17.236
 20
107.741
 11
-17.1559
 21
107.838
  0
LINE
  8
0
 10
-17.1559
 20
107.838
 11
-17.0644
 21
107.924
  0
LINE
  8
0
 10
-17.0644
 20
107.924
 11
-16.9628
 21
107.997
  0
LINE
  8
0
 10
-16.9628
 20
107.997
 11
-16.8528
 21
108.058
  0
LINE
  8
0
 10
-16.8528
 20
108.058
 11
-16.736
 21
108.104
  0
LINE
  8
0
 10
-16.736
 20
108.104
 11
-16.6144
 21
108.135
  0
LINE
  8
0
 10
-16.6144
 20
108.135
 11
-16.4898
 21
108.151
  0
LINE
  8
0
 10
-16.4898
 20
108.151
 11
-16.3642
 21
108.151
  0
LINE
  8
0
 10
-16.3642
 20
108.151
 11
-16.2396
 21
108.135
  0
LINE
  8
0
 10
-16.2396
 20
108.135
 11
-16.118
 21
108.104
  0
LINE
  8
0
 10
-16.118
 20
108.104
 11
-16.0012
 21
108.058
  0
LINE
  8
0
 10
-16.0012
 20
108.058
 11
-15.8912
 21
107.997
  0
LINE
  8
0
 10
-15.8912
 20
107.997
 11
-15.7896
 21
107.924
  0
LINE
  8
0
 10
-15.7896
 20
107.924
 11
-15.698
 21
107.838
  0
LINE
  8
0
 10
-15.698
 20
107.838
 11
-15.618
 21
107.741
  0
LINE
  8
0
 10
-15.618
 20
107.741
 11
-15.5507
 21
107.635
  0
LINE
  8
0
 10
-15.5507
 20
107.635
 11
-15.4972
 21
107.521
  0
LINE
  8
0
 10
-15.4972
 20
107.521
 11
-15.4584
 21
107.402
  0
LINE
  8
0
 10
-15.4584
 20
107.402
 11
-15.4349
 21
107.278
  0
LINE
  8
0
 10
-15.4349
 20
107.278
 11
-15.427
 21
107.153
  0
LINE
  8
0
 10
-15.427
 20
107.153
 11
-15.4349
 21
107.028
  0
LINE
  8
0
 10
-15.4349
 20
107.028
 11
-15.4584
 21
106.904
  0
LINE
  8
0
 10
-15.4584
 20
106.904
 11
-15.4972
 21
106.785
  0
LINE
  8
0
 10
-15.4972
 20
106.785
 11
-15.5507
 21
106.671
  0
LINE
  8
0
 10
-15.5507
 20
106.671
 11
-15.618
 21
106.565
  0
LINE
  8
0
 10
-15.618
 20
106.565
 11
-15.698
 21
106.468
  0
LINE
  8
0
 10
-15.698
 20
106.468
 11
-15.7896
 21
106.382
  0
LINE
  8
0
 10
-15.7896
 20
106.382
 11
-15.8912
 21
106.309
  0
LINE
  8
0
 10
-15.8912
 20
106.309
 11
-16.0012
 21
106.248
  0
LINE
  8
0
 10
-16.0012
 20
106.248
 11
-16.118
 21
106.202
  0
LINE
  8
0
 10
-16.118
 20
106.202
 11
-16.2396
 21
106.171
  0
LINE
  8
0
 10
-16.2396
 20
106.171
 11
-16.3642
 21
106.155
  0
LINE
  8
0
 10
-16.3642
 20
106.155
 11
-16.4898
 21
106.155
  0
LINE
  8
0
 10
15.3982
 20
105.896
 11
15.2736
 21
105.912
  0
LINE
  8
0
 10
15.2736
 20
105.912
 11
15.152
 21
105.943
  0
LINE
  8
0
 10
15.152
 20
105.943
 11
15.0352
 21
105.989
  0
LINE
  8
0
 10
15.0352
 20
105.989
 11
14.9252
 21
106.05
  0
LINE
  8
0
 10
14.9252
 20
106.05
 11
14.8236
 21
106.123
  0
LINE
  8
0
 10
14.8236
 20
106.123
 11
14.732
 21
106.209
  0
LINE
  8
0
 10
14.732
 20
106.209
 11
14.652
 21
106.306
  0
LINE
  8
0
 10
14.652
 20
106.306
 11
14.5847
 21
106.412
  0
LINE
  8
0
 10
14.5847
 20
106.412
 11
14.5312
 21
106.526
  0
LINE
  8
0
 10
14.5312
 20
106.526
 11
14.4924
 21
106.645
  0
LINE
  8
0
 10
14.4924
 20
106.645
 11
14.4689
 21
106.769
  0
LINE
  8
0
 10
14.4689
 20
106.769
 11
14.461
 21
106.894
  0
LINE
  8
0
 10
14.461
 20
106.894
 11
14.4689
 21
107.019
  0
LINE
  8
0
 10
14.4689
 20
107.019
 11
14.4924
 21
107.143
  0
LINE
  8
0
 10
14.4924
 20
107.143
 11
14.5312
 21
107.262
  0
LINE
  8
0
 10
14.5312
 20
107.262
 11
14.5847
 21
107.376
  0
LINE
  8
0
 10
14.5847
 20
107.376
 11
14.652
 21
107.482
  0
LINE
  8
0
 10
14.652
 20
107.482
 11
14.732
 21
107.579
  0
LINE
  8
0
 10
14.732
 20
107.579
 11
14.8236
 21
107.665
  0
LINE
  8
0
 10
14.8236
 20
107.665
 11
14.9252
 21
107.738
  0
LINE
  8
0
 10
14.9252
 20
107.738
 11
15.0352
 21
107.799
  0
LINE
  8
0
 10
15.0352
 20
107.799
 11
15.152
 21
107.845
  0
LINE
  8
0
 10
15.152
 20
107.845
 11
15.2736
 21
107.876
  0
LINE
  8
0
 10
15.2736
 20
107.876
 11
15.3982
 21
107.892
  0
LINE
  8
0
 10
15.3982
 20
107.892
 11
15.5238
 21
107.892
  0
LINE
  8
0
 10
15.5238
 20
107.892
 11
15.6484
 21
107.876
  0
LINE
  8
0
 10
15.6484
 20
107.876
 11
15.77
 21
107.845
  0
LINE
  8
0
 10
15.77
 20
107.845
 11
15.8868
 21
107.799
  0
LINE
  8
0
 10
15.8868
 20
107.799
 11
15.9968
 21
107.738
  0
LINE
  8
0
 10
15.9968
 20
107.738
 11
16.0984
 21
107.665
  0
LINE
  8
0
 10
16.0984
 20
107.665
 11
16.19
 21
107.579
  0
LINE
  8
0
 10
16.19
 20
107.579
 11
16.27
 21
107.482
  0
LINE
  8
0
 10
16.27
 20
107.482
 11
16.3373
 21
107.376
  0
LINE
  8
0
 10
16.3373
 20
107.376
 11
16.3908
 21
107.262
  0
LINE
  8
0
 10
16.3908
 20
107.262
 11
16.4296
 21
107.143
  0
LINE
  8
0
 10
16.4296
 20
107.143
 11
16.4531
 21
107.019
  0
LINE
  8
0
 10
16.4531
 20
107.019
 11
16.461
 21
106.894
  0
LINE
  8
0
 10
16.461
 20
106.894
 11
16.4531
 21
106.769
  0
LINE
  8
0
 10
16.4531
 20
106.769
 11
16.4296
 21
106.645
  0
LINE
  8
0
 10
16.4296
 20
106.645
 11
16.3908
 21
106.526
  0
LINE
  8
0
 10
16.3908
 20
106.526
 11
16.3373
 21
106.412
  0
LINE
  8
0
 10
16.3373
 20
106.412
 11
16.27
 21
106.306
  0
LINE
  8
0
 10
16.27
 20
106.306
 11
16.19
 21
106.209
  0
LINE
  8
0
 10
16.19
 20
106.209
 11
16.0984
 21
106.123
  0
LINE
  8
0
 10
16.0984
 20
106.123
 11
15.9968
 21
106.05
  0
LINE
  8
0
 10
15.9968
 20
106.05
 11
15.8868
 21
105.989
  0
LINE
  8
0
 10
15.8868
 20
105.989
 11
15.77
 21
105.943
  0
LINE
  8
0
 10
15.77
 20
105.943
 11
15.6484
 21
105.912
  0
LINE
  8
0
 10
15.6484
 20
105.912
 11
15.5238
 21
105.896
  0
LINE
  8
0
 10
15.5238
 20
105.896
 11
15.3982
 21
105.896
  0
LINE
  8
0
 10
-184.157
 20
57.647
 11
-184.281
 21
57.6627
  0
LINE
  8
0
 10
-184.281
 20
57.6627
 11
-184.403
 21
57.6939
  0
LINE
  8
0
 10
-184.403
 20
57.6939
 11
-184.52
 21
57.7402
  0
LINE
  8
0
 10
-184.52
 20
57.7402
 11
-184.63
 21
57.8007
  0
LINE
  8
0
 10
-184.63
 20
57.8007
 11
-184.731
 21
57.8745
  0
LINE
  8
0
 10
-184.731
 20
57.8745
 11
-184.823
 21
57.9604
  0
LINE
  8
0
 10
-184.823
 20
57.9604
 11
-184.903
 21
58.0572
  0
LINE
  8
0
 10
-184.903
 20
58.0572
 11
-184.97
 21
58.1632
  0
LINE
  8
0
 10
-184.97
 20
58.1632
 11
-185.024
 21
58.2769
  0
LINE
  8
0
 10
-185.024
 20
58.2769
 11
-185.063
 21
58.3963
  0
LINE
  8
0
 10
-185.063
 20
58.3963
 11
-185.086
 21
58.5197
  0
LINE
  8
0
 10
-185.086
 20
58.5197
 11
-185.094
 21
58.645
  0
LINE
  8
0
 10
-185.094
 20
58.645
 11
-185.086
 21
58.7703
  0
LINE
  8
0
 10
-185.086
 20
58.7703
 11
-185.063
 21
58.8937
  0
LINE
  8
0
 10
-185.063
 20
58.8937
 11
-185.024
 21
59.0131
  0
LINE
  8
0
 10
-185.024
 20
59.0131
 11
-184.97
 21
59.1267
  0
LINE
  8
0
 10
-184.97
 20
59.1267
 11
-184.903
 21
59.2328
  0
LINE
  8
0
 10
-184.903
 20
59.2328
 11
-184.823
 21
59.3295
  0
LINE
  8
0
 10
-184.823
 20
59.3295
 11
-184.731
 21
59.4155
  0
LINE
  8
0
 10
-184.731
 20
59.4155
 11
-184.63
 21
59.4893
  0
LINE
  8
0
 10
-184.63
 20
59.4893
 11
-184.52
 21
59.5498
  0
LINE
  8
0
 10
-184.52
 20
59.5498
 11
-184.403
 21
59.596
  0
LINE
  8
0
 10
-184.403
 20
59.596
 11
-184.281
 21
59.6273
  0
LINE
  8
0
 10
-184.281
 20
59.6273
 11
-184.157
 21
59.643
  0
LINE
  8
0
 10
-184.157
 20
59.643
 11
-184.031
 21
59.643
  0
LINE
  8
0
 10
-184.031
 20
59.643
 11
-183.907
 21
59.6273
  0
LINE
  8
0
 10
-183.907
 20
59.6273
 11
-183.785
 21
59.596
  0
LINE
  8
0
 10
-183.785
 20
59.596
 11
-183.668
 21
59.5498
  0
LINE
  8
0
 10
-183.668
 20
59.5498
 11
-183.558
 21
59.4893
  0
LINE
  8
0
 10
-183.558
 20
59.4893
 11
-183.457
 21
59.4155
  0
LINE
  8
0
 10
-183.457
 20
59.4155
 11
-183.365
 21
59.3295
  0
LINE
  8
0
 10
-183.365
 20
59.3295
 11
-183.285
 21
59.2328
  0
LINE
  8
0
 10
-183.285
 20
59.2328
 11
-183.218
 21
59.1267
  0
LINE
  8
0
 10
-183.218
 20
59.1267
 11
-183.164
 21
59.0131
  0
LINE
  8
0
 10
-183.164
 20
59.0131
 11
-183.125
 21
58.8937
  0
LINE
  8
0
 10
-183.125
 20
58.8937
 11
-183.102
 21
58.7703
  0
LINE
  8
0
 10
-183.102
 20
58.7703
 11
-183.094
 21
58.645
  0
LINE
  8
0
 10
-183.094
 20
58.645
 11
-183.102
 21
58.5197
  0
LINE
  8
0
 10
-183.102
 20
58.5197
 11
-183.125
 21
58.3963
  0
LINE
  8
0
 10
-183.125
 20
58.3963
 11
-183.164
 21
58.2769
  0
LINE
  8
0
 10
-183.164
 20
58.2769
 11
-183.218
 21
58.1632
  0
LINE
  8
0
 10
-183.218
 20
58.1632
 11
-183.285
 21
58.0572
  0
LINE
  8
0
 10
-183.285
 20
58.0572
 11
-183.365
 21
57.9604
  0
LINE
  8
0
 10
-183.365
 20
57.9604
 11
-183.457
 21
57.8745
  0
LINE
  8
0
 10
-183.457
 20
57.8745
 11
-183.558
 21
57.8007
  0
LINE
  8
0
 10
-183.558
 20
57.8007
 11
-183.668
 21
57.7402
  0
LINE
  8
0
 10
-183.668
 20
57.7402
 11
-183.785
 21
57.6939
  0
LINE
  8
0
 10
-183.785
 20
57.6939
 11
-183.907
 21
57.6627
  0
LINE
  8
0
 10
-183.907
 20
57.6627
 11
-184.031
 21
57.647
  0
LINE
  8
0
 10
-184.031
 20
57.647
 11
-184.157
 21
57.647
  0
LINE
  8
0
 10
182.582
 20
57.259
 11
182.458
 21
57.2747
  0
LINE
  8
0
 10
182.458
 20
57.2747
 11
182.336
 21
57.3059
  0
LINE
  8
0
 10
182.336
 20
57.3059
 11
182.219
 21
57.3522
  0
LINE
  8
0
 10
182.219
 20
57.3522
 11
182.109
 21
57.4127
  0
LINE
  8
0
 10
182.109
 20
57.4127
 11
182.008
 21
57.4865
  0
LINE
  8
0
 10
182.008
 20
57.4865
 11
181.916
 21
57.5724
  0
LINE
  8
0
 10
181.916
 20
57.5724
 11
181.836
 21
57.6692
  0
LINE
  8
0
 10
181.836
 20
57.6692
 11
181.769
 21
57.7752
  0
LINE
  8
0
 10
181.769
 20
57.7752
 11
181.715
 21
57.8889
  0
LINE
  8
0
 10
181.715
 20
57.8889
 11
181.676
 21
58.0083
  0
LINE
  8
0
 10
181.676
 20
58.0083
 11
181.653
 21
58.1317
  0
LINE
  8
0
 10
181.653
 20
58.1317
 11
181.645
 21
58.257
  0
LINE
  8
0
 10
181.645
 20
58.257
 11
181.653
 21
58.3823
  0
LINE
  8
0
 10
181.653
 20
58.3823
 11
181.676
 21
58.5057
  0
LINE
  8
0
 10
181.676
 20
58.5057
 11
181.715
 21
58.6251
  0
LINE
  8
0
 10
181.715
 20
58.6251
 11
181.769
 21
58.7387
  0
LINE
  8
0
 10
181.769
 20
58.7387
 11
181.836
 21
58.8448
  0
LINE
  8
0
 10
181.836
 20
58.8448
 11
181.916
 21
58.9415
  0
LINE
  8
0
 10
181.916
 20
58.9415
 11
182.008
 21
59.0275
  0
LINE
  8
0
 10
182.008
 20
59.0275
 11
182.109
 21
59.1013
  0
LINE
  8
0
 10
182.109
 20
59.1013
 11
182.219
 21
59.1618
  0
LINE
  8
0
 10
182.219
 20
59.1618
 11
182.336
 21
59.208
  0
LINE
  8
0
 10
182.336
 20
59.208
 11
182.458
 21
59.2393
  0
LINE
  8
0
 10
182.458
 20
59.2393
 11
182.582
 21
59.255
  0
LINE
  8
0
 10
182.582
 20
59.255
 11
182.708
 21
59.255
  0
LINE
  8
0
 10
182.708
 20
59.255
 11
182.832
 21
59.2393
  0
LINE
  8
0
 10
182.832
 20
59.2393
 11
182.954
 21
59.208
  0
LINE
  8
0
 10
182.954
 20
59.208
 11
183.071
 21
59.1618
  0
LINE
  8
0
 10
183.071
 20
59.1618
 11
183.181
 21
59.1013
  0
LINE
  8
0
 10
183.181
 20
59.1013
 11
183.282
 21
59.0275
  0
LINE
  8
0
 10
183.282
 20
59.0275
 11
183.374
 21
58.9415
  0
LINE
  8
0
 10
183.374
 20
58.9415
 11
183.454
 21
58.8448
  0
LINE
  8
0
 10
183.454
 20
58.8448
 11
183.521
 21
58.7387
  0
LINE
  8
0
 10
183.521
 20
58.7387
 11
183.575
 21
58.6251
  0
LINE
  8
0
 10
183.575
 20
58.6251
 11
183.614
 21
58.5057
  0
LINE
  8
0
 10
183.614
 20
58.5057
 11
183.637
 21
58.3823
  0
LINE
  8
0
 10
183.637
 20
58.3823
 11
183.645
 21
58.257
  0
LINE
  8
0
 10
183.645
 20
58.257
 11
183.637
 21
58.1317
  0
LINE
  8
0
 10
183.637
 20
58.1317
 11
183.614
 21
58.0083
  0
LINE
  8
0
 10
183.614
 20
58.0083
 11
183.575
 21
57.8889
  0
LINE
  8
0
 10
183.575
 20
57.8889
 11
183.521
 21
57.7752
  0
LINE
  8
0
 10
183.521
 20
57.7752
 11
183.454
 21
57.6692
  0
LINE
  8
0
 10
183.454
 20
57.6692
 11
183.374
 21
57.5724
  0
LINE
  8
0
 10
183.374
 20
57.5724
 11
183.282
 21
57.4865
  0
LINE
  8
0
 10
183.282
 20
57.4865
 11
183.181
 21
57.4127
  0
LINE
  8
0
 10
183.181
 20
57.4127
 11
183.071
 21
57.3522
  0
LINE
  8
0
 10
183.071
 20
57.3522
 11
182.954
 21
57.3059
  0
LINE
  8
0
 10
182.954
 20
57.3059
 11
182.832
 21
57.2747
  0
LINE
  8
0
 10
182.832
 20
57.2747
 11
182.708
 21
57.259
  0
LINE
  8
0
 10
182.708
 20
57.259
 11
182.582
 21
57.259
  0
LINE
  8
0
 10
-153.165
 20
45.6513
 11
-153.203
 21
45.655
  0
LINE
  8
0
 10
-153.203
 20
45.655
 11
-153.242
 21
45.6616
  0
LINE
  8
0
 10
-153.242
 20
45.6616
 11
-153.283
 21
45.6712
  0
LINE
  8
0
 10
-153.283
 20
45.6712
 11
-153.357
 21
45.6948
  0
LINE
  8
0
 10
-153.357
 20
45.6948
 11
-153.396
 21
45.711
  0
LINE
  8
0
 10
-153.396
 20
45.711
 11
-152.937
 21
47.4225
  0
LINE
  8
0
 10
-152.937
 20
47.4225
 11
-152.914
 21
47.4207
  0
LINE
  8
0
 10
-152.914
 20
47.4207
 11
-152.848
 21
47.4092
  0
LINE
  8
0
 10
-152.848
 20
47.4092
 11
-152.776
 21
47.3893
  0
LINE
  8
0
 10
-152.776
 20
47.3893
 11
-152.739
 21
47.3757
  0
LINE
  8
0
 10
-152.739
 20
47.3757
 11
-152.705
 21
47.3604
  0
LINE
  8
0
 10
-152.705
 20
47.3604
 11
-152.673
 21
47.3431
  0
LINE
  8
0
 10
-152.673
 20
47.3431
 11
-152.644
 21
47.3241
  0
LINE
  8
0
 10
-152.644
 20
47.3241
 11
-152.618
 21
47.3033
  0
LINE
  8
0
 10
-152.618
 20
47.3033
 11
-152.594
 21
47.2807
  0
LINE
  8
0
 10
-152.594
 20
47.2807
 11
-152.572
 21
47.2563
  0
LINE
  8
0
 10
-152.572
 20
47.2563
 11
-152.553
 21
47.2301
  0
LINE
  8
0
 10
-152.553
 20
47.2301
 11
-152.535
 21
47.2023
  0
LINE
  8
0
 10
-152.535
 20
47.2023
 11
-152.52
 21
47.1726
  0
LINE
  8
0
 10
-152.52
 20
47.1726
 11
-152.507
 21
47.1412
  0
LINE
  8
0
 10
-152.507
 20
47.1412
 11
-152.496
 21
47.1081
  0
LINE
  8
0
 10
-152.496
 20
47.1081
 11
-152.488
 21
47.0732
  0
LINE
  8
0
 10
-152.488
 20
47.0732
 11
-152.481
 21
47.0366
  0
LINE
  8
0
 10
-152.481
 20
47.0366
 11
-152.476
 21
46.9983
  0
LINE
  8
0
 10
-152.476
 20
46.9983
 11
-152.472
 21
46.9168
  0
LINE
  8
0
 10
-152.472
 20
46.9168
 11
-152.475
 21
46.8287
  0
LINE
  8
0
 10
-152.475
 20
46.8287
 11
-152.486
 21
46.7344
  0
LINE
  8
0
 10
-152.486
 20
46.7344
 11
-152.503
 21
46.6338
  0
LINE
  8
0
 10
-152.503
 20
46.6338
 11
-152.525
 21
46.5266
  0
LINE
  8
0
 10
-152.525
 20
46.5266
 11
-152.57
 21
46.3546
  0
LINE
  8
0
 10
-152.57
 20
46.3546
 11
-152.604
 21
46.2443
  0
LINE
  8
0
 10
-152.604
 20
46.2443
 11
-152.639
 21
46.1425
  0
LINE
  8
0
 10
-152.639
 20
46.1425
 11
-152.676
 21
46.0491
  0
LINE
  8
0
 10
-152.676
 20
46.0491
 11
-152.716
 21
45.9652
  0
LINE
  8
0
 10
-152.716
 20
45.9652
 11
-152.759
 21
45.8906
  0
LINE
  8
0
 10
-152.759
 20
45.8906
 11
-152.782
 21
45.8568
  0
LINE
  8
0
 10
-152.782
 20
45.8568
 11
-152.805
 21
45.8254
  0
LINE
  8
0
 10
-152.805
 20
45.8254
 11
-152.83
 21
45.7963
  0
LINE
  8
0
 10
-152.83
 20
45.7963
 11
-152.855
 21
45.7698
  0
LINE
  8
0
 10
-152.855
 20
45.7698
 11
-152.881
 21
45.746
  0
LINE
  8
0
 10
-152.881
 20
45.746
 11
-152.908
 21
45.7248
  0
LINE
  8
0
 10
-152.908
 20
45.7248
 11
-152.937
 21
45.7062
  0
LINE
  8
0
 10
-152.937
 20
45.7062
 11
-152.966
 21
45.6902
  0
LINE
  8
0
 10
-152.966
 20
45.6902
 11
-152.996
 21
45.6767
  0
LINE
  8
0
 10
-152.996
 20
45.6767
 11
-153.027
 21
45.6659
  0
LINE
  8
0
 10
-153.027
 20
45.6659
 11
-153.06
 21
45.6579
  0
LINE
  8
0
 10
-153.06
 20
45.6579
 11
-153.094
 21
45.6528
  0
LINE
  8
0
 10
-153.094
 20
45.6528
 11
-153.129
 21
45.6506
  0
LINE
  8
0
 10
-153.129
 20
45.6506
 11
-153.165
 21
45.6513
  0
LINE
  8
0
 10
151.325
 20
46.3328
 11
151.316
 21
46.3877
  0
LINE
  8
0
 10
151.316
 20
46.3877
 11
151.309
 21
46.4402
  0
LINE
  8
0
 10
151.309
 20
46.4402
 11
151.305
 21
46.4904
  0
LINE
  8
0
 10
151.305
 20
46.4904
 11
151.304
 21
46.5381
  0
LINE
  8
0
 10
151.304
 20
46.5381
 11
151.306
 21
46.5835
  0
LINE
  8
0
 10
151.306
 20
46.5835
 11
151.31
 21
46.6264
  0
LINE
  8
0
 10
151.31
 20
46.6264
 11
151.324
 21
46.7065
  0
LINE
  8
0
 10
151.324
 20
46.7065
 11
151.334
 21
46.7434
  0
LINE
  8
0
 10
151.334
 20
46.7434
 11
151.345
 21
46.7784
  0
LINE
  8
0
 10
151.345
 20
46.7784
 11
151.358
 21
46.8113
  0
LINE
  8
0
 10
151.358
 20
46.8113
 11
151.372
 21
46.8422
  0
LINE
  8
0
 10
151.372
 20
46.8422
 11
151.388
 21
46.8711
  0
LINE
  8
0
 10
151.388
 20
46.8711
 11
151.425
 21
46.9239
  0
LINE
  8
0
 10
151.425
 20
46.9239
 11
151.465
 21
46.9697
  0
LINE
  8
0
 10
151.465
 20
46.9697
 11
151.487
 21
46.9898
  0
LINE
  8
0
 10
151.487
 20
46.9898
 11
151.51
 21
47.0082
  0
LINE
  8
0
 10
151.51
 20
47.0082
 11
151.558
 21
47.04
  0
LINE
  8
0
 10
151.558
 20
47.04
 11
151.608
 21
47.0663
  0
LINE
  8
0
 10
151.608
 20
47.0663
 11
151.656
 21
47.0873
  0
LINE
  8
0
 10
151.656
 20
47.0873
 11
151.705
 21
47.103
  0
LINE
  8
0
 10
151.705
 20
47.103
 11
151.777
 21
47.1186
  0
LINE
  8
0
 10
151.777
 20
47.1186
 11
151.845
 21
47.1262
  0
LINE
  8
0
 10
151.845
 20
47.1262
 11
151.911
 21
47.1259
  0
LINE
  8
0
 10
151.911
 20
47.1259
 11
151.973
 21
47.1176
  0
LINE
  8
0
 10
151.973
 20
47.1176
 11
151.985
 21
47.1144
  0
LINE
  8
0
 10
151.985
 20
47.1144
 11
152.151
 21
46.4937
  0
LINE
  8
0
 10
152.151
 20
46.4937
 11
151.337
 21
46.2754
  0
LINE
  8
0
 10
151.337
 20
46.2754
 11
151.325
 21
46.3328
  0
LINE
  8
0
 10
151.986
 20
45.3552
 11
151.949
 21
45.3594
  0
LINE
  8
0
 10
151.949
 20
45.3594
 11
151.913
 21
45.3665
  0
LINE
  8
0
 10
151.913
 20
45.3665
 11
151.878
 21
45.3762
  0
LINE
  8
0
 10
151.878
 20
45.3762
 11
151.844
 21
45.3883
  0
LINE
  8
0
 10
151.844
 20
45.3883
 11
151.811
 21
45.4027
  0
LINE
  8
0
 10
151.811
 20
45.4027
 11
151.779
 21
45.4195
  0
LINE
  8
0
 10
151.779
 20
45.4195
 11
151.749
 21
45.4387
  0
LINE
  8
0
 10
151.749
 20
45.4387
 11
151.719
 21
45.4602
  0
LINE
  8
0
 10
151.719
 20
45.4602
 11
151.691
 21
45.484
  0
LINE
  8
0
 10
151.691
 20
45.484
 11
151.663
 21
45.5104
  0
LINE
  8
0
 10
151.663
 20
45.5104
 11
151.637
 21
45.5387
  0
LINE
  8
0
 10
151.637
 20
45.5387
 11
151.611
 21
45.5692
  0
LINE
  8
0
 10
151.611
 20
45.5692
 11
151.587
 21
45.6016
  0
LINE
  8
0
 10
151.587
 20
45.6016
 11
151.54
 21
45.6727
  0
LINE
  8
0
 10
151.54
 20
45.6727
 11
151.519
 21
45.7113
  0
LINE
  8
0
 10
151.519
 20
45.7113
 11
151.48
 21
45.7943
  0
LINE
  8
0
 10
151.48
 20
45.7943
 11
151.444
 21
45.883
  0
LINE
  8
0
 10
151.444
 20
45.883
 11
151.413
 21
45.9776
  0
LINE
  8
0
 10
151.413
 20
45.9776
 11
151.399
 21
46.0271
  0
LINE
  8
0
 10
151.399
 20
46.0271
 11
152.218
 21
46.2464
  0
LINE
  8
0
 10
152.218
 20
46.2464
 11
152.422
 21
45.4844
  0
LINE
  8
0
 10
152.422
 20
45.4844
 11
152.405
 21
45.4719
  0
LINE
  8
0
 10
152.405
 20
45.4719
 11
152.358
 21
45.4433
  0
LINE
  8
0
 10
152.358
 20
45.4433
 11
152.307
 21
45.4181
  0
LINE
  8
0
 10
152.307
 20
45.4181
 11
152.25
 21
45.3961
  0
LINE
  8
0
 10
152.25
 20
45.3961
 11
152.189
 21
45.3774
  0
LINE
  8
0
 10
152.189
 20
45.3774
 11
152.146
 21
45.3672
  0
LINE
  8
0
 10
152.146
 20
45.3672
 11
152.104
 21
45.3599
  0
LINE
  8
0
 10
152.104
 20
45.3599
 11
152.064
 21
45.3554
  0
LINE
  8
0
 10
152.064
 20
45.3554
 11
152.024
 21
45.3539
  0
LINE
  8
0
 10
152.024
 20
45.3539
 11
151.986
 21
45.3552
  0
LINE
  8
0
 10
-127.22
 20
30.589
 11
-127.344
 21
30.6047
  0
LINE
  8
0
 10
-127.344
 20
30.6047
 11
-127.466
 21
30.6359
  0
LINE
  8
0
 10
-127.466
 20
30.6359
 11
-127.583
 21
30.6822
  0
LINE
  8
0
 10
-127.583
 20
30.6822
 11
-127.693
 21
30.7427
  0
LINE
  8
0
 10
-127.693
 20
30.7427
 11
-127.794
 21
30.8165
  0
LINE
  8
0
 10
-127.794
 20
30.8165
 11
-127.886
 21
30.9025
  0
LINE
  8
0
 10
-127.886
 20
30.9025
 11
-127.966
 21
30.9992
  0
LINE
  8
0
 10
-127.966
 20
30.9992
 11
-128.033
 21
31.1052
  0
LINE
  8
0
 10
-128.033
 20
31.1052
 11
-128.087
 21
31.2189
  0
LINE
  8
0
 10
-128.087
 20
31.2189
 11
-128.126
 21
31.3383
  0
LINE
  8
0
 10
-128.126
 20
31.3383
 11
-128.149
 21
31.4617
  0
LINE
  8
0
 10
-128.149
 20
31.4617
 11
-128.157
 21
31.587
  0
LINE
  8
0
 10
-128.157
 20
31.587
 11
-128.149
 21
31.7123
  0
LINE
  8
0
 10
-128.149
 20
31.7123
 11
-128.126
 21
31.8357
  0
LINE
  8
0
 10
-128.126
 20
31.8357
 11
-128.087
 21
31.9551
  0
LINE
  8
0
 10
-128.087
 20
31.9551
 11
-128.033
 21
32.0687
  0
LINE
  8
0
 10
-128.033
 20
32.0687
 11
-127.966
 21
32.1748
  0
LINE
  8
0
 10
-127.966
 20
32.1748
 11
-127.886
 21
32.2715
  0
LINE
  8
0
 10
-127.886
 20
32.2715
 11
-127.794
 21
32.3575
  0
LINE
  8
0
 10
-127.794
 20
32.3575
 11
-127.693
 21
32.4313
  0
LINE
  8
0
 10
-127.693
 20
32.4313
 11
-127.583
 21
32.4918
  0
LINE
  8
0
 10
-127.583
 20
32.4918
 11
-127.466
 21
32.538
  0
LINE
  8
0
 10
-127.466
 20
32.538
 11
-127.344
 21
32.5693
  0
LINE
  8
0
 10
-127.344
 20
32.5693
 11
-127.22
 21
32.585
  0
LINE
  8
0
 10
-127.22
 20
32.585
 11
-127.094
 21
32.585
  0
LINE
  8
0
 10
-127.094
 20
32.585
 11
-126.97
 21
32.5693
  0
LINE
  8
0
 10
-126.97
 20
32.5693
 11
-126.848
 21
32.538
  0
LINE
  8
0
 10
-126.848
 20
32.538
 11
-126.731
 21
32.4918
  0
LINE
  8
0
 10
-126.731
 20
32.4918
 11
-126.621
 21
32.4313
  0
LINE
  8
0
 10
-126.621
 20
32.4313
 11
-126.52
 21
32.3575
  0
LINE
  8
0
 10
-126.52
 20
32.3575
 11
-126.428
 21
32.2715
  0
LINE
  8
0
 10
-126.428
 20
32.2715
 11
-126.348
 21
32.1748
  0
LINE
  8
0
 10
-126.348
 20
32.1748
 11
-126.281
 21
32.0687
  0
LINE
  8
0
 10
-126.281
 20
32.0687
 11
-126.227
 21
31.9551
  0
LINE
  8
0
 10
-126.227
 20
31.9551
 11
-126.188
 21
31.8357
  0
LINE
  8
0
 10
-126.188
 20
31.8357
 11
-126.165
 21
31.7123
  0
LINE
  8
0
 10
-126.165
 20
31.7123
 11
-126.157
 21
31.587
  0
LINE
  8
0
 10
-126.157
 20
31.587
 11
-126.165
 21
31.4617
  0
LINE
  8
0
 10
-126.165
 20
31.4617
 11
-126.188
 21
31.3383
  0
LINE
  8
0
 10
-126.188
 20
31.3383
 11
-126.227
 21
31.2189
  0
LINE
  8
0
 10
-126.227
 20
31.2189
 11
-126.281
 21
31.1052
  0
LINE
  8
0
 10
-126.281
 20
31.1052
 11
-126.348
 21
30.9992
  0
LINE
  8
0
 10
-126.348
 20
30.9992
 11
-126.428
 21
30.9025
  0
LINE
  8
0
 10
-126.428
 20
30.9025
 11
-126.52
 21
30.8165
  0
LINE
  8
0
 10
-126.52
 20
30.8165
 11
-126.621
 21
30.7427
  0
LINE
  8
0
 10
-126.621
 20
30.7427
 11
-126.731
 21
30.6822
  0
LINE
  8
0
 10
-126.731
 20
30.6822
 11
-126.848
 21
30.6359
  0
LINE
  8
0
 10
-126.848
 20
30.6359
 11
-126.97
 21
30.6047
  0
LINE
  8
0
 10
-126.97
 20
30.6047
 11
-127.094
 21
30.589
  0
LINE
  8
0
 10
-127.094
 20
30.589
 11
-127.22
 21
30.589
  0
LINE
  8
0
 10
126.129
 20
30.33
 11
126.005
 21
30.3457
  0
LINE
  8
0
 10
126.005
 20
30.3457
 11
125.883
 21
30.3769
  0
LINE
  8
0
 10
125.883
 20
30.3769
 11
125.766
 21
30.4232
  0
LINE
  8
0
 10
125.766
 20
30.4232
 11
125.656
 21
30.4837
  0
LINE
  8
0
 10
125.656
 20
30.4837
 11
125.555
 21
30.5575
  0
LINE
  8
0
 10
125.555
 20
30.5575
 11
125.463
 21
30.6434
  0
LINE
  8
0
 10
125.463
 20
30.6434
 11
125.383
 21
30.7402
  0
LINE
  8
0
 10
125.383
 20
30.7402
 11
125.316
 21
30.8462
  0
LINE
  8
0
 10
125.316
 20
30.8462
 11
125.262
 21
30.9599
  0
LINE
  8
0
 10
125.262
 20
30.9599
 11
125.223
 21
31.0793
  0
LINE
  8
0
 10
125.223
 20
31.0793
 11
125.2
 21
31.2027
  0
LINE
  8
0
 10
125.2
 20
31.2027
 11
125.192
 21
31.328
  0
LINE
  8
0
 10
125.192
 20
31.328
 11
125.2
 21
31.4533
  0
LINE
  8
0
 10
125.2
 20
31.4533
 11
125.223
 21
31.5767
  0
LINE
  8
0
 10
125.223
 20
31.5767
 11
125.262
 21
31.6961
  0
LINE
  8
0
 10
125.262
 20
31.6961
 11
125.316
 21
31.8097
  0
LINE
  8
0
 10
125.316
 20
31.8097
 11
125.383
 21
31.9158
  0
LINE
  8
0
 10
125.383
 20
31.9158
 11
125.463
 21
32.0125
  0
LINE
  8
0
 10
125.463
 20
32.0125
 11
125.555
 21
32.0985
  0
LINE
  8
0
 10
125.555
 20
32.0985
 11
125.656
 21
32.1723
  0
LINE
  8
0
 10
125.656
 20
32.1723
 11
125.766
 21
32.2328
  0
LINE
  8
0
 10
125.766
 20
32.2328
 11
125.883
 21
32.279
  0
LINE
  8
0
 10
125.883
 20
32.279
 11
126.005
 21
32.3103
  0
LINE
  8
0
 10
126.005
 20
32.3103
 11
126.129
 21
32.326
  0
LINE
  8
0
 10
126.129
 20
32.326
 11
126.255
 21
32.326
  0
LINE
  8
0
 10
126.255
 20
32.326
 11
126.379
 21
32.3103
  0
LINE
  8
0
 10
126.379
 20
32.3103
 11
126.501
 21
32.279
  0
LINE
  8
0
 10
126.501
 20
32.279
 11
126.618
 21
32.2328
  0
LINE
  8
0
 10
126.618
 20
32.2328
 11
126.728
 21
32.1723
  0
LINE
  8
0
 10
126.728
 20
32.1723
 11
126.829
 21
32.0985
  0
LINE
  8
0
 10
126.829
 20
32.0985
 11
126.921
 21
32.0125
  0
LINE
  8
0
 10
126.921
 20
32.0125
 11
127.001
 21
31.9158
  0
LINE
  8
0
 10
127.001
 20
31.9158
 11
127.068
 21
31.8097
  0
LINE
  8
0
 10
127.068
 20
31.8097
 11
127.122
 21
31.6961
  0
LINE
  8
0
 10
127.122
 20
31.6961
 11
127.161
 21
31.5767
  0
LINE
  8
0
 10
127.161
 20
31.5767
 11
127.184
 21
31.4533
  0
LINE
  8
0
 10
127.184
 20
31.4533
 11
127.192
 21
31.328
  0
LINE
  8
0
 10
127.192
 20
31.328
 11
127.184
 21
31.2027
  0
LINE
  8
0
 10
127.184
 20
31.2027
 11
127.161
 21
31.0793
  0
LINE
  8
0
 10
127.161
 20
31.0793
 11
127.122
 21
30.9599
  0
LINE
  8
0
 10
127.122
 20
30.9599
 11
127.068
 21
30.8462
  0
LINE
  8
0
 10
127.068
 20
30.8462
 11
127.001
 21
30.7402
  0
LINE
  8
0
 10
127.001
 20
30.7402
 11
126.921
 21
30.6434
  0
LINE
  8
0
 10
126.921
 20
30.6434
 11
126.829
 21
30.5575
  0
LINE
  8
0
 10
126.829
 20
30.5575
 11
126.728
 21
30.4837
  0
LINE
  8
0
 10
126.728
 20
30.4837
 11
126.618
 21
30.4232
  0
LINE
  8
0
 10
126.618
 20
30.4232
 11
126.501
 21
30.3769
  0
LINE
  8
0
 10
126.501
 20
30.3769
 11
126.379
 21
30.3457
  0
LINE
  8
0
 10
126.379
 20
30.3457
 11
126.255
 21
30.33
  0
LINE
  8
0
 10
126.255
 20
30.33
 11
126.129
 21
30.33
  0
LINE
  8
0
 10
-93.9048
 20
4.62398
 11
-94.0294
 21
4.63971
  0
LINE
  8
0
 10
-94.0294
 20
4.63971
 11
-94.151
 21
4.67094
  0
LINE
  8
0
 10
-94.151
 20
4.67094
 11
-94.2678
 21
4.71718
  0
LINE
  8
0
 10
-94.2678
 20
4.71718
 11
-94.3778
 21
4.77768
  0
LINE
  8
0
 10
-94.3778
 20
4.77768
 11
-94.4794
 21
4.85149
  0
LINE
  8
0
 10
-94.4794
 20
4.85149
 11
-94.571
 21
4.93745
  0
LINE
  8
0
 10
-94.571
 20
4.93745
 11
-94.651
 21
5.03421
  0
LINE
  8
0
 10
-94.651
 20
5.03421
 11
-94.7183
 21
5.14024
  0
LINE
  8
0
 10
-94.7183
 20
5.14024
 11
-94.7718
 21
5.25388
  0
LINE
  8
0
 10
-94.7718
 20
5.25388
 11
-94.8106
 21
5.37331
  0
LINE
  8
0
 10
-94.8106
 20
5.37331
 11
-94.8341
 21
5.49667
  0
LINE
  8
0
 10
-94.8341
 20
5.49667
 11
-94.842
 21
5.62199
  0
LINE
  8
0
 10
-94.842
 20
5.62199
 11
-94.8341
 21
5.74731
  0
LINE
  8
0
 10
-94.8341
 20
5.74731
 11
-94.8106
 21
5.87068
  0
LINE
  8
0
 10
-94.8106
 20
5.87068
 11
-94.7718
 21
5.99011
  0
LINE
  8
0
 10
-94.7718
 20
5.99011
 11
-94.7183
 21
6.10374
  0
LINE
  8
0
 10
-94.7183
 20
6.10374
 11
-94.651
 21
6.20978
  0
LINE
  8
0
 10
-94.651
 20
6.20978
 11
-94.571
 21
6.30653
  0
LINE
  8
0
 10
-94.571
 20
6.30653
 11
-94.4794
 21
6.3925
  0
LINE
  8
0
 10
-94.4794
 20
6.3925
 11
-94.3778
 21
6.46631
  0
LINE
  8
0
 10
-94.3778
 20
6.46631
 11
-94.2678
 21
6.52681
  0
LINE
  8
0
 10
-94.2678
 20
6.52681
 11
-94.151
 21
6.57304
  0
LINE
  8
0
 10
-94.151
 20
6.57304
 11
-94.0294
 21
6.60428
  0
LINE
  8
0
 10
-94.0294
 20
6.60428
 11
-93.9048
 21
6.62001
  0
LINE
  8
0
 10
-93.9048
 20
6.62001
 11
-93.7792
 21
6.62001
  0
LINE
  8
0
 10
-93.7792
 20
6.62001
 11
-93.6546
 21
6.60428
  0
LINE
  8
0
 10
-93.6546
 20
6.60428
 11
-93.533
 21
6.57304
  0
LINE
  8
0
 10
-93.533
 20
6.57304
 11
-93.4162
 21
6.52681
  0
LINE
  8
0
 10
-93.4162
 20
6.52681
 11
-93.3062
 21
6.46631
  0
LINE
  8
0
 10
-93.3062
 20
6.46631
 11
-93.2046
 21
6.3925
  0
LINE
  8
0
 10
-93.2046
 20
6.3925
 11
-93.113
 21
6.30653
  0
LINE
  8
0
 10
-93.113
 20
6.30653
 11
-93.033
 21
6.20978
  0
LINE
  8
0
 10
-93.033
 20
6.20978
 11
-92.9657
 21
6.10374
  0
LINE
  8
0
 10
-92.9657
 20
6.10374
 11
-92.9122
 21
5.99011
  0
LINE
  8
0
 10
-92.9122
 20
5.99011
 11
-92.8734
 21
5.87068
  0
LINE
  8
0
 10
-92.8734
 20
5.87068
 11
-92.8499
 21
5.74731
  0
LINE
  8
0
 10
-92.8499
 20
5.74731
 11
-92.842
 21
5.62199
  0
LINE
  8
0
 10
-92.842
 20
5.62199
 11
-92.8499
 21
5.49667
  0
LINE
  8
0
 10
-92.8499
 20
5.49667
 11
-92.8734
 21
5.37331
  0
LINE
  8
0
 10
-92.8734
 20
5.37331
 11
-92.9122
 21
5.25388
  0
LINE
  8
0
 10
-92.9122
 20
5.25388
 11
-92.9657
 21
5.14024
  0
LINE
  8
0
 10
-92.9657
 20
5.14024
 11
-93.033
 21
5.03421
  0
LINE
  8
0
 10
-93.033
 20
5.03421
 11
-93.113
 21
4.93745
  0
LINE
  8
0
 10
-93.113
 20
4.93745
 11
-93.2046
 21
4.85149
  0
LINE
  8
0
 10
-93.2046
 20
4.85149
 11
-93.3062
 21
4.77768
  0
LINE
  8
0
 10
-93.3062
 20
4.77768
 11
-93.4162
 21
4.71718
  0
LINE
  8
0
 10
-93.4162
 20
4.71718
 11
-93.533
 21
4.67094
  0
LINE
  8
0
 10
-93.533
 20
4.67094
 11
-93.6546
 21
4.63971
  0
LINE
  8
0
 10
-93.6546
 20
4.63971
 11
-93.7792
 21
4.62398
  0
LINE
  8
0
 10
-93.7792
 20
4.62398
 11
-93.9048
 21
4.62398
  0
LINE
  8
0
 10
92.8182
 20
4.54398
 11
92.6936
 21
4.55971
  0
LINE
  8
0
 10
92.6936
 20
4.55971
 11
92.572
 21
4.59094
  0
LINE
  8
0
 10
92.572
 20
4.59094
 11
92.4552
 21
4.63718
  0
LINE
  8
0
 10
92.4552
 20
4.63718
 11
92.3452
 21
4.69768
  0
LINE
  8
0
 10
92.3452
 20
4.69768
 11
92.2436
 21
4.77148
  0
LINE
  8
0
 10
92.2436
 20
4.77148
 11
92.152
 21
4.85745
  0
LINE
  8
0
 10
92.152
 20
4.85745
 11
92.072
 21
4.95421
  0
LINE
  8
0
 10
92.072
 20
4.95421
 11
92.0047
 21
5.06024
  0
LINE
  8
0
 10
92.0047
 20
5.06024
 11
91.9512
 21
5.17387
  0
LINE
  8
0
 10
91.9512
 20
5.17387
 11
91.9124
 21
5.2933
  0
LINE
  8
0
 10
91.9124
 20
5.2933
 11
91.8889
 21
5.41667
  0
LINE
  8
0
 10
91.8889
 20
5.41667
 11
91.881
 21
5.54199
  0
LINE
  8
0
 10
91.881
 20
5.54199
 11
91.8889
 21
5.66731
  0
LINE
  8
0
 10
91.8889
 20
5.66731
 11
91.9124
 21
5.79068
  0
LINE
  8
0
 10
91.9124
 20
5.79068
 11
91.9512
 21
5.91011
  0
LINE
  8
0
 10
91.9512
 20
5.91011
 11
92.0047
 21
6.02374
  0
LINE
  8
0
 10
92.0047
 20
6.02374
 11
92.072
 21
6.12978
  0
LINE
  8
0
 10
92.072
 20
6.12978
 11
92.152
 21
6.22653
  0
LINE
  8
0
 10
92.152
 20
6.22653
 11
92.2436
 21
6.3125
  0
LINE
  8
0
 10
92.2436
 20
6.3125
 11
92.3452
 21
6.38631
  0
LINE
  8
0
 10
92.3452
 20
6.38631
 11
92.4552
 21
6.44681
  0
LINE
  8
0
 10
92.4552
 20
6.44681
 11
92.572
 21
6.49304
  0
LINE
  8
0
 10
92.572
 20
6.49304
 11
92.6936
 21
6.52428
  0
LINE
  8
0
 10
92.6936
 20
6.52428
 11
92.8182
 21
6.54001
  0
LINE
  8
0
 10
92.8182
 20
6.54001
 11
92.9438
 21
6.54001
  0
LINE
  8
0
 10
92.9438
 20
6.54001
 11
93.0684
 21
6.52428
  0
LINE
  8
0
 10
93.0684
 20
6.52428
 11
93.19
 21
6.49304
  0
LINE
  8
0
 10
93.19
 20
6.49304
 11
93.3068
 21
6.44681
  0
LINE
  8
0
 10
93.3068
 20
6.44681
 11
93.4168
 21
6.38631
  0
LINE
  8
0
 10
93.4168
 20
6.38631
 11
93.5184
 21
6.3125
  0
LINE
  8
0
 10
93.5184
 20
6.3125
 11
93.61
 21
6.22653
  0
LINE
  8
0
 10
93.61
 20
6.22653
 11
93.69
 21
6.12978
  0
LINE
  8
0
 10
93.69
 20
6.12978
 11
93.7573
 21
6.02374
  0
LINE
  8
0
 10
93.7573
 20
6.02374
 11
93.8108
 21
5.91011
  0
LINE
  8
0
 10
93.8108
 20
5.91011
 11
93.8496
 21
5.79068
  0
LINE
  8
0
 10
93.8496
 20
5.79068
 11
93.8731
 21
5.66731
  0
LINE
  8
0
 10
93.8731
 20
5.66731
 11
93.881
 21
5.54199
  0
LINE
  8
0
 10
93.881
 20
5.54199
 11
93.8731
 21
5.41667
  0
LINE
  8
0
 10
93.8731
 20
5.41667
 11
93.8496
 21
5.2933
  0
LINE
  8
0
 10
93.8496
 20
5.2933
 11
93.8108
 21
5.17387
  0
LINE
  8
0
 10
93.8108
 20
5.17387
 11
93.7573
 21
5.06024
  0
LINE
  8
0
 10
93.7573
 20
5.06024
 11
93.69
 21
4.95421
  0
LINE
  8
0
 10
93.69
 20
4.95421
 11
93.61
 21
4.85745
  0
LINE
  8
0
 10
93.61
 20
4.85745
 11
93.5184
 21
4.77148
  0
LINE
  8
0
 10
93.5184
 20
4.77148
 11
93.4168
 21
4.69768
  0
LINE
  8
0
 10
93.4168
 20
4.69768
 11
93.3068
 21
4.63718
  0
LINE
  8
0
 10
93.3068
 20
4.63718
 11
93.19
 21
4.59094
  0
LINE
  8
0
 10
93.19
 20
4.59094
 11
93.0684
 21
4.55971
  0
LINE
  8
0
 10
93.0684
 20
4.55971
 11
92.9438
 21
4.54398
  0
LINE
  8
0
 10
92.9438
 20
4.54398
 11
92.8182
 21
4.54398
  0
LINE
  8
0
 10
-57.9378
 20
-46.371
 11
-58.0624
 21
-46.3553
  0
LINE
  8
0
 10
-58.0624
 20
-46.3553
 11
-58.184
 21
-46.324
  0
LINE
  8
0
 10
-58.184
 20
-46.324
 11
-58.3008
 21
-46.2778
  0
LINE
  8
0
 10
-58.3008
 20
-46.2778
 11
-58.4108
 21
-46.2173
  0
LINE
  8
0
 10
-58.4108
 20
-46.2173
 11
-58.5124
 21
-46.1435
  0
LINE
  8
0
 10
-58.5124
 20
-46.1435
 11
-58.604
 21
-46.0575
  0
LINE
  8
0
 10
-58.604
 20
-46.0575
 11
-58.684
 21
-45.9608
  0
LINE
  8
0
 10
-58.684
 20
-45.9608
 11
-58.7513
 21
-45.8547
  0
LINE
  8
0
 10
-58.7513
 20
-45.8547
 11
-58.8048
 21
-45.7411
  0
LINE
  8
0
 10
-58.8048
 20
-45.7411
 11
-58.8436
 21
-45.6217
  0
LINE
  8
0
 10
-58.8436
 20
-45.6217
 11
-58.8671
 21
-45.4983
  0
LINE
  8
0
 10
-58.8671
 20
-45.4983
 11
-58.875
 21
-45.373
  0
LINE
  8
0
 10
-58.875
 20
-45.373
 11
-58.8671
 21
-45.2477
  0
LINE
  8
0
 10
-58.8671
 20
-45.2477
 11
-58.8436
 21
-45.1243
  0
LINE
  8
0
 10
-58.8436
 20
-45.1243
 11
-58.8048
 21
-45.0049
  0
LINE
  8
0
 10
-58.8048
 20
-45.0049
 11
-58.7513
 21
-44.8912
  0
LINE
  8
0
 10
-58.7513
 20
-44.8912
 11
-58.684
 21
-44.7852
  0
LINE
  8
0
 10
-58.684
 20
-44.7852
 11
-58.604
 21
-44.6884
  0
LINE
  8
0
 10
-58.604
 20
-44.6884
 11
-58.5124
 21
-44.6025
  0
LINE
  8
0
 10
-58.5124
 20
-44.6025
 11
-58.4108
 21
-44.5287
  0
LINE
  8
0
 10
-58.4108
 20
-44.5287
 11
-58.3008
 21
-44.4682
  0
LINE
  8
0
 10
-58.3008
 20
-44.4682
 11
-58.184
 21
-44.4219
  0
LINE
  8
0
 10
-58.184
 20
-44.4219
 11
-58.0624
 21
-44.3907
  0
LINE
  8
0
 10
-58.0624
 20
-44.3907
 11
-57.9378
 21
-44.375
  0
LINE
  8
0
 10
-57.9378
 20
-44.375
 11
-57.8122
 21
-44.375
  0
LINE
  8
0
 10
-57.8122
 20
-44.375
 11
-57.6876
 21
-44.3907
  0
LINE
  8
0
 10
-57.6876
 20
-44.3907
 11
-57.566
 21
-44.4219
  0
LINE
  8
0
 10
-57.566
 20
-44.4219
 11
-57.4492
 21
-44.4682
  0
LINE
  8
0
 10
-57.4492
 20
-44.4682
 11
-57.3392
 21
-44.5287
  0
LINE
  8
0
 10
-57.3392
 20
-44.5287
 11
-57.2376
 21
-44.6025
  0
LINE
  8
0
 10
-57.2376
 20
-44.6025
 11
-57.146
 21
-44.6884
  0
LINE
  8
0
 10
-57.146
 20
-44.6884
 11
-57.066
 21
-44.7852
  0
LINE
  8
0
 10
-57.066
 20
-44.7852
 11
-56.9987
 21
-44.8912
  0
LINE
  8
0
 10
-56.9987
 20
-44.8912
 11
-56.9452
 21
-45.0049
  0
LINE
  8
0
 10
-56.9452
 20
-45.0049
 11
-56.9064
 21
-45.1243
  0
LINE
  8
0
 10
-56.9064
 20
-45.1243
 11
-56.8829
 21
-45.2477
  0
LINE
  8
0
 10
-56.8829
 20
-45.2477
 11
-56.875
 21
-45.373
  0
LINE
  8
0
 10
-56.875
 20
-45.373
 11
-56.8829
 21
-45.4983
  0
LINE
  8
0
 10
-56.8829
 20
-45.4983
 11
-56.9064
 21
-45.6217
  0
LINE
  8
0
 10
-56.9064
 20
-45.6217
 11
-56.9452
 21
-45.7411
  0
LINE
  8
0
 10
-56.9452
 20
-45.7411
 11
-56.9987
 21
-45.8547
  0
LINE
  8
0
 10
-56.9987
 20
-45.8547
 11
-57.066
 21
-45.9608
  0
LINE
  8
0
 10
-57.066
 20
-45.9608
 11
-57.146
 21
-46.0575
  0
LINE
  8
0
 10
-57.146
 20
-46.0575
 11
-57.2376
 21
-46.1435
  0
LINE
  8
0
 10
-57.2376
 20
-46.1435
 11
-57.3392
 21
-46.2173
  0
LINE
  8
0
 10
-57.3392
 20
-46.2173
 11
-57.4492
 21
-46.2778
  0
LINE
  8
0
 10
-57.4492
 20
-46.2778
 11
-57.566
 21
-46.324
  0
LINE
  8
0
 10
-57.566
 20
-46.324
 11
-57.6876
 21
-46.3553
  0
LINE
  8
0
 10
-57.6876
 20
-46.3553
 11
-57.8122
 21
-46.371
  0
LINE
  8
0
 10
-57.8122
 20
-46.371
 11
-57.9378
 21
-46.371
  0
LINE
  8
0
 10
57.2262
 20
-46.787
 11
57.1016
 21
-46.7713
  0
LINE
  8
0
 10
57.1016
 20
-46.7713
 11
56.98
 21
-46.74
  0
LINE
  8
0
 10
56.98
 20
-46.74
 11
56.8632
 21
-46.6938
  0
LINE
  8
0
 10
56.8632
 20
-46.6938
 11
56.7532
 21
-46.6333
  0
LINE
  8
0
 10
56.7532
 20
-46.6333
 11
56.6516
 21
-46.5595
  0
LINE
  8
0
 10
56.6516
 20
-46.5595
 11
56.56
 21
-46.4735
  0
LINE
  8
0
 10
56.56
 20
-46.4735
 11
56.48
 21
-46.3768
  0
LINE
  8
0
 10
56.48
 20
-46.3768
 11
56.4127
 21
-46.2707
  0
LINE
  8
0
 10
56.4127
 20
-46.2707
 11
56.3592
 21
-46.1571
  0
LINE
  8
0
 10
56.3592
 20
-46.1571
 11
56.3204
 21
-46.0377
  0
LINE
  8
0
 10
56.3204
 20
-46.0377
 11
56.2969
 21
-45.9143
  0
LINE
  8
0
 10
56.2969
 20
-45.9143
 11
56.289
 21
-45.789
  0
LINE
  8
0
 10
56.289
 20
-45.789
 11
56.2969
 21
-45.6637
  0
LINE
  8
0
 10
56.2969
 20
-45.6637
 11
56.3204
 21
-45.5403
  0
LINE
  8
0
 10
56.3204
 20
-45.5403
 11
56.3592
 21
-45.4209
  0
LINE
  8
0
 10
56.3592
 20
-45.4209
 11
56.4127
 21
-45.3072
  0
LINE
  8
0
 10
56.4127
 20
-45.3072
 11
56.48
 21
-45.2012
  0
LINE
  8
0
 10
56.48
 20
-45.2012
 11
56.56
 21
-45.1044
  0
LINE
  8
0
 10
56.56
 20
-45.1044
 11
56.6516
 21
-45.0185
  0
LINE
  8
0
 10
56.6516
 20
-45.0185
 11
56.7532
 21
-44.9447
  0
LINE
  8
0
 10
56.7532
 20
-44.9447
 11
56.8632
 21
-44.8842
  0
LINE
  8
0
 10
56.8632
 20
-44.8842
 11
56.98
 21
-44.8379
  0
LINE
  8
0
 10
56.98
 20
-44.8379
 11
57.1016
 21
-44.8067
  0
LINE
  8
0
 10
57.1016
 20
-44.8067
 11
57.2262
 21
-44.791
  0
LINE
  8
0
 10
57.2262
 20
-44.791
 11
57.3518
 21
-44.791
  0
LINE
  8
0
 10
57.3518
 20
-44.791
 11
57.4764
 21
-44.8067
  0
LINE
  8
0
 10
57.4764
 20
-44.8067
 11
57.598
 21
-44.8379
  0
LINE
  8
0
 10
57.598
 20
-44.8379
 11
57.7148
 21
-44.8842
  0
LINE
  8
0
 10
57.7148
 20
-44.8842
 11
57.8248
 21
-44.9447
  0
LINE
  8
0
 10
57.8248
 20
-44.9447
 11
57.9264
 21
-45.0185
  0
LINE
  8
0
 10
57.9264
 20
-45.0185
 11
58.0179
 21
-45.1044
  0
LINE
  8
0
 10
58.0179
 20
-45.1044
 11
58.098
 21
-45.2012
  0
LINE
  8
0
 10
58.098
 20
-45.2012
 11
58.1653
 21
-45.3072
  0
LINE
  8
0
 10
58.1653
 20
-45.3072
 11
58.2188
 21
-45.4209
  0
LINE
  8
0
 10
58.2188
 20
-45.4209
 11
58.2576
 21
-45.5403
  0
LINE
  8
0
 10
58.2576
 20
-45.5403
 11
58.2811
 21
-45.6637
  0
LINE
  8
0
 10
58.2811
 20
-45.6637
 11
58.289
 21
-45.789
  0
LINE
  8
0
 10
58.289
 20
-45.789
 11
58.2811
 21
-45.9143
  0
LINE
  8
0
 10
58.2811
 20
-45.9143
 11
58.2576
 21
-46.0377
  0
LINE
  8
0
 10
58.2576
 20
-46.0377
 11
58.2188
 21
-46.1571
  0
LINE
  8
0
 10
58.2188
 20
-46.1571
 11
58.1653
 21
-46.2707
  0
LINE
  8
0
 10
58.1653
 20
-46.2707
 11
58.098
 21
-46.3768
  0
LINE
  8
0
 10
58.098
 20
-46.3768
 11
58.0179
 21
-46.4735
  0
LINE
  8
0
 10
58.0179
 20
-46.4735
 11
57.9264
 21
-46.5595
  0
LINE
  8
0
 10
57.9264
 20
-46.5595
 11
57.8248
 21
-46.6333
  0
LINE
  8
0
 10
57.8248
 20
-46.6333
 11
57.7148
 21
-46.6938
  0
LINE
  8
0
 10
57.7148
 20
-46.6938
 11
57.598
 21
-46.74
  0
LINE
  8
0
 10
57.598
 20
-46.74
 11
57.4764
 21
-46.7713
  0
LINE
  8
0
 10
57.4764
 20
-46.7713
 11
57.3518
 21
-46.787
  0
LINE
  8
0
 10
57.3518
 20
-46.787
 11
57.2262
 21
-46.787
  0
ENDSEC
  0
SECTION
  2
OBJECTS
  0
DICTIONARY
  0
ENDSEC
  0
EOF
